<?xml version="1.0" encoding="UTF-8" standalone="no"?>
<!DOCTYPE svg  PUBLIC '-//W3C//DTD SVG 1.1//EN'  'http://www.w3.org/Graphics/SVG/1.1/DTD/svg11.dtd'>
<svg xmlns="http://www.w3.org/2000/svg">
<defs>
<font id="NeoSansPro-Regular" horiz-adv-x="605">
<font-face underline-position="-21" font-weight="400" descent="-200" panose-1="2 11 5 4 3 5 4 4 2 4" units-per-em="1000" unicode-range="U+0020-2215" bbox="-123 -216 1394 980" x-height="550" underline-thickness="57" font-family="NeoSansPro" ascent="800" cap-height="743"/>
<missing-glyph horiz-adv-x="1000"/>
<glyph glyph-name=".notdef" horiz-adv-x="1000"/>
<glyph glyph-name=".null" horiz-adv-x="0"/>
<glyph glyph-name="nonmarkingreturn" horiz-adv-x="1000"/>
<glyph glyph-name="space" horiz-adv-x="247" unicode=" "/>
<glyph glyph-name="exclam" horiz-adv-x="217" unicode="!" d="M152 19q0 -19 -19 -19h-48q-8 0 -13.5 5.5t-5.5 13.5v94q0 8 5.5 13.5t13.5 5.5h48q8 0 13.5 -5.5t5.5 -13.5v-94zM146 213q0 -8 -5.5 -13.5t-13.5 -5.5h-36q-8 0 -14 5.5t-6 13.5l-7 520q0 8 6 13.5t14 5.5h50q8 0 14 -5.5t6 -13.5z"/>
<glyph glyph-name="quotedbl" horiz-adv-x="362" unicode='&quot;' d="M163 741q0 -5 -1 -8l-58 -189q-5 -19 -19 -19h-47q-9 0 -9 10q0 6 1 9l46 189q4 19 20 19h56q11 0 11 -11zM333 741q0 -5 -1 -8l-58 -189q-5 -19 -19 -19h-47q-9 0 -9 10q0 6 1 9l46 189q4 19 20 19h56q11 0 11 -11z"/>
<glyph glyph-name="numbersign" horiz-adv-x="660" unicode="#" d="M258 469l-18 -202h155l18 202h-155zM610 510l-2 -22q-2 -19 -20 -19h-97l-18 -202h98q8 0 12 -5.5t4 -13.5v-2l-2 -21q-2 -19 -20 -19h-98l-16 -187q-1 -8 -5.5 -13.5t-12.5 -5.5h-44q-8 0 -12 5t-4 12v2l16 187h-155l-16 -187q-1 -8 -5.5 -13.5t-12.5 -5.5h-45 q-7 0 -11.5 5t-4.5 12v2l16 187h-93q-8 0 -12 5.5t-4 13.5v2l2 21q2 19 20 19h93l18 202h-94q-8 0 -12 5.5t-4 13.5v2l2 22q2 19 20 19h93l17 193q1 8 6 13.5t13 5.5h45q7 0 11 -5t4 -12v-2l-17 -193h155l17 193q1 8 6 13.5t13 5.5h44q8 0 11.5 -5t3.5 -12v-2l-17 -193h98 q8 0 12 -5.5t4 -13.5v-2z"/>
<glyph glyph-name="dollar" d="M528 193q0 -32 -8.5 -63.5t-29 -58.5t-56 -47t-89.5 -27v-94q0 -8 -6 -14t-14 -6h-47q-8 0 -14 6t-6 14v90q-45 1 -79.5 5t-63.5 9q-13 2 -16 6t-3 12v41q0 8 5 12t12 4h3q17 -2 38.5 -3.5t44 -2.5t44 -2t38.5 -1q45 0 74.5 9t46.5 25t24 38t7 48q0 19 -6 34.5t-20 30.5 t-37 31.5t-57 37.5l-97 59q-69 42 -103.5 84.5t-34.5 102.5q0 78 46.5 120.5t133.5 53.5v86q0 8 6 14t14 6h47q8 0 14 -6t6 -14v-83q41 -2 81 -5.5t65 -7.5q17 -3 17 -17v-43q0 -16 -17 -16h-2q-33 2 -80.5 5.5t-91.5 3.5q-78 0 -112.5 -21t-34.5 -76q0 -35 26 -61t83 -60 l92 -55q43 -26 73 -50t49 -48t27 -50t8 -56z" unicode="$"/>
<glyph glyph-name="percent" horiz-adv-x="794" unicode="%" d="M252 589q0 57 -19 81t-53 24t-53.5 -24t-19.5 -81v-93q0 -57 19.5 -81t53.5 -24t53 24t19 81v93zM687 248q0 57 -19 81t-53 24t-53.5 -24t-19.5 -81v-93q0 -57 19.5 -81t53.5 -24t53 24t19 81v93zM314 496q0 -82 -35.5 -122t-98.5 -40t-99 40t-36 122v93q0 83 36 122 t99 39t98.5 -39t35.5 -122v-93zM650 737q0 -3 -5 -13l-418 -708q-6 -11 -10 -15.5t-12 -4.5h-49q-10 0 -10 8q0 7 4 12l418 708q7 11 11 15t12 4h51q8 0 8 -6zM749 155q0 -82 -35.5 -122t-98.5 -40t-99 40t-36 122v93q0 83 36 122.5t99 39.5t98.5 -39.5t35.5 -122.5v-93z "/>
<glyph glyph-name="ampersand" horiz-adv-x="678" unicode="&amp;" d="M248 326q-30 -19 -50 -35t-31.5 -32t-16.5 -34t-5 -41v-8q0 -30 12.5 -52t33.5 -35.5t49 -20t58 -6.5q48 0 85 14t64 37zM412 591q0 50 -32 71t-84 21q-57 0 -92.5 -20t-35.5 -72v-8q0 -13 2 -26t10.5 -29.5t25.5 -39t47 -55.5l10 -11l34 21q36 22 58.5 39t35 32.5 t17 31.5t4.5 37v8zM641 11q0 -5 -3.5 -8t-7.5 -3h-69q-7 0 -10 2t-6 5l-50 54q-37 -32 -86 -50t-111 -18q-46 0 -90 9.5t-78.5 31t-55.5 56.5t-21 86v8q0 31 8.5 56.5t26 49t44.5 45.5t65 46l-7 8q-35 40 -56 69.5t-31.5 51.5t-13.5 39t-3 34v8q0 80 56.5 119.5t153.5 39.5 q42 0 78 -10t63 -30t42.5 -49.5t15.5 -69.5v-8q0 -25 -6 -47t-23 -45t-47 -48.5t-77 -57.5l-28 -19l181 -195q20 36 29.5 81t9.5 95v14q0 16 16 16h43q17 0 17 -16v-14q0 -66 -15.5 -124.5t-47.5 -105.5l89 -95q5 -5 5 -11z"/>
<glyph glyph-name="quotesingle" horiz-adv-x="192" unicode="&apos;" d="M163 741q0 -5 -1 -8l-58 -189q-5 -19 -19 -19h-47q-9 0 -9 10q0 6 1 9l46 189q4 19 20 19h56q11 0 11 -11z"/>
<glyph glyph-name="parenleft" horiz-adv-x="305" unicode="(" d="M280 -201q0 -8 -10 -8h-47q-8 0 -12.5 1.5t-10.5 9.5q-33 40 -59 93t-44 113t-27.5 125.5t-9.5 131.5v13q0 66 9.5 131.5t27.5 125.5t44 112.5t59 93.5q6 8 10.5 9.5t12.5 1.5h47q10 0 10 -8q0 -6 -3 -10q-64 -94 -96.5 -209t-32.5 -247v-13q0 -132 32.5 -247t96.5 -209 q3 -5 3 -10z"/>
<glyph glyph-name="parenright" horiz-adv-x="305" unicode=")" d="M259 265q0 -66 -9.5 -131.5t-27.5 -125.5t-44 -113t-59 -93q-6 -8 -10.5 -9.5t-12.5 -1.5h-47q-10 0 -10 8q0 5 3 10q64 94 96.5 209t32.5 247v13q0 132 -32.5 247t-96.5 209q-3 4 -3 10q0 8 10 8h47q8 0 12.5 -1.5t10.5 -9.5q33 -41 59 -93.5t44 -112.5t27.5 -125.5 t9.5 -131.5v-13z"/>
<glyph glyph-name="asterisk" horiz-adv-x="465" unicode="*" d="M419 598q0 -10 -14 -15l-125 -39l77 -106q5 -7 5 -13q0 -7 -6 -11l-24 -18q-5 -3 -8 -3q-8 0 -15 10l-76 106l-76 -106q-7 -10 -15 -10q-4 0 -8 3l-25 18q-6 4 -6 11q0 6 5 13l78 106l-124 39q-6 2 -10.5 6t-4.5 9q0 2 0.5 2.5t0.5 2.5l9 29q3 10 13 10q3 0 9 -2l124 -41 v131q0 19 15 19h30q15 0 15 -19l-1 -131l125 41q6 2 9 2q10 0 13 -10l9 -29q1 -2 1 -5z"/>
<glyph glyph-name="plus" d="M530 371q0 -8 -6 -12t-14 -4h-172v-171q0 -8 -4 -14t-12 -6h-40q-8 0 -12 6t-4 14v171h-171q-8 0 -14 4t-6 12v40q0 8 6 12t14 4h171v172q0 8 4 14t12 6h40q8 0 12 -6t4 -14v-172h172q8 0 14 -4t6 -12v-40z" unicode="+"/>
<glyph glyph-name="comma" horiz-adv-x="214" unicode="," d="M169 118q0 -2 -2 -8l-75 -189q-4 -10 -7.5 -14.5t-11.5 -4.5h-41q-12 0 -12 12q0 5 1 7l57 189q6 19 20 19h58q13 0 13 -11z"/>
<glyph glyph-name="hyphen" horiz-adv-x="333" unicode="-" d="M285 273q0 -17 -19 -17h-199q-19 0 -19 17v39q0 8 5.5 13t13.5 5h199q19 0 19 -18v-39z"/>
<glyph glyph-name="period" horiz-adv-x="214" unicode="." d="M150 21q0 -8 -5.5 -14t-13.5 -6h-48q-8 0 -13.5 6t-5.5 14v93q0 8 5.5 13.5t13.5 5.5h48q8 0 13.5 -5.5t5.5 -13.5v-93z"/>
<glyph glyph-name="slash" horiz-adv-x="355" unicode="/" d="M333 729q0 -4 -1 -6l-226 -703q-2 -8 -6 -14t-12 -6h-51q-7 0 -10.5 4.5t-3.5 9.5q0 4 1 6l227 703q2 8 5.5 14t11.5 6h51q7 0 10.5 -4.5t3.5 -9.5z"/>
<glyph glyph-name="zero" d="M457 439q0 63 -11 107.5t-31 72.5t-48.5 41t-63.5 13t-63.5 -13t-48.5 -41t-31 -72.5t-11 -107.5v-135q0 -63 11 -107.5t31 -72.5t48.5 -41t63.5 -13t63.5 13t48.5 41t31 72.5t11 107.5v135zM548 304q0 -83 -17 -142t-49 -96.5t-77 -55t-102 -17.5t-102.5 17.5t-77.5 55 t-49 96.5t-17 142v135q0 83 17 142t49 96.5t77.5 55t102.5 17.5t102 -17.5t77 -55t49 -96.5t17 -142v-135z" unicode="0"/>
<glyph glyph-name="one" d="M90 0q-8 0 -14 5t-6 13v44q0 8 6 12.5t14 4.5h159v570l-157 -66q-6 -2 -14 -2.5t-8 10.5v51q0 5 2.5 7.5t7.5 5.5l179 82q12 6 21 6h41q8 0 13.5 -5.5t5.5 -13.5v-645h160q8 0 14 -4.5t6 -12.5v-44q0 -8 -6 -13t-14 -5h-410z" unicode="1"/>
<glyph glyph-name="two" d="M526 571q0 -59 -30 -102.5t-100 -90.5l-96 -65q-42 -28 -69 -52.5t-42.5 -49.5t-22 -51.5t-6.5 -59.5v-21h337q8 0 14 -4.5t6 -12.5v-44q0 -8 -6 -13t-14 -5h-397q-8 0 -14 5.5t-6 13.5v81q0 78 35.5 143t117.5 120l101 68q31 21 51 37t31.5 31.5t16 32t4.5 39.5 q0 54 -34.5 78.5t-115.5 24.5q-39 0 -87 -4.5t-90 -10.5h-4q-16 0 -16 18v35q0 8 5.5 12t13.5 6q38 10 85.5 15t92.5 5q122 0 180.5 -43t58.5 -136z" unicode="2"/>
<glyph glyph-name="three" d="M521 207q0 -56 -18.5 -96.5t-51.5 -66.5t-78.5 -38.5t-100.5 -12.5q-48 0 -90.5 6t-78.5 14q-8 2 -13.5 6.5t-5.5 12.5v34q0 17 17 17h3q45 -6 89 -10t79 -4q82 0 119 33t37 105v21q0 20 -5.5 41.5t-19 39.5t-36 29.5t-56.5 11.5h-182q-19 0 -19 18v35q0 19 19 19h182 q36 0 59 11t35.5 28.5t17.5 38.5t5 41v14q0 62 -35.5 90.5t-120.5 28.5q-44 0 -81.5 -4.5t-86.5 -10.5h-3q-17 0 -17 17v35q0 7 5.5 12t13.5 7q36 8 78.5 14t90.5 6q56 0 102 -9.5t78.5 -32.5t50.5 -60.5t18 -92.5v-14q0 -51 -24 -92t-71 -64q27 -13 45 -31t29 -39t16 -43 t5 -44v-21z" unicode="3"/>
<glyph glyph-name="four" d="M370 616q0 6 -4 6h-1q-4 0 -8 -6l-231 -328q-3 -5 -3 -8q0 -6 8 -6h239v342zM567 216q0 -18 -19 -18h-87v-178q0 -8 -4.5 -14t-12.5 -6h-58q-8 0 -12.5 6t-4.5 14v178h-289q-23 0 -32 8.5t-9 30.5v38q0 21 12 37l296 415q4 6 10 11t19 5h59q26 0 26 -22v-447h87 q8 0 13.5 -5t5.5 -13v-40z" unicode="4"/>
<glyph glyph-name="five" d="M528 226q0 -112 -66.5 -172.5t-188.5 -60.5q-49 0 -93.5 4.5t-82.5 13.5q-8 2 -13.5 6t-5.5 14v37q0 15 15 15h5q48 -8 92.5 -11t82.5 -3q85 0 124 40t39 117v15q0 75 -49.5 104.5t-159.5 29.5h-120q-7 0 -11.5 5t-4.5 12v1l28 333q1 8 6.5 12.5t13.5 4.5h344 q8 0 14 -4.5t6 -12.5v-44q0 -8 -6 -12t-14 -4h-287l-16 -216h47q70 0 125.5 -10t94.5 -34.5t60 -64.5t21 -100v-15z" unicode="5"/>
<glyph glyph-name="six" d="M456 252q0 40 -13 67t-35 42.5t-49.5 22t-57.5 6.5q-18 0 -39 -1.5t-41.5 -4t-39 -6t-31.5 -6.5v-95q0 -61 10 -101.5t29.5 -64.5t48 -34t64.5 -10q35 0 63.5 9t48.5 30t31 55t11 85v6zM546 246q0 -119 -60.5 -186t-183.5 -67q-112 0 -177 68.5t-65 215.5v175 q0 80 16.5 136.5t49.5 92.5t82 52.5t113 16.5q60 0 100.5 -5t71.5 -12q9 -2 16 -6t7 -13v-39q0 -9 -5 -13.5t-13 -4.5q-2 0 -3 0.5t-3 0.5q-38 8 -80.5 12t-90.5 4q-58 0 -92 -16.5t-51.5 -45.5t-22.5 -70t-5 -90v-11q31 7 67.5 13.5t83.5 6.5q49 0 93 -10t78 -34t54 -64.5 t20 -100.5v-6z" unicode="6"/>
<glyph glyph-name="seven" d="M533 680q0 -24 -13 -52l-288 -613q-8 -15 -22 -15h-60q-8 0 -11.5 4.5t-3.5 10.5q0 5 3 11l302 628q1 1 1 4q0 7 -7 7h-341q-8 0 -14 4.5t-6 12.5v42q0 8 6 13.5t14 5.5h365q42 0 58.5 -18.5t16.5 -44.5z" unicode="7"/>
<glyph glyph-name="eight" d="M460 226q0 21 -7 43.5t-22 41t-39 30t-58 11.5h-62q-35 0 -59 -11.5t-39 -30t-21.5 -41t-6.5 -43.5v-19q0 -65 38.5 -101.5t113.5 -36.5h10q75 0 113.5 36.5t38.5 101.5v19zM461 553q0 60 -39 91.5t-114 31.5h-10q-75 0 -114 -31.5t-39 -91.5v-9q0 -23 7 -45t22 -38.5 t39 -26.5t59 -10h62q34 0 58.5 10t39.5 26.5t22 38.5t7 45v9zM551 207q0 -55 -19.5 -95t-52.5 -66.5t-77 -39.5t-94 -13h-10q-50 0 -94 13t-77 39.5t-52.5 66.5t-19.5 95v19q0 23 6.5 46t18.5 44.5t30 40t42 31.5q-48 24 -71.5 65t-23.5 91v9q0 52 18.5 89t50.5 61 t76.5 35.5t95.5 11.5h10q51 0 95.5 -11.5t76.5 -35.5t50.5 -61t18.5 -89v-9q0 -50 -23.5 -91t-71.5 -65q24 -13 42 -31.5t30 -40t18.5 -44.5t6.5 -46v-19z" unicode="8"/>
<glyph glyph-name="nine" d="M447 466q0 61 -10 101.5t-29.5 64.5t-48 34t-64.5 10q-35 0 -64 -9t-49 -30t-31 -55t-11 -85v-6q0 -41 13 -67.5t35 -42t49.5 -22t57.5 -6.5q18 0 39 1.5t41.5 4t38.5 6t32 6.5zM537 291q0 -80 -16.5 -136.5t-49.5 -92.5t-82 -52.5t-113 -16.5q-60 0 -100.5 5t-71.5 12 q-10 2 -17 6t-7 13v39q0 9 5 13.5t13 4.5q2 0 3 -0.5t3 -0.5q38 -8 80.5 -12t90.5 -4q58 0 92 16.5t52 45.5t23 70t5 90v11q-32 -7 -68.5 -13.5t-82.5 -6.5q-49 0 -93.5 10t-78.5 34t-54 64.5t-20 100.5v6q0 119 60.5 186t183.5 67q56 0 101 -17t76.5 -51.5t48.5 -88.5 t17 -127v-175z" unicode="9"/>
<glyph glyph-name="colon" horiz-adv-x="219" unicode=":" d="M153 19q0 -8 -6 -13.5t-14 -5.5h-47q-8 0 -14 5.5t-6 13.5v94q0 8 6 13.5t14 5.5h47q8 0 14 -5.5t6 -13.5v-94zM153 437q0 -8 -6 -13.5t-14 -5.5h-47q-8 0 -14 5.5t-6 13.5v93q0 8 6 14t14 6h47q8 0 14 -6t6 -14v-93z"/>
<glyph glyph-name="semicolon" horiz-adv-x="219" unicode=";" d="M157 117q0 -2 -2 -8l-75 -189q-4 -10 -7.5 -15t-11.5 -5h-40q-12 0 -12 13q0 5 1 7l57 189q6 19 20 19h57q13 0 13 -11zM153 437q0 -19 -19 -19h-49q-8 0 -13.5 5.5t-5.5 13.5v93q0 8 5.5 14t13.5 6h49q8 0 13.5 -6t5.5 -14v-93z"/>
<glyph glyph-name="less" d="M482 150q0 -10 -12 -10h-58q-8 0 -15 2.5t-16 10.5l-241 204q-18 15 -18 34t18 34l241 204q9 8 16 10.5t15 2.5h58q12 0 12 -10q0 -8 -10 -17l-262 -224l262 -224q10 -9 10 -17z" unicode="&lt;"/>
<glyph glyph-name="equal" d="M515 261q0 -8 -6 -12t-14 -4h-385q-8 0 -14 4t-6 12v40q0 8 6 12t14 4h385q8 0 14 -4t6 -12v-40zM515 482q0 -8 -6 -12t-14 -4h-385q-8 0 -14 4t-6 12v40q0 8 6 12t14 4h385q8 0 14 -4t6 -12v-40z" unicode="="/>
<glyph glyph-name="greater" d="M483 391q0 -19 -18 -34l-241 -204q-16 -13 -31 -13h-58q-12 0 -12 10q0 8 10 17l262 224l-262 224q-10 9 -10 17q0 10 12 10h58q8 0 15 -2.5t16 -10.5l241 -204q18 -15 18 -34z" unicode="&gt;"/>
<glyph glyph-name="question" horiz-adv-x="446" unicode="?" d="M198 19q0 -19 -19 -19h-48q-8 0 -14 5.5t-6 13.5v93q0 8 6 14t14 6h48q8 0 13.5 -6t5.5 -14v-93zM386 587q0 -18 -3.5 -35t-13.5 -36.5t-28 -43.5t-46 -56l-45 -51q-14 -16 -24 -28t-16.5 -23t-9.5 -23.5t-3 -28.5v-49q0 -8 -6 -13.5t-14 -5.5h-44q-8 0 -13.5 5.5 t-5.5 13.5v49q0 24 3 42.5t10.5 35.5t20 34.5t32.5 38.5l46 51q19 21 31 37t19 30t9.5 27.5t2.5 28.5v12q0 40 -25 56t-77 16q-36 0 -68.5 -2.5t-66.5 -6.5h-3q-15 0 -15 17v35q0 9 2.5 15t14.5 8q31 6 66.5 9.5t69.5 3.5q43 0 79.5 -7.5t63.5 -25t42 -46.5t15 -72v-12z"/>
<glyph glyph-name="at" horiz-adv-x="767" unicode="@" d="M457 409q-16 2 -33.5 4t-34.5 2q-45 0 -65.5 -22t-25.5 -67l-11 -114q-1 -5 -1 -9v-8q0 -35 19 -52t63 -17h21h21.5t21.5 2zM728 366q0 -94 -24 -153.5t-70 -94.5q-47 -35 -114.5 -49.5t-155.5 -14.5q-75 0 -118 36.5t-43 102.5v9t1 9l11 117q8 77 54.5 118t127.5 41 q32 0 65.5 -4.5t62.5 -10.5q10 -2 15.5 -6t5.5 -15v-4l-30 -313q47 7 75.5 26.5t44.5 49.5t21 69.5t5 86.5t-15 89.5t-46 74t-77 50t-108 18.5q-66 0 -118 -18.5t-89 -51.5t-59 -80t-28 -104l-15 -152q-1 -8 -1.5 -16t-0.5 -16q0 -45 15.5 -84t46.5 -67.5t78.5 -45 t111.5 -16.5q36 0 72 2t72 5h1q6 0 8 -4q1 -2 1 -3v-32q0 -8 -4 -10.5t-12 -3.5q-20 -2 -57 -5t-82 -3q-72 0 -130 19.5t-99.5 54.5t-63.5 84.5t-22 109.5v15.5t1 15.5l15 156q6 68 33.5 124.5t73.5 97.5t110.5 63.5t144.5 22.5q77 0 135 -24.5t96.5 -65t58 -92.5t19.5 -108 z"/>
<glyph glyph-name="A" horiz-adv-x="633" unicode="A" d="M336 653q-5 18 -19 18q-15 0 -20 -18l-91 -329h221zM604 16q0 -16 -17 -16h-59q-7 0 -11 4.5t-6 10.5l-65 230h-259l-64 -230q-2 -6 -7 -10.5t-11 -4.5h-59q-17 0 -17 16q0 5 1 7l185 651q6 23 17.5 37.5t25.5 23t29.5 12t29.5 3.5t29 -3t29 -11.5t25.5 -23t17.5 -37.5 l185 -652q1 -2 1 -7z"/>
<glyph glyph-name="B" horiz-adv-x="616" unicode="B" d="M475 222q0 25 -7 48t-24.5 40.5t-46.5 28t-73 10.5h-154v-275q25 -1 51.5 -2.5t52.5 -1.5q46 0 83.5 6t63.5 21t40 41t14 67v17zM471 557q0 36 -14.5 58.5t-41 35.5t-63.5 17.5t-83 4.5q-26 0 -52 -1t-47 -2v-248h154q43 0 71.5 9.5t45.5 26t23.5 38t6.5 45.5v16z M566 205q0 -63 -23.5 -104t-64 -65t-93.5 -33.5t-111 -9.5q-50 0 -92 2t-71 7q-17 2 -25 10t-8 27v666q0 34 32 37q25 3 67.5 5.5t91.5 2.5q60 0 113 -9t93 -31t63.5 -59t23.5 -94v-16q0 -56 -28 -96.5t-79 -60.5q52 -18 81.5 -61t29.5 -101v-17z"/>
<glyph glyph-name="C" horiz-adv-x="545" unicode="C" d="M510 26q0 -9 -6 -13.5t-14 -6.5q-16 -3 -32 -5.5t-35 -4t-43 -2.5t-56 -1q-46 0 -93 14t-85 49.5t-62 95t-24 150.5v139q0 92 24 151.5t62 94.5t85 49t93 14q48 0 91.5 -5.5t76.5 -10.5q16 -2 16 -13v-51q0 -5 -2 -8t-10 -3h-3q-14 1 -33.5 2.5t-42 3t-46.5 2.5t-46 1 q-37 0 -68.5 -11.5t-55 -38t-37 -70t-13.5 -107.5v-139q0 -63 13.5 -106.5t37 -70t55 -38.5t68.5 -12q21 0 44.5 1t46 2t41.5 2.5t33 2.5h4q16 0 16 -16v-41z"/>
<glyph glyph-name="D" horiz-adv-x="641" unicode="D" d="M493 439q0 68 -16.5 113t-45 71.5t-67 37.5t-83.5 11q-35 0 -60.5 -0.5t-50.5 -2.5v-596q24 -2 50 -2h61q45 0 83.5 11t67 38t45 71.5t16.5 112.5v135zM584 304q0 -80 -21.5 -139t-61 -97t-95.5 -56.5t-125 -18.5q-29 0 -56.5 1t-52 2.5t-43.5 3t-30 3.5q-21 3 -21 25 v687q0 22 21 25q11 2 30 3.5t43.5 3t52 2.5t56.5 1q69 0 125 -18t95.5 -56.5t61 -97t21.5 -139.5v-135z"/>
<glyph glyph-name="E" horiz-adv-x="551" unicode="E" d="M496 12q0 -5 -2.5 -9t-7.5 -5q-14 -2 -38 -2.5t-51.5 -1.5t-55.5 -1h-50q-106 0 -159.5 43t-53.5 143v385q0 100 53.5 143t159.5 43q22 0 49.5 -0.5t54.5 -1t51 -2l40 -2.5q5 -1 7.5 -5t2.5 -9v-50q0 -12 -11 -12h-193q-40 0 -64 -5.5t-37 -18t-17.5 -32.5t-4.5 -48v-139 h307q8 0 14 -6t6 -14v-38q0 -8 -6 -14t-14 -6h-307v-168q0 -29 4.5 -48.5t17.5 -32t37 -18t64 -5.5h193q11 0 11 -12v-51z"/>
<glyph glyph-name="F" horiz-adv-x="551" unicode="F" d="M496 367q0 -8 -6 -14t-14 -6h-307v-327q0 -8 -6 -14t-14 -6h-51q-8 0 -14 6t-6 14v544q0 100 53.5 143t159.5 43q22 0 49.5 -0.5t54.5 -1t51 -2l40 -2.5q5 -1 7.5 -5t2.5 -9v-50q0 -12 -11 -12h-193q-40 0 -64 -5.5t-37 -18t-17.5 -32.5t-4.5 -48v-139h307q8 0 14 -6 t6 -14v-38z"/>
<glyph glyph-name="G" horiz-adv-x="612" unicode="G" d="M534 30q0 -19 -18 -22q-37 -6 -82.5 -10.5t-116.5 -4.5q-47 0 -93.5 16.5t-83 53t-59.5 96t-23 145.5v134q0 91 24 151t62 96t86 50.5t96 14.5q70 0 115.5 -4.5t74.5 -9.5q7 -1 12 -4t5 -11v-50q0 -10 -13 -10h-4q-22 2 -42.5 3.5t-42.5 2t-47.5 1t-57.5 0.5 q-35 0 -67 -10.5t-56.5 -37t-39 -71t-14.5 -111.5v-134q0 -62 13 -105.5t36 -71.5t53.5 -40.5t65.5 -12.5q46 0 77 2t49 4v286q0 8 5 14t13 6h54q8 0 13.5 -6t5.5 -14v-336z"/>
<glyph glyph-name="H" horiz-adv-x="680" unicode="H" d="M602 20q0 -8 -6 -14t-14 -6h-51q-8 0 -14 6t-6 14v332h-342v-332q0 -8 -6 -14t-14 -6h-51q-8 0 -14 6t-6 14v703q0 8 6 14t14 6h51q8 0 14 -6t6 -14v-290h342v290q0 8 6 14t14 6h51q8 0 14 -6t6 -14v-703z"/>
<glyph glyph-name="I" horiz-adv-x="267" unicode="I" d="M179 20q0 -8 -5 -14t-13 -6h-55q-8 0 -13 6t-5 14v704q0 8 5 13.5t13 5.5h55q8 0 13 -5.5t5 -13.5v-704z"/>
<glyph glyph-name="J" horiz-adv-x="257" unicode="J" d="M179 -37q0 -72 -36 -107.5t-119 -35.5q-17 0 -32.5 3t-20.5 5q-6 3 -6 11v37q0 8 6 12.5t14 4.5h39q40 0 52 16.5t12 53.5v761q0 8 5.5 13.5t13.5 5.5h53q8 0 13.5 -5.5t5.5 -13.5v-761z"/>
<glyph glyph-name="K" horiz-adv-x="607" unicode="K" d="M564 10q0 -10 -13 -10h-78q-13 0 -22 10l-282 343v-333q0 -8 -5 -14t-13 -6h-55q-8 0 -13 6t-5 14v704q0 8 5.5 13.5t13.5 5.5h53q8 0 13.5 -5.5t5.5 -13.5v-323l288 333q5 5 8.5 7t11.5 2h72q14 0 14 -11q0 -6 -4 -10l-301 -340l301 -360q5 -5 5 -12z"/>
<glyph glyph-name="L" horiz-adv-x="514" unicode="L" d="M496 16q0 -5 -2.5 -9t-7.5 -5q-20 -3 -72 -6t-123 -3q-40 0 -78.5 6t-68.5 25.5t-48 56t-18 98.5v544q0 8 6 14t14 6h51q8 0 14 -6t6 -14v-544q0 -29 4.5 -48.5t17.5 -32t37 -18t64 -5.5h193q11 0 11 -12v-47z"/>
<glyph glyph-name="M" horiz-adv-x="761" unicode="M" d="M684 20q0 -8 -6 -14t-14 -6h-49q-8 0 -14 6t-6 14v593q0 3 -1 3t-2 -2l-143 -296q-8 -15 -17 -22t-28 -7h-46q-19 0 -28 7t-17 22l-143 296q-1 2 -2 2t-1 -3v-593q0 -8 -6 -14t-14 -6h-49q-8 0 -14 6t-6 14v694q0 12 8.5 20.5t20.5 8.5h65q14 0 20.5 -3.5t11.5 -13.5 l165 -343q5 -11 12 -11t12 11l165 343q5 10 11.5 13.5t20.5 3.5h65q12 0 20.5 -8.5t8.5 -20.5v-694z"/>
<glyph glyph-name="N" horiz-adv-x="680" unicode="N" d="M602 29q0 -12 -8.5 -20.5t-20.5 -8.5h-62q-24 0 -32 16l-309 587q-2 3 -3 3t-1 -3v-584q0 -8 -5 -13.5t-13 -5.5h-52q-8 0 -13 2t-5 10v703q0 12 8.5 20t20.5 8h55q21 0 28 -4.5t13 -15.5l307 -584l2 -3q1 0 1 3v585q0 8 5 13.5t13 5.5h53q8 0 13 -5.5t5 -13.5v-695z"/>
<glyph glyph-name="O" horiz-adv-x="661" unicode="O" d="M509 436q0 63 -12.5 107t-35.5 72t-56 40.5t-74 12.5t-74 -12.5t-56.5 -40.5t-36 -72t-12.5 -107v-129q0 -63 12.5 -107t35.5 -72t56.5 -40.5t74.5 -12.5t74 12.5t56 40.5t35.5 72t12.5 107v129zM601 307q0 -83 -20 -142.5t-56 -97.5t-85.5 -56t-108.5 -18t-108.5 18 t-85.5 56t-56.5 97.5t-20.5 142.5v129q0 83 20.5 142.5t56.5 97.5t85.5 56t108.5 18t108.5 -18t85.5 -56t56 -97.5t20 -142.5v-129z"/>
<glyph glyph-name="P" horiz-adv-x="593" unicode="P" d="M457 533q0 76 -46 108t-143 32q-23 0 -52.5 -1t-47.5 -3v-293q9 0 22 -1t27 -1.5t27.5 -1t23.5 -0.5q103 0 146 35t43 113v13zM548 520q0 -63 -21 -105.5t-58.5 -69t-88.5 -38t-112 -11.5q-24 0 -52 1.5t-48 3.5v-281q0 -8 -5 -14t-13 -6h-54q-8 0 -13 6t-5 14v697 q0 22 24 25q32 4 77 6t89 2q61 0 112 -11.5t88.5 -37t58.5 -67t21 -101.5v-13z"/>
<glyph glyph-name="Q" horiz-adv-x="661" unicode="Q" d="M509 436q0 63 -12.5 107t-35.5 72t-56 40.5t-74 12.5t-74 -12.5t-56.5 -40.5t-36 -72t-12.5 -107v-129q0 -63 12.5 -107t35.5 -72t56.5 -40.5t74.5 -12.5t74 12.5t56 40.5t35.5 72t12.5 107v129zM601 307q0 -75 -16.5 -131t-46.5 -94.5t-72 -59.5t-92 -27v-43 q0 -19 2.5 -30.5t9.5 -17.5t19 -8t31 -2h59q9 0 15.5 -4t6.5 -12v-34q0 -13 -21.5 -18.5t-59.5 -5.5q-37 0 -65 5.5t-47 20.5t-28.5 40.5t-9.5 64.5v45q-50 6 -91.5 27.5t-71.5 59.5t-46.5 93.5t-16.5 130.5v129q0 83 20.5 142.5t56.5 97.5t85.5 56t108.5 18t108.5 -18 t85.5 -56t56 -97.5t20 -142.5v-129z"/>
<glyph glyph-name="R" horiz-adv-x="625" unicode="R" d="M468 535q0 75 -48 104t-142 29h-27t-30.5 -0.5t-29.5 -1t-23 -1.5v-274q33 -1 63 -1.5t47 -0.5q46 0 81.5 6.5t59.5 22.5t36.5 42.5t12.5 67.5v7zM586 13q0 -13 -13 -13h-64q-9 0 -14.5 1.5t-11.5 11.5l-179 298h-9h-17q-25 0 -47.5 0.5t-62.5 2.5v-294q0 -8 -5 -14 t-13 -6h-54q-8 0 -13 6t-5 14v700q0 11 5 15.5t19 6.5q16 2 37.5 3.5t45 2.5t47.5 1.5t46 0.5q59 0 110.5 -11t89 -36t59 -66t21.5 -102v-7q0 -42 -11.5 -75.5t-32.5 -58.5t-50 -42t-63 -26l182 -304q3 -5 3 -9z"/>
<glyph glyph-name="S" horiz-adv-x="550" unicode="S" d="M500 193q0 -36 -11 -72t-38.5 -64.5t-75.5 -46t-122 -17.5q-53 0 -93 4.5t-73 9.5q-13 2 -16 6t-3 12v40q0 8 5 12t12 4h3q17 -2 38.5 -3t44 -1.5t44 -1t38.5 -0.5q45 0 74.5 8.5t46.5 24t24 37.5t7 48q0 19 -6 34.5t-20 30.5t-37 31.5t-57 37.5l-97 59 q-69 42 -103.5 84.5t-34.5 102.5q0 91 62 134t177 43q22 0 46.5 -1t48 -2.5t44.5 -4t35 -4.5q17 -3 17 -17v-43q0 -16 -17 -16h-2q-33 2 -80.5 4t-91.5 2q-78 0 -112.5 -20t-34.5 -75q0 -35 26 -61t83 -60l92 -55q43 -26 73 -50t49 -48t27 -50t8 -56z"/>
<glyph glyph-name="T" horiz-adv-x="590" unicode="T" d="M555 681q0 -16 -19 -16h-195v-645q0 -8 -5 -14t-13 -6h-55q-8 0 -13 6t-5 14v645h-195q-8 0 -14 4t-6 12v44q0 8 6 13t14 5h481q19 0 19 -18v-44z"/>
<glyph glyph-name="U" horiz-adv-x="662" unicode="U" d="M587 270q0 -143 -67.5 -210t-188.5 -67q-122 0 -189 67t-67 210v454q0 8 5.5 13.5t13.5 5.5h54q8 0 13.5 -5.5t5.5 -13.5v-454q0 -48 8 -85.5t27.5 -62.5t50.5 -38t78 -13q46 0 77.5 13t51 38t27.5 62t8 86v454q0 8 5.5 13.5t13.5 5.5h54q8 0 13.5 -5.5t5.5 -13.5v-454z "/>
<glyph glyph-name="V" horiz-adv-x="643" unicode="V" d="M609 726q0 -4 -1 -6l-184 -651q-7 -24 -18.5 -38.5t-25 -23t-29 -11.5t-29.5 -3t-29 3t-29 11.5t-25.5 23t-18.5 38.5l-185 651q-1 2 -1 6q0 8 5 12.5t13 4.5h58q6 0 11 -4.5t7 -10.5l174 -637q6 -21 20 -21q13 0 19 21l175 637q2 6 6.5 10.5t10.5 4.5h59q17 0 17 -17z "/>
<glyph glyph-name="W" horiz-adv-x="825" unicode="W" d="M791 723l-111 -676q-5 -31 -21.5 -41t-40.5 -10h-43q-21 0 -36 13.5t-21 36.5l-98 370q-2 7 -3 8t-3 1h-1h-1q-2 0 -3 -1t-3 -8l-99 -370q-6 -23 -21 -36.5t-36 -13.5h-42q-24 0 -40.5 10t-21.5 41l-111 676v3q0 17 17 17h58q14 0 17 -17l97 -637q2 -8 2 -11.5t3 -3.5 q4 0 7 15l98 370q10 40 47 40h64q37 0 47 -40l98 -370q3 -15 7 -15q3 0 3 3.5t2 11.5l97 637q3 17 17 17h58q17 0 17 -17v-3z"/>
<glyph glyph-name="X" horiz-adv-x="646" unicode="X" d="M604 14q0 -5 -4 -9.5t-12 -4.5h-63q-8 0 -12 3.5t-9 11.5l-183 291l-179 -291q-10 -15 -21 -15h-59q-8 0 -12 4.5t-4 10.5q0 5 3 10l222 353l-220 341q-3 4 -3 10q0 14 15 14h65q8 0 11.5 -2.5t6.5 -7.5l180 -285l174 285q5 7 9 8.5t10 1.5h59q8 0 12 -4.5t4 -10.5 q0 -5 -3 -9l-215 -343l225 -351q3 -5 3 -11z"/>
<glyph glyph-name="Y" horiz-adv-x="583" unicode="Y" d="M549 729q0 -5 -3 -11l-155 -348q-14 -30 -27 -45t-27 -21v-284q0 -8 -5 -14t-13 -6h-55q-8 0 -13 6t-5 14v284q-14 5 -27 20.5t-27 45.5l-154 348q-3 6 -3 11q0 14 17 14h61q5 0 10.5 -4.5t7.5 -9.5l138 -324q8 -17 13 -21.5t10 -4.5t10 4.5t13 21.5l139 324q2 5 6.5 9.5 t10.5 4.5h61q17 0 17 -14z"/>
<glyph glyph-name="Z" horiz-adv-x="597" unicode="Z" d="M544 18q0 -8 -6 -13t-14 -5h-385q-48 0 -65.5 14t-17.5 54q0 13 3.5 30t11.5 28l358 521q3 4 3 8q0 7 -10 7h-332q-8 0 -14 4.5t-6 12.5v47q0 8 6 12.5t14 4.5h356q42 0 63.5 -12.5t21.5 -53.5q0 -14 -4 -31t-12 -28l-357 -521q-3 -5 -3 -9q0 -6 10 -6h359q8 0 14 -4.5 t6 -12.5v-47z"/>
<glyph glyph-name="bracketleft" horiz-adv-x="327" unicode="[" d="M303 -174q0 -8 -6 -14t-14 -6h-186q-8 0 -12.5 5.5t-4.5 13.5v899q0 8 4.5 13.5t12.5 5.5h186q8 0 14 -6t6 -14v-33q0 -8 -6 -14t-14 -6h-114v-791h114q8 0 14 -6t6 -14v-33z"/>
<glyph glyph-name="backslash" horiz-adv-x="355" unicode="\" d="M333 14q0 -5 -3.5 -9.5t-10.5 -4.5h-51q-8 0 -12 6t-6 14l-226 703q-1 2 -1 6q0 5 3.5 9.5t10.5 4.5h51q8 0 11.5 -6t5.5 -14l227 -703q1 -2 1 -6z"/>
<glyph glyph-name="bracketright" horiz-adv-x="327" unicode="]" d="M247 -175q0 -8 -4.5 -13.5t-12.5 -5.5h-186q-8 0 -14 6t-6 14v33q0 8 6 14t14 6h114v791h-114q-8 0 -14 6t-6 14v33q0 8 6 14t14 6h186q8 0 12.5 -5.5t4.5 -13.5v-899z"/>
<glyph glyph-name="asciicircum" d="M505 572q0 -9 -11 -9h-60q-11 0 -15.5 4.5t-12.5 13.5l-103 120l-103 -120q-8 -9 -12.5 -13.5t-15.5 -4.5h-60q-11 0 -11 9q0 6 4 11l115 149q8 11 13.5 14.5t16.5 3.5h106q11 0 16.5 -3.5t13.5 -14.5l115 -149q4 -5 4 -11z" unicode="^"/>
<glyph glyph-name="underscore" horiz-adv-x="494" unicode="_" d="M525 -90q0 -8 -6 -12t-14 -4h-515q-8 0 -14 4t-6 12v25q0 8 6 12t14 4h515q8 0 14 -4t6 -12v-25z"/>
<glyph glyph-name="grave" horiz-adv-x="372" unicode="`" d="M243 630q0 -7 -9 -7h-54q-8 0 -12 3.5t-11 11.5l-113 126q-4 4 -4 8q0 7 11 7h66q9 0 13.5 -3.5t11.5 -11.5l97 -124q4 -4 4 -10z"/>
<glyph glyph-name="a" horiz-adv-x="519" unicode="a" d="M363 266h-74q-45 0 -75 -5.5t-47 -17t-24 -30t-7 -45.5v-12q0 -54 24 -72.5t68 -18.5q35 0 67 10t68 30v161zM451 20q0 -8 -6 -14t-14 -6h-46q-8 0 -14 6t-6 14v22q-36 -21 -74 -35t-80 -14q-32 0 -61.5 7.5t-52 26.5t-36 50t-13.5 78v12q0 40 12.5 70.5t41 51t74.5 30.5 t113 10h74v40q0 63 -24 88t-83 25q-49 0 -86 -2.5t-67 -5.5h-5q-7 0 -12.5 3t-5.5 13v35q0 16 21 19q31 5 67.5 9t87.5 4q104 0 149.5 -50t45.5 -138v-349z"/>
<glyph glyph-name="b" horiz-adv-x="541" unicode="b" d="M403 312q0 80 -28.5 124t-101.5 44q-12 0 -27 -0.5t-31 -1t-31.5 -2t-27.5 -3.5v-397q26 -2 58.5 -4t58.5 -2q74 0 102 44t28 126v72zM491 240q0 -56 -13 -102t-40 -78t-68 -49.5t-97 -17.5q-45 0 -91 4t-93 13q-14 2 -17.5 7t-3.5 16v700q0 8 5 13.5t13 5.5h51 q8 0 13.5 -5.5t5.5 -13.5v-186q29 5 61 7.5t56 2.5q109 0 163.5 -63.5t54.5 -181.5v-72z"/>
<glyph glyph-name="c" horiz-adv-x="452" unicode="c" d="M408 26q0 -10 -4 -15t-16 -7q-25 -5 -57.5 -8t-67.5 -3q-51 0 -90.5 17.5t-67 49t-41.5 76.5t-14 100v78q0 55 14 100t41 76.5t67 49t91 17.5q35 0 67.5 -3t57.5 -8q12 -2 16 -6.5t4 -15.5v-36q0 -8 -5 -11.5t-12 -3.5h-4q-33 4 -60 5.5t-64 1.5q-60 0 -92.5 -40.5 t-32.5 -125.5v-78q0 -85 32 -125.5t93 -40.5q37 0 64 1.5t60 5.5h4q7 0 12 -3.5t5 -11.5v-36z"/>
<glyph glyph-name="d" horiz-adv-x="541" unicode="d" d="M385 473q-25 5 -59 6t-58 1q-37 0 -62 -11t-40 -32.5t-21.5 -53t-6.5 -71.5v-72q0 -82 28 -126t102 -44q26 0 58.5 2t58.5 4v397zM473 33q0 -10 -3.5 -15.5t-17.5 -7.5q-47 -9 -92.5 -13t-91.5 -4q-56 0 -97 17.5t-68 49.5t-40 78t-13 102v72q0 118 54 181.5t164 63.5 q23 0 55.5 -2.5t61.5 -7.5v186q0 8 5.5 13.5t13.5 5.5h51q8 0 13 -5.5t5 -13.5v-700z"/>
<glyph glyph-name="e" horiz-adv-x="544" unicode="e" d="M403 323q0 85 -32.5 121t-98.5 36q-65 0 -99.5 -38t-34.5 -119v-9h265v9zM492 269q0 -22 -19 -22h-335v-14q0 -89 35 -126t104 -37q44 0 93.5 3t84.5 8h5q6 0 11 -3t5 -11v-34q0 -10 -4 -15.5t-16 -7.5q-43 -8 -85.5 -12.5t-93.5 -4.5q-43 0 -84 11.5t-72.5 39t-51 73.5 t-19.5 116v90q0 108 57 171t165 63q55 0 96 -16.5t68.5 -47t41.5 -74t14 -96.5v-54z"/>
<glyph glyph-name="f" horiz-adv-x="381" unicode="f" d="M356 706q0 -15 -18 -15h-48q-35 0 -48 -14t-13 -55v-72h105q8 0 13.5 -5t5.5 -13v-39q0 -17 -19 -17h-105v-456q0 -8 -5.5 -14t-13.5 -6h-49q-8 0 -14 6t-6 14v456l-97 11q-19 2 -19 18v27q0 8 5.5 13t13.5 5h97v72q0 40 9.5 67t27.5 43t44 22.5t59 6.5q20 0 33 -2t23 -4 q19 -5 19 -16v-33z"/>
<glyph glyph-name="g" horiz-adv-x="559" unicode="g" d="M424 -37q0 29 -27.5 45t-94.5 33l-113 29q-22 -19 -35.5 -41t-13.5 -61v-9q0 -21 7 -38t23.5 -28.5t44 -18t69.5 -6.5q43 0 70 6t42.5 17t21.5 27t6 37v8zM416 373q0 22 -6 42t-21 34t-41.5 22.5t-66.5 8.5q-42 0 -68.5 -9t-41 -23.5t-20 -34t-5.5 -40.5v-8q0 -17 5 -35 t19.5 -33t41 -24.5t69.5 -9.5q40 0 66.5 7.5t41.5 21t21 32t6 41.5v8zM523 502q0 -10 -5 -13.5t-13 -5.5l-36 -7q14 -14 24 -38t10 -65v-8q0 -83 -53 -127t-169 -44q-40 0 -67 5.5t-49 14.5q-25 -12 -25 -34q0 -13 7 -20t24 -12l149 -38q37 -9 71.5 -20t61.5 -27.5t43 -40.5 t16 -59v-8q0 -72 -52.5 -113.5t-175.5 -41.5q-119 0 -174.5 42.5t-55.5 116.5v9q0 42 19 75t44 52l-7 3q-24 11 -35 33t-11 45v1q0 20 10 40t31 32q-23 22 -34.5 50t-11.5 66v8q0 33 10.5 65t36 57t68 40t107.5 15h219q9 0 16 -6.5t7 -15.5v-26z"/>
<glyph glyph-name="h" horiz-adv-x="557" unicode="h" d="M489 20q0 -8 -6 -14t-14 -6h-48q-8 0 -14 6t-6 14v329q0 75 -29 103t-78 28q-12 0 -28.5 -1.5t-35.5 -5t-38.5 -9t-35.5 -12.5v-432q0 -8 -6 -14t-14 -6h-49q-8 0 -13.5 6t-5.5 14v712q0 8 5.5 14t13.5 6h50q8 0 13.5 -6t5.5 -14v-206q36 16 78.5 23.5t74.5 7.5 q40 0 73 -12t57 -37t37 -64.5t13 -94.5v-329z"/>
<glyph glyph-name="i" horiz-adv-x="247" unicode="i" d="M167 20q0 -8 -6 -14t-14 -6h-48q-8 0 -14 6t-6 14v510q0 8 6 14t14 6h48q8 0 14 -6t6 -14v-510zM169 658q0 -8 -6 -14t-14 -6h-51q-8 0 -14 6t-6 14v80q0 8 6 14t14 6h51q8 0 14 -6t6 -14v-80z"/>
<glyph glyph-name="j" horiz-adv-x="247" unicode="j" d="M167 -64q0 -39 -8.5 -64.5t-24 -41t-39 -21.5t-53.5 -6q-15 0 -27 1t-27 3q-18 3 -18 16v37q0 14 21 14h41q29 0 38 12t9 50v594q0 8 5 14t13 6h52q8 0 13 -6t5 -14v-594zM169 657q0 -8 -6 -13.5t-14 -5.5h-51q-8 0 -14 5.5t-6 13.5v81q0 8 6 14t14 6h51q8 0 14 -6t6 -14 v-81z"/>
<glyph glyph-name="k" horiz-adv-x="496" unicode="k" d="M461 13q0 -13 -11 -13h-72q-8 0 -12.5 2.5t-10.5 10.5l-199 246v-239q0 -8 -6 -14t-14 -6h-48q-8 0 -14 6t-6 14v712q0 8 6 14t14 6h48q8 0 14 -6t6 -14v-416l200 225q5 5 8.5 7t11.5 2h70q15 0 15 -11q0 -6 -5 -11l-220 -238l222 -268q3 -3 3 -9z"/>
<glyph glyph-name="l" horiz-adv-x="244" unicode="l" d="M166 20q0 -8 -5 -14t-13 -6h-52q-8 0 -13 6t-5 14v713q0 8 5 13.5t13 5.5h52q8 0 13 -5.5t5 -13.5v-713z"/>
<glyph glyph-name="m" horiz-adv-x="798" unicode="m" d="M730 20q0 -8 -6 -14t-14 -6h-48q-8 0 -14 6t-6 14v354q0 31 -7 52t-19 33t-29 17t-36 5q-27 0 -57.5 -8t-59.5 -19q9 -33 9 -78v-356q0 -8 -5 -14t-13 -6h-53q-8 0 -12.5 6t-4.5 14v356q0 33 -4.5 53.5t-14.5 32t-24.5 15.5t-33.5 4q-27 0 -58.5 -11.5t-63.5 -27.5v-422 q0 -8 -5 -14t-13 -6h-53q-8 0 -12.5 6t-4.5 14v510q0 8 5.5 14t13.5 6h50q8 0 13.5 -6t5.5 -14v-19q30 19 67 33t79 14q32 0 56.5 -9.5t43.5 -31.5q42 20 84.5 30.5t81.5 10.5q34 0 63.5 -9t51.5 -30.5t34.5 -57t12.5 -87.5v-354z"/>
<glyph glyph-name="n" horiz-adv-x="557" unicode="n" d="M489 20q0 -8 -6 -14t-14 -6h-48q-8 0 -14 6t-6 14v329q0 38 -6.5 63.5t-20 40.5t-34.5 21.5t-49 6.5q-32 0 -66 -11t-69 -28v-422q0 -8 -6 -14t-14 -6h-49q-8 0 -13.5 6t-5.5 14v510q0 8 5.5 14t13.5 6h50q8 0 13.5 -6t5.5 -14v-19q42 23 78 34.5t81 11.5q91 0 132.5 -54 t41.5 -154v-329z"/>
<glyph glyph-name="o" horiz-adv-x="545" unicode="o" d="M407 313q0 77 -32 122t-103 45q-70 0 -102 -44.5t-32 -122.5v-76q0 -77 31.5 -122t102.5 -45q70 0 102.5 44.5t32.5 122.5v76zM495 237q0 -55 -14 -100t-42 -77t-70 -49.5t-97 -17.5t-96.5 17.5t-69.5 49.5t-42 77t-14 100v76q0 55 14 100t42 77t69.5 49.5t96.5 17.5 t97 -17.5t70 -49.5t42 -77t14 -100v-76z"/>
<glyph glyph-name="p" horiz-adv-x="541" unicode="p" d="M403 310q0 39 -6.5 71t-21.5 54.5t-40 35t-62 12.5q-32 0 -64 -3t-53 -7v-396q25 -5 59 -7.5t58 -2.5q37 0 62 11.5t40 33.5t21.5 54t6.5 72v72zM491 238q0 -118 -54 -181.5t-164 -63.5q-23 0 -55.5 3t-61.5 8v-181q0 -8 -5.5 -13.5t-13.5 -5.5h-51q-8 0 -13 5.5t-5 13.5 v688q0 10 3.5 15t17.5 8q40 10 89 16.5t95 6.5q56 0 97 -17.5t68 -50t40 -78t13 -101.5v-72z"/>
<glyph glyph-name="q" horiz-adv-x="541" unicode="q" d="M385 473q-20 4 -52.5 7t-64.5 3q-37 0 -62 -12t-40 -34.5t-21.5 -54.5t-6.5 -72v-72q0 -40 6.5 -72t21.5 -54t40 -33.5t62 -11.5q12 0 27 0.5t31 2t31.5 3.5t27.5 4v396zM473 -177q0 -8 -5 -13.5t-13 -5.5h-51q-8 0 -13.5 5.5t-5.5 13.5v181q-29 -5 -61 -8t-56 -3 q-109 0 -163.5 63.5t-54.5 181.5v72q0 56 13 101.5t40 78t68 50t97 17.5q45 0 94.5 -6.5t89.5 -16.5q14 -3 17.5 -7.5t3.5 -15.5v-688z"/>
<glyph glyph-name="r" horiz-adv-x="342" unicode="r" d="M315 498q0 -17 -21 -17q-35 0 -67.5 -9.5t-70.5 -32.5v-419q0 -8 -6 -14t-14 -6h-49q-8 0 -13.5 6t-5.5 14v510q0 8 5.5 14t13.5 6h47q8 0 13.5 -6t5.5 -14v-21q38 26 72.5 37t68.5 11q21 0 21 -18v-41z"/>
<glyph glyph-name="s" horiz-adv-x="466" unicode="s" d="M416 138q0 -38 -13.5 -65.5t-38 -45t-59 -26t-76.5 -8.5q-14 0 -33.5 0.5t-41 2.5t-43.5 4.5t-40 7.5q-21 5 -21 20v35q0 7 5 11t13 4h4q18 -2 39.5 -4t43.5 -3.5t41 -2.5t33 -1q49 0 74 15t25 56q0 23 -16 40t-59 43l-101 60q-46 28 -74 61.5t-28 81.5q0 39 14 64.5 t38 41t57 21.5t72 6q42 0 81.5 -3.5t74.5 -9.5q19 -3 19 -20v-33q0 -17 -17 -17h-3q-26 2 -69.5 5t-85.5 3t-67.5 -10t-25.5 -48q0 -23 17 -39.5t52 -36.5l99 -59q62 -37 86 -72t24 -79z"/>
<glyph glyph-name="t" horiz-adv-x="385" unicode="t" d="M360 15q0 -14 -18 -17q-15 -2 -33 -3.5t-32 -1.5q-35 0 -60.5 5.5t-42 20.5t-25 41t-8.5 67v349l-97 11q-19 2 -19 18v27q0 18 19 18h97v98q0 17 18 20l52 8h3q6 0 10.5 -4.5t4.5 -12.5v-109h108q8 0 14 -6t6 -14v-34q0 -8 -6 -14t-14 -6h-108v-349q0 -41 12 -52t42 -11 h56q21 0 21 -14v-35z"/>
<glyph glyph-name="u" horiz-adv-x="557" unicode="u" d="M489 20q0 -8 -5.5 -14t-13.5 -6h-50q-8 0 -13.5 6t-5.5 14v19q-42 -23 -78 -34.5t-81 -11.5q-91 0 -132.5 54t-41.5 154v329q0 8 6 14t14 6h48q8 0 14 -6t6 -14v-329q0 -38 6.5 -63.5t20 -40.5t34 -21.5t49.5 -6.5q32 0 66 11t69 28v422q0 8 6 14t14 6h49q8 0 13.5 -6 t5.5 -14v-510z"/>
<glyph glyph-name="v" horiz-adv-x="530" unicode="v" d="M491 533q0 -4 -1 -7l-135 -476q-10 -34 -34 -45.5t-56 -11.5t-56 11.5t-34 45.5l-135 476q-1 3 -1 7q0 17 16 17h55q13 0 19 -19l115 -436q5 -18 9 -23.5t12 -5.5q7 0 11.5 5.5t9.5 23.5l115 436q6 19 19 19h55q16 0 16 -17z"/>
<glyph glyph-name="w" horiz-adv-x="786" unicode="w" d="M748 526l-97 -464q-5 -24 -10 -37.5t-14 -20.5t-23.5 -9t-36.5 -2q-20 0 -33 2.5t-22 10t-15 21.5t-12 38l-87 340q-2 5 -2.5 6t-2.5 1t-2.5 -1t-2.5 -6l-87 -340q-6 -22 -12 -36t-15 -22t-22.5 -11t-32.5 -3q-23 0 -37 2t-23 9t-14 21t-10 37l-97 464v4q0 8 5.5 14 t13.5 6h54q7 0 11.5 -5t5.5 -11l83 -456q2 -9 4 -10.5t4 -1.5q5 0 8 12l98 384q5 17 14.5 23.5t25.5 6.5h56q16 0 25.5 -6.5t14.5 -23.5l98 -384q3 -12 8 -12q2 0 4 1.5t4 10.5l83 456q1 6 5.5 11t11.5 5h54q8 0 13.5 -6t5.5 -14v-4z"/>
<glyph glyph-name="x" horiz-adv-x="547" unicode="x" d="M511 11q0 -11 -13 -11h-69q-9 0 -14 8l-143 209l-143 -207q-5 -7 -7.5 -8.5t-9.5 -1.5h-60q-12 0 -12 10q0 7 5 13l180 257l-170 245q-5 8 -5 13q0 12 15 12h65q6 0 10.5 -3t9.5 -11l127 -188l128 188q7 10 10.5 12t10.5 2h58q13 0 13 -12q0 -5 -5 -13l-168 -239 l183 -263q4 -5 4 -12z"/>
<glyph glyph-name="y" horiz-adv-x="534" unicode="y" d="M495 533q0 -5 -1 -7l-165 -576q-12 -41 -25.5 -69t-34.5 -45.5t-50.5 -25.5t-72.5 -8q-21 0 -44.5 2.5t-39.5 6.5q-9 2 -15 5t-6 11v37q0 16 19 16h3q17 -2 44.5 -4t44.5 -2q21 0 37 3.5t27.5 13t20 26t14.5 42.5l10 41h-14q-11 0 -21.5 2t-20 9t-17.5 21t-15 37 l-133 457q-1 2 -1 7q0 17 18 17h55q6 0 10.5 -5t6.5 -11l118 -434q4 -15 9 -18.5t10 -3.5h16l122 457q2 6 7 10.5t12 4.5h56q16 0 16 -17z"/>
<glyph glyph-name="z" horiz-adv-x="482" unicode="z" d="M432 20q0 -8 -6 -14t-14 -6h-302q-32 0 -46.5 17t-14.5 38v19q0 21 5 34.5t18 30.5l258 321q4 6 4 9q0 7 -10 7h-243q-8 0 -14 6t-6 14v34q0 8 6 14t14 6h294q31 0 43.5 -13t12.5 -36v-24q0 -16 -5.5 -28.5t-17.5 -26.5l-263 -329q-5 -5 -5 -11q0 -8 8 -8h264q8 0 14 -6 t6 -14v-34z"/>
<glyph glyph-name="braceleft" horiz-adv-x="331" unicode="{" d="M304 -174q0 -8 -6 -14t-14 -6h-51q-46 0 -75.5 6.5t-47 22.5t-24 42.5t-6.5 66.5v176q0 23 -3 41t-9.5 32.5t-18 27t-29.5 24.5v58q18 12 29.5 24.5t18 26.5t9.5 32t3 41v178q0 40 6.5 66.5t24 42.5t47 22.5t75.5 6.5h50q8 0 14 -6t6 -14v-33q0 -8 -6 -14t-14 -6h-45 q-22 0 -35.5 -2.5t-21 -10t-10 -20t-2.5 -32.5v-178q0 -53 -15 -89.5t-56 -64.5q40 -28 55.5 -64t15.5 -89v-176q0 -20 2.5 -32.5t10 -20t21 -10t35.5 -2.5h46q8 0 14 -6t6 -14v-33z"/>
<glyph glyph-name="bar" horiz-adv-x="249" unicode="|" d="M169 -175q0 -8 -5 -13.5t-13 -5.5h-52q-8 0 -13.5 5.5t-5.5 13.5v899q0 8 5.5 13.5t13.5 5.5h52q8 0 13 -5.5t5 -13.5v-899z"/>
<glyph glyph-name="braceright" horiz-adv-x="331" unicode="}" d="M311 245q-18 -12 -29.5 -24.5t-18 -27t-9.5 -32.5t-3 -41v-176q0 -40 -7 -66.5t-24 -42.5t-46.5 -22.5t-75.5 -6.5h-51q-8 0 -14 6t-6 14v33q0 8 6 14t14 6h46q22 0 35.5 2.5t21 10t10 20t2.5 32.5v176q0 53 15.5 89t55.5 64q-41 28 -56 64.5t-15 89.5v178 q0 20 -2.5 32.5t-10 20t-21 10t-35.5 2.5h-45q-8 0 -14 6t-6 14v33q0 8 6 14t14 6h50q46 0 75.5 -6.5t46.5 -22.5t24 -42.5t7 -66.5v-178q0 -23 3 -41t9.5 -32t18 -26.5t29.5 -24.5v-58z"/>
<glyph glyph-name="asciitilde" d="M514 467q0 -63 -24.5 -95.5t-84.5 -32.5q-20 0 -39.5 7.5t-36.5 20.5l-73 58q-22 17 -32 24t-21 7q-29 0 -35.5 -16t-6.5 -43v-26q0 -8 -6 -14t-14 -6h-29q-8 0 -14 6t-6 14v26q0 65 28.5 97.5t82.5 32.5q20 0 39.5 -7.5t35.5 -20.5l85 -68q9 -8 21.5 -14t20.5 -6 q28 0 34 13t6 43v28q0 8 6 14t14 6h29q8 0 14 -6t6 -14v-28z" unicode="~"/>
<glyph glyph-name="uni00A0" horiz-adv-x="247" unicode=" "/>
<glyph glyph-name="exclamdown" horiz-adv-x="217" unicode="¡" d="M84 -203q-8 0 -13.5 5.5t-5.5 13.5l7 520q0 8 6 13.5t14 5.5h35q8 0 14 -5.5t6 -13.5l8 -520q0 -8 -6 -13.5t-14 -5.5h-51zM153 437q0 -8 -5.5 -13.5t-13.5 -5.5h-48q-8 0 -13.5 5.5t-5.5 13.5v94q0 19 19 19h48q8 0 13.5 -5.5t5.5 -13.5v-94z"/>
<glyph glyph-name="cent" d="M482 26q0 -10 -4 -15t-16 -7q-19 -3 -43.5 -5.5t-50.5 -4.5v-90q0 -8 -6 -14t-14 -6h-41q-8 0 -14 6t-6 14v94q-79 16 -121 78.5t-42 159.5v78q0 97 42 159.5t121 78.5v93q0 8 6 14t14 6h41q8 0 14 -6t6 -14v-89q26 -2 50.5 -4.5t43.5 -5.5q12 -2 16 -6.5t4 -15.5v-36 q0 -8 -5 -11.5t-12 -3.5h-4q-33 4 -60 6t-64 2q-60 0 -92.5 -41t-32.5 -126v-78q0 -85 32 -126t93 -41q37 0 64 2t60 6h4q7 0 12 -3.5t5 -11.5v-36z" unicode="¢"/>
<glyph glyph-name="sterling" d="M535 17q0 -8 -6 -12.5t-14 -4.5h-399q-9 0 -13 5t-4 10v39q0 8 3.5 13t6.5 10q17 29 24 54t7 64v152h-52q-8 0 -13 5t-5 13v42q0 8 6 13t14 5h50v65q0 62 10.5 109.5t36 79t68 47.5t106.5 16q19 0 41 -1t42.5 -3t39 -4.5t32.5 -4.5q12 -2 15.5 -5.5t3.5 -11.5v-41 q0 -17 -15 -17h-5q-33 4 -76 7.5t-78 3.5q-39 0 -64 -8.5t-40 -28.5t-20.5 -53.5t-5.5 -84.5v-65h215q8 0 13.5 -5t5.5 -13v-42q0 -8 -6 -13t-14 -5h-214v-152q0 -38 -11 -67t-24 -52h319q8 0 14 -3.5t6 -11.5v-44z" unicode="£"/>
<glyph glyph-name="currency" d="M421 373q0 25 -9.5 46.5t-26 37.5t-38 25.5t-46.5 9.5t-46.5 -9.5t-38 -25.5t-26 -37.5t-9.5 -46.5t9.5 -46.5t26 -38t38 -26t46.5 -9.5t46.5 9.5t38 26t26 38t9.5 46.5zM548 574q0 -8 -7 -15l-82 -82q17 -23 25 -50t8 -54q0 -28 -8.5 -55t-25.5 -51l82 -82q7 -7 7 -15 q0 -7 -5 -12l-27 -27q-5 -5 -11 -5q-8 0 -15 7l-84 84q-47 -33 -102 -33q-27 0 -54 8t-50 25l-82 -82q-3 -3 -7 -5.5t-9 -2.5t-10 5l-27 28q-5 7 -5 11q0 8 7 15l81 81q-17 23 -25.5 50.5t-8.5 55.5q0 27 7.5 53.5t24.5 49.5l-81 81q-7 7 -7 15t5 12l28 27q5 5 11 5 q7 0 15 -8l80 -80q24 17 51 25.5t55 8.5q58 0 106 -34l82 82q7 7 15 7q6 0 11 -5l27 -27q5 -5 5 -11z" unicode="¤"/>
<glyph glyph-name="yen" d="M569 231q0 -8 -6 -14t-14 -6h-200v-191q0 -8 -5 -14t-13 -6h-57q-8 0 -12.5 6t-4.5 14v191h-201q-8 0 -14 6t-6 14v30q0 8 6 14t14 6h201v21l-55 110h-146q-8 0 -14 6t-6 14v30q0 8 6 14t14 6h111l-119 236q-3 7 -3 12q0 13 16 13h63q5 0 10 -4.5t7 -9.5l162 -339 l162 339q2 5 6.5 9.5t10.5 4.5h62q17 0 17 -14q0 -5 -3 -11l-119 -236h110q8 0 14 -6t6 -14v-30q0 -8 -6 -14t-14 -6h-145l-55 -110v-21h200q8 0 14 -6t6 -14v-30z" unicode="¥"/>
<glyph glyph-name="brokenbar" horiz-adv-x="249" unicode="¦" d="M169 -191q0 -8 -5 -14t-13 -6h-53q-8 0 -13 6t-5 14v347q0 8 5 13.5t13 5.5h53q8 0 13 -5.5t5 -13.5v-347zM169 362q0 -8 -5 -14t-13 -6h-53q-8 0 -13 6t-5 14v347q0 8 5 13.5t13 5.5h53q8 0 13 -5.5t5 -13.5v-347z"/>
<glyph glyph-name="section" horiz-adv-x="547" unicode="§" d="M407 193q0 20 -5 35.5t-16.5 29.5t-31 28.5t-49.5 32.5l-90 55q-17 11 -36.5 23t-35.5 24q-5 -16 -7 -25t-2 -28q0 -35 22.5 -61.5t66.5 -52.5l110 -64q23 -14 36.5 -22.5t30.5 -20.5q3 8 4 13t2 9.5t1 9.5v14zM499 -17q0 -38 -11 -73.5t-38.5 -63.5t-75.5 -45t-122 -17 q-53 0 -94 4.5t-74 9.5q-7 2 -13 6.5t-6 12.5v42q0 8 6 12.5t14 4.5h2q41 -4 81 -7t81 -3h3q45 0 74 8.5t46 24t23.5 37t6.5 47.5q0 20 -4.5 35.5t-16.5 30t-33 29.5t-54 35l-112 67q-40 24 -66 45.5t-41 43.5t-21 46t-6 53q0 32 10 57t24 48q-16 17 -25 43.5t-9 57.5 q0 41 12.5 74t41 55.5t74 34.5t111.5 12q21 0 47 -1.5t50.5 -3.5t45.5 -4t32 -4q8 -2 13 -6.5t5 -12.5v-43q0 -8 -5 -12.5t-13 -4.5h-1q-44 2 -87 5.5t-87 3.5t-72 -5.5t-44 -17t-22 -29t-6 -41.5q0 -17 4.5 -31t16 -27t31 -27t49.5 -32l109 -64q45 -26 73 -50t44.5 -48 t22.5 -49t6 -53q0 -29 -6.5 -57t-22.5 -52q16 -23 22.5 -48t6.5 -53z"/>
<glyph glyph-name="dieresis" horiz-adv-x="373" unicode="¨" d="M139 660q0 -8 -6 -13.5t-14 -5.5h-39q-8 0 -14 5.5t-6 13.5v81q0 8 6 14t14 6h39q8 0 14 -6t6 -14v-81zM314 660q0 -8 -6 -13.5t-14 -5.5h-39q-8 0 -14 5.5t-6 13.5v81q0 8 6 14t14 6h39q8 0 14 -6t6 -14v-81z"/>
<glyph glyph-name="copyright" horiz-adv-x="750" unicode="©" d="M476 183q0 -8 -5 -11t-10 -4q-11 -2 -33.5 -4.5t-57.5 -2.5q-32 0 -60 10t-48.5 31.5t-32.5 56.5t-12 85v66q0 50 12 85t32.5 57t48.5 32t60 10q35 0 57.5 -3t33.5 -5q5 -1 10 -3.5t5 -10.5v-28q0 -8 -4 -10t-9 -2h-3q-16 2 -39.5 3.5t-50.5 1.5q-18 0 -34.5 -6t-29 -21 t-20 -39.5t-7.5 -60.5v-66q0 -36 7.5 -60.5t20 -39t29 -20.5t34.5 -6q26 0 50 1.5t40 3.5h2q5 0 9.5 -2.5t4.5 -10.5v-27zM656 374q0 58 -22 110t-60.5 90t-90 60.5t-109.5 22.5q-59 0 -110 -22.5t-89 -60.5t-60 -90t-22 -110q0 -59 22 -110t60 -88.5t89 -59.5t110 -22 q58 0 109.5 22t90 59.5t60.5 88.5t22 110zM700 374q0 -67 -26 -126t-70 -103t-103.5 -69.5t-126.5 -25.5t-126 25.5t-103 69.5t-69.5 103t-25.5 126t25.5 126.5t69.5 104t103 70.5t126 26t126.5 -26t103.5 -70.5t70 -104t26 -126.5z"/>
<glyph glyph-name="ordfeminine" horiz-adv-x="294" unicode="ª" d="M205 576h-23h-9q-49 -2 -67 -12t-18 -38v-7q0 -27 14 -39t54 -12q14 0 28 2l21 3v103zM264 450q0 -14 -10 -16q-23 -7 -48 -10t-50 -3q-68 -1 -97 23t-29 75v7q0 48 34 70t108 22h32v13q0 35 -12 49t-42 14q-27 0 -47 -2t-37 -3h-2q-6 0 -10 3t-4 10v21q0 7 4 10t11 4 q17 3 37 6t48 3q60 0 87 -29t27 -86v-181z"/>
<glyph glyph-name="guillemotleft" horiz-adv-x="614" unicode="«" d="M300 79q0 -9 -11 -9h-58q-6 0 -10.5 2t-10.5 8l-169 169q-5 5 -8 13.5t-3 14.5t3 14.5t8 13.5l169 169q6 6 10.5 8t10.5 2h58q11 0 11 -9q0 -7 -6 -13l-178 -185l178 -185q6 -6 6 -13zM560 79q0 -9 -11 -9h-58q-6 0 -10.5 2t-10.5 8l-169 169q-5 5 -8 13.5t-3 14.5 t3 14.5t8 13.5l169 169q6 6 10.5 8t10.5 2h58q11 0 11 -9q0 -7 -6 -13l-178 -185l178 -185q6 -6 6 -13z"/>
<glyph glyph-name="logicalnot" d="M515 247q0 -8 -6 -14t-14 -6h-32q-8 0 -14 6t-6 14v219h-333q-8 0 -14 4t-6 12v40q0 8 6 12t14 4h388q17 0 17 -17v-274z" unicode="¬"/>
<glyph glyph-name="uni00AD" horiz-adv-x="333" unicode="­" d="M285 273q0 -17 -19 -17h-199q-19 0 -19 17v39q0 8 5.5 13t13.5 5h199q19 0 19 -18v-39z"/>
<glyph glyph-name="registered" horiz-adv-x="598" unicode="®" d="M363 559q0 30 -18 42t-60 12h-32h-14v-112q8 0 24 -0.5t22 -0.5q42 0 60 12.5t18 42.5v4zM425 331q0 -13 -12 -13h-28q-8 0 -12 8l-81 128l-12 3h-40v-124q0 -5 -4 -10t-10 -5h-25q-6 0 -9.5 5t-3.5 10v302q0 20 18 22q6 1 15.5 1.5t20 1t21.5 0.5h19q63 0 97 -22t34 -79 v-4q0 -38 -17.5 -59.5t-49.5 -30.5l77 -125q2 -4 2 -9zM528 484q0 47 -18 89t-49 73t-73 49t-89 18t-88.5 -18t-72.5 -49t-48.5 -73t-17.5 -89t17.5 -88.5t48.5 -72.5t72.5 -48.5t88.5 -17.5t89 17.5t73 48.5t49 72.5t18 88.5zM569 484q0 -56 -21 -105t-58 -85t-86 -57 t-105 -21t-105 21t-85.5 57t-57.5 85t-21 105t21 105t57.5 85.5t85.5 57.5t105 21t105 -21t86 -57.5t58 -85.5t21 -105z"/>
<glyph glyph-name="macron" horiz-adv-x="373" unicode="¯" d="M351 692q0 -8 -6 -12.5t-14 -4.5h-288q-8 0 -14 4.5t-6 12.5v34q0 8 6 12.5t14 4.5h288q8 0 14 -4.5t6 -12.5v-34z"/>
<glyph glyph-name="degree" horiz-adv-x="342" unicode="°" d="M260 608q0 18 -7 34t-19 28t-28 19t-34 7t-34 -7t-28 -19t-19 -28t-7 -34t7 -34t19 -28t28 -19t34 -7t34 7t28 19t19 28t7 34zM314 608q0 -29 -11 -55t-30.5 -45.5t-45.5 -30.5t-55 -11t-55 11t-45.5 30.5t-31 45.5t-11.5 55t11.5 55t31 45.5t45.5 30.5t55 11t55 -11 t45.5 -30.5t30.5 -45.5t11 -55z"/>
<glyph glyph-name="plusminus" d="M530 16q0 -8 -6 -12t-14 -4h-415q-8 0 -14 4t-6 12v33q0 8 6 12t14 4h415q8 0 14 -4t6 -12v-33zM530 371q0 -8 -6 -12t-14 -4h-172v-171q0 -8 -4 -14t-12 -6h-40q-8 0 -12 6t-4 14v171h-171q-8 0 -14 4t-6 12v40q0 8 6 12t14 4h171v172q0 8 4 14t12 6h40q8 0 12 -6t4 -14 v-172h172q8 0 14 -4t6 -12v-40z" unicode="±"/>
<glyph glyph-name="two.superior" horiz-adv-x="333" unicode="²" d="M294 642q0 -34 -17.5 -59t-54.5 -52q-13 -8 -26.5 -17t-25.5 -18q-22 -15 -36 -27.5t-22 -24.5t-11 -25.5t-3 -29.5v-4h173q7 0 12.5 -4.5t5.5 -12.5v-23q0 -8 -5.5 -13t-12.5 -5h-214q-7 0 -12.5 5t-5.5 13v44q0 44 19.5 80.5t66.5 67.5l55 36h-1q15 11 25 19t16 15.5 t8.5 15.5t2.5 19q0 25 -17 36.5t-56 11.5q-20 0 -46 -2.5t-51 -6.5q-16 0 -16 18v19q0 13 15 18q21 5 47 7.5t51 2.5q136 0 136 -104z"/>
<glyph glyph-name="three.superior" horiz-adv-x="333" unicode="³" d="M292 446q0 -65 -40 -94t-102 -29q-25 0 -49.5 3.5t-43.5 7.5q-6 2 -11 6t-5 12v18q0 18 19 18q25 -4 48.5 -6t41.5 -2q40 0 58 15.5t18 50.5v11q0 9 -2.5 19.5t-9 19.5t-17 14.5t-26.5 5.5h-98q-17 0 -17 16v20q0 17 17 17h98q17 0 27.5 5.5t16.5 13.5t8.5 18.5t2.5 19.5 v7q0 29 -17 43t-59 14q-20 0 -38.5 -2.5t-41.5 -5.5q-2 0 -5 -0.5t-7 -0.5q-17 0 -17 18v18q0 8 4.5 12.5t10.5 6.5q19 4 42 7t52 3q64 0 103 -24.5t39 -88.5v-7q0 -56 -43 -84q26 -16 34.5 -39t8.5 -46v-11z"/>
<glyph glyph-name="acute" horiz-adv-x="373" unicode="´" d="M333 772q0 -4 -4 -8l-113 -126q-7 -8 -11 -11.5t-12 -3.5h-54q-9 0 -9 7q0 6 4 10l98 124q7 8 11 11.5t13 3.5h66q11 0 11 -7z"/>
<glyph glyph-name="mu" horiz-adv-x="557" unicode="µ" d="M489 44q0 -17 -19 -23q-35 -13 -84.5 -20.5t-100.5 -7.5q-79 0 -129 29v-198q0 -8 -6 -14t-14 -6h-48q-8 0 -14 6t-6 14v706q0 8 5.5 14t13.5 6h50q8 0 13.5 -6t5.5 -14v-329q0 -70 31 -101.5t98 -31.5q30 0 61.5 3.5t54.5 10.5v448q0 8 6 14t14 6h49q8 0 13.5 -6 t5.5 -14v-486z"/>
<glyph glyph-name="paragraph" horiz-adv-x="622" unicode="¶" d="M557 -176q0 -8 -4.5 -13.5t-12.5 -5.5h-23q-8 0 -12.5 5.5t-4.5 13.5v865h-58v-865q0 -8 -4.5 -13.5t-12.5 -5.5h-23q-8 0 -12.5 5.5t-4.5 13.5v439h-104q-52 0 -95 14.5t-74.5 43t-49 70t-17.5 95.5v34q0 54 17.5 95.5t49 70t74.5 43t95 14.5h260q16 0 16 -19v-900z"/>
<glyph glyph-name="periodcentered" horiz-adv-x="214" unicode="·" d="M150 345q0 -8 -5.5 -14t-13.5 -6h-48q-8 0 -13.5 6t-5.5 14v93q0 8 5.5 13.5t13.5 5.5h48q8 0 13.5 -5.5t5.5 -13.5v-93z"/>
<glyph glyph-name="cedilla" horiz-adv-x="366" unicode="¸" d="M254 -39q0 -4 -4 -8l-113 -126q-7 -8 -11 -11.5t-12 -3.5h-54q-9 0 -9 7q0 6 4 10l97 124q7 8 11.5 11.5t13.5 3.5h66q11 0 11 -7z"/>
<glyph glyph-name="one.superior" horiz-adv-x="333" unicode="¹" d="M71 645q-17 -6 -17 13v28q0 10 10 13l80 38q9 5 15 5.5t17 0.5h6q13 0 15 -5.5t2 -13.5v-378q0 -7 -4.5 -13t-12.5 -6h-30q-8 0 -12.5 5.5t-4.5 13.5v326z"/>
<glyph glyph-name="ordmasculine" horiz-adv-x="322" unicode="º" d="M230 601q0 46 -15.5 69t-52.5 23t-53.5 -23t-16.5 -69v-35q0 -46 16.5 -69.5t53.5 -23.5t52.5 23.5t15.5 69.5v35zM291 566q0 -70 -32.5 -107.5t-96.5 -37.5t-97 37.5t-33 107.5v35q0 70 33 107.5t97 37.5t96.5 -37.5t32.5 -107.5v-35z"/>
<glyph glyph-name="guillemotright" horiz-adv-x="614" unicode="»" d="M324 277q0 -6 -3 -14.5t-8 -13.5l-169 -169q-10 -10 -21 -10h-58q-11 0 -11 9q0 7 6 13l178 185l-178 185q-6 6 -6 13q0 9 11 9h58q6 0 10.5 -2t10.5 -8l169 -169q5 -5 8 -13.5t3 -14.5zM584 277q0 -6 -3 -14.5t-8 -13.5l-169 -169q-10 -10 -21 -10h-58q-11 0 -11 9 q0 7 6 13l178 185l-178 185q-6 6 -6 13q0 9 11 9h58q6 0 10.5 -2t10.5 -8l169 -169q5 -5 8 -13.5t3 -14.5z"/>
<glyph glyph-name="onequarter" horiz-adv-x="741" unicode="¼" d="M579 325l-113 -162h113v162zM701 124q0 -8 -5.5 -12.5t-13.5 -4.5h-38v-88q0 -7 -5 -13t-13 -6h-31q-8 0 -12.5 5.5t-4.5 13.5v88h-147q-17 0 -24 5.5t-7 22.5v20q0 15 8 26l162 224q2 5 6 8t14 3h31q23 0 23 -20v-233h38q8 0 13.5 -4.5t5.5 -12.5v-22zM57 645 q-17 -6 -17 13v28q0 10 10 13l80 38q9 5 15 5.5t17 0.5h6q13 0 15 -5.5t2 -13.5v-378q0 -7 -4.5 -13t-12.5 -6h-30q-8 0 -12.5 5.5t-4.5 13.5v326zM580 737q0 -3 -5 -13l-418 -708q-6 -11 -10 -15.5t-12 -4.5h-49q-10 0 -10 8q0 7 4 12l418 708q7 11 11 15t12 4h51q8 0 8 -6 z"/>
<glyph glyph-name="onehalf" horiz-adv-x="744" unicode="½" d="M704 315q0 -34 -17.5 -59t-54.5 -52q-13 -8 -26.5 -17t-25.5 -18q-22 -15 -36 -27.5t-22 -24.5t-11 -25.5t-3 -29.5v-4h173q7 0 12.5 -4.5t5.5 -12.5v-23q0 -8 -5.5 -13t-12.5 -5h-214q-7 0 -12.5 5t-5.5 13v44q0 44 19.5 80.5t66.5 67.5l55 36h-1q15 11 25 19t16 15.5 t8.5 15.5t2.5 19q0 25 -17 36.5t-56 11.5q-20 0 -46 -2.5t-51 -6.5q-16 0 -16 18v19q0 13 15 18q21 5 47 7.5t51 2.5q136 0 136 -104zM57 645q-17 -6 -17 13v28q0 10 10 13l80 38q9 5 15 5.5t17 0.5h6q13 0 15 -5.5t2 -13.5v-378q0 -7 -4.5 -13t-12.5 -6h-30q-8 0 -12.5 5.5 t-4.5 13.5v326zM580 737q0 -3 -5 -13l-418 -708q-6 -11 -10 -15.5t-12 -4.5h-49q-10 0 -10 8q0 7 4 12l418 708q7 11 11 15t12 4h51q8 0 8 -6z"/>
<glyph glyph-name="threequarters" horiz-adv-x="826" unicode="¾" d="M291 446q0 -65 -40 -94t-102 -29q-25 0 -49.5 3.5t-43.5 7.5q-6 2 -11 6t-5 12v18q0 18 19 18q25 -4 48.5 -6t41.5 -2q40 0 58 15.5t18 50.5v11q0 9 -2.5 19.5t-9 19.5t-17 14.5t-26.5 5.5h-98q-17 0 -17 16v20q0 17 17 17h98q17 0 27.5 5.5t16.5 13.5t8.5 18.5t2.5 19.5 v7q0 29 -17 43t-59 14q-20 0 -38.5 -2.5t-41.5 -5.5q-2 0 -5 -0.5t-7 -0.5q-17 0 -17 18v18q0 8 4.5 12.5t10.5 6.5q19 4 42 7t52 3q64 0 103 -24.5t39 -88.5v-7q0 -56 -43 -84q26 -16 34.5 -39t8.5 -46v-11zM664 325l-113 -162h113v162zM786 124q0 -8 -5.5 -12.5 t-13.5 -4.5h-38v-88q0 -7 -5 -13t-13 -6h-31q-8 0 -12.5 5.5t-4.5 13.5v88h-147q-17 0 -24 5.5t-7 22.5v20q0 15 8 26l162 224q2 5 6 8t14 3h31q23 0 23 -20v-233h38q8 0 13.5 -4.5t5.5 -12.5v-22zM664 737q0 -3 -5 -13l-418 -708q-6 -11 -10 -15.5t-12 -4.5h-49 q-10 0 -10 8q0 7 4 12l418 708q7 11 11 15t12 4h51q8 0 8 -6z"/>
<glyph glyph-name="questiondown" horiz-adv-x="446" unicode="¿" d="M406 -165q0 -9 -2.5 -15t-14.5 -8q-31 -6 -66.5 -9.5t-69.5 -3.5q-43 0 -79.5 7.5t-63.5 25t-42 46.5t-15 72v12q0 18 3.5 35t13.5 36.5t28 43.5t46 56l45 51q14 16 24 27.5t16.5 23t9.5 23.5t3 29v49q0 8 6 13.5t14 5.5h44q8 0 13.5 -5.5t5.5 -13.5v-49q0 -24 -3 -42.5 t-10.5 -35.5t-20.5 -34.5t-32 -38.5l-46 -51q-19 -21 -31 -37t-19 -30t-9.5 -27.5t-2.5 -28.5v-12q0 -40 25 -56t77 -16q36 0 68.5 2.5t66.5 6.5h3q15 0 15 -17v-35zM328 438q0 -8 -6 -14t-14 -6h-48q-8 0 -13.5 6t-5.5 14v93q0 19 19 19h48q8 0 14 -5.5t6 -13.5v-93z"/>
<glyph glyph-name="Agrave" horiz-adv-x="633" unicode="À" d="M385 801q0 -7 -9 -7h-54q-8 0 -12 3.5t-11 11.5l-113 126q-4 4 -4 8q0 7 11 7h66q9 0 13.5 -3.5t11.5 -11.5l97 -124q4 -4 4 -10zM336 653q-5 18 -19 18q-15 0 -20 -18l-91 -329h221zM604 16q0 -16 -17 -16h-59q-7 0 -11 4.5t-6 10.5l-65 230h-259l-64 -230 q-2 -6 -7 -10.5t-11 -4.5h-59q-17 0 -17 16q0 5 1 7l185 651q6 23 17.5 37.5t25.5 23t29.5 12t29.5 3.5t29 -3t29 -11.5t25.5 -23t17.5 -37.5l185 -652q1 -2 1 -7z"/>
<glyph glyph-name="Aacute" horiz-adv-x="633" unicode="Á" d="M469 943q0 -4 -4 -8l-113 -126q-7 -8 -11 -11.5t-12 -3.5h-54q-9 0 -9 7q0 6 4 10l98 124q7 8 11 11.5t13 3.5h66q11 0 11 -7zM336 653q-5 18 -19 18q-15 0 -20 -18l-91 -329h221zM604 16q0 -16 -17 -16h-59q-7 0 -11 4.5t-6 10.5l-65 230h-259l-64 -230q-2 -6 -7 -10.5 t-11 -4.5h-59q-17 0 -17 16q0 5 1 7l185 651q6 23 17.5 37.5t25.5 23t29.5 12t29.5 3.5t29 -3t29 -11.5t25.5 -23t17.5 -37.5l185 -652q1 -2 1 -7z"/>
<glyph glyph-name="Acircumflex" horiz-adv-x="633" unicode="Â" d="M488 801q0 -7 -9 -7h-52q-8 0 -12 3.5t-11 11.5l-82 97l-83 -97q-7 -8 -11 -11.5t-12 -3.5h-52q-9 0 -9 7q0 6 4 10l96 124q7 8 11 11.5t13 3.5h85q9 0 13.5 -3.5t11.5 -11.5l95 -124q4 -4 4 -10zM336 653q-5 18 -19 18q-15 0 -20 -18l-91 -329h221zM604 16 q0 -16 -17 -16h-59q-7 0 -11 4.5t-6 10.5l-65 230h-259l-64 -230q-2 -6 -7 -10.5t-11 -4.5h-59q-17 0 -17 16q0 5 1 7l185 651q6 23 17.5 37.5t25.5 23t29.5 12t29.5 3.5t29 -3t29 -11.5t25.5 -23t17.5 -37.5l185 -652q1 -2 1 -7z"/>
<glyph glyph-name="Atilde" horiz-adv-x="633" unicode="Ã" d="M497 894q0 -52 -21.5 -78.5t-72.5 -26.5q-17 0 -33.5 5t-30.5 16l-61 49q-18 14 -25 18t-16 4q-18 0 -24.5 -11.5t-6.5 -34.5v-21q0 -7 -5 -12t-12 -5h-31q-7 0 -11.5 5t-4.5 12v21q0 54 25 81.5t70 27.5q17 0 31.5 -6.5t28.5 -17.5l71 -56q8 -6 18 -10t17 -4 q15 0 22.5 9t7.5 35v23q0 7 5 12t12 5h31q7 0 11.5 -5t4.5 -12v-23zM336 653q-5 18 -19 18q-15 0 -20 -18l-91 -329h221zM604 16q0 -16 -17 -16h-59q-7 0 -11 4.5t-6 10.5l-65 230h-259l-64 -230q-2 -6 -7 -10.5t-11 -4.5h-59q-17 0 -17 16q0 5 1 7l185 651q6 23 17.5 37.5 t25.5 23t29.5 12t29.5 3.5t29 -3t29 -11.5t25.5 -23t17.5 -37.5l185 -652q1 -2 1 -7z"/>
<glyph glyph-name="Adieresis" horiz-adv-x="633" unicode="Ä" d="M275 827q0 -8 -6 -13.5t-14 -5.5h-39q-8 0 -14 5.5t-6 13.5v81q0 8 6 14t14 6h39q8 0 14 -6t6 -14v-81zM450 827q0 -8 -6 -13.5t-14 -5.5h-39q-8 0 -14 5.5t-6 13.5v81q0 8 6 14t14 6h39q8 0 14 -6t6 -14v-81zM336 653q-5 18 -19 18q-15 0 -20 -18l-91 -329h221zM604 16 q0 -16 -17 -16h-59q-7 0 -11 4.5t-6 10.5l-65 230h-259l-64 -230q-2 -6 -7 -10.5t-11 -4.5h-59q-17 0 -17 16q0 5 1 7l185 651q6 23 17.5 37.5t25.5 23t29.5 12t29.5 3.5t29 -3t29 -11.5t25.5 -23t17.5 -37.5l185 -652q1 -2 1 -7z"/>
<glyph glyph-name="Aring" horiz-adv-x="633" unicode="Å" d="M369 879q0 22 -15.5 37t-37.5 15t-37 -15t-15 -37t15 -37.5t37 -15.5t37.5 15.5t15.5 37.5zM417 878q0 -21 -8 -39.5t-21.5 -32t-32 -21.5t-39.5 -8t-39.5 8t-32.5 21.5t-22 32t-8 39.5t8 39.5t22 32.5t32.5 22t39.5 8t39.5 -8t32 -22t21.5 -32.5t8 -39.5zM336 653 q-5 18 -19 18q-15 0 -20 -18l-91 -329h221zM604 16q0 -16 -17 -16h-59q-7 0 -11 4.5t-6 10.5l-65 230h-259l-64 -230q-2 -6 -7 -10.5t-11 -4.5h-59q-17 0 -17 16q0 5 1 7l185 651q6 23 17.5 37.5t25.5 23t29.5 12t29.5 3.5t29 -3t29 -11.5t25.5 -23t17.5 -37.5l185 -652 q1 -2 1 -7z"/>
<glyph glyph-name="AE" horiz-adv-x="859" unicode="Æ" d="M416 664h-109q-15 0 -20 -17l-91 -323h220v340zM804 14q0 -5 -2.5 -9t-7.5 -5q-11 -1 -29.5 -2.5t-41.5 -2.5t-47.5 -1.5t-46.5 -0.5q-106 0 -159.5 43t-53.5 143v66h-239l-64 -230q-2 -6 -7 -10.5t-11 -4.5h-59q-17 0 -17 16q0 5 1 7l185 645q7 23 18.5 37.5t25 23 t29 11.5t29.5 3h487q5 0 7.5 -4.5t2.5 -9.5v-53q0 -12 -11 -12h-286v-239h277q8 0 14 -6t6 -14v-38q0 -8 -6 -14t-14 -6h-277v-168q0 -29 4.5 -48.5t17.5 -32t37 -18t64 -5.5h163q11 0 11 -12v-49z"/>
<glyph glyph-name="Ccedilla" horiz-adv-x="545" unicode="Ç" d="M381 -39q0 -4 -4 -8l-113 -126q-7 -8 -11 -11.5t-12 -3.5h-54q-9 0 -9 7q0 4 4 10l97 124q7 8 12 11.5t13 3.5h66q11 0 11 -7zM510 26q0 -9 -6 -13.5t-14 -6.5q-16 -3 -32 -5.5t-35 -4t-43 -2.5t-56 -1q-46 0 -93 14t-85 49.5t-62 95t-24 150.5v139q0 92 24 151.5 t62 94.5t85 49t93 14q48 0 91.5 -5.5t76.5 -10.5q16 -2 16 -13v-51q0 -5 -2 -8t-10 -3h-3q-14 1 -33.5 2.5t-42 3t-46.5 2.5t-46 1q-37 0 -68.5 -11.5t-55 -38t-37 -70t-13.5 -107.5v-139q0 -63 13.5 -106.5t37 -70t55 -38.5t68.5 -12q21 0 44.5 1t46 2t41.5 2.5t33 2.5h4 q16 0 16 -16v-41z"/>
<glyph glyph-name="Egrave" horiz-adv-x="551" unicode="È" d="M360 800q0 -7 -9 -7h-54q-8 0 -12 3.5t-11 11.5l-113 126q-4 4 -4 8q0 7 11 7h66q9 0 13.5 -3.5t11.5 -11.5l97 -124q4 -4 4 -10zM496 12q0 -5 -2.5 -9t-7.5 -5q-14 -2 -38 -2.5t-51.5 -1.5t-55.5 -1h-50q-106 0 -159.5 43t-53.5 143v385q0 100 53.5 143t159.5 43 q22 0 49.5 -0.5t54.5 -1t51 -2l40 -2.5q5 -1 7.5 -5t2.5 -9v-50q0 -12 -11 -12h-193q-40 0 -64 -5.5t-37 -18t-17.5 -32.5t-4.5 -48v-139h307q8 0 14 -6t6 -14v-38q0 -8 -6 -14t-14 -6h-307v-168q0 -29 4.5 -48.5t17.5 -32t37 -18t64 -5.5h193q11 0 11 -12v-51z"/>
<glyph glyph-name="Eacute" horiz-adv-x="551" unicode="É" d="M436 943q0 -4 -4 -8l-113 -126q-7 -8 -11 -11.5t-12 -3.5h-54q-9 0 -9 7q0 6 4 10l98 124q7 8 11 11.5t13 3.5h66q11 0 11 -7zM496 12q0 -5 -2.5 -9t-7.5 -5q-14 -2 -38 -2.5t-51.5 -1.5t-55.5 -1h-50q-106 0 -159.5 43t-53.5 143v385q0 100 53.5 143t159.5 43 q22 0 49.5 -0.5t54.5 -1t51 -2l40 -2.5q5 -1 7.5 -5t2.5 -9v-50q0 -12 -11 -12h-193q-40 0 -64 -5.5t-37 -18t-17.5 -32.5t-4.5 -48v-139h307q8 0 14 -6t6 -14v-38q0 -8 -6 -14t-14 -6h-307v-168q0 -29 4.5 -48.5t17.5 -32t37 -18t64 -5.5h193q11 0 11 -12v-51z"/>
<glyph glyph-name="Ecircumflex" horiz-adv-x="551" unicode="Ê" d="M456 801q0 -7 -9 -7h-52q-8 0 -12 3.5t-11 11.5l-82 97l-83 -97q-7 -8 -11 -11.5t-12 -3.5h-52q-9 0 -9 7q0 6 4 10l96 124q7 8 11 11.5t13 3.5h85q9 0 13.5 -3.5t11.5 -11.5l95 -124q4 -4 4 -10zM496 12q0 -5 -2.5 -9t-7.5 -5q-14 -2 -38 -2.5t-51.5 -1.5t-55.5 -1h-50 q-106 0 -159.5 43t-53.5 143v385q0 100 53.5 143t159.5 43q22 0 49.5 -0.5t54.5 -1t51 -2l40 -2.5q5 -1 7.5 -5t2.5 -9v-50q0 -12 -11 -12h-193q-40 0 -64 -5.5t-37 -18t-17.5 -32.5t-4.5 -48v-139h307q8 0 14 -6t6 -14v-38q0 -8 -6 -14t-14 -6h-307v-168q0 -29 4.5 -48.5 t17.5 -32t37 -18t64 -5.5h193q11 0 11 -12v-51z"/>
<glyph glyph-name="Edieresis" horiz-adv-x="551" unicode="Ë" d="M249 829q0 -8 -6 -13.5t-14 -5.5h-39q-8 0 -14 5.5t-6 13.5v81q0 8 6 14t14 6h39q8 0 14 -6t6 -14v-81zM424 829q0 -8 -6 -13.5t-14 -5.5h-39q-8 0 -14 5.5t-6 13.5v81q0 8 6 14t14 6h39q8 0 14 -6t6 -14v-81zM496 12q0 -5 -2.5 -9t-7.5 -5q-14 -2 -38 -2.5t-51.5 -1.5 t-55.5 -1h-50q-106 0 -159.5 43t-53.5 143v385q0 100 53.5 143t159.5 43q22 0 49.5 -0.5t54.5 -1t51 -2l40 -2.5q5 -1 7.5 -5t2.5 -9v-50q0 -12 -11 -12h-193q-40 0 -64 -5.5t-37 -18t-17.5 -32.5t-4.5 -48v-139h307q8 0 14 -6t6 -14v-38q0 -8 -6 -14t-14 -6h-307v-168 q0 -29 4.5 -48.5t17.5 -32t37 -18t64 -5.5h193q11 0 11 -12v-51z"/>
<glyph glyph-name="Igrave" horiz-adv-x="267" unicode="Ì" d="M198 801q0 -7 -9 -7h-54q-8 0 -12 3.5t-11 11.5l-113 126q-4 4 -4 8q0 7 11 7h66q9 0 13.5 -3.5t11.5 -11.5l97 -124q4 -4 4 -10zM179 20q0 -8 -5 -14t-13 -6h-55q-8 0 -13 6t-5 14v704q0 8 5 13.5t13 5.5h55q8 0 13 -5.5t5 -13.5v-704z"/>
<glyph glyph-name="Iacute" horiz-adv-x="267" unicode="Í" d="M272 943q0 -4 -4 -8l-113 -126q-7 -8 -11 -11.5t-12 -3.5h-54q-9 0 -9 7q0 6 4 10l98 124q7 8 11 11.5t13 3.5h66q11 0 11 -7zM179 20q0 -8 -5 -14t-13 -6h-55q-8 0 -13 6t-5 14v704q0 8 5 13.5t13 5.5h55q8 0 13 -5.5t5 -13.5v-704z"/>
<glyph glyph-name="Icircumflex" horiz-adv-x="267" unicode="Î" d="M296 801q0 -7 -9 -7h-52q-8 0 -12 3.5t-11 11.5l-82 97l-83 -97q-7 -8 -11 -11.5t-12 -3.5h-52q-9 0 -9 7q0 6 4 10l96 124q7 8 11 11.5t13 3.5h85q9 0 13.5 -3.5t11.5 -11.5l95 -124q4 -4 4 -10zM179 20q0 -8 -5 -14t-13 -6h-55q-8 0 -13 6t-5 14v704q0 8 5 13.5t13 5.5 h55q8 0 13 -5.5t5 -13.5v-704z"/>
<glyph glyph-name="Idieresis" horiz-adv-x="267" unicode="Ï" d="M86 828q0 -8 -6 -13.5t-14 -5.5h-39q-8 0 -14 5.5t-6 13.5v81q0 8 6 14t14 6h39q8 0 14 -6t6 -14v-81zM261 828q0 -8 -6 -13.5t-14 -5.5h-39q-8 0 -14 5.5t-6 13.5v81q0 8 6 14t14 6h39q8 0 14 -6t6 -14v-81zM179 20q0 -8 -5 -14t-13 -6h-55q-8 0 -13 6t-5 14v704 q0 8 5 13.5t13 5.5h55q8 0 13 -5.5t5 -13.5v-704z"/>
<glyph glyph-name="Eth" horiz-adv-x="641" unicode="Ð" d="M493 439q0 68 -16.5 113t-45 71.5t-67 37.5t-83.5 11q-35 0 -60.5 -0.5t-50.5 -2.5v-244h103q8 0 14 -6t6 -14v-38q0 -8 -6 -14t-14 -6h-103v-274q24 -2 50 -2h61q45 0 83.5 11t67 38t45 71.5t16.5 112.5v135zM584 304q0 -80 -21.5 -139t-61 -97t-95.5 -56.5t-125 -18.5 q-29 0 -56.5 1t-52 2.5t-43.5 3t-30 3.5q-21 3 -21 25v319h-38q-8 0 -14 6t-6 14v38q0 8 6 14t14 6h38v290q0 22 21 25q11 2 30 3.5t43.5 3t52 2.5t56.5 1q69 0 125 -18t95.5 -56.5t61 -97t21.5 -139.5v-135z"/>
<glyph glyph-name="Ntilde" horiz-adv-x="680" unicode="Ñ" d="M508 892q0 -52 -21.5 -78.5t-72.5 -26.5q-17 0 -33.5 5t-30.5 16l-61 49q-18 14 -25 18t-16 4q-18 0 -24.5 -11.5t-6.5 -34.5v-21q0 -7 -5 -12t-12 -5h-31q-7 0 -11.5 5t-4.5 12v21q0 54 25 81.5t70 27.5q17 0 31.5 -6.5t28.5 -17.5l71 -56q8 -6 18 -10t17 -4 q15 0 22.5 9t7.5 35v23q0 7 5 12t12 5h31q7 0 11.5 -5t4.5 -12v-23zM602 29q0 -12 -8.5 -20.5t-20.5 -8.5h-62q-24 0 -32 16l-309 587q-2 3 -3 3t-1 -3v-584q0 -8 -5 -13.5t-13 -5.5h-52q-8 0 -13 2t-5 10v703q0 12 8.5 20t20.5 8h55q21 0 28 -4.5t13 -15.5l307 -584l2 -3 q1 0 1 3v585q0 8 5 13.5t13 5.5h53q8 0 13 -5.5t5 -13.5v-695z"/>
<glyph glyph-name="Ograve" horiz-adv-x="661" unicode="Ò" d="M397 801q0 -7 -9 -7h-54q-8 0 -12 3.5t-11 11.5l-113 126q-4 4 -4 8q0 7 11 7h66q9 0 13.5 -3.5t11.5 -11.5l97 -124q4 -4 4 -10zM509 436q0 63 -12.5 107t-35.5 72t-56 40.5t-74 12.5t-74 -12.5t-56.5 -40.5t-36 -72t-12.5 -107v-129q0 -63 12.5 -107t35.5 -72 t56.5 -40.5t74.5 -12.5t74 12.5t56 40.5t35.5 72t12.5 107v129zM601 307q0 -83 -20 -142.5t-56 -97.5t-85.5 -56t-108.5 -18t-108.5 18t-85.5 56t-56.5 97.5t-20.5 142.5v129q0 83 20.5 142.5t56.5 97.5t85.5 56t108.5 18t108.5 -18t85.5 -56t56 -97.5t20 -142.5v-129z"/>
<glyph glyph-name="Oacute" horiz-adv-x="661" unicode="Ó" d="M457 943q0 -4 -4 -8l-113 -126q-7 -8 -11 -11.5t-12 -3.5h-54q-9 0 -9 7q0 6 4 10l98 124q7 8 11 11.5t13 3.5h66q11 0 11 -7zM509 436q0 63 -12.5 107t-35.5 72t-56 40.5t-74 12.5t-74 -12.5t-56.5 -40.5t-36 -72t-12.5 -107v-129q0 -63 12.5 -107t35.5 -72t56.5 -40.5 t74.5 -12.5t74 12.5t56 40.5t35.5 72t12.5 107v129zM601 307q0 -83 -20 -142.5t-56 -97.5t-85.5 -56t-108.5 -18t-108.5 18t-85.5 56t-56.5 97.5t-20.5 142.5v129q0 83 20.5 142.5t56.5 97.5t85.5 56t108.5 18t108.5 -18t85.5 -56t56 -97.5t20 -142.5v-129z"/>
<glyph glyph-name="Ocircumflex" horiz-adv-x="661" unicode="Ô" d="M497 802q0 -7 -9 -7h-52q-8 0 -12 3.5t-11 11.5l-82 97l-83 -97q-7 -8 -11 -11.5t-12 -3.5h-52q-9 0 -9 7q0 6 4 10l96 124q7 8 11 11.5t13 3.5h85q9 0 13.5 -3.5t11.5 -11.5l95 -124q4 -4 4 -10zM509 436q0 63 -12.5 107t-35.5 72t-56 40.5t-74 12.5t-74 -12.5 t-56.5 -40.5t-36 -72t-12.5 -107v-129q0 -63 12.5 -107t35.5 -72t56.5 -40.5t74.5 -12.5t74 12.5t56 40.5t35.5 72t12.5 107v129zM601 307q0 -83 -20 -142.5t-56 -97.5t-85.5 -56t-108.5 -18t-108.5 18t-85.5 56t-56.5 97.5t-20.5 142.5v129q0 83 20.5 142.5t56.5 97.5 t85.5 56t108.5 18t108.5 -18t85.5 -56t56 -97.5t20 -142.5v-129z"/>
<glyph glyph-name="Otilde" horiz-adv-x="661" unicode="Õ" d="M511 894q0 -52 -21.5 -78.5t-72.5 -26.5q-17 0 -33.5 5t-30.5 16l-61 49q-18 14 -25 18t-16 4q-18 0 -24.5 -11.5t-6.5 -34.5v-21q0 -7 -5 -12t-12 -5h-31q-7 0 -11.5 5t-4.5 12v21q0 54 25 81.5t70 27.5q17 0 31.5 -6.5t28.5 -17.5l71 -56q8 -6 18 -10t17 -4 q15 0 22.5 9t7.5 35v23q0 7 5 12t12 5h31q7 0 11.5 -5t4.5 -12v-23zM509 436q0 63 -12.5 107t-35.5 72t-56 40.5t-74 12.5t-74 -12.5t-56.5 -40.5t-36 -72t-12.5 -107v-129q0 -63 12.5 -107t35.5 -72t56.5 -40.5t74.5 -12.5t74 12.5t56 40.5t35.5 72t12.5 107v129zM601 307 q0 -83 -20 -142.5t-56 -97.5t-85.5 -56t-108.5 -18t-108.5 18t-85.5 56t-56.5 97.5t-20.5 142.5v129q0 83 20.5 142.5t56.5 97.5t85.5 56t108.5 18t108.5 -18t85.5 -56t56 -97.5t20 -142.5v-129z"/>
<glyph glyph-name="Odieresis" horiz-adv-x="661" unicode="Ö" d="M283 829q0 -8 -6 -13.5t-14 -5.5h-39q-8 0 -14 5.5t-6 13.5v81q0 8 6 14t14 6h39q8 0 14 -6t6 -14v-81zM458 829q0 -8 -6 -13.5t-14 -5.5h-39q-8 0 -14 5.5t-6 13.5v81q0 8 6 14t14 6h39q8 0 14 -6t6 -14v-81zM509 436q0 63 -12.5 107t-35.5 72t-56 40.5t-74 12.5 t-74 -12.5t-56.5 -40.5t-36 -72t-12.5 -107v-129q0 -63 12.5 -107t35.5 -72t56.5 -40.5t74.5 -12.5t74 12.5t56 40.5t35.5 72t12.5 107v129zM601 307q0 -83 -20 -142.5t-56 -97.5t-85.5 -56t-108.5 -18t-108.5 18t-85.5 56t-56.5 97.5t-20.5 142.5v129q0 83 20.5 142.5 t56.5 97.5t85.5 56t108.5 18t108.5 -18t85.5 -56t56 -97.5t20 -142.5v-129z"/>
<glyph glyph-name="multiply" d="M488 243q0 -5 -5 -10l-28 -28q-5 -5 -10 -5q-8 0 -16 8l-132 132l-131 -131q-8 -8 -16 -8q-5 0 -10 5l-28 28q-5 5 -5 10q0 8 8 16l131 131l-131 132q-8 8 -8 15q0 5 5 10l28 28q5 5 11 5q8 0 15 -7l131 -132l132 132q8 8 16 8q5 0 10 -5l28 -28q5 -5 5 -10q0 -8 -8 -16 l-132 -132l132 -132q8 -8 8 -16z" unicode="×"/>
<glyph glyph-name="Oslash" horiz-adv-x="661" unicode="Ø" d="M509 436q0 62 -12 106l-297 -414q23 -28 56 -40.5t75 -12.5q41 0 74 12.5t56 40.5t35.5 72t12.5 107v129zM462 613q-45 55 -131 55q-41 0 -74 -12.5t-56.5 -40.5t-36 -72t-12.5 -107v-129q0 -32 3.5 -58.5t9.5 -49.5zM633 735q0 -4 -3 -8l-71 -98q20 -36 31 -84t11 -109 v-129q0 -83 -20 -142.5t-56 -97.5t-85.5 -56t-108.5 -18q-54 0 -101 15.5t-82 47.5l-31 -44q-5 -6 -11 -12.5t-14 -6.5h-53q-11 0 -11 11q0 3 3 8l72 100q-43 74 -43 195v129q0 83 20.5 142.5t56.5 97.5t85.5 56t108.5 18q55 0 102 -15.5t82 -48.5l29 41q5 6 11.5 12.5 t14.5 6.5h52q11 0 11 -11z"/>
<glyph glyph-name="Ugrave" horiz-adv-x="662" unicode="Ù" d="M389 801q0 -7 -9 -7h-54q-8 0 -12 3.5t-11 11.5l-113 126q-4 4 -4 8q0 7 11 7h66q9 0 13.5 -3.5t11.5 -11.5l97 -124q4 -4 4 -10zM587 270q0 -143 -67.5 -210t-188.5 -67q-122 0 -189 67t-67 210v454q0 8 5.5 13.5t13.5 5.5h54q8 0 13.5 -5.5t5.5 -13.5v-454 q0 -48 8 -85.5t27.5 -62.5t50.5 -38t78 -13q46 0 77.5 13t51 38t27.5 62t8 86v454q0 8 5.5 13.5t13.5 5.5h54q8 0 13.5 -5.5t5.5 -13.5v-454z"/>
<glyph glyph-name="Uacute" horiz-adv-x="662" unicode="Ú" d="M479 943q0 -4 -4 -8l-113 -126q-7 -8 -11 -11.5t-12 -3.5h-54q-9 0 -9 7q0 6 4 10l98 124q7 8 11 11.5t13 3.5h66q11 0 11 -7zM587 270q0 -143 -67.5 -210t-188.5 -67q-122 0 -189 67t-67 210v454q0 8 5.5 13.5t13.5 5.5h54q8 0 13.5 -5.5t5.5 -13.5v-454q0 -48 8 -85.5 t27.5 -62.5t50.5 -38t78 -13q46 0 77.5 13t51 38t27.5 62t8 86v454q0 8 5.5 13.5t13.5 5.5h54q8 0 13.5 -5.5t5.5 -13.5v-454z"/>
<glyph glyph-name="Ucircumflex" horiz-adv-x="662" unicode="Û" d="M494 801q0 -7 -9 -7h-52q-8 0 -12 3.5t-11 11.5l-82 97l-83 -97q-7 -8 -11 -11.5t-12 -3.5h-52q-9 0 -9 7q0 6 4 10l96 124q7 8 11 11.5t13 3.5h85q9 0 13.5 -3.5t11.5 -11.5l95 -124q4 -4 4 -10zM587 270q0 -143 -67.5 -210t-188.5 -67q-122 0 -189 67t-67 210v454 q0 8 5.5 13.5t13.5 5.5h54q8 0 13.5 -5.5t5.5 -13.5v-454q0 -48 8 -85.5t27.5 -62.5t50.5 -38t78 -13q46 0 77.5 13t51 38t27.5 62t8 86v454q0 8 5.5 13.5t13.5 5.5h54q8 0 13.5 -5.5t5.5 -13.5v-454z"/>
<glyph glyph-name="Udieresis" horiz-adv-x="662" unicode="Ü" d="M281 829q0 -8 -6 -13.5t-14 -5.5h-39q-8 0 -14 5.5t-6 13.5v81q0 8 6 14t14 6h39q8 0 14 -6t6 -14v-81zM456 829q0 -8 -6 -13.5t-14 -5.5h-39q-8 0 -14 5.5t-6 13.5v81q0 8 6 14t14 6h39q8 0 14 -6t6 -14v-81zM587 270q0 -143 -67.5 -210t-188.5 -67q-122 0 -189 67 t-67 210v454q0 8 5.5 13.5t13.5 5.5h54q8 0 13.5 -5.5t5.5 -13.5v-454q0 -48 8 -85.5t27.5 -62.5t50.5 -38t78 -13q46 0 77.5 13t51 38t27.5 62t8 86v454q0 8 5.5 13.5t13.5 5.5h54q8 0 13.5 -5.5t5.5 -13.5v-454z"/>
<glyph glyph-name="Yacute" horiz-adv-x="583" unicode="Ý" d="M438 943q0 -4 -4 -8l-113 -126q-7 -8 -11 -11.5t-12 -3.5h-54q-9 0 -9 7q0 6 4 10l98 124q7 8 11 11.5t13 3.5h66q11 0 11 -7zM549 729q0 -5 -3 -11l-155 -348q-14 -30 -27 -45t-27 -21v-284q0 -8 -5 -14t-13 -6h-55q-8 0 -13 6t-5 14v284q-14 5 -27 20.5t-27 45.5 l-154 348q-3 6 -3 11q0 14 17 14h61q5 0 10.5 -4.5t7.5 -9.5l138 -324q8 -17 13 -21.5t10 -4.5t10 4.5t13 21.5l139 324q2 5 6.5 9.5t10.5 4.5h61q17 0 17 -14z"/>
<glyph glyph-name="Thorn" horiz-adv-x="593" unicode="Þ" d="M457 440q0 78 -48 108.5t-142 30.5h-53t-46 -2v-296q9 0 21.5 -0.5t26.5 -1t27.5 -1t23.5 -0.5q97 0 143.5 34t46.5 114v14zM548 426q0 -64 -21 -107t-58.5 -69.5t-89 -38t-112.5 -11.5q-26 0 -52 0.5t-47 2.5v-183q0 -8 -4 -14t-12 -6h-56q-8 0 -13 6t-5 14v704 q0 8 5 13.5t13 5.5h55q8 0 12.5 -5.5t4.5 -13.5v-69q20 1 47.5 2t49.5 1q61 0 113 -11.5t90 -37t59 -67.5t21 -102v-14z"/>
<glyph glyph-name="germandbls" horiz-adv-x="581" unicode="ß" d="M527 215q0 -59 -19.5 -101t-52 -69t-75.5 -39.5t-90 -12.5q-11 0 -22 0.5t-26 2.5q-8 1 -14 6t-6 13v41q0 11 11 11q10 0 22.5 -0.5t20.5 -0.5q36 0 66 7t51 24t33 45.5t12 72.5v14q0 55 -39 91.5t-116 36.5h-37q-8 0 -14 6t-6 14v29q0 8 6 14t14 6h37q38 0 64.5 10 t43.5 27t24.5 39t7.5 46v12q0 55 -31 88t-100 33q-70 0 -104 -39.5t-34 -127.5v-493q0 -8 -5 -14.5t-13 -6.5h-53q-8 0 -13 6.5t-5 14.5v493q0 63 16 109t45.5 76t71.5 44.5t94 14.5q48 0 88 -11.5t69 -35.5t45.5 -61.5t16.5 -89.5v-12q0 -54 -31 -94.5t-74 -59.5 q53 -19 87 -62t34 -103v-14z"/>
<glyph glyph-name="agrave" horiz-adv-x="519" unicode="à" d="M324 630q0 -7 -9 -7h-54q-8 0 -12 3.5t-11 11.5l-113 126q-4 4 -4 8q0 7 11 7h66q9 0 13.5 -3.5t11.5 -11.5l97 -124q4 -4 4 -10zM363 266h-74q-45 0 -75 -5.5t-47 -17t-24 -30t-7 -45.5v-12q0 -54 24 -72.5t68 -18.5q35 0 67 10t68 30v161zM451 20q0 -8 -6 -14t-14 -6 h-46q-8 0 -14 6t-6 14v22q-36 -21 -74 -35t-80 -14q-32 0 -61.5 7.5t-52 26.5t-36 50t-13.5 78v12q0 40 12.5 70.5t41 51t74.5 30.5t113 10h74v40q0 63 -24 88t-83 25q-49 0 -86 -2.5t-67 -5.5h-5q-7 0 -12.5 3t-5.5 13v35q0 16 21 19q31 5 67.5 9t87.5 4q104 0 149.5 -50 t45.5 -138v-349z"/>
<glyph glyph-name="aacute" horiz-adv-x="519" unicode="á" d="M412 772q0 -4 -4 -8l-113 -126q-7 -8 -11 -11.5t-12 -3.5h-54q-9 0 -9 7q0 6 4 10l98 124q7 8 11 11.5t13 3.5h66q11 0 11 -7zM363 266h-74q-45 0 -75 -5.5t-47 -17t-24 -30t-7 -45.5v-12q0 -54 24 -72.5t68 -18.5q35 0 67 10t68 30v161zM451 20q0 -8 -6 -14t-14 -6h-46 q-8 0 -14 6t-6 14v22q-36 -21 -74 -35t-80 -14q-32 0 -61.5 7.5t-52 26.5t-36 50t-13.5 78v12q0 40 12.5 70.5t41 51t74.5 30.5t113 10h74v40q0 63 -24 88t-83 25q-49 0 -86 -2.5t-67 -5.5h-5q-7 0 -12.5 3t-5.5 13v35q0 16 21 19q31 5 67.5 9t87.5 4q104 0 149.5 -50 t45.5 -138v-349z"/>
<glyph glyph-name="acircumflex" horiz-adv-x="519" unicode="â" d="M425 630q0 -7 -9 -7h-52q-8 0 -12 3.5t-11 11.5l-82 97l-83 -97q-7 -8 -11 -11.5t-12 -3.5h-52q-9 0 -9 7q0 6 4 10l96 124q7 8 11 11.5t13 3.5h85q9 0 13.5 -3.5t11.5 -11.5l95 -124q4 -4 4 -10zM363 266h-74q-45 0 -75 -5.5t-47 -17t-24 -30t-7 -45.5v-12 q0 -54 24 -72.5t68 -18.5q35 0 67 10t68 30v161zM451 20q0 -8 -6 -14t-14 -6h-46q-8 0 -14 6t-6 14v22q-36 -21 -74 -35t-80 -14q-32 0 -61.5 7.5t-52 26.5t-36 50t-13.5 78v12q0 40 12.5 70.5t41 51t74.5 30.5t113 10h74v40q0 63 -24 88t-83 25q-49 0 -86 -2.5t-67 -5.5h-5 q-7 0 -12.5 3t-5.5 13v35q0 16 21 19q31 5 67.5 9t87.5 4q104 0 149.5 -50t45.5 -138v-349z"/>
<glyph glyph-name="atilde" horiz-adv-x="519" unicode="ã" d="M446 731q0 -52 -21.5 -78.5t-72.5 -26.5q-17 0 -33.5 5t-30.5 16l-61 49q-18 14 -25 18t-16 4q-18 0 -24.5 -11.5t-6.5 -34.5v-21q0 -7 -5 -12t-12 -5h-31q-7 0 -11.5 5t-4.5 12v21q0 54 25 81.5t70 27.5q17 0 31.5 -6.5t28.5 -17.5l71 -56q8 -6 18 -10t17 -4 q15 0 22.5 9t7.5 35v23q0 7 5 12t12 5h31q7 0 11.5 -5t4.5 -12v-23zM363 266h-74q-45 0 -75 -5.5t-47 -17t-24 -30t-7 -45.5v-12q0 -54 24 -72.5t68 -18.5q35 0 67 10t68 30v161zM451 20q0 -8 -6 -14t-14 -6h-46q-8 0 -14 6t-6 14v22q-36 -21 -74 -35t-80 -14 q-32 0 -61.5 7.5t-52 26.5t-36 50t-13.5 78v12q0 40 12.5 70.5t41 51t74.5 30.5t113 10h74v40q0 63 -24 88t-83 25q-49 0 -86 -2.5t-67 -5.5h-5q-7 0 -12.5 3t-5.5 13v35q0 16 21 19q31 5 67.5 9t87.5 4q104 0 149.5 -50t45.5 -138v-349z"/>
<glyph glyph-name="adieresis" horiz-adv-x="519" unicode="ä" d="M213 660q0 -8 -6 -13.5t-14 -5.5h-39q-8 0 -14 5.5t-6 13.5v81q0 8 6 14t14 6h39q8 0 14 -6t6 -14v-81zM388 660q0 -8 -6 -13.5t-14 -5.5h-39q-8 0 -14 5.5t-6 13.5v81q0 8 6 14t14 6h39q8 0 14 -6t6 -14v-81zM363 266h-74q-45 0 -75 -5.5t-47 -17t-24 -30t-7 -45.5v-12 q0 -54 24 -72.5t68 -18.5q35 0 67 10t68 30v161zM451 20q0 -8 -6 -14t-14 -6h-46q-8 0 -14 6t-6 14v22q-36 -21 -74 -35t-80 -14q-32 0 -61.5 7.5t-52 26.5t-36 50t-13.5 78v12q0 40 12.5 70.5t41 51t74.5 30.5t113 10h74v40q0 63 -24 88t-83 25q-49 0 -86 -2.5t-67 -5.5h-5 q-7 0 -12.5 3t-5.5 13v35q0 16 21 19q31 5 67.5 9t87.5 4q104 0 149.5 -50t45.5 -138v-349z"/>
<glyph glyph-name="aring" horiz-adv-x="519" unicode="å" d="M310 704q0 22 -15.5 37t-37.5 15t-37 -15t-15 -37t15 -37.5t37 -15.5t37.5 15.5t15.5 37.5zM358 703q0 -21 -8 -39.5t-21.5 -32t-32 -21.5t-39.5 -8t-39.5 8t-32.5 21.5t-22 32t-8 39.5t8 39.5t22 32.5t32.5 22t39.5 8t39.5 -8t32 -22t21.5 -32.5t8 -39.5zM363 266h-74 q-45 0 -75 -5.5t-47 -17t-24 -30t-7 -45.5v-12q0 -54 24 -72.5t68 -18.5q35 0 67 10t68 30v161zM451 20q0 -8 -6 -14t-14 -6h-46q-8 0 -14 6t-6 14v22q-36 -21 -74 -35t-80 -14q-32 0 -61.5 7.5t-52 26.5t-36 50t-13.5 78v12q0 40 12.5 70.5t41 51t74.5 30.5t113 10h74v40 q0 63 -24 88t-83 25q-49 0 -86 -2.5t-67 -5.5h-5q-7 0 -12.5 3t-5.5 13v35q0 16 21 19q31 5 67.5 9t87.5 4q104 0 149.5 -50t45.5 -138v-349z"/>
<glyph glyph-name="ae" horiz-adv-x="853" unicode="æ" d="M364 265h-75q-45 0 -74.5 -5.5t-47 -17t-24 -30t-6.5 -45.5v-9q0 -27 9 -45t25 -29t36.5 -16t43.5 -5q31 0 61.5 7.5t51.5 23.5v171zM716 319q0 163 -131 163q-65 0 -99.5 -42.5t-34.5 -120.5v-5h265v5zM803 269q0 -22 -19 -22h-333v-32q0 -77 35.5 -112.5t110.5 -35.5 q44 0 90 4.5t81 9.5h2h3q16 0 16 -14v-34q0 -10 -4 -15.5t-16 -7.5q-43 -8 -84.5 -12.5t-92.5 -4.5q-58 0 -99.5 12.5t-73.5 46.5q-35 -30 -82.5 -44.5t-97.5 -14.5q-37 0 -71.5 9.5t-61 29.5t-42.5 51t-16 75v9q0 41 12.5 71.5t41 50.5t74.5 30t113 10h75v40q0 63 -24.5 88 t-83.5 25q-49 0 -86 -2.5t-67 -5.5h-2h-3q-8 0 -13 3.5t-5 12.5v35q0 16 21 19q31 5 67.5 9t87.5 4q62 0 102.5 -18t63.5 -52q28 33 68.5 51.5t94.5 18.5q55 0 96 -18.5t68 -51.5t40.5 -78t13.5 -98v-42z"/>
<glyph glyph-name="ccedilla" horiz-adv-x="452" unicode="ç" d="M322 -39q0 -4 -4 -8l-113 -126q-7 -8 -11 -11.5t-12 -3.5h-54q-9 0 -9 7q0 6 4 10l97 124q7 8 11.5 11.5t13.5 3.5h66q11 0 11 -7zM408 26q0 -10 -4 -15t-16 -7q-25 -5 -57.5 -8t-67.5 -3q-51 0 -90.5 17.5t-67 49t-41.5 76.5t-14 100v78q0 55 14 100t41 76.5t67 49 t91 17.5q35 0 67.5 -3t57.5 -8q12 -2 16 -6.5t4 -15.5v-36q0 -8 -5 -11.5t-12 -3.5h-4q-33 4 -60 5.5t-64 1.5q-60 0 -92.5 -40.5t-32.5 -125.5v-78q0 -85 32 -125.5t93 -40.5q37 0 64 1.5t60 5.5h4q7 0 12 -3.5t5 -11.5v-36z"/>
<glyph glyph-name="egrave" horiz-adv-x="544" unicode="è" d="M358 630q0 -7 -9 -7h-54q-8 0 -12 3.5t-11 11.5l-113 126q-4 4 -4 8q0 7 11 7h66q9 0 13.5 -3.5t11.5 -11.5l97 -124q4 -4 4 -10zM403 323q0 85 -32.5 121t-98.5 36q-65 0 -99.5 -38t-34.5 -119v-9h265v9zM492 269q0 -22 -19 -22h-335v-14q0 -89 35 -126t104 -37 q44 0 93.5 3t84.5 8h5q6 0 11 -3t5 -11v-34q0 -10 -4 -15.5t-16 -7.5q-43 -8 -85.5 -12.5t-93.5 -4.5q-43 0 -84 11.5t-72.5 39t-51 73.5t-19.5 116v90q0 108 57 171t165 63q55 0 96 -16.5t68.5 -47t41.5 -74t14 -96.5v-54z"/>
<glyph glyph-name="eacute" horiz-adv-x="544" unicode="é" d="M434 772q0 -4 -4 -8l-113 -126q-7 -8 -11 -11.5t-12 -3.5h-54q-9 0 -9 7q0 6 4 10l98 124q7 8 11 11.5t13 3.5h66q11 0 11 -7zM403 323q0 85 -32.5 121t-98.5 36q-65 0 -99.5 -38t-34.5 -119v-9h265v9zM492 269q0 -22 -19 -22h-335v-14q0 -89 35 -126t104 -37 q44 0 93.5 3t84.5 8h5q6 0 11 -3t5 -11v-34q0 -10 -4 -15.5t-16 -7.5q-43 -8 -85.5 -12.5t-93.5 -4.5q-43 0 -84 11.5t-72.5 39t-51 73.5t-19.5 116v90q0 108 57 171t165 63q55 0 96 -16.5t68.5 -47t41.5 -74t14 -96.5v-54z"/>
<glyph glyph-name="ecircumflex" horiz-adv-x="544" unicode="ê" d="M439 630q0 -7 -9 -7h-52q-8 0 -12 3.5t-11 11.5l-82 97l-83 -97q-7 -8 -11 -11.5t-12 -3.5h-52q-9 0 -9 7q0 6 4 10l96 124q7 8 11 11.5t13 3.5h85q9 0 13.5 -3.5t11.5 -11.5l95 -124q4 -4 4 -10zM403 323q0 85 -32.5 121t-98.5 36q-65 0 -99.5 -38t-34.5 -119v-9h265v9z M492 269q0 -22 -19 -22h-335v-14q0 -89 35 -126t104 -37q44 0 93.5 3t84.5 8h5q6 0 11 -3t5 -11v-34q0 -10 -4 -15.5t-16 -7.5q-43 -8 -85.5 -12.5t-93.5 -4.5q-43 0 -84 11.5t-72.5 39t-51 73.5t-19.5 116v90q0 108 57 171t165 63q55 0 96 -16.5t68.5 -47t41.5 -74 t14 -96.5v-54z"/>
<glyph glyph-name="edieresis" horiz-adv-x="544" unicode="ë" d="M228 660q0 -8 -6 -13.5t-14 -5.5h-39q-8 0 -14 5.5t-6 13.5v81q0 8 6 14t14 6h39q8 0 14 -6t6 -14v-81zM403 660q0 -8 -6 -13.5t-14 -5.5h-39q-8 0 -14 5.5t-6 13.5v81q0 8 6 14t14 6h39q8 0 14 -6t6 -14v-81zM403 323q0 85 -32.5 121t-98.5 36q-65 0 -99.5 -38 t-34.5 -119v-9h265v9zM492 269q0 -22 -19 -22h-335v-14q0 -89 35 -126t104 -37q44 0 93.5 3t84.5 8h5q6 0 11 -3t5 -11v-34q0 -10 -4 -15.5t-16 -7.5q-43 -8 -85.5 -12.5t-93.5 -4.5q-43 0 -84 11.5t-72.5 39t-51 73.5t-19.5 116v90q0 108 57 171t165 63q55 0 96 -16.5 t68.5 -47t41.5 -74t14 -96.5v-54z"/>
<glyph glyph-name="igrave" horiz-adv-x="247" unicode="ì" d="M185 630q0 -7 -9 -7h-54q-8 0 -12 3.5t-11 11.5l-113 126q-4 4 -4 8q0 7 11 7h66q9 0 13.5 -3.5t11.5 -11.5l97 -124q4 -4 4 -10zM167 20q0 -8 -6 -14t-14 -6h-48q-8 0 -14 6t-6 14v510q0 8 6 14t14 6h48q8 0 14 -6t6 -14v-510z"/>
<glyph glyph-name="iacute" horiz-adv-x="247" unicode="í" d="M271 772q0 -4 -4 -8l-113 -126q-7 -8 -11 -11.5t-12 -3.5h-54q-9 0 -9 7q0 6 4 10l98 124q7 8 11 11.5t13 3.5h66q11 0 11 -7zM167 20q0 -8 -6 -14t-14 -6h-48q-8 0 -14 6t-6 14v510q0 8 6 14t14 6h48q8 0 14 -6t6 -14v-510z"/>
<glyph glyph-name="icircumflex" horiz-adv-x="247" unicode="î" d="M289 630q0 -7 -9 -7h-52q-8 0 -12 3.5t-11 11.5l-82 97l-83 -97q-7 -8 -11 -11.5t-12 -3.5h-52q-9 0 -9 7q0 6 4 10l96 124q7 8 11 11.5t13 3.5h85q9 0 13.5 -3.5t11.5 -11.5l95 -124q4 -4 4 -10zM167 20q0 -8 -6 -14t-14 -6h-48q-8 0 -14 6t-6 14v510q0 8 6 14t14 6h48 q8 0 14 -6t6 -14v-510z"/>
<glyph glyph-name="idieresis" horiz-adv-x="247" unicode="ï" d="M75 660q0 -8 -6 -13.5t-14 -5.5h-39q-8 0 -14 5.5t-6 13.5v81q0 8 6 14t14 6h39q8 0 14 -6t6 -14v-81zM250 660q0 -8 -6 -13.5t-14 -5.5h-39q-8 0 -14 5.5t-6 13.5v81q0 8 6 14t14 6h39q8 0 14 -6t6 -14v-81zM167 20q0 -8 -6 -14t-14 -6h-48q-8 0 -14 6t-6 14v510 q0 8 6 14t14 6h48q8 0 14 -6t6 -14v-510z"/>
<glyph glyph-name="eth" horiz-adv-x="545" unicode="ð" d="M407 298q0 85 -31 130t-103 45t-103 -45t-31 -130v-55q0 -85 31.5 -129.5t103.5 -44.5t102.5 44.5t30.5 129.5v55zM495 243q0 -121 -55.5 -185.5t-165.5 -64.5q-114 0 -169 67t-55 183v55q0 121 57 185.5t166 64.5q33 0 62 -8.5t50 -27.5q-15 39 -51 74t-96 63l-86 -66 q-8 -6 -13 -6t-11 6l-17 19q-3 3 -3 7q0 5 3 9.5t7 7.5l61 47q-18 6 -37.5 11.5t-41.5 10.5q-6 2 -11 5t-5 10q0 3 1 5l12 34q4 11 14 11q5 0 8 -1q71 -17 124 -37l94 71q5 4 13 4q7 0 12 -5l17 -18q4 -4 4 -8q0 -6 -10 -14l-73 -56q57 -33 95 -71t60 -86t31 -107t9 -134 v-55z"/>
<glyph glyph-name="ntilde" horiz-adv-x="557" unicode="ñ" d="M460 731q0 -52 -21.5 -78.5t-72.5 -26.5q-17 0 -33.5 5t-30.5 16l-61 49q-18 14 -25 18t-16 4q-18 0 -24.5 -11.5t-6.5 -34.5v-21q0 -7 -5 -12t-12 -5h-31q-7 0 -11.5 5t-4.5 12v21q0 54 25 81.5t70 27.5q17 0 31.5 -6.5t28.5 -17.5l71 -56q8 -6 18 -10t17 -4 q15 0 22.5 9t7.5 35v23q0 7 5 12t12 5h31q7 0 11.5 -5t4.5 -12v-23zM489 20q0 -8 -6 -14t-14 -6h-48q-8 0 -14 6t-6 14v329q0 38 -6.5 63.5t-20 40.5t-34.5 21.5t-49 6.5q-32 0 -66 -11t-69 -28v-422q0 -8 -6 -14t-14 -6h-49q-8 0 -13.5 6t-5.5 14v510q0 8 5.5 14t13.5 6h50 q8 0 13.5 -6t5.5 -14v-19q42 23 78 34.5t81 11.5q91 0 132.5 -54t41.5 -154v-329z"/>
<glyph glyph-name="ograve" horiz-adv-x="545" unicode="ò" d="M330 630q0 -7 -9 -7h-54q-8 0 -12 3.5t-11 11.5l-113 126q-4 4 -4 8q0 7 11 7h66q9 0 13.5 -3.5t11.5 -11.5l97 -124q4 -4 4 -10zM407 313q0 77 -32 122t-103 45q-70 0 -102 -44.5t-32 -122.5v-76q0 -77 31.5 -122t102.5 -45q70 0 102.5 44.5t32.5 122.5v76zM495 237 q0 -55 -14 -100t-42 -77t-70 -49.5t-97 -17.5t-96.5 17.5t-69.5 49.5t-42 77t-14 100v76q0 55 14 100t42 77t69.5 49.5t96.5 17.5t97 -17.5t70 -49.5t42 -77t14 -100v-76z"/>
<glyph glyph-name="oacute" horiz-adv-x="545" unicode="ó" d="M426 772q0 -4 -4 -8l-113 -126q-7 -8 -11 -11.5t-12 -3.5h-54q-9 0 -9 7q0 6 4 10l98 124q7 8 11 11.5t13 3.5h66q11 0 11 -7zM407 313q0 77 -32 122t-103 45q-70 0 -102 -44.5t-32 -122.5v-76q0 -77 31.5 -122t102.5 -45q70 0 102.5 44.5t32.5 122.5v76zM495 237 q0 -55 -14 -100t-42 -77t-70 -49.5t-97 -17.5t-96.5 17.5t-69.5 49.5t-42 77t-14 100v76q0 55 14 100t42 77t69.5 49.5t96.5 17.5t97 -17.5t70 -49.5t42 -77t14 -100v-76z"/>
<glyph glyph-name="ocircumflex" horiz-adv-x="545" unicode="ô" d="M440 630q0 -7 -9 -7h-52q-8 0 -12 3.5t-11 11.5l-82 97l-83 -97q-7 -8 -11 -11.5t-12 -3.5h-52q-9 0 -9 7q0 6 4 10l96 124q7 8 11 11.5t13 3.5h85q9 0 13.5 -3.5t11.5 -11.5l95 -124q4 -4 4 -10zM407 313q0 77 -32 122t-103 45q-70 0 -102 -44.5t-32 -122.5v-76 q0 -77 31.5 -122t102.5 -45q70 0 102.5 44.5t32.5 122.5v76zM495 237q0 -55 -14 -100t-42 -77t-70 -49.5t-97 -17.5t-96.5 17.5t-69.5 49.5t-42 77t-14 100v76q0 55 14 100t42 77t69.5 49.5t96.5 17.5t97 -17.5t70 -49.5t42 -77t14 -100v-76z"/>
<glyph glyph-name="otilde" horiz-adv-x="545" unicode="õ" d="M456 731q0 -52 -21.5 -78.5t-72.5 -26.5q-17 0 -33.5 5t-30.5 16l-61 49q-18 14 -25 18t-16 4q-18 0 -24.5 -11.5t-6.5 -34.5v-21q0 -7 -5 -12t-12 -5h-31q-7 0 -11.5 5t-4.5 12v21q0 54 25 81.5t70 27.5q17 0 31.5 -6.5t28.5 -17.5l71 -56q8 -6 18 -10t17 -4 q15 0 22.5 9t7.5 35v23q0 7 5 12t12 5h31q7 0 11.5 -5t4.5 -12v-23zM407 313q0 77 -32 122t-103 45q-70 0 -102 -44.5t-32 -122.5v-76q0 -77 31.5 -122t102.5 -45q70 0 102.5 44.5t32.5 122.5v76zM495 237q0 -55 -14 -100t-42 -77t-70 -49.5t-97 -17.5t-96.5 17.5 t-69.5 49.5t-42 77t-14 100v76q0 55 14 100t42 77t69.5 49.5t96.5 17.5t97 -17.5t70 -49.5t42 -77t14 -100v-76z"/>
<glyph glyph-name="odieresis" horiz-adv-x="545" unicode="ö" d="M223 660q0 -8 -6 -13.5t-14 -5.5h-39q-8 0 -14 5.5t-6 13.5v81q0 8 6 14t14 6h39q8 0 14 -6t6 -14v-81zM398 660q0 -8 -6 -13.5t-14 -5.5h-39q-8 0 -14 5.5t-6 13.5v81q0 8 6 14t14 6h39q8 0 14 -6t6 -14v-81zM407 313q0 77 -32 122t-103 45q-70 0 -102 -44.5t-32 -122.5 v-76q0 -77 31.5 -122t102.5 -45q70 0 102.5 44.5t32.5 122.5v76zM495 237q0 -55 -14 -100t-42 -77t-70 -49.5t-97 -17.5t-96.5 17.5t-69.5 49.5t-42 77t-14 100v76q0 55 14 100t42 77t69.5 49.5t96.5 17.5t97 -17.5t70 -49.5t42 -77t14 -100v-76z"/>
<glyph glyph-name="divide" d="M345 162q0 -8 -5.5 -13.5t-13.5 -5.5h-48q-8 0 -14 5.5t-6 13.5v89q0 8 6 13.5t14 5.5h48q8 0 13.5 -5.5t5.5 -13.5v-89zM515 371q0 -8 -6 -12t-14 -4h-385q-8 0 -14 4t-6 12v40q0 8 6 12t14 4h385q8 0 14 -4t6 -12v-40zM345 527q0 -8 -5.5 -14t-13.5 -6h-48q-8 0 -14 6 t-6 14v88q0 8 6 13.5t14 5.5h48q8 0 13.5 -5.5t5.5 -13.5v-88z" unicode="÷"/>
<glyph glyph-name="oslash" horiz-adv-x="545" unicode="ø" d="M407 313q0 42 -11 78l-214 -290q33 -31 90 -31q71 0 103 44.5t32 122.5v76zM362 449q-34 31 -90 31q-71 0 -102.5 -44.5t-31.5 -122.5v-76q0 -46 10 -79zM528 575q0 -7 -4 -11l-70 -94q41 -62 41 -157v-76q0 -55 -14 -100t-42 -77t-70 -49.5t-97 -17.5q-85 0 -139 42 l-44 -60q-5 -7 -8 -8.5t-8 -1.5h-49q-8 0 -8 8q0 7 4 11l71 96q-41 62 -41 157v76q0 55 14 100t42 77t69.5 49.5t96.5 17.5q86 0 140 -42l42 58q5 7 8 8.5t8 1.5h50q8 0 8 -8z"/>
<glyph glyph-name="ugrave" horiz-adv-x="557" unicode="ù" d="M336 630q0 -7 -9 -7h-54q-8 0 -12 3.5t-11 11.5l-113 126q-4 4 -4 8q0 7 11 7h66q9 0 13.5 -3.5t11.5 -11.5l97 -124q4 -4 4 -10zM489 20q0 -8 -5.5 -14t-13.5 -6h-50q-8 0 -13.5 6t-5.5 14v19q-42 -23 -78 -34.5t-81 -11.5q-91 0 -132.5 54t-41.5 154v329q0 8 6 14t14 6 h48q8 0 14 -6t6 -14v-329q0 -38 6.5 -63.5t20 -40.5t34 -21.5t49.5 -6.5q32 0 66 11t69 28v422q0 8 6 14t14 6h49q8 0 13.5 -6t5.5 -14v-510z"/>
<glyph glyph-name="uacute" horiz-adv-x="557" unicode="ú" d="M434 772q0 -4 -4 -8l-113 -126q-7 -8 -11 -11.5t-12 -3.5h-54q-9 0 -9 7q0 6 4 10l98 124q7 8 11 11.5t13 3.5h66q11 0 11 -7zM489 20q0 -8 -5.5 -14t-13.5 -6h-50q-8 0 -13.5 6t-5.5 14v19q-42 -23 -78 -34.5t-81 -11.5q-91 0 -132.5 54t-41.5 154v329q0 8 6 14t14 6h48 q8 0 14 -6t6 -14v-329q0 -38 6.5 -63.5t20 -40.5t34 -21.5t49.5 -6.5q32 0 66 11t69 28v422q0 8 6 14t14 6h49q8 0 13.5 -6t5.5 -14v-510z"/>
<glyph glyph-name="ucircumflex" horiz-adv-x="557" unicode="û" d="M446 630q0 -7 -9 -7h-52q-8 0 -12 3.5t-11 11.5l-82 97l-83 -97q-7 -8 -11 -11.5t-12 -3.5h-52q-9 0 -9 7q0 6 4 10l96 124q7 8 11 11.5t13 3.5h85q9 0 13.5 -3.5t11.5 -11.5l95 -124q4 -4 4 -10zM489 20q0 -8 -5.5 -14t-13.5 -6h-50q-8 0 -13.5 6t-5.5 14v19 q-42 -23 -78 -34.5t-81 -11.5q-91 0 -132.5 54t-41.5 154v329q0 8 6 14t14 6h48q8 0 14 -6t6 -14v-329q0 -38 6.5 -63.5t20 -40.5t34 -21.5t49.5 -6.5q32 0 66 11t69 28v422q0 8 6 14t14 6h49q8 0 13.5 -6t5.5 -14v-510z"/>
<glyph glyph-name="udieresis" horiz-adv-x="557" unicode="ü" d="M230 660q0 -8 -6 -13.5t-14 -5.5h-39q-8 0 -14 5.5t-6 13.5v81q0 8 6 14t14 6h39q8 0 14 -6t6 -14v-81zM405 660q0 -8 -6 -13.5t-14 -5.5h-39q-8 0 -14 5.5t-6 13.5v81q0 8 6 14t14 6h39q8 0 14 -6t6 -14v-81zM489 20q0 -8 -5.5 -14t-13.5 -6h-50q-8 0 -13.5 6t-5.5 14 v19q-42 -23 -78 -34.5t-81 -11.5q-91 0 -132.5 54t-41.5 154v329q0 8 6 14t14 6h48q8 0 14 -6t6 -14v-329q0 -38 6.5 -63.5t20 -40.5t34 -21.5t49.5 -6.5q32 0 66 11t69 28v422q0 8 6 14t14 6h49q8 0 13.5 -6t5.5 -14v-510z"/>
<glyph glyph-name="yacute" horiz-adv-x="534" unicode="ý" d="M446 772q0 -4 -4 -8l-113 -126q-7 -8 -11 -11.5t-12 -3.5h-54q-9 0 -9 7q0 6 4 10l98 124q7 8 11 11.5t13 3.5h66q11 0 11 -7zM495 533q0 -5 -1 -7l-165 -576q-12 -41 -25.5 -69t-34.5 -45.5t-50.5 -25.5t-72.5 -8q-21 0 -44.5 2.5t-39.5 6.5q-9 2 -15 5t-6 11v37 q0 16 19 16h3q17 -2 44.5 -4t44.5 -2q21 0 37 3.5t27.5 13t20 26t14.5 42.5l10 41h-14q-11 0 -21.5 2t-20 9t-17.5 21t-15 37l-133 457q-1 2 -1 7q0 17 18 17h55q6 0 10.5 -5t6.5 -11l118 -434q4 -15 9 -18.5t10 -3.5h16l122 457q2 6 7 10.5t12 4.5h56q16 0 16 -17z"/>
<glyph glyph-name="thorn" horiz-adv-x="541" unicode="þ" d="M403 310q0 39 -6.5 71t-21.5 54.5t-40 35t-62 12.5q-32 0 -64 -3t-53 -7v-396q25 -5 59 -7.5t58 -2.5q37 0 62 11.5t40 33.5t21.5 54t6.5 72v72zM491 238q0 -118 -54 -181.5t-164 -63.5q-23 0 -55.5 3t-61.5 8v-181q0 -8 -5.5 -13.5t-13.5 -5.5h-51q-8 0 -13 5.5t-5 13.5 v909q0 8 6 14t14 6h48q8 0 14 -6t6 -14v-185q29 5 59 7.5t58 2.5q56 0 97 -17.5t68 -50t40 -78t13 -101.5v-72z"/>
<glyph glyph-name="ydieresis" horiz-adv-x="534" unicode="ÿ" d="M229 660q0 -8 -6 -13.5t-14 -5.5h-39q-8 0 -14 5.5t-6 13.5v81q0 8 6 14t14 6h39q8 0 14 -6t6 -14v-81zM404 660q0 -8 -6 -13.5t-14 -5.5h-39q-8 0 -14 5.5t-6 13.5v81q0 8 6 14t14 6h39q8 0 14 -6t6 -14v-81zM495 533q0 -5 -1 -7l-165 -576q-12 -41 -25.5 -69 t-34.5 -45.5t-50.5 -25.5t-72.5 -8q-21 0 -44.5 2.5t-39.5 6.5q-9 2 -15 5t-6 11v37q0 16 19 16h3q17 -2 44.5 -4t44.5 -2q21 0 37 3.5t27.5 13t20 26t14.5 42.5l10 41h-14q-11 0 -21.5 2t-20 9t-17.5 21t-15 37l-133 457q-1 2 -1 7q0 17 18 17h55q6 0 10.5 -5t6.5 -11 l118 -434q4 -15 9 -18.5t10 -3.5h16l122 457q2 6 7 10.5t12 4.5h56q16 0 16 -17z"/>
<glyph glyph-name="Amacron" horiz-adv-x="633" unicode="Ā" d="M478 836q0 -8 -6 -12.5t-14 -4.5h-288q-8 0 -14 4.5t-6 12.5v34q0 8 6 12.5t14 4.5h288q8 0 14 -4.5t6 -12.5v-34zM336 653q-5 18 -19 18q-15 0 -20 -18l-91 -329h221zM604 16q0 -16 -17 -16h-59q-7 0 -11 4.5t-6 10.5l-65 230h-259l-64 -230q-2 -6 -7 -10.5t-11 -4.5 h-59q-17 0 -17 16q0 5 1 7l185 651q6 23 17.5 37.5t25.5 23t29.5 12t29.5 3.5t29 -3t29 -11.5t25.5 -23t17.5 -37.5l185 -652q1 -2 1 -7z"/>
<glyph glyph-name="amacron" horiz-adv-x="519" unicode="ā" d="M424 666q0 -8 -6 -12.5t-14 -4.5h-288q-8 0 -14 4.5t-6 12.5v34q0 8 6 12.5t14 4.5h288q8 0 14 -4.5t6 -12.5v-34zM363 266h-74q-45 0 -75 -5.5t-47 -17t-24 -30t-7 -45.5v-12q0 -54 24 -72.5t68 -18.5q35 0 67 10t68 30v161zM451 20q0 -8 -6 -14t-14 -6h-46q-8 0 -14 6 t-6 14v22q-36 -21 -74 -35t-80 -14q-32 0 -61.5 7.5t-52 26.5t-36 50t-13.5 78v12q0 40 12.5 70.5t41 51t74.5 30.5t113 10h74v40q0 63 -24 88t-83 25q-49 0 -86 -2.5t-67 -5.5h-5q-7 0 -12.5 3t-5.5 13v35q0 16 21 19q31 5 67.5 9t87.5 4q104 0 149.5 -50t45.5 -138v-349z "/>
<glyph glyph-name="Abreve" horiz-adv-x="633" unicode="Ă" d="M477 933q-3 -35 -17.5 -61.5t-37 -44t-51 -26.5t-57.5 -9t-57.5 9t-51 26.5t-37 44t-17.5 61.5v4q0 13 11 13h37q14 0 15 -16q2 -20 11.5 -35t23 -25t30.5 -15t35 -5t35 5t30.5 15t23 25t11.5 35q1 16 15 16h37q11 0 11 -13v-4zM336 653q-5 18 -19 18q-15 0 -20 -18 l-91 -329h221zM604 16q0 -16 -17 -16h-59q-7 0 -11 4.5t-6 10.5l-65 230h-259l-64 -230q-2 -6 -7 -10.5t-11 -4.5h-59q-17 0 -17 16q0 5 1 7l185 651q6 23 17.5 37.5t25.5 23t29.5 12t29.5 3.5t29 -3t29 -11.5t25.5 -23t17.5 -37.5l185 -652q1 -2 1 -7z"/>
<glyph glyph-name="abreve" horiz-adv-x="519" unicode="ă" d="M423 762q-3 -35 -17.5 -61.5t-37 -44t-51 -26.5t-57.5 -9t-57.5 9t-51 26.5t-37 44t-17.5 61.5v4q0 13 11 13h37q14 0 15 -16q2 -20 11.5 -35t23 -25t30.5 -15t35 -5t35 5t30.5 15t23 25t11.5 35q1 16 15 16h37q11 0 11 -13v-4zM363 266h-74q-45 0 -75 -5.5t-47 -17 t-24 -30t-7 -45.5v-12q0 -54 24 -72.5t68 -18.5q35 0 67 10t68 30v161zM451 20q0 -8 -6 -14t-14 -6h-46q-8 0 -14 6t-6 14v22q-36 -21 -74 -35t-80 -14q-32 0 -61.5 7.5t-52 26.5t-36 50t-13.5 78v12q0 40 12.5 70.5t41 51t74.5 30.5t113 10h74v40q0 63 -24 88t-83 25 q-49 0 -86 -2.5t-67 -5.5h-5q-7 0 -12.5 3t-5.5 13v35q0 16 21 19q31 5 67.5 9t87.5 4q104 0 149.5 -50t45.5 -138v-349z"/>
<glyph glyph-name="Aogonek" horiz-adv-x="633" unicode="Ą" d="M336 653q-5 18 -19 18q-15 0 -20 -18l-91 -329h221zM187 245l-64 -230q-2 -6 -7 -10.5t-11 -4.5h-59q-17 0 -17 16q0 5 1 7l185 651q6 23 17.5 37.5t25.5 23t29.5 12t29.5 3.5t29 -3t29 -11.5t25.5 -23t17.5 -37.5l183 -646q2 -8 2 -11q0 -6 -2.5 -9.5t-5.5 -5.5l-78 -45 q-26 -15 -40 -28.5t-14 -33.5q0 -19 15.5 -28.5t53.5 -9.5q24 0 43 3.5t24 3.5t5 -8v-36q0 -8 -11 -11q-2 -1 -21 -5.5t-51 -4.5q-37 0 -62 7.5t-40.5 20.5t-22 30.5t-6.5 37.5q0 19 5.5 33t15.5 25t24 20.5t31 19.5l44 26l-64 225h-259z"/>
<glyph glyph-name="aogonek" horiz-adv-x="519" unicode="ą" d="M363 266h-74q-45 0 -75 -5.5t-47 -17t-24 -30t-7 -45.5v-12q0 -54 24 -72.5t68 -18.5q35 0 67 10t68 30v161zM376 -42q-26 -18 -40 -32t-14 -35q0 -15 10.5 -24t45.5 -9q24 0 41.5 5t22.5 5t5 -8v-39q0 -8 -11 -11q-2 -1 -21.5 -5.5t-47.5 -4.5q-68 0 -93.5 26.5 t-25.5 66.5q0 33 17.5 53.5t47.5 40.5l52 33v22q-36 -21 -74 -35t-80 -14q-32 0 -61.5 7.5t-52 26.5t-36 50t-13.5 78v12q0 40 12.5 70.5t41 51t74.5 30.5t113 10h74v40q0 63 -24 88t-83 25q-49 0 -86 -2.5t-67 -5.5h-5q-7 0 -12.5 3t-5.5 13v35q0 16 21 19q31 5 67.5 9 t87.5 4q104 0 149.5 -50t45.5 -138v-349q0 -5 -1.5 -8.5t-6.5 -7.5z"/>
<glyph glyph-name="Cacute" horiz-adv-x="545" unicode="Ć" d="M443 943q0 -4 -4 -8l-113 -126q-7 -8 -11 -11.5t-12 -3.5h-54q-9 0 -9 7q0 6 4 10l98 124q7 8 11 11.5t13 3.5h66q11 0 11 -7zM510 26q0 -9 -6 -13.5t-14 -6.5q-16 -3 -32 -5.5t-35 -4t-43 -2.5t-56 -1q-46 0 -93 14t-85 49.5t-62 95t-24 150.5v139q0 92 24 151.5 t62 94.5t85 49t93 14q48 0 91.5 -5.5t76.5 -10.5q16 -2 16 -13v-51q0 -5 -2 -8t-10 -3h-3q-14 1 -33.5 2.5t-42 3t-46.5 2.5t-46 1q-37 0 -68.5 -11.5t-55 -38t-37 -70t-13.5 -107.5v-139q0 -63 13.5 -106.5t37 -70t55 -38.5t68.5 -12q21 0 44.5 1t46 2t41.5 2.5t33 2.5h4 q16 0 16 -16v-41z"/>
<glyph glyph-name="cacute" horiz-adv-x="452" unicode="ć" d="M384 772q0 -4 -4 -8l-113 -126q-7 -8 -11 -11.5t-12 -3.5h-54q-9 0 -9 7q0 6 4 10l98 124q7 8 11 11.5t13 3.5h66q11 0 11 -7zM408 26q0 -10 -4 -15t-16 -7q-25 -5 -57.5 -8t-67.5 -3q-51 0 -90.5 17.5t-67 49t-41.5 76.5t-14 100v78q0 55 14 100t41 76.5t67 49t91 17.5 q35 0 67.5 -3t57.5 -8q12 -2 16 -6.5t4 -15.5v-36q0 -8 -5 -11.5t-12 -3.5h-4q-33 4 -60 5.5t-64 1.5q-60 0 -92.5 -40.5t-32.5 -125.5v-78q0 -85 32 -125.5t93 -40.5q37 0 64 1.5t60 5.5h4q7 0 12 -3.5t5 -11.5v-36z"/>
<glyph glyph-name="Ccircumflex" horiz-adv-x="545" unicode="Ĉ" d="M473 801q0 -7 -9 -7h-52q-8 0 -12 3.5t-11 11.5l-82 97l-83 -97q-7 -8 -11 -11.5t-12 -3.5h-52q-9 0 -9 7q0 6 4 10l96 124q7 8 11 11.5t13 3.5h85q9 0 13.5 -3.5t11.5 -11.5l95 -124q4 -4 4 -10zM510 26q0 -9 -6 -13.5t-14 -6.5q-16 -3 -32 -5.5t-35 -4t-43 -2.5t-56 -1 q-46 0 -93 14t-85 49.5t-62 95t-24 150.5v139q0 92 24 151.5t62 94.5t85 49t93 14q48 0 91.5 -5.5t76.5 -10.5q16 -2 16 -13v-51q0 -5 -2 -8t-10 -3h-3q-14 1 -33.5 2.5t-42 3t-46.5 2.5t-46 1q-37 0 -68.5 -11.5t-55 -38t-37 -70t-13.5 -107.5v-139q0 -63 13.5 -106.5 t37 -70t55 -38.5t68.5 -12q21 0 44.5 1t46 2t41.5 2.5t33 2.5h4q16 0 16 -16v-41z"/>
<glyph glyph-name="ccircumflex" horiz-adv-x="452" unicode="ĉ" d="M414 630q0 -7 -9 -7h-52q-8 0 -12 3.5t-11 11.5l-82 97l-83 -97q-7 -8 -11 -11.5t-12 -3.5h-52q-9 0 -9 7q0 6 4 10l96 124q7 8 11 11.5t13 3.5h85q9 0 13.5 -3.5t11.5 -11.5l95 -124q4 -4 4 -10zM408 26q0 -10 -4 -15t-16 -7q-25 -5 -57.5 -8t-67.5 -3q-51 0 -90.5 17.5 t-67 49t-41.5 76.5t-14 100v78q0 55 14 100t41 76.5t67 49t91 17.5q35 0 67.5 -3t57.5 -8q12 -2 16 -6.5t4 -15.5v-36q0 -8 -5 -11.5t-12 -3.5h-4q-33 4 -60 5.5t-64 1.5q-60 0 -92.5 -40.5t-32.5 -125.5v-78q0 -85 32 -125.5t93 -40.5q37 0 64 1.5t60 5.5h4q7 0 12 -3.5 t5 -11.5v-36z"/>
<glyph glyph-name="Cdotaccent" horiz-adv-x="545" unicode="Ċ" d="M352 814q0 -8 -5.5 -14t-13.5 -6h-48q-8 0 -14 6t-6 14v84q0 8 6 13.5t14 5.5h48q8 0 13.5 -5.5t5.5 -13.5v-84zM510 26q0 -9 -6 -13.5t-14 -6.5q-16 -3 -32 -5.5t-35 -4t-43 -2.5t-56 -1q-46 0 -93 14t-85 49.5t-62 95t-24 150.5v139q0 92 24 151.5t62 94.5t85 49t93 14 q48 0 91.5 -5.5t76.5 -10.5q16 -2 16 -13v-51q0 -5 -2 -8t-10 -3h-3q-14 1 -33.5 2.5t-42 3t-46.5 2.5t-46 1q-37 0 -68.5 -11.5t-55 -38t-37 -70t-13.5 -107.5v-139q0 -63 13.5 -106.5t37 -70t55 -38.5t68.5 -12q21 0 44.5 1t46 2t41.5 2.5t33 2.5h4q16 0 16 -16v-41z"/>
<glyph glyph-name="cdotaccent" horiz-adv-x="452" unicode="ċ" d="M299 658q0 -8 -5.5 -14t-13.5 -6h-48q-8 0 -14 6t-6 14v84q0 8 6 13.5t14 5.5h48q8 0 13.5 -5.5t5.5 -13.5v-84zM408 26q0 -10 -4 -15t-16 -7q-25 -5 -57.5 -8t-67.5 -3q-51 0 -90.5 17.5t-67 49t-41.5 76.5t-14 100v78q0 55 14 100t41 76.5t67 49t91 17.5q35 0 67.5 -3 t57.5 -8q12 -2 16 -6.5t4 -15.5v-36q0 -8 -5 -11.5t-12 -3.5h-4q-33 4 -60 5.5t-64 1.5q-60 0 -92.5 -40.5t-32.5 -125.5v-78q0 -85 32 -125.5t93 -40.5q37 0 64 1.5t60 5.5h4q7 0 12 -3.5t5 -11.5v-36z"/>
<glyph glyph-name="Ccaron" horiz-adv-x="545" unicode="Č" d="M475 943q0 -6 -4 -10l-97 -124q-7 -8 -11.5 -11.5t-13.5 -3.5h-85q-9 0 -13 3.5t-11 11.5l-98 124q-4 4 -4 10q0 7 9 7h54q8 0 12 -4t11 -12l83 -96l82 96q7 8 11 12t12 4h54q9 0 9 -7zM510 26q0 -9 -6 -13.5t-14 -6.5q-16 -3 -32 -5.5t-35 -4t-43 -2.5t-56 -1 q-46 0 -93 14t-85 49.5t-62 95t-24 150.5v139q0 92 24 151.5t62 94.5t85 49t93 14q48 0 91.5 -5.5t76.5 -10.5q16 -2 16 -13v-51q0 -5 -2 -8t-10 -3h-3q-14 1 -33.5 2.5t-42 3t-46.5 2.5t-46 1q-37 0 -68.5 -11.5t-55 -38t-37 -70t-13.5 -107.5v-139q0 -63 13.5 -106.5 t37 -70t55 -38.5t68.5 -12q21 0 44.5 1t46 2t41.5 2.5t33 2.5h4q16 0 16 -16v-41z"/>
<glyph glyph-name="ccaron" horiz-adv-x="452" unicode="č" d="M417 772q0 -6 -4 -10l-97 -124q-7 -8 -11.5 -11.5t-13.5 -3.5h-85q-9 0 -13 3.5t-11 11.5l-98 124q-4 4 -4 10q0 7 9 7h54q8 0 12 -4t11 -12l83 -96l82 96q7 8 11 12t12 4h54q9 0 9 -7zM408 26q0 -10 -4 -15t-16 -7q-25 -5 -57.5 -8t-67.5 -3q-51 0 -90.5 17.5t-67 49 t-41.5 76.5t-14 100v78q0 55 14 100t41 76.5t67 49t91 17.5q35 0 67.5 -3t57.5 -8q12 -2 16 -6.5t4 -15.5v-36q0 -8 -5 -11.5t-12 -3.5h-4q-33 4 -60 5.5t-64 1.5q-60 0 -92.5 -40.5t-32.5 -125.5v-78q0 -85 32 -125.5t93 -40.5q37 0 64 1.5t60 5.5h4q7 0 12 -3.5t5 -11.5 v-36z"/>
<glyph glyph-name="Dcaron" horiz-adv-x="641" unicode="Ď" d="M489 943q0 -6 -4 -10l-97 -124q-7 -8 -11.5 -11.5t-13.5 -3.5h-85q-9 0 -13 3.5t-11 11.5l-98 124q-4 4 -4 10q0 7 9 7h54q8 0 12 -4t11 -12l83 -96l82 96q7 8 11 12t12 4h54q9 0 9 -7zM493 439q0 68 -16.5 113t-45 71.5t-67 37.5t-83.5 11q-35 0 -60.5 -0.5t-50.5 -2.5 v-596q24 -2 50 -2h61q45 0 83.5 11t67 38t45 71.5t16.5 112.5v135zM584 304q0 -80 -21.5 -139t-61 -97t-95.5 -56.5t-125 -18.5q-29 0 -56.5 1t-52 2.5t-43.5 3t-30 3.5q-21 3 -21 25v687q0 22 21 25q11 2 30 3.5t43.5 3t52 2.5t56.5 1q69 0 125 -18t95.5 -56.5t61 -97 t21.5 -139.5v-135z"/>
<glyph glyph-name="dcaron" horiz-adv-x="643" unicode="ď" d="M385 473q-25 5 -59 6t-58 1q-37 0 -62 -11t-40 -32.5t-21.5 -53t-6.5 -71.5v-72q0 -82 28 -126t102 -44q26 0 58.5 2t58.5 4v397zM473 33q0 -10 -3.5 -15.5t-17.5 -7.5q-47 -9 -92.5 -13t-91.5 -4q-56 0 -97 17.5t-68 49.5t-40 78t-13 102v72q0 118 54 181.5t164 63.5 q23 0 55.5 -2.5t61.5 -7.5v186q0 8 5.5 13.5t13.5 5.5h51q8 0 13 -5.5t5 -13.5v-700zM668 743q0 -2 -2 -8l-75 -189q-4 -10 -7.5 -14.5t-11.5 -4.5h-41q-12 0 -12 12q0 5 1 7l57 189q6 19 20 19h58q13 0 13 -11z"/>
<glyph glyph-name="Dcroat" horiz-adv-x="641" unicode="Đ" d="M493 439q0 68 -16.5 113t-45 71.5t-67 37.5t-83.5 11q-35 0 -60.5 -0.5t-50.5 -2.5v-244h103q8 0 14 -6t6 -14v-38q0 -8 -6 -14t-14 -6h-103v-274q24 -2 50 -2h61q45 0 83.5 11t67 38t45 71.5t16.5 112.5v135zM584 304q0 -80 -21.5 -139t-61 -97t-95.5 -56.5t-125 -18.5 q-29 0 -56.5 1t-52 2.5t-43.5 3t-30 3.5q-21 3 -21 25v319h-38q-8 0 -14 6t-6 14v38q0 8 6 14t14 6h38v290q0 22 21 25q11 2 30 3.5t43.5 3t52 2.5t56.5 1q69 0 125 -18t95.5 -56.5t61 -97t21.5 -139.5v-135z"/>
<glyph glyph-name="dcroat" horiz-adv-x="541" unicode="đ" d="M385 473q-25 5 -59 6t-58 1q-37 0 -62 -11t-40 -32.5t-21.5 -53t-6.5 -71.5v-72q0 -82 28 -126t102 -44q26 0 58.5 2t58.5 4v397zM473 33q0 -10 -3.5 -15.5t-17.5 -7.5q-47 -9 -92.5 -13t-91.5 -4q-56 0 -97 17.5t-68 49.5t-40 78t-13 102v72q0 118 54 181.5t164 63.5 q23 0 55.5 -2.5t61.5 -7.5v73h-160q-8 0 -14 6t-6 14v34q0 8 6 14t14 6h160v39q0 8 5.5 13.5t13.5 5.5h51q8 0 13 -5.5t5 -13.5v-39h35q8 0 14 -6t6 -14v-34q0 -8 -6 -14t-14 -6h-35v-587z"/>
<glyph glyph-name="Emacron" horiz-adv-x="551" unicode="Ē" d="M463 836q0 -8 -6 -12.5t-14 -4.5h-288q-8 0 -14 4.5t-6 12.5v34q0 8 6 12.5t14 4.5h288q8 0 14 -4.5t6 -12.5v-34zM496 12q0 -5 -2.5 -9t-7.5 -5q-14 -2 -38 -2.5t-51.5 -1.5t-55.5 -1h-50q-106 0 -159.5 43t-53.5 143v385q0 100 53.5 143t159.5 43q22 0 49.5 -0.5 t54.5 -1t51 -2l40 -2.5q5 -1 7.5 -5t2.5 -9v-50q0 -12 -11 -12h-193q-40 0 -64 -5.5t-37 -18t-17.5 -32.5t-4.5 -48v-139h307q8 0 14 -6t6 -14v-38q0 -8 -6 -14t-14 -6h-307v-168q0 -29 4.5 -48.5t17.5 -32t37 -18t64 -5.5h193q11 0 11 -12v-51z"/>
<glyph glyph-name="emacron" horiz-adv-x="544" unicode="ē" d="M436 666q0 -8 -6 -12.5t-14 -4.5h-288q-8 0 -14 4.5t-6 12.5v34q0 8 6 12.5t14 4.5h288q8 0 14 -4.5t6 -12.5v-34zM403 323q0 85 -32.5 121t-98.5 36q-65 0 -99.5 -38t-34.5 -119v-9h265v9zM492 269q0 -22 -19 -22h-335v-14q0 -89 35 -126t104 -37q44 0 93.5 3t84.5 8h5 q6 0 11 -3t5 -11v-34q0 -10 -4 -15.5t-16 -7.5q-43 -8 -85.5 -12.5t-93.5 -4.5q-43 0 -84 11.5t-72.5 39t-51 73.5t-19.5 116v90q0 108 57 171t165 63q55 0 96 -16.5t68.5 -47t41.5 -74t14 -96.5v-54z"/>
<glyph glyph-name="Ebreve" horiz-adv-x="551" unicode="Ĕ" d="M470 935q-3 -35 -17.5 -61.5t-37 -44t-51 -26.5t-57.5 -9t-57.5 9t-51 26.5t-37 44t-17.5 61.5v4q0 13 11 13h37q14 0 15 -16q2 -20 11.5 -35t23 -25t30.5 -15t35 -5t35 5t30.5 15t23 25t11.5 35q1 16 15 16h37q11 0 11 -13v-4zM496 12q0 -5 -2.5 -9t-7.5 -5 q-14 -2 -38 -2.5t-51.5 -1.5t-55.5 -1h-50q-106 0 -159.5 43t-53.5 143v385q0 100 53.5 143t159.5 43q22 0 49.5 -0.5t54.5 -1t51 -2l40 -2.5q5 -1 7.5 -5t2.5 -9v-50q0 -12 -11 -12h-193q-40 0 -64 -5.5t-37 -18t-17.5 -32.5t-4.5 -48v-139h307q8 0 14 -6t6 -14v-38 q0 -8 -6 -14t-14 -6h-307v-168q0 -29 4.5 -48.5t17.5 -32t37 -18t64 -5.5h193q11 0 11 -12v-51z"/>
<glyph glyph-name="ebreve" horiz-adv-x="544" unicode="ĕ" d="M434 763q-3 -35 -17.5 -61.5t-37 -44t-51 -26.5t-57.5 -9t-57.5 9t-51 26.5t-37 44t-17.5 61.5v4q0 13 11 13h37q14 0 15 -16q2 -20 11.5 -35t23 -25t30.5 -15t35 -5t35 5t30.5 15t23 25t11.5 35q1 16 15 16h37q11 0 11 -13v-4zM403 323q0 85 -32.5 121t-98.5 36 q-65 0 -99.5 -38t-34.5 -119v-9h265v9zM492 269q0 -22 -19 -22h-335v-14q0 -89 35 -126t104 -37q44 0 93.5 3t84.5 8h5q6 0 11 -3t5 -11v-34q0 -10 -4 -15.5t-16 -7.5q-43 -8 -85.5 -12.5t-93.5 -4.5q-43 0 -84 11.5t-72.5 39t-51 73.5t-19.5 116v90q0 108 57 171t165 63 q55 0 96 -16.5t68.5 -47t41.5 -74t14 -96.5v-54z"/>
<glyph glyph-name="Edotaccent" horiz-adv-x="551" unicode="Ė" d="M343 829q0 -8 -5.5 -14t-13.5 -6h-48q-8 0 -14 6t-6 14v84q0 8 6 13.5t14 5.5h48q8 0 13.5 -5.5t5.5 -13.5v-84zM496 12q0 -5 -2.5 -9t-7.5 -5q-14 -2 -38 -2.5t-51.5 -1.5t-55.5 -1h-50q-106 0 -159.5 43t-53.5 143v385q0 100 53.5 143t159.5 43q22 0 49.5 -0.5t54.5 -1 t51 -2l40 -2.5q5 -1 7.5 -5t2.5 -9v-50q0 -12 -11 -12h-193q-40 0 -64 -5.5t-37 -18t-17.5 -32.5t-4.5 -48v-139h307q8 0 14 -6t6 -14v-38q0 -8 -6 -14t-14 -6h-307v-168q0 -29 4.5 -48.5t17.5 -32t37 -18t64 -5.5h193q11 0 11 -12v-51z"/>
<glyph glyph-name="edotaccent" horiz-adv-x="544" unicode="ė" d="M316 658q0 -8 -5.5 -14t-13.5 -6h-48q-8 0 -14 6t-6 14v84q0 8 6 13.5t14 5.5h48q8 0 13.5 -5.5t5.5 -13.5v-84zM403 323q0 85 -32.5 121t-98.5 36q-65 0 -99.5 -38t-34.5 -119v-9h265v9zM492 269q0 -22 -19 -22h-335v-14q0 -89 35 -126t104 -37q44 0 93.5 3t84.5 8h5 q6 0 11 -3t5 -11v-34q0 -10 -4 -15.5t-16 -7.5q-43 -8 -85.5 -12.5t-93.5 -4.5q-43 0 -84 11.5t-72.5 39t-51 73.5t-19.5 116v90q0 108 57 171t165 63q55 0 96 -16.5t68.5 -47t41.5 -74t14 -96.5v-54z"/>
<glyph glyph-name="Eogonek" horiz-adv-x="551" unicode="Ę" d="M496 12q0 -5 -2.5 -9t-7.5 -5q-8 -1 -18 -1.5t-22 -0.5l-54 -38q-26 -17 -40 -29.5t-14 -32.5q0 -19 15.5 -28.5t53.5 -9.5q24 0 45 5t26 5t5 -8v-39q0 -8 -11 -11q-2 -1 -23 -5.5t-53 -4.5q-37 0 -62 7.5t-40.5 20.5t-22 30.5t-6.5 37.5q0 19 6.5 34t16.5 26t21 18.5 t20 12.5l10 6h-48q-106 0 -159.5 43t-53.5 143v385q0 100 53.5 143t159.5 43q22 0 49.5 -0.5t54.5 -1t51 -2l40 -2.5q5 -1 7.5 -5t2.5 -9v-50q0 -12 -11 -12h-193q-40 0 -64 -5.5t-37 -18t-17.5 -32.5t-4.5 -48v-139h307q8 0 14 -6t6 -14v-38q0 -8 -6 -14t-14 -6h-307v-168 q0 -29 4.5 -48.5t17.5 -32t37 -18t64 -5.5h193q11 0 11 -12v-51z"/>
<glyph glyph-name="eogonek" horiz-adv-x="544" unicode="ę" d="M337 -5q-14 -1 -29 -1.5t-31 -0.5q-43 0 -84 11.5t-72.5 39t-51 73.5t-19.5 116v90q0 108 57 171t165 63q55 0 96 -16.5t68.5 -47t41.5 -74t14 -96.5v-54q0 -22 -19 -22h-335v-14q0 -89 35 -126t104 -37q36 0 69.5 2t60 4t43 4t18.5 2q6 0 7 -4t1 -11v-34q0 -6 -1 -10.5 t-8 -9.5l-80 -55q-26 -17 -40 -29.5t-14 -32.5q0 -19 15.5 -28.5t53.5 -9.5q24 0 45 5t26 5t5 -8v-39q0 -8 -11 -11q-2 -1 -23 -5.5t-53 -4.5q-37 0 -62 7.5t-40.5 20.5t-22 30.5t-6.5 37.5q0 19 7 34t16.5 26t20.5 18.5t20 12.5zM403 323q0 85 -32.5 121t-98.5 36 q-65 0 -99.5 -38t-34.5 -119v-9h265v9z"/>
<glyph glyph-name="Ecaron" horiz-adv-x="551" unicode="Ě" d="M455 943q0 -6 -4 -10l-97 -124q-7 -8 -11.5 -11.5t-13.5 -3.5h-85q-9 0 -13 3.5t-11 11.5l-98 124q-4 4 -4 10q0 7 9 7h54q8 0 12 -4t11 -12l83 -96l82 96q7 8 11 12t12 4h54q9 0 9 -7zM496 12q0 -5 -2.5 -9t-7.5 -5q-14 -2 -38 -2.5t-51.5 -1.5t-55.5 -1h-50 q-106 0 -159.5 43t-53.5 143v385q0 100 53.5 143t159.5 43q22 0 49.5 -0.5t54.5 -1t51 -2l40 -2.5q5 -1 7.5 -5t2.5 -9v-50q0 -12 -11 -12h-193q-40 0 -64 -5.5t-37 -18t-17.5 -32.5t-4.5 -48v-139h307q8 0 14 -6t6 -14v-38q0 -8 -6 -14t-14 -6h-307v-168q0 -29 4.5 -48.5 t17.5 -32t37 -18t64 -5.5h193q11 0 11 -12v-51z"/>
<glyph glyph-name="ecaron" horiz-adv-x="544" unicode="ě" d="M441 772q0 -6 -4 -10l-97 -124q-7 -8 -11.5 -11.5t-13.5 -3.5h-85q-9 0 -13 3.5t-11 11.5l-98 124q-4 4 -4 10q0 7 9 7h54q8 0 12 -4t11 -12l83 -96l82 96q7 8 11 12t12 4h54q9 0 9 -7zM403 323q0 85 -32.5 121t-98.5 36q-65 0 -99.5 -38t-34.5 -119v-9h265v9zM492 269 q0 -22 -19 -22h-335v-14q0 -89 35 -126t104 -37q44 0 93.5 3t84.5 8h5q6 0 11 -3t5 -11v-34q0 -10 -4 -15.5t-16 -7.5q-43 -8 -85.5 -12.5t-93.5 -4.5q-43 0 -84 11.5t-72.5 39t-51 73.5t-19.5 116v90q0 108 57 171t165 63q55 0 96 -16.5t68.5 -47t41.5 -74t14 -96.5v-54z "/>
<glyph glyph-name="Gcircumflex" horiz-adv-x="612" unicode="Ĝ" d="M486 801q0 -7 -9 -7h-52q-8 0 -12 3.5t-11 11.5l-82 97l-83 -97q-7 -8 -11 -11.5t-12 -3.5h-52q-9 0 -9 7q0 6 4 10l96 124q7 8 11 11.5t13 3.5h85q9 0 13.5 -3.5t11.5 -11.5l95 -124q4 -4 4 -10zM534 30q0 -19 -18 -22q-37 -6 -82.5 -10.5t-116.5 -4.5q-47 0 -93.5 16.5 t-83 53t-59.5 96t-23 145.5v134q0 91 24 151t62 96t86 50.5t96 14.5q70 0 115.5 -4.5t74.5 -9.5q7 -1 12 -4t5 -11v-50q0 -10 -13 -10h-4q-22 2 -42.5 3.5t-42.5 2t-47.5 1t-57.5 0.5q-35 0 -67 -10.5t-56.5 -37t-39 -71t-14.5 -111.5v-134q0 -62 13 -105.5t36 -71.5 t53.5 -40.5t65.5 -12.5q46 0 77 2t49 4v286q0 8 5 14t13 6h54q8 0 13.5 -6t5.5 -14v-336z"/>
<glyph glyph-name="gcircumflex" horiz-adv-x="559" unicode="ĝ" d="M455 630q0 -7 -9 -7h-52q-8 0 -12 3.5t-11 11.5l-82 97l-83 -97q-7 -8 -11 -11.5t-12 -3.5h-52q-9 0 -9 7q0 6 4 10l96 124q7 8 11 11.5t13 3.5h85q9 0 13.5 -3.5t11.5 -11.5l95 -124q4 -4 4 -10zM424 -37q0 29 -27.5 45t-94.5 33l-113 29q-22 -19 -35.5 -41t-13.5 -61 v-9q0 -21 7 -38t23.5 -28.5t44 -18t69.5 -6.5q43 0 70 6t42.5 17t21.5 27t6 37v8zM416 373q0 22 -6 42t-21 34t-41.5 22.5t-66.5 8.5q-42 0 -68.5 -9t-41 -23.5t-20 -34t-5.5 -40.5v-8q0 -17 5 -35t19.5 -33t41 -24.5t69.5 -9.5q40 0 66.5 7.5t41.5 21t21 32t6 41.5v8z M523 502q0 -10 -5 -13.5t-13 -5.5l-36 -7q14 -14 24 -38t10 -65v-8q0 -83 -53 -127t-169 -44q-40 0 -67 5.5t-49 14.5q-25 -12 -25 -34q0 -13 7 -20t24 -12l149 -38q37 -9 71.5 -20t61.5 -27.5t43 -40.5t16 -59v-8q0 -72 -52.5 -113.5t-175.5 -41.5q-119 0 -174.5 42.5 t-55.5 116.5v9q0 42 19 75t44 52l-7 3q-24 11 -35 33t-11 45v1q0 20 10 40t31 32q-23 22 -34.5 50t-11.5 66v8q0 33 10.5 65t36 57t68 40t107.5 15h219q9 0 16 -6.5t7 -15.5v-26z"/>
<glyph glyph-name="Gbreve" horiz-adv-x="612" unicode="Ğ" d="M469 933q-3 -35 -17.5 -61.5t-37 -44t-51 -26.5t-57.5 -9t-57.5 9t-51 26.5t-37 44t-17.5 61.5v4q0 13 11 13h37q14 0 15 -16q2 -20 11.5 -35t23 -25t30.5 -15t35 -5t35 5t30.5 15t23 25t11.5 35q1 16 15 16h37q11 0 11 -13v-4zM534 30q0 -19 -18 -22q-37 -6 -82.5 -10.5 t-116.5 -4.5q-47 0 -93.5 16.5t-83 53t-59.5 96t-23 145.5v134q0 91 24 151t62 96t86 50.5t96 14.5q70 0 115.5 -4.5t74.5 -9.5q7 -1 12 -4t5 -11v-50q0 -10 -13 -10h-4q-22 2 -42.5 3.5t-42.5 2t-47.5 1t-57.5 0.5q-35 0 -67 -10.5t-56.5 -37t-39 -71t-14.5 -111.5v-134 q0 -62 13 -105.5t36 -71.5t53.5 -40.5t65.5 -12.5q46 0 77 2t49 4v286q0 8 5 14t13 6h54q8 0 13.5 -6t5.5 -14v-336z"/>
<glyph glyph-name="gbreve" horiz-adv-x="559" unicode="ğ" d="M443 762q-3 -35 -17.5 -61.5t-37 -44t-51 -26.5t-57.5 -9t-57.5 9t-51 26.5t-37 44t-17.5 61.5v4q0 13 11 13h37q14 0 15 -16q2 -20 11.5 -35t23 -25t30.5 -15t35 -5t35 5t30.5 15t23 25t11.5 35q1 16 15 16h37q11 0 11 -13v-4zM424 -37q0 29 -27.5 45t-94.5 33l-113 29 q-22 -19 -35.5 -41t-13.5 -61v-9q0 -21 7 -38t23.5 -28.5t44 -18t69.5 -6.5q43 0 70 6t42.5 17t21.5 27t6 37v8zM416 373q0 22 -6 42t-21 34t-41.5 22.5t-66.5 8.5q-42 0 -68.5 -9t-41 -23.5t-20 -34t-5.5 -40.5v-8q0 -17 5 -35t19.5 -33t41 -24.5t69.5 -9.5q40 0 66.5 7.5 t41.5 21t21 32t6 41.5v8zM523 502q0 -10 -5 -13.5t-13 -5.5l-36 -7q14 -14 24 -38t10 -65v-8q0 -83 -53 -127t-169 -44q-40 0 -67 5.5t-49 14.5q-25 -12 -25 -34q0 -13 7 -20t24 -12l149 -38q37 -9 71.5 -20t61.5 -27.5t43 -40.5t16 -59v-8q0 -72 -52.5 -113.5t-175.5 -41.5 q-119 0 -174.5 42.5t-55.5 116.5v9q0 42 19 75t44 52l-7 3q-24 11 -35 33t-11 45v1q0 20 10 40t31 32q-23 22 -34.5 50t-11.5 66v8q0 33 10.5 65t36 57t68 40t107.5 15h219q9 0 16 -6.5t7 -15.5v-26z"/>
<glyph glyph-name="Gdotaccent" horiz-adv-x="612" unicode="Ġ" d="M365 814q0 -8 -5.5 -14t-13.5 -6h-48q-8 0 -14 6t-6 14v84q0 8 6 13.5t14 5.5h48q8 0 13.5 -5.5t5.5 -13.5v-84zM534 30q0 -19 -18 -22q-37 -6 -82.5 -10.5t-116.5 -4.5q-47 0 -93.5 16.5t-83 53t-59.5 96t-23 145.5v134q0 91 24 151t62 96t86 50.5t96 14.5 q70 0 115.5 -4.5t74.5 -9.5q7 -1 12 -4t5 -11v-50q0 -10 -13 -10h-4q-22 2 -42.5 3.5t-42.5 2t-47.5 1t-57.5 0.5q-35 0 -67 -10.5t-56.5 -37t-39 -71t-14.5 -111.5v-134q0 -62 13 -105.5t36 -71.5t53.5 -40.5t65.5 -12.5q46 0 77 2t49 4v286q0 8 5 14t13 6h54q8 0 13.5 -6 t5.5 -14v-336z"/>
<glyph glyph-name="gdotaccent" horiz-adv-x="559" unicode="ġ" d="M334 658q0 -8 -5.5 -14t-13.5 -6h-48q-8 0 -14 6t-6 14v84q0 8 6 13.5t14 5.5h48q8 0 13.5 -5.5t5.5 -13.5v-84zM424 -37q0 29 -27.5 45t-94.5 33l-113 29q-22 -19 -35.5 -41t-13.5 -61v-9q0 -21 7 -38t23.5 -28.5t44 -18t69.5 -6.5q43 0 70 6t42.5 17t21.5 27t6 37v8z M416 373q0 22 -6 42t-21 34t-41.5 22.5t-66.5 8.5q-42 0 -68.5 -9t-41 -23.5t-20 -34t-5.5 -40.5v-8q0 -17 5 -35t19.5 -33t41 -24.5t69.5 -9.5q40 0 66.5 7.5t41.5 21t21 32t6 41.5v8zM523 502q0 -10 -5 -13.5t-13 -5.5l-36 -7q14 -14 24 -38t10 -65v-8q0 -83 -53 -127 t-169 -44q-40 0 -67 5.5t-49 14.5q-25 -12 -25 -34q0 -13 7 -20t24 -12l149 -38q37 -9 71.5 -20t61.5 -27.5t43 -40.5t16 -59v-8q0 -72 -52.5 -113.5t-175.5 -41.5q-119 0 -174.5 42.5t-55.5 116.5v9q0 42 19 75t44 52l-7 3q-24 11 -35 33t-11 45v1q0 20 10 40t31 32 q-23 22 -34.5 50t-11.5 66v8q0 33 10.5 65t36 57t68 40t107.5 15h219q9 0 16 -6.5t7 -15.5v-26z"/>
<glyph glyph-name="Gcommaaccent" horiz-adv-x="612" unicode="Ģ" d="M534 30q0 -19 -18 -22q-37 -6 -82.5 -10.5t-116.5 -4.5q-47 0 -93.5 16.5t-83 53t-59.5 96t-23 145.5v134q0 91 24 151t62 96t86 50.5t96 14.5q70 0 115.5 -4.5t74.5 -9.5q7 -1 12 -4t5 -11v-50q0 -10 -13 -10h-4q-22 2 -42.5 3.5t-42.5 2t-47.5 1t-57.5 0.5 q-35 0 -67 -10.5t-56.5 -37t-39 -71t-14.5 -111.5v-134q0 -62 13 -105.5t36 -71.5t53.5 -40.5t65.5 -12.5q46 0 77 2t49 4v286q0 8 5 14t13 6h54q8 0 13.5 -6t5.5 -14v-336zM360 -49q11 0 11 -11l-1 -8l-54 -109q-5 -10 -9 -14.5t-15 -4.5h-41q-3 0 -6 1.5t-3 6.5q0 4 1 8 l28 112q4 19 20 19h69z"/>
<glyph glyph-name="gcommaaccent" horiz-adv-x="559" unicode="ģ" d="M424 -37q0 29 -27.5 45t-94.5 33l-113 29q-22 -19 -35.5 -41t-13.5 -61v-9q0 -21 7 -38t23.5 -28.5t44 -18t69.5 -6.5q43 0 70 6t42.5 17t21.5 27t6 37v8zM416 373q0 22 -6 42t-21 34t-41.5 22.5t-66.5 8.5q-42 0 -68.5 -9t-41 -23.5t-20 -34t-5.5 -40.5v-8q0 -17 5 -35 t19.5 -33t41 -24.5t69.5 -9.5q40 0 66.5 7.5t41.5 21t21 32t6 41.5v8zM523 502q0 -10 -5 -13.5t-13 -5.5l-36 -7q14 -14 24 -38t10 -65v-8q0 -83 -53 -127t-169 -44q-40 0 -67 5.5t-49 14.5q-25 -12 -25 -34q0 -13 7 -20t24 -12l149 -38q37 -9 71.5 -20t61.5 -27.5t43 -40.5 t16 -59v-8q0 -72 -52.5 -113.5t-175.5 -41.5q-119 0 -174.5 42.5t-55.5 116.5v9q0 42 19 75t44 52l-7 3q-24 11 -35 33t-11 45v1q0 20 10 40t31 32q-23 22 -34.5 50t-11.5 66v8q0 33 10.5 65t36 57t68 40t107.5 15h219q9 0 16 -6.5t7 -15.5v-26zM242 605q-4 0 -8 3t-4 8t2 8 l54 109q5 10 9 14.5t15 4.5h41q3 0 6 -1.5t3 -6.5q0 -4 -1 -8l-28 -112q-4 -19 -20 -19h-69z"/>
<glyph glyph-name="Hcircumflex" horiz-adv-x="680" unicode="Ĥ" d="M507 800q0 -7 -9 -7h-52q-8 0 -12 3.5t-11 11.5l-82 97l-83 -97q-7 -8 -11 -11.5t-12 -3.5h-52q-9 0 -9 7q0 6 4 10l96 124q7 8 11 11.5t13 3.5h85q9 0 13.5 -3.5t11.5 -11.5l95 -124q4 -4 4 -10zM602 20q0 -8 -6 -14t-14 -6h-51q-8 0 -14 6t-6 14v332h-342v-332 q0 -8 -6 -14t-14 -6h-51q-8 0 -14 6t-6 14v703q0 8 6 14t14 6h51q8 0 14 -6t6 -14v-290h342v290q0 8 6 14t14 6h51q8 0 14 -6t6 -14v-703z"/>
<glyph glyph-name="hcircumflex" horiz-adv-x="557" unicode="ĥ" d="M456 800q0 -7 -9 -7h-52q-8 0 -12 3.5t-11 11.5l-82 97l-83 -97q-7 -8 -11 -11.5t-12 -3.5h-52q-9 0 -9 7q0 6 4 10l96 124q7 8 11 11.5t13 3.5h85q9 0 13.5 -3.5t11.5 -11.5l95 -124q4 -4 4 -10zM489 20q0 -8 -6 -14t-14 -6h-48q-8 0 -14 6t-6 14v329q0 75 -29 103 t-78 28q-12 0 -28.5 -1.5t-35.5 -5t-38.5 -9t-35.5 -12.5v-432q0 -8 -6 -14t-14 -6h-49q-8 0 -13.5 6t-5.5 14v712q0 8 5.5 14t13.5 6h50q8 0 13.5 -6t5.5 -14v-206q36 16 78.5 23.5t74.5 7.5q40 0 73 -12t57 -37t37 -64.5t13 -94.5v-329z"/>
<glyph glyph-name="Hbar" horiz-adv-x="680" unicode="Ħ" d="M511 433v109h-342v-109h342zM660 562q0 -8 -6 -14t-14 -6h-38v-522q0 -8 -6 -14t-14 -6h-51q-8 0 -14 6t-6 14v332h-342v-332q0 -8 -6 -14t-14 -6h-51q-8 0 -14 6t-6 14v522h-38q-8 0 -14 6t-6 14v41q0 8 6 14t14 6h38v100q0 8 6 14t14 6h51q8 0 14 -6t6 -14v-100h342 v100q0 8 6 14t14 6h51q8 0 14 -6t6 -14v-100h38q8 0 14 -6t6 -14v-41z"/>
<glyph glyph-name="hbar" horiz-adv-x="557" unicode="ħ" d="M68 697v35q0 8 5.5 14t13.5 6h50q8 0 13.5 -6t5.5 -14v-35h161q8 0 14 -6t6 -14v-34q0 -8 -6 -14t-14 -6h-161v-97q36 16 78.5 23.5t74.5 7.5q40 0 73 -12t57 -37t37 -64.5t13 -94.5v-329q0 -8 -6 -14t-14 -6h-48q-8 0 -14 6t-6 14v329q0 75 -29 103t-78 28 q-12 0 -28.5 -1.5t-35.5 -5t-38.5 -9t-35.5 -12.5v-432q0 -8 -6 -14t-14 -6h-49q-8 0 -13.5 6t-5.5 14v603h-34q-8 0 -14 6t-6 14v34q0 8 6 14t14 6h34z"/>
<glyph glyph-name="Itilde" horiz-adv-x="267" unicode="Ĩ" d="M310 891q0 -52 -21.5 -78.5t-72.5 -26.5q-17 0 -33.5 5t-30.5 16l-61 49q-18 14 -25 18t-16 4q-18 0 -24.5 -11.5t-6.5 -34.5v-21q0 -7 -5 -12t-12 -5h-31q-7 0 -11.5 5t-4.5 12v21q0 54 25 81.5t70 27.5q17 0 31.5 -6.5t28.5 -17.5l71 -56q8 -6 18 -10t17 -4 q15 0 22.5 9t7.5 35v23q0 7 5 12t12 5h31q7 0 11.5 -5t4.5 -12v-23zM179 20q0 -8 -5 -14t-13 -6h-55q-8 0 -13 6t-5 14v704q0 8 5 13.5t13 5.5h55q8 0 13 -5.5t5 -13.5v-704z"/>
<glyph glyph-name="itilde" horiz-adv-x="247" unicode="ĩ" d="M301 731q0 -52 -21.5 -78.5t-72.5 -26.5q-17 0 -33.5 5t-30.5 16l-61 49q-18 14 -25 18t-16 4q-18 0 -24.5 -11.5t-6.5 -34.5v-21q0 -7 -5 -12t-12 -5h-31q-7 0 -11.5 5t-4.5 12v21q0 54 25 81.5t70 27.5q17 0 31.5 -6.5t28.5 -17.5l71 -56q8 -6 18 -10t17 -4 q15 0 22.5 9t7.5 35v23q0 7 5 12t12 5h31q7 0 11.5 -5t4.5 -12v-23zM167 20q0 -8 -6 -14t-14 -6h-48q-8 0 -14 6t-6 14v510q0 8 6 14t14 6h48q8 0 14 -6t6 -14v-510z"/>
<glyph glyph-name="Imacron" horiz-adv-x="267" unicode="Ī" d="M297 837q0 -8 -6 -12.5t-14 -4.5h-288q-8 0 -14 4.5t-6 12.5v34q0 8 6 12.5t14 4.5h288q8 0 14 -4.5t6 -12.5v-34zM179 20q0 -8 -5 -14t-13 -6h-55q-8 0 -13 6t-5 14v704q0 8 5 13.5t13 5.5h55q8 0 13 -5.5t5 -13.5v-704z"/>
<glyph glyph-name="imacron" horiz-adv-x="247" unicode="ī" d="M287 666q0 -8 -6 -12.5t-14 -4.5h-288q-8 0 -14 4.5t-6 12.5v34q0 8 6 12.5t14 4.5h288q8 0 14 -4.5t6 -12.5v-34zM167 20q0 -8 -6 -14t-14 -6h-48q-8 0 -14 6t-6 14v510q0 8 6 14t14 6h48q8 0 14 -6t6 -14v-510z"/>
<glyph glyph-name="Ibreve" horiz-adv-x="267" unicode="Ĭ" d="M296 934q-3 -35 -17.5 -61.5t-37 -44t-51 -26.5t-57.5 -9t-57.5 9t-51 26.5t-37 44t-17.5 61.5v4q0 13 11 13h37q14 0 15 -16q2 -20 11.5 -35t23 -25t30.5 -15t35 -5t35 5t30.5 15t23 25t11.5 35q1 16 15 16h37q11 0 11 -13v-4zM179 20q0 -8 -5 -14t-13 -6h-55 q-8 0 -13 6t-5 14v704q0 8 5 13.5t13 5.5h55q8 0 13 -5.5t5 -13.5v-704z"/>
<glyph glyph-name="ibreve" horiz-adv-x="247" unicode="ĭ" d="M286 762q-3 -35 -17.5 -61.5t-37 -44t-51 -26.5t-57.5 -9t-57.5 9t-51 26.5t-37 44t-17.5 61.5v4q0 13 11 13h37q14 0 15 -16q2 -20 11.5 -35t23 -25t30.5 -15t35 -5t35 5t30.5 15t23 25t11.5 35q1 16 15 16h37q11 0 11 -13v-4zM167 20q0 -8 -6 -14t-14 -6h-48 q-8 0 -14 6t-6 14v510q0 8 6 14t14 6h48q8 0 14 -6t6 -14v-510z"/>
<glyph glyph-name="Iogonek" horiz-adv-x="267" unicode="Į" d="M8 -104q0 28 13.5 51t48.5 48l18 13v716q0 8 5 13.5t13 5.5h55q8 0 13 -5.5t5 -13.5v-707q0 -5 -1.5 -9t-6.5 -8l-36 -29q-18 -14 -28.5 -24t-16 -18t-7.5 -15.5t-2 -17.5q0 -19 15.5 -28.5t53.5 -9.5q24 0 45 5t26 5t5 -8v-39q0 -8 -11 -11q-2 -1 -23 -5.5t-53 -4.5 q-37 0 -62 7.5t-40.5 20.5t-22 30.5t-6.5 37.5z"/>
<glyph glyph-name="iogonek" horiz-adv-x="247" unicode="į" d="M169 658q0 -8 -6 -14t-14 -6h-51q-8 0 -14 6t-6 14v80q0 8 6 14t14 6h51q8 0 14 -6t6 -14v-80zM-2 -104q0 28 13.5 51t48.5 48l18 13v523q0 8 5 13.5t13 5.5h53q8 0 13 -5.5t5 -13.5v-514q0 -5 -1.5 -9t-6.5 -8l-36 -29q-18 -14 -28 -24t-15.5 -18t-7 -15.5t-1.5 -17.5 q0 -19 15.5 -28.5t53.5 -9.5q24 0 45 5t26 5t5 -8v-39q0 -8 -11 -11q-2 -1 -23 -5.5t-53 -4.5q-37 0 -62 7.5t-40.5 20.5t-22 30.5t-6.5 37.5z"/>
<glyph glyph-name="Idotaccent" horiz-adv-x="267" unicode="İ" d="M177 829q0 -8 -5.5 -14t-13.5 -6h-48q-8 0 -14 6t-6 14v84q0 8 6 13.5t14 5.5h48q8 0 13.5 -5.5t5.5 -13.5v-84zM179 20q0 -8 -5 -14t-13 -6h-55q-8 0 -13 6t-5 14v704q0 8 5 13.5t13 5.5h55q8 0 13 -5.5t5 -13.5v-704z"/>
<glyph glyph-name="dotlessi" horiz-adv-x="247" unicode="ı" d="M167 20q0 -8 -6 -14t-14 -6h-48q-8 0 -14 6t-6 14v510q0 8 6 14t14 6h48q8 0 14 -6t6 -14v-510z"/>
<glyph glyph-name="IJ" horiz-adv-x="524" unicode="Ĳ" d="M446 -37q0 -72 -36 -107.5t-119 -35.5q-17 0 -32.5 3t-20.5 5q-6 3 -6 11v37q0 8 6 12.5t14 4.5h39q40 0 52 16.5t12 53.5v761q0 8 5.5 13.5t13.5 5.5h53q8 0 13.5 -5.5t5.5 -13.5v-761zM179 20q0 -8 -5 -14t-13 -6h-55q-8 0 -13 6t-5 14v704q0 8 5 13.5t13 5.5h55 q8 0 13 -5.5t5 -13.5v-704z"/>
<glyph glyph-name="ij" horiz-adv-x="494" unicode="ĳ" d="M414 -64q0 -39 -8.5 -64.5t-24 -41t-39 -21.5t-53.5 -6q-15 0 -27 1t-27 3q-18 3 -18 16v37q0 14 21 14h41q29 0 38 12t9 50v594q0 8 5 14t13 6h52q8 0 13 -6t5 -14v-594zM416 657q0 -8 -6 -13.5t-14 -5.5h-51q-8 0 -14 5.5t-6 13.5v81q0 8 6 14t14 6h51q8 0 14 -6t6 -14 v-81zM167 20q0 -8 -6 -14t-14 -6h-48q-8 0 -14 6t-6 14v510q0 8 6 14t14 6h48q8 0 14 -6t6 -14v-510zM169 658q0 -8 -6 -14t-14 -6h-51q-8 0 -14 6t-6 14v80q0 8 6 14t14 6h51q8 0 14 -6t6 -14v-80z"/>
<glyph glyph-name="Jcircumflex" horiz-adv-x="257" unicode="Ĵ" d="M301 801q0 -7 -9 -7h-52q-8 0 -12 3.5t-11 11.5l-82 97l-83 -97q-7 -8 -11 -11.5t-12 -3.5h-52q-9 0 -9 7q0 6 4 10l96 124q7 8 11 11.5t13 3.5h85q9 0 13.5 -3.5t11.5 -11.5l95 -124q4 -4 4 -10zM179 -37q0 -72 -36 -107.5t-119 -35.5q-17 0 -32.5 3t-20.5 5q-6 3 -6 11 v37q0 8 6 12.5t14 4.5h39q40 0 52 16.5t12 53.5v761q0 8 5.5 13.5t13.5 5.5h53q8 0 13.5 -5.5t5.5 -13.5v-761z"/>
<glyph glyph-name="jcircumflex" horiz-adv-x="247" unicode="ĵ" d="M288 630q0 -7 -9 -7h-52q-8 0 -12 3.5t-11 11.5l-82 97l-83 -97q-7 -8 -11 -11.5t-12 -3.5h-52q-9 0 -9 7q0 6 4 10l96 124q7 8 11 11.5t13 3.5h85q9 0 13.5 -3.5t11.5 -11.5l95 -124q4 -4 4 -10zM167 -64q0 -39 -8.5 -64.5t-24 -41t-39 -21.5t-53.5 -6q-15 0 -27 1 t-27 3q-18 3 -18 16v37q0 14 21 14h41q29 0 38 12t9 50v594q0 8 5 14t13 6h52q8 0 13 -6t5 -14v-594z"/>
<glyph glyph-name="Kcommaaccent" horiz-adv-x="607" unicode="Ķ" d="M564 10q0 -10 -13 -10h-78q-13 0 -22 10l-282 343v-333q0 -8 -5 -14t-13 -6h-55q-8 0 -13 6t-5 14v704q0 8 5.5 13.5t13.5 5.5h53q8 0 13.5 -5.5t5.5 -13.5v-323l288 333q5 5 8.5 7t11.5 2h72q14 0 14 -11q0 -6 -4 -10l-301 -340l301 -360q5 -5 5 -12zM357 -49 q11 0 11 -11l-1 -8l-54 -109q-5 -10 -9 -14.5t-15 -4.5h-41q-3 0 -6 1.5t-3 6.5q0 4 1 8l28 112q4 19 20 19h69z"/>
<glyph glyph-name="kcommaaccent" horiz-adv-x="496" unicode="ķ" d="M461 13q0 -13 -11 -13h-72q-8 0 -12.5 2.5t-10.5 10.5l-199 246v-239q0 -8 -6 -14t-14 -6h-48q-8 0 -14 6t-6 14v712q0 8 6 14t14 6h48q8 0 14 -6t6 -14v-416l200 225q5 5 8.5 7t11.5 2h70q15 0 15 -11q0 -6 -5 -11l-220 -238l222 -268q3 -3 3 -9zM302 -49q11 0 11 -11 l-1 -8l-54 -109q-5 -10 -9 -14.5t-15 -4.5h-41q-3 0 -6 1.5t-3 6.5q0 4 1 8l28 112q4 19 20 19h69z"/>
<glyph glyph-name="kgreenlandic" horiz-adv-x="496" unicode="ĸ" d="M461 13q0 -13 -11 -13h-72q-8 0 -12.5 2.5t-10.5 10.5l-199 246v-239q0 -8 -6 -14t-14 -6h-48q-8 0 -14 6t-6 14v510q0 8 6 14t14 6h48q8 0 14 -6t6 -14v-214l200 225q5 5 8.5 7t11.5 2h70q15 0 15 -11q0 -6 -5 -11l-220 -238l222 -268q3 -3 3 -9z"/>
<glyph glyph-name="Lacute" horiz-adv-x="514" unicode="Ĺ" d="M394 943q0 -4 -4 -8l-113 -126q-7 -8 -11 -11.5t-12 -3.5h-54q-9 0 -9 7q0 6 4 10l98 124q7 8 11 11.5t13 3.5h66q11 0 11 -7zM496 16q0 -5 -2.5 -9t-7.5 -5q-20 -3 -72 -6t-123 -3q-40 0 -78.5 6t-68.5 25.5t-48 56t-18 98.5v544q0 8 6 14t14 6h51q8 0 14 -6t6 -14v-544 q0 -29 4.5 -48.5t17.5 -32t37 -18t64 -5.5h193q11 0 11 -12v-47z"/>
<glyph glyph-name="lacute" horiz-adv-x="244" unicode="ĺ" d="M258 945q0 -4 -4 -8l-113 -126q-7 -8 -11 -11.5t-12 -3.5h-54q-9 0 -9 7q0 6 4 10l98 124q7 8 11 11.5t13 3.5h66q11 0 11 -7zM166 20q0 -8 -5 -14t-13 -6h-52q-8 0 -13 6t-5 14v713q0 8 5 13.5t13 5.5h52q8 0 13 -5.5t5 -13.5v-713z"/>
<glyph glyph-name="Lcommaaccent" horiz-adv-x="514" unicode="Ļ" d="M496 16q0 -5 -2.5 -9t-7.5 -5q-20 -3 -72 -6t-123 -3q-40 0 -78.5 6t-68.5 25.5t-48 56t-18 98.5v544q0 8 6 14t14 6h51q8 0 14 -6t6 -14v-544q0 -29 4.5 -48.5t17.5 -32t37 -18t64 -5.5h193q11 0 11 -12v-47zM321 -49q11 0 11 -11l-1 -8l-54 -109q-5 -10 -9 -14.5 t-15 -4.5h-41q-3 0 -6 1.5t-3 6.5q0 4 1 8l28 112q4 19 20 19h69z"/>
<glyph glyph-name="lcommaaccent" horiz-adv-x="244" unicode="ļ" d="M166 20q0 -8 -5 -14t-13 -6h-52q-8 0 -13 6t-5 14v713q0 8 5 13.5t13 5.5h52q8 0 13 -5.5t5 -13.5v-713zM159 -49q11 0 11 -11l-1 -8l-54 -109q-5 -10 -9 -14.5t-15 -4.5h-41q-3 0 -6 1.5t-3 6.5q0 4 1 8l28 112q4 19 20 19h69z"/>
<glyph glyph-name="Lcaron" horiz-adv-x="514" unicode="Ľ" d="M496 16q0 -5 -2.5 -9t-7.5 -5q-20 -3 -72 -6t-123 -3q-40 0 -78.5 6t-68.5 25.5t-48 56t-18 98.5v544q0 8 6 14t14 6h51q8 0 14 -6t6 -14v-544q0 -29 4.5 -48.5t17.5 -32t37 -18t64 -5.5h193q11 0 11 -12v-47zM428 741q0 -2 -2 -8l-75 -189q-4 -10 -7.5 -14.5t-11.5 -4.5 h-41q-12 0 -12 12q0 5 1 7l57 189q6 19 20 19h58q13 0 13 -11z"/>
<glyph glyph-name="lcaron" horiz-adv-x="346" unicode="ľ" d="M166 20q0 -8 -5 -14t-13 -6h-52q-8 0 -13 6t-5 14v713q0 8 5 13.5t13 5.5h52q8 0 13 -5.5t5 -13.5v-713zM371 743q0 -2 -2 -8l-75 -189q-4 -10 -7.5 -14.5t-11.5 -4.5h-41q-12 0 -12 12q0 5 1 7l57 189q6 19 20 19h58q13 0 13 -11z"/>
<glyph glyph-name="Ldot" horiz-adv-x="514" unicode="Ŀ" d="M402 323q0 -8 -5.5 -14t-13.5 -6h-48q-8 0 -14 6t-6 14v84q0 8 6 13.5t14 5.5h48q8 0 13.5 -5.5t5.5 -13.5v-84zM496 16q0 -5 -2.5 -9t-7.5 -5q-20 -3 -72 -6t-123 -3q-40 0 -78.5 6t-68.5 25.5t-48 56t-18 98.5v544q0 8 6 14t14 6h51q8 0 14 -6t6 -14v-544 q0 -29 4.5 -48.5t17.5 -32t37 -18t64 -5.5h193q11 0 11 -12v-47z"/>
<glyph glyph-name="ldot" horiz-adv-x="369" unicode="ŀ" d="M334 326q0 -8 -5.5 -14t-13.5 -6h-48q-8 0 -14 6t-6 14v84q0 8 6 13.5t14 5.5h48q8 0 13.5 -5.5t5.5 -13.5v-84zM166 20q0 -8 -5 -14t-13 -6h-52q-8 0 -13 6t-5 14v713q0 8 5 13.5t13 5.5h52q8 0 13 -5.5t5 -13.5v-713z"/>
<glyph glyph-name="Lslash" horiz-adv-x="514" unicode="Ł" d="M496 16q0 -5 -2.5 -9t-7.5 -5q-20 -3 -72 -6t-123 -3q-106 0 -159.5 43t-53.5 143v117l-61 -75q-5 -6 -11 -6q-7 0 -7 6v63v1q0 5 1 10t6 12l72 89v327q0 8 6 14t14 6h51q8 0 14 -6t6 -14v-216l68 84q6 7 11 7q7 0 7 -7v-65q0 -6 -1.5 -11t-6.5 -12l-78 -96v-228 q0 -29 4.5 -48.5t17.5 -32t37 -18t64 -5.5h193q11 0 11 -12v-47z"/>
<glyph glyph-name="lslash" horiz-adv-x="244" unicode="ł" d="M248 522q0 -6 -2 -9.5t-4 -6.5l-76 -94v-392q0 -8 -5 -14t-13 -6h-52q-8 0 -13 6t-5 14v284l-68 -83q-4 -5 -9 -5q-9 0 -9 8v60v1q0 5 1 10.5t6 11.5l79 97v329q0 8 5 13.5t13 5.5h52q8 0 13 -5.5t5 -13.5v-221l64 79q4 5 9 5q9 0 9 -9v-65z"/>
<glyph glyph-name="Nacute" horiz-adv-x="680" unicode="Ń" d="M477 943q0 -4 -4 -8l-113 -126q-7 -8 -11 -11.5t-12 -3.5h-54q-9 0 -9 7q0 6 4 10l98 124q7 8 11 11.5t13 3.5h66q11 0 11 -7zM602 29q0 -12 -8.5 -20.5t-20.5 -8.5h-62q-24 0 -32 16l-309 587q-2 3 -3 3t-1 -3v-584q0 -8 -5 -13.5t-13 -5.5h-52q-8 0 -13 2t-5 10v703 q0 12 8.5 20t20.5 8h55q21 0 28 -4.5t13 -15.5l307 -584l2 -3q1 0 1 3v585q0 8 5 13.5t13 5.5h53q8 0 13 -5.5t5 -13.5v-695z"/>
<glyph glyph-name="nacute" horiz-adv-x="557" unicode="ń" d="M415 772q0 -4 -4 -8l-113 -126q-7 -8 -11 -11.5t-12 -3.5h-54q-9 0 -9 7q0 6 4 10l98 124q7 8 11 11.5t13 3.5h66q11 0 11 -7zM489 20q0 -8 -6 -14t-14 -6h-48q-8 0 -14 6t-6 14v329q0 38 -6.5 63.5t-20 40.5t-34.5 21.5t-49 6.5q-32 0 -66 -11t-69 -28v-422q0 -8 -6 -14 t-14 -6h-49q-8 0 -13.5 6t-5.5 14v510q0 8 5.5 14t13.5 6h50q8 0 13.5 -6t5.5 -14v-19q42 23 78 34.5t81 11.5q91 0 132.5 -54t41.5 -154v-329z"/>
<glyph glyph-name="Ncommaaccent" horiz-adv-x="680" unicode="Ņ" d="M602 29q0 -12 -8.5 -20.5t-20.5 -8.5h-62q-24 0 -32 16l-309 587q-2 3 -3 3t-1 -3v-584q0 -8 -5 -13.5t-13 -5.5h-52q-8 0 -13 2t-5 10v703q0 12 8.5 20t20.5 8h55q21 0 28 -4.5t13 -15.5l307 -584l2 -3q1 0 1 3v585q0 8 5 13.5t13 5.5h53q8 0 13 -5.5t5 -13.5v-695z M384 -49q11 0 11 -11l-1 -8l-54 -109q-5 -10 -9 -14.5t-15 -4.5h-41q-3 0 -6 1.5t-3 6.5q0 4 1 8l28 112q4 19 20 19h69z"/>
<glyph glyph-name="ncommaaccent" horiz-adv-x="557" unicode="ņ" d="M489 20q0 -8 -6 -14t-14 -6h-48q-8 0 -14 6t-6 14v329q0 38 -6.5 63.5t-20 40.5t-34.5 21.5t-49 6.5q-32 0 -66 -11t-69 -28v-422q0 -8 -6 -14t-14 -6h-49q-8 0 -13.5 6t-5.5 14v510q0 8 5.5 14t13.5 6h50q8 0 13.5 -6t5.5 -14v-19q42 23 78 34.5t81 11.5q91 0 132.5 -54 t41.5 -154v-329zM314 -49q11 0 11 -11l-1 -8l-54 -109q-5 -10 -9 -14.5t-15 -4.5h-41q-3 0 -6 1.5t-3 6.5q0 4 1 8l28 112q4 19 20 19h69z"/>
<glyph glyph-name="Ncaron" horiz-adv-x="680" unicode="Ň" d="M509 943q0 -6 -4 -10l-97 -124q-7 -8 -11.5 -11.5t-13.5 -3.5h-85q-9 0 -13 3.5t-11 11.5l-98 124q-4 4 -4 10q0 7 9 7h54q8 0 12 -4t11 -12l83 -96l82 96q7 8 11 12t12 4h54q9 0 9 -7zM602 29q0 -12 -8.5 -20.5t-20.5 -8.5h-62q-24 0 -32 16l-309 587q-2 3 -3 3t-1 -3 v-584q0 -8 -5 -13.5t-13 -5.5h-52q-8 0 -13 2t-5 10v703q0 12 8.5 20t20.5 8h55q21 0 28 -4.5t13 -15.5l307 -584l2 -3q1 0 1 3v585q0 8 5 13.5t13 5.5h53q8 0 13 -5.5t5 -13.5v-695z"/>
<glyph glyph-name="ncaron" horiz-adv-x="557" unicode="ň" d="M447 772q0 -6 -4 -10l-97 -124q-7 -8 -11.5 -11.5t-13.5 -3.5h-85q-9 0 -13 3.5t-11 11.5l-98 124q-4 4 -4 10q0 7 9 7h54q8 0 12 -4t11 -12l83 -96l82 96q7 8 11 12t12 4h54q9 0 9 -7zM489 20q0 -8 -6 -14t-14 -6h-48q-8 0 -14 6t-6 14v329q0 38 -6.5 63.5t-20 40.5 t-34.5 21.5t-49 6.5q-32 0 -66 -11t-69 -28v-422q0 -8 -6 -14t-14 -6h-49q-8 0 -13.5 6t-5.5 14v510q0 8 5.5 14t13.5 6h50q8 0 13.5 -6t5.5 -14v-19q42 23 78 34.5t81 11.5q91 0 132.5 -54t41.5 -154v-329z"/>
<glyph glyph-name="napostrophe" horiz-adv-x="663" unicode="ŉ" d="M595 20q0 -8 -6 -14t-14 -6h-48q-8 0 -14 6t-6 14v329q0 38 -6.5 63.5t-20 40.5t-34.5 21.5t-49 6.5q-32 0 -66 -11t-69 -28v-422q0 -8 -6 -14t-14 -6h-49q-8 0 -13.5 6t-5.5 14v510q0 8 5.5 14t13.5 6h50q8 0 13.5 -6t5.5 -14v-19q42 23 78 34.5t81 11.5q91 0 132.5 -54 t41.5 -154v-329zM157 741q0 -5 -1 -8l-61 -189q-5 -19 -19 -19h-38q-9 0 -9 10q0 6 1 9l37 189q4 19 20 19h59q11 0 11 -11z"/>
<glyph glyph-name="Eng" horiz-adv-x="680" unicode="Ŋ" d="M602 -37q0 -72 -36 -107.5t-119 -35.5q-17 0 -32.5 3t-20.5 5q-6 3 -6 11v37q0 8 6 12.5t14 4.5h39q40 0 52.5 16.5t12.5 53.5v37h-1q-24 0 -32 16l-309 587q-2 3 -3 3t-1 -3v-584q0 -8 -5 -13.5t-13 -5.5h-52q-8 0 -13 2t-5 10v703q0 12 8.5 20t20.5 8h55q21 0 28 -4.5 t13 -15.5l307 -584l2 -3q1 0 1 3v585q0 8 5 13.5t13 5.5h53q8 0 13 -5.5t5 -13.5v-761z"/>
<glyph glyph-name="eng" horiz-adv-x="557" unicode="ŋ" d="M489 -64q0 -39 -8.5 -64.5t-24 -41t-39 -21.5t-53.5 -6q-15 0 -27 1t-27 3q-18 3 -18 16v37q0 14 21 14h41q29 0 38 12t9 50v413q0 38 -6.5 63.5t-20 40.5t-34.5 21.5t-49 6.5q-32 0 -66 -11t-69 -28v-422q0 -8 -6 -14t-14 -6h-49q-8 0 -13.5 6t-5.5 14v510q0 8 5.5 14 t13.5 6h50q8 0 13.5 -6t5.5 -14v-19q42 23 78 34.5t81 11.5q91 0 132.5 -54t41.5 -154v-413z"/>
<glyph glyph-name="Omacron" horiz-adv-x="661" unicode="Ō" d="M495 836q0 -8 -6 -12.5t-14 -4.5h-288q-8 0 -14 4.5t-6 12.5v34q0 8 6 12.5t14 4.5h288q8 0 14 -4.5t6 -12.5v-34zM509 436q0 63 -12.5 107t-35.5 72t-56 40.5t-74 12.5t-74 -12.5t-56.5 -40.5t-36 -72t-12.5 -107v-129q0 -63 12.5 -107t35.5 -72t56.5 -40.5t74.5 -12.5 t74 12.5t56 40.5t35.5 72t12.5 107v129zM601 307q0 -83 -20 -142.5t-56 -97.5t-85.5 -56t-108.5 -18t-108.5 18t-85.5 56t-56.5 97.5t-20.5 142.5v129q0 83 20.5 142.5t56.5 97.5t85.5 56t108.5 18t108.5 -18t85.5 -56t56 -97.5t20 -142.5v-129z"/>
<glyph glyph-name="omacron" horiz-adv-x="545" unicode="ō" d="M435 666q0 -8 -6 -12.5t-14 -4.5h-288q-8 0 -14 4.5t-6 12.5v34q0 8 6 12.5t14 4.5h288q8 0 14 -4.5t6 -12.5v-34zM407 313q0 77 -32 122t-103 45q-70 0 -102 -44.5t-32 -122.5v-76q0 -77 31.5 -122t102.5 -45q70 0 102.5 44.5t32.5 122.5v76zM495 237q0 -55 -14 -100 t-42 -77t-70 -49.5t-97 -17.5t-96.5 17.5t-69.5 49.5t-42 77t-14 100v76q0 55 14 100t42 77t69.5 49.5t96.5 17.5t97 -17.5t70 -49.5t42 -77t14 -100v-76z"/>
<glyph glyph-name="Obreve" horiz-adv-x="661" unicode="Ŏ" d="M503 936q-3 -35 -17.5 -61.5t-37 -44t-51 -26.5t-57.5 -9t-57.5 9t-51 26.5t-37 44t-17.5 61.5v4q0 13 11 13h37q14 0 15 -16q2 -20 11.5 -35t23 -25t30.5 -15t35 -5t35 5t30.5 15t23 25t11.5 35q1 16 15 16h37q11 0 11 -13v-4zM509 436q0 63 -12.5 107t-35.5 72 t-56 40.5t-74 12.5t-74 -12.5t-56.5 -40.5t-36 -72t-12.5 -107v-129q0 -63 12.5 -107t35.5 -72t56.5 -40.5t74.5 -12.5t74 12.5t56 40.5t35.5 72t12.5 107v129zM601 307q0 -83 -20 -142.5t-56 -97.5t-85.5 -56t-108.5 -18t-108.5 18t-85.5 56t-56.5 97.5t-20.5 142.5v129 q0 83 20.5 142.5t56.5 97.5t85.5 56t108.5 18t108.5 -18t85.5 -56t56 -97.5t20 -142.5v-129z"/>
<glyph glyph-name="obreve" horiz-adv-x="545" unicode="ŏ" d="M434 762q-3 -35 -17.5 -61.5t-37 -44t-51 -26.5t-57.5 -9t-57.5 9t-51 26.5t-37 44t-17.5 61.5v4q0 13 11 13h37q14 0 15 -16q2 -20 11.5 -35t23 -25t30.5 -15t35 -5t35 5t30.5 15t23 25t11.5 35q1 16 15 16h37q11 0 11 -13v-4zM407 313q0 77 -32 122t-103 45 q-70 0 -102 -44.5t-32 -122.5v-76q0 -77 31.5 -122t102.5 -45q70 0 102.5 44.5t32.5 122.5v76zM495 237q0 -55 -14 -100t-42 -77t-70 -49.5t-97 -17.5t-96.5 17.5t-69.5 49.5t-42 77t-14 100v76q0 55 14 100t42 77t69.5 49.5t96.5 17.5t97 -17.5t70 -49.5t42 -77t14 -100 v-76z"/>
<glyph glyph-name="Ohungarumlaut" horiz-adv-x="661" unicode="Ő" d="M379 943q0 -4 -4 -8l-112 -126q-7 -8 -11 -11.5t-12 -3.5h-54q-9 0 -9 7q0 6 4 10l97 124q7 8 11.5 11.5t13.5 3.5h65q11 0 11 -7zM554 943q0 -4 -4 -8l-112 -126q-7 -8 -11 -11.5t-12 -3.5h-54q-9 0 -9 7q0 6 4 10l97 124q7 8 11.5 11.5t13.5 3.5h65q11 0 11 -7z M509 436q0 63 -12.5 107t-35.5 72t-56 40.5t-74 12.5t-74 -12.5t-56.5 -40.5t-36 -72t-12.5 -107v-129q0 -63 12.5 -107t35.5 -72t56.5 -40.5t74.5 -12.5t74 12.5t56 40.5t35.5 72t12.5 107v129zM601 307q0 -83 -20 -142.5t-56 -97.5t-85.5 -56t-108.5 -18t-108.5 18 t-85.5 56t-56.5 97.5t-20.5 142.5v129q0 83 20.5 142.5t56.5 97.5t85.5 56t108.5 18t108.5 -18t85.5 -56t56 -97.5t20 -142.5v-129z"/>
<glyph glyph-name="ohungarumlaut" horiz-adv-x="545" unicode="ő" d="M322 772q0 -4 -4 -8l-112 -126q-7 -8 -11 -11.5t-12 -3.5h-54q-9 0 -9 7q0 6 4 10l97 124q7 8 11.5 11.5t13.5 3.5h65q11 0 11 -7zM497 772q0 -4 -4 -8l-112 -126q-7 -8 -11 -11.5t-12 -3.5h-54q-9 0 -9 7q0 6 4 10l97 124q7 8 11.5 11.5t13.5 3.5h65q11 0 11 -7z M407 313q0 77 -32 122t-103 45q-70 0 -102 -44.5t-32 -122.5v-76q0 -77 31.5 -122t102.5 -45q70 0 102.5 44.5t32.5 122.5v76zM495 237q0 -55 -14 -100t-42 -77t-70 -49.5t-97 -17.5t-96.5 17.5t-69.5 49.5t-42 77t-14 100v76q0 55 14 100t42 77t69.5 49.5t96.5 17.5 t97 -17.5t70 -49.5t42 -77t14 -100v-76z"/>
<glyph glyph-name="OE" horiz-adv-x="983" unicode="Œ" d="M510 440q0 46 -8 87.5t-28.5 72.5t-55 49.5t-87.5 18.5q-41 0 -74.5 -12.5t-56.5 -40.5t-35.5 -72t-12.5 -107v-129q0 -63 12.5 -107t35.5 -72t56.5 -40.5t74.5 -12.5q53 0 87.5 19t55 50.5t28.5 73.5t8 88v134zM928 15q0 -5 -2.5 -9t-7.5 -5q-20 -3 -72 -6t-123 -3 q-72 0 -120 19.5t-71 63.5q-36 -42 -87.5 -62t-113.5 -20q-59 0 -108.5 18t-85.5 56t-56.5 97.5t-20.5 142.5v129q0 83 20.5 142.5t56.5 97.5t85.5 56t108.5 18q62 0 113.5 -20t87.5 -62q23 43 71 62.5t120 19.5q71 0 123 -3t72 -6q5 -1 7.5 -5t2.5 -9v-47q0 -12 -11 -12 h-193q-40 0 -64 -5.5t-37 -18t-17.5 -32.5t-4.5 -48v-139h307q8 0 14 -6t6 -14v-38q0 -8 -6 -14t-14 -6h-307v-169q0 -29 4.5 -48.5t17.5 -32t37 -18t64 -5.5h193q11 0 11 -12v-47z"/>
<glyph glyph-name="oe" horiz-adv-x="899" unicode="œ" d="M407 313q0 77 -32 122t-103 45q-70 0 -102 -44.5t-32 -122.5v-76q0 -77 31.5 -122t102.5 -45q70 0 102.5 44.5t32.5 122.5v76zM760 323q0 85 -32.5 121t-98.5 36t-100 -38t-34 -119v-9h265v9zM849 269q0 -22 -19 -22h-335v-10q0 -38 6 -69t21.5 -52.5t42.5 -33.5t69 -12 q44 0 93.5 3t84.5 8h5q6 0 11 -3t5 -11v-34q0 -10 -4 -15.5t-16 -7.5q-43 -8 -85.5 -12.5t-93.5 -4.5q-54 0 -103 18t-81 64q-28 -39 -72 -60.5t-106 -21.5q-55 0 -96.5 17.5t-69.5 49.5t-42 77t-14 100v76q0 55 14 100t42 77t69.5 49.5t96.5 17.5q62 0 106.5 -21.5 t72.5 -60.5q27 39 71.5 60.5t106.5 21.5q55 0 96 -16.5t68.5 -47t41.5 -74t14 -96.5v-54z"/>
<glyph glyph-name="Racute" horiz-adv-x="625" unicode="Ŕ" d="M449 943q0 -4 -4 -8l-113 -126q-7 -8 -11 -11.5t-12 -3.5h-54q-9 0 -9 7q0 6 4 10l98 124q7 8 11 11.5t13 3.5h66q11 0 11 -7zM468 535q0 75 -48 104t-142 29h-27t-30.5 -0.5t-29.5 -1t-23 -1.5v-274q33 -1 63 -1.5t47 -0.5q46 0 81.5 6.5t59.5 22.5t36.5 42.5t12.5 67.5 v7zM586 13q0 -13 -13 -13h-64q-9 0 -14.5 1.5t-11.5 11.5l-179 298h-9h-17q-25 0 -47.5 0.5t-62.5 2.5v-294q0 -8 -5 -14t-13 -6h-54q-8 0 -13 6t-5 14v700q0 11 5 15.5t19 6.5q16 2 37.5 3.5t45 2.5t47.5 1.5t46 0.5q59 0 110.5 -11t89 -36t59 -66t21.5 -102v-7 q0 -42 -11.5 -75.5t-32.5 -58.5t-50 -42t-63 -26l182 -304q3 -5 3 -9z"/>
<glyph glyph-name="racute" horiz-adv-x="342" unicode="ŕ" d="M307 772q0 -4 -4 -8l-113 -126q-7 -8 -11 -11.5t-12 -3.5h-54q-9 0 -9 7q0 6 4 10l98 124q7 8 11 11.5t13 3.5h66q11 0 11 -7zM315 498q0 -17 -21 -17q-35 0 -67.5 -9.5t-70.5 -32.5v-419q0 -8 -6 -14t-14 -6h-49q-8 0 -13.5 6t-5.5 14v510q0 8 5.5 14t13.5 6h47 q8 0 13.5 -6t5.5 -14v-21q38 26 72.5 37t68.5 11q21 0 21 -18v-41z"/>
<glyph glyph-name="Rcommaaccent" horiz-adv-x="625" unicode="Ŗ" d="M468 535q0 75 -48 104t-142 29h-27t-30.5 -0.5t-29.5 -1t-23 -1.5v-274q33 -1 63 -1.5t47 -0.5q46 0 81.5 6.5t59.5 22.5t36.5 42.5t12.5 67.5v7zM586 13q0 -13 -13 -13h-64q-9 0 -14.5 1.5t-11.5 11.5l-179 298h-9h-17q-25 0 -47.5 0.5t-62.5 2.5v-294q0 -8 -5 -14 t-13 -6h-54q-8 0 -13 6t-5 14v700q0 11 5 15.5t19 6.5q16 2 37.5 3.5t45 2.5t47.5 1.5t46 0.5q59 0 110.5 -11t89 -36t59 -66t21.5 -102v-7q0 -42 -11.5 -75.5t-32.5 -58.5t-50 -42t-63 -26l182 -304q3 -5 3 -9zM366 -49q11 0 11 -11l-1 -8l-54 -109q-5 -10 -9 -14.5 t-15 -4.5h-41q-3 0 -6 1.5t-3 6.5q0 4 1 8l28 112q4 19 20 19h69z"/>
<glyph glyph-name="rcommaaccent" horiz-adv-x="342" unicode="ŗ" d="M315 498q0 -17 -21 -17q-35 0 -67.5 -9.5t-70.5 -32.5v-419q0 -8 -6 -14t-14 -6h-49q-8 0 -13.5 6t-5.5 14v510q0 8 5.5 14t13.5 6h47q8 0 13.5 -6t5.5 -14v-21q38 26 72.5 37t68.5 11q21 0 21 -18v-41zM224 -49q11 0 11 -11l-1 -8l-54 -109q-5 -10 -9 -14.5t-15 -4.5 h-41q-3 0 -6 1.5t-3 6.5q0 4 1 8l28 112q4 19 20 19h69z"/>
<glyph glyph-name="Rcaron" horiz-adv-x="625" unicode="Ř" d="M481 943q0 -6 -4 -10l-97 -124q-7 -8 -11.5 -11.5t-13.5 -3.5h-85q-9 0 -13 3.5t-11 11.5l-98 124q-4 4 -4 10q0 7 9 7h54q8 0 12 -4t11 -12l83 -96l82 96q7 8 11 12t12 4h54q9 0 9 -7zM468 535q0 75 -48 104t-142 29h-27t-30.5 -0.5t-29.5 -1t-23 -1.5v-274 q33 -1 63 -1.5t47 -0.5q46 0 81.5 6.5t59.5 22.5t36.5 42.5t12.5 67.5v7zM586 13q0 -13 -13 -13h-64q-9 0 -14.5 1.5t-11.5 11.5l-179 298h-9h-17q-25 0 -47.5 0.5t-62.5 2.5v-294q0 -8 -5 -14t-13 -6h-54q-8 0 -13 6t-5 14v700q0 11 5 15.5t19 6.5q16 2 37.5 3.5t45 2.5 t47.5 1.5t46 0.5q59 0 110.5 -11t89 -36t59 -66t21.5 -102v-7q0 -42 -11.5 -75.5t-32.5 -58.5t-50 -42t-63 -26l182 -304q3 -5 3 -9z"/>
<glyph glyph-name="rcaron" horiz-adv-x="342" unicode="ř" d="M339 772q0 -6 -4 -10l-97 -124q-7 -8 -11.5 -11.5t-13.5 -3.5h-85q-9 0 -13 3.5t-11 11.5l-98 124q-4 4 -4 10q0 7 9 7h54q8 0 12 -4t11 -12l83 -96l82 96q7 8 11 12t12 4h54q9 0 9 -7zM315 498q0 -17 -21 -17q-35 0 -67.5 -9.5t-70.5 -32.5v-419q0 -8 -6 -14t-14 -6h-49 q-8 0 -13.5 6t-5.5 14v510q0 8 5.5 14t13.5 6h47q8 0 13.5 -6t5.5 -14v-21q38 26 72.5 37t68.5 11q21 0 21 -18v-41z"/>
<glyph glyph-name="Sacute" horiz-adv-x="550" unicode="Ś" d="M412 943q0 -4 -4 -8l-113 -126q-7 -8 -11 -11.5t-12 -3.5h-54q-9 0 -9 7q0 6 4 10l98 124q7 8 11 11.5t13 3.5h66q11 0 11 -7zM500 193q0 -36 -11 -72t-38.5 -64.5t-75.5 -46t-122 -17.5q-53 0 -93 4.5t-73 9.5q-13 2 -16 6t-3 12v40q0 8 5 12t12 4h3q17 -2 38.5 -3 t44 -1.5t44 -1t38.5 -0.5q45 0 74.5 8.5t46.5 24t24 37.5t7 48q0 19 -6 34.5t-20 30.5t-37 31.5t-57 37.5l-97 59q-69 42 -103.5 84.5t-34.5 102.5q0 91 62 134t177 43q22 0 46.5 -1t48 -2.5t44.5 -4t35 -4.5q17 -3 17 -17v-43q0 -16 -17 -16h-2q-33 2 -80.5 4t-91.5 2 q-78 0 -112.5 -20t-34.5 -75q0 -35 26 -61t83 -60l92 -55q43 -26 73 -50t49 -48t27 -50t8 -56z"/>
<glyph glyph-name="sacute" horiz-adv-x="466" unicode="ś" d="M370 772q0 -4 -4 -8l-113 -126q-7 -8 -11 -11.5t-12 -3.5h-54q-9 0 -9 7q0 6 4 10l98 124q7 8 11 11.5t13 3.5h66q11 0 11 -7zM416 138q0 -38 -13.5 -65.5t-38 -45t-59 -26t-76.5 -8.5q-14 0 -33.5 0.5t-41 2.5t-43.5 4.5t-40 7.5q-21 5 -21 20v35q0 7 5 11t13 4h4 q18 -2 39.5 -4t43.5 -3.5t41 -2.5t33 -1q49 0 74 15t25 56q0 23 -16 40t-59 43l-101 60q-46 28 -74 61.5t-28 81.5q0 39 14 64.5t38 41t57 21.5t72 6q42 0 81.5 -3.5t74.5 -9.5q19 -3 19 -20v-33q0 -17 -17 -17h-3q-26 2 -69.5 5t-85.5 3t-67.5 -10t-25.5 -48 q0 -23 17 -39.5t52 -36.5l99 -59q62 -37 86 -72t24 -79z"/>
<glyph glyph-name="Scircumflex" horiz-adv-x="550" unicode="Ŝ" d="M428 801q0 -7 -9 -7h-52q-8 0 -12 3.5t-11 11.5l-82 97l-83 -97q-7 -8 -11 -11.5t-12 -3.5h-52q-9 0 -9 7q0 6 4 10l96 124q7 8 11 11.5t13 3.5h85q9 0 13.5 -3.5t11.5 -11.5l95 -124q4 -4 4 -10zM500 193q0 -36 -11 -72t-38.5 -64.5t-75.5 -46t-122 -17.5q-53 0 -93 4.5 t-73 9.5q-13 2 -16 6t-3 12v40q0 8 5 12t12 4h3q17 -2 38.5 -3t44 -1.5t44 -1t38.5 -0.5q45 0 74.5 8.5t46.5 24t24 37.5t7 48q0 19 -6 34.5t-20 30.5t-37 31.5t-57 37.5l-97 59q-69 42 -103.5 84.5t-34.5 102.5q0 91 62 134t177 43q22 0 46.5 -1t48 -2.5t44.5 -4t35 -4.5 q17 -3 17 -17v-43q0 -16 -17 -16h-2q-33 2 -80.5 4t-91.5 2q-78 0 -112.5 -20t-34.5 -75q0 -35 26 -61t83 -60l92 -55q43 -26 73 -50t49 -48t27 -50t8 -56z"/>
<glyph glyph-name="scircumflex" horiz-adv-x="466" unicode="ŝ" d="M396 630q0 -7 -9 -7h-52q-8 0 -12 3.5t-11 11.5l-82 97l-83 -97q-7 -8 -11 -11.5t-12 -3.5h-52q-9 0 -9 7q0 6 4 10l96 124q7 8 11 11.5t13 3.5h85q9 0 13.5 -3.5t11.5 -11.5l95 -124q4 -4 4 -10zM416 138q0 -38 -13.5 -65.5t-38 -45t-59 -26t-76.5 -8.5q-14 0 -33.5 0.5 t-41 2.5t-43.5 4.5t-40 7.5q-21 5 -21 20v35q0 7 5 11t13 4h4q18 -2 39.5 -4t43.5 -3.5t41 -2.5t33 -1q49 0 74 15t25 56q0 23 -16 40t-59 43l-101 60q-46 28 -74 61.5t-28 81.5q0 39 14 64.5t38 41t57 21.5t72 6q42 0 81.5 -3.5t74.5 -9.5q19 -3 19 -20v-33q0 -17 -17 -17 h-3q-26 2 -69.5 5t-85.5 3t-67.5 -10t-25.5 -48q0 -23 17 -39.5t52 -36.5l99 -59q62 -37 86 -72t24 -79z"/>
<glyph glyph-name="uni015E" horiz-adv-x="550" unicode="Ş" d="M327 -39q0 -4 -4 -8l-113 -126q-7 -8 -11 -11.5t-12 -3.5h-54q-9 0 -9 7q0 6 4 10l97 124q7 8 11.5 11.5t13.5 3.5h66q11 0 11 -7zM500 193q0 -36 -11 -72t-38.5 -64.5t-75.5 -46t-122 -17.5q-53 0 -93 4.5t-73 9.5q-13 2 -16 6t-3 12v40q0 8 5 12t12 4h3q17 -2 38.5 -3 t44 -1.5t44 -1t38.5 -0.5q45 0 74.5 8.5t46.5 24t24 37.5t7 48q0 19 -6 34.5t-20 30.5t-37 31.5t-57 37.5l-97 59q-69 42 -103.5 84.5t-34.5 102.5q0 91 62 134t177 43q22 0 46.5 -1t48 -2.5t44.5 -4t35 -4.5q17 -3 17 -17v-43q0 -16 -17 -16h-2q-33 2 -80.5 4t-91.5 2 q-78 0 -112.5 -20t-34.5 -75q0 -35 26 -61t83 -60l92 -55q43 -26 73 -50t49 -48t27 -50t8 -56z"/>
<glyph glyph-name="uni015F" horiz-adv-x="466" unicode="ş" d="M285 -39q0 -4 -4 -8l-113 -126q-7 -8 -11 -11.5t-12 -3.5h-54q-9 0 -9 7q0 6 4 10l97 124q7 8 11.5 11.5t13.5 3.5h66q11 0 11 -7zM416 138q0 -38 -13.5 -65.5t-38 -45t-59 -26t-76.5 -8.5q-14 0 -33.5 0.5t-41 2.5t-43.5 4.5t-40 7.5q-21 5 -21 20v35q0 7 5 11t13 4h4 q18 -2 39.5 -4t43.5 -3.5t41 -2.5t33 -1q49 0 74 15t25 56q0 23 -16 40t-59 43l-101 60q-46 28 -74 61.5t-28 81.5q0 39 14 64.5t38 41t57 21.5t72 6q42 0 81.5 -3.5t74.5 -9.5q19 -3 19 -20v-33q0 -17 -17 -17h-3q-26 2 -69.5 5t-85.5 3t-67.5 -10t-25.5 -48 q0 -23 17 -39.5t52 -36.5l99 -59q62 -37 86 -72t24 -79z"/>
<glyph glyph-name="Scaron" horiz-adv-x="550" unicode="Š" d="M456 943q0 -6 -4 -10l-97 -124q-7 -8 -11.5 -11.5t-13.5 -3.5h-85q-9 0 -13 3.5t-11 11.5l-98 124q-4 4 -4 10q0 7 9 7h54q8 0 12 -4t11 -12l83 -96l82 96q7 8 11 12t12 4h54q9 0 9 -7zM500 193q0 -36 -11 -72t-38.5 -64.5t-75.5 -46t-122 -17.5q-53 0 -93 4.5t-73 9.5 q-13 2 -16 6t-3 12v40q0 8 5 12t12 4h3q17 -2 38.5 -3t44 -1.5t44 -1t38.5 -0.5q45 0 74.5 8.5t46.5 24t24 37.5t7 48q0 19 -6 34.5t-20 30.5t-37 31.5t-57 37.5l-97 59q-69 42 -103.5 84.5t-34.5 102.5q0 91 62 134t177 43q22 0 46.5 -1t48 -2.5t44.5 -4t35 -4.5 q17 -3 17 -17v-43q0 -16 -17 -16h-2q-33 2 -80.5 4t-91.5 2q-78 0 -112.5 -20t-34.5 -75q0 -35 26 -61t83 -60l92 -55q43 -26 73 -50t49 -48t27 -50t8 -56z"/>
<glyph glyph-name="scaron" horiz-adv-x="466" unicode="š" d="M396 772q0 -6 -4 -10l-97 -124q-7 -8 -11.5 -11.5t-13.5 -3.5h-85q-9 0 -13 3.5t-11 11.5l-98 124q-4 4 -4 10q0 7 9 7h54q8 0 12 -4t11 -12l83 -96l82 96q7 8 11 12t12 4h54q9 0 9 -7zM416 138q0 -38 -13.5 -65.5t-38 -45t-59 -26t-76.5 -8.5q-14 0 -33.5 0.5t-41 2.5 t-43.5 4.5t-40 7.5q-21 5 -21 20v35q0 7 5 11t13 4h4q18 -2 39.5 -4t43.5 -3.5t41 -2.5t33 -1q49 0 74 15t25 56q0 23 -16 40t-59 43l-101 60q-46 28 -74 61.5t-28 81.5q0 39 14 64.5t38 41t57 21.5t72 6q42 0 81.5 -3.5t74.5 -9.5q19 -3 19 -20v-33q0 -17 -17 -17h-3 q-26 2 -69.5 5t-85.5 3t-67.5 -10t-25.5 -48q0 -23 17 -39.5t52 -36.5l99 -59q62 -37 86 -72t24 -79z"/>
<glyph glyph-name="Tcommaaccent" horiz-adv-x="590" unicode="Ţ" d="M555 681q0 -16 -19 -16h-195v-645q0 -8 -5 -14t-13 -6h-55q-8 0 -13 6t-5 14v645h-195q-8 0 -14 4t-6 12v44q0 8 6 13t14 5h481q19 0 19 -18v-44zM333 -49q11 0 11 -11l-1 -8l-54 -109q-5 -10 -9 -14.5t-15 -4.5h-41q-3 0 -6 1.5t-3 6.5q0 4 1 8l28 112q4 19 20 19h69z "/>
<glyph glyph-name="tcommaaccent" horiz-adv-x="385" unicode="ţ" d="M360 15q0 -14 -18 -17q-15 -2 -33 -3.5t-32 -1.5q-35 0 -60.5 5.5t-42 20.5t-25 41t-8.5 67v349l-97 11q-19 2 -19 18v27q0 18 19 18h97v98q0 17 18 20l52 8h3q6 0 10.5 -4.5t4.5 -12.5v-109h108q8 0 14 -6t6 -14v-34q0 -8 -6 -14t-14 -6h-108v-349q0 -41 12 -52t42 -11 h56q21 0 21 -14v-35zM246 -49q11 0 11 -11l-1 -8l-54 -109q-5 -10 -9 -14.5t-15 -4.5h-41q-3 0 -6 1.5t-3 6.5q0 4 1 8l28 112q4 19 20 19h69z"/>
<glyph glyph-name="Tcaron" horiz-adv-x="590" unicode="Ť" d="M464 943q0 -6 -4 -10l-97 -124q-7 -8 -11.5 -11.5t-13.5 -3.5h-85q-9 0 -13 3.5t-11 11.5l-98 124q-4 4 -4 10q0 7 9 7h54q8 0 12 -4t11 -12l83 -96l82 96q7 8 11 12t12 4h54q9 0 9 -7zM555 681q0 -16 -19 -16h-195v-645q0 -8 -5 -14t-13 -6h-55q-8 0 -13 6t-5 14v645 h-195q-8 0 -14 4t-6 12v44q0 8 6 13t14 5h481q19 0 19 -18v-44z"/>
<glyph glyph-name="tcaron" horiz-adv-x="513" unicode="ť" d="M360 15q0 -14 -18 -17q-15 -2 -33 -3.5t-32 -1.5q-35 0 -60.5 5.5t-42 20.5t-25 41t-8.5 67v349l-97 11q-19 2 -19 18v27q0 18 19 18h97v98q0 17 18 20l52 8h3q6 0 10.5 -4.5t4.5 -12.5v-109h108q8 0 14 -6t6 -14v-34q0 -8 -6 -14t-14 -6h-108v-349q0 -41 12 -52t42 -11 h56q21 0 21 -14v-35zM538 741q0 -2 -2 -8l-75 -189q-4 -10 -7.5 -14.5t-11.5 -4.5h-41q-12 0 -12 12q0 5 1 7l57 189q6 19 20 19h58q13 0 13 -11z"/>
<glyph glyph-name="Tbar" horiz-adv-x="590" unicode="Ŧ" d="M341 465v-445q0 -8 -5 -14t-13 -6h-55q-8 0 -13 6t-5 14v445h-195q-8 0 -14 4t-6 12v44q0 8 6 13t14 5h195v122h-195q-8 0 -14 4t-6 12v44q0 8 6 13t14 5h481q19 0 19 -18v-44q0 -16 -19 -16h-195v-122h195q19 0 19 -18v-44q0 -16 -19 -16h-195z"/>
<glyph glyph-name="tbar" horiz-adv-x="385" unicode="ŧ" d="M360 15q0 -14 -18 -17q-15 -2 -33 -3.5t-32 -1.5q-35 0 -60.5 5.5t-42 20.5t-25 41t-8.5 67v179l-97 11q-19 2 -19 18v27q0 18 19 18h97v96l-97 11q-19 2 -19 18v27q0 18 19 18h97v98q0 17 18 20l52 8h3q6 0 10.5 -4.5t4.5 -12.5v-109h108q8 0 14 -6t6 -14v-34 q0 -8 -6 -14t-14 -6h-108v-96h108q8 0 14 -6t6 -14v-34q0 -8 -6 -14t-14 -6h-108v-179q0 -41 12 -52t42 -11h56q21 0 21 -14v-35z"/>
<glyph glyph-name="Utilde" horiz-adv-x="662" unicode="Ũ" d="M505 892q0 -52 -21.5 -78.5t-72.5 -26.5q-17 0 -33.5 5t-30.5 16l-61 49q-18 14 -25 18t-16 4q-18 0 -24.5 -11.5t-6.5 -34.5v-21q0 -7 -5 -12t-12 -5h-31q-7 0 -11.5 5t-4.5 12v21q0 54 25 81.5t70 27.5q17 0 31.5 -6.5t28.5 -17.5l71 -56q8 -6 18 -10t17 -4 q15 0 22.5 9t7.5 35v23q0 7 5 12t12 5h31q7 0 11.5 -5t4.5 -12v-23zM587 270q0 -143 -67.5 -210t-188.5 -67q-122 0 -189 67t-67 210v454q0 8 5.5 13.5t13.5 5.5h54q8 0 13.5 -5.5t5.5 -13.5v-454q0 -48 8 -85.5t27.5 -62.5t50.5 -38t78 -13q46 0 77.5 13t51 38t27.5 62 t8 86v454q0 8 5.5 13.5t13.5 5.5h54q8 0 13.5 -5.5t5.5 -13.5v-454z"/>
<glyph glyph-name="utilde" horiz-adv-x="557" unicode="ũ" d="M459 721q0 -52 -21.5 -78.5t-72.5 -26.5q-17 0 -33.5 5t-30.5 16l-61 49q-18 14 -25 18t-16 4q-18 0 -24.5 -11.5t-6.5 -34.5v-21q0 -7 -5 -12t-12 -5h-31q-7 0 -11.5 5t-4.5 12v21q0 54 25 81.5t70 27.5q17 0 31.5 -6.5t28.5 -17.5l71 -56q8 -6 18 -10t17 -4 q15 0 22.5 9t7.5 35v23q0 7 5 12t12 5h31q7 0 11.5 -5t4.5 -12v-23zM489 20q0 -8 -5.5 -14t-13.5 -6h-50q-8 0 -13.5 6t-5.5 14v19q-42 -23 -78 -34.5t-81 -11.5q-91 0 -132.5 54t-41.5 154v329q0 8 6 14t14 6h48q8 0 14 -6t6 -14v-329q0 -38 6.5 -63.5t20 -40.5t34 -21.5 t49.5 -6.5q32 0 66 11t69 28v422q0 8 6 14t14 6h49q8 0 13.5 -6t5.5 -14v-510z"/>
<glyph glyph-name="Umacron" horiz-adv-x="662" unicode="Ū" d="M495 837q0 -8 -6 -12.5t-14 -4.5h-288q-8 0 -14 4.5t-6 12.5v34q0 8 6 12.5t14 4.5h288q8 0 14 -4.5t6 -12.5v-34zM587 270q0 -143 -67.5 -210t-188.5 -67q-122 0 -189 67t-67 210v454q0 8 5.5 13.5t13.5 5.5h54q8 0 13.5 -5.5t5.5 -13.5v-454q0 -48 8 -85.5t27.5 -62.5 t50.5 -38t78 -13q46 0 77.5 13t51 38t27.5 62t8 86v454q0 8 5.5 13.5t13.5 5.5h54q8 0 13.5 -5.5t5.5 -13.5v-454z"/>
<glyph glyph-name="umacron" horiz-adv-x="557" unicode="ū" d="M443 666q0 -8 -6 -12.5t-14 -4.5h-288q-8 0 -14 4.5t-6 12.5v34q0 8 6 12.5t14 4.5h288q8 0 14 -4.5t6 -12.5v-34zM489 20q0 -8 -5.5 -14t-13.5 -6h-50q-8 0 -13.5 6t-5.5 14v19q-42 -23 -78 -34.5t-81 -11.5q-91 0 -132.5 54t-41.5 154v329q0 8 6 14t14 6h48q8 0 14 -6 t6 -14v-329q0 -38 6.5 -63.5t20 -40.5t34 -21.5t49.5 -6.5q32 0 66 11t69 28v422q0 8 6 14t14 6h49q8 0 13.5 -6t5.5 -14v-510z"/>
<glyph glyph-name="Ubreve" horiz-adv-x="662" unicode="Ŭ" d="M491 936q-3 -35 -17.5 -61.5t-37 -44t-51 -26.5t-57.5 -9t-57.5 9t-51 26.5t-37 44t-17.5 61.5v4q0 13 11 13h37q14 0 15 -16q2 -20 11.5 -35t23 -25t30.5 -15t35 -5t35 5t30.5 15t23 25t11.5 35q1 16 15 16h37q11 0 11 -13v-4zM587 270q0 -143 -67.5 -210t-188.5 -67 q-122 0 -189 67t-67 210v454q0 8 5.5 13.5t13.5 5.5h54q8 0 13.5 -5.5t5.5 -13.5v-454q0 -48 8 -85.5t27.5 -62.5t50.5 -38t78 -13q46 0 77.5 13t51 38t27.5 62t8 86v454q0 8 5.5 13.5t13.5 5.5h54q8 0 13.5 -5.5t5.5 -13.5v-454z"/>
<glyph glyph-name="ubreve" horiz-adv-x="557" unicode="ŭ" d="M441 762q-3 -35 -17.5 -61.5t-37 -44t-51 -26.5t-57.5 -9t-57.5 9t-51 26.5t-37 44t-17.5 61.5v4q0 13 11 13h37q14 0 15 -16q2 -20 11.5 -35t23 -25t30.5 -15t35 -5t35 5t30.5 15t23 25t11.5 35q1 16 15 16h37q11 0 11 -13v-4zM489 20q0 -8 -5.5 -14t-13.5 -6h-50 q-8 0 -13.5 6t-5.5 14v19q-42 -23 -78 -34.5t-81 -11.5q-91 0 -132.5 54t-41.5 154v329q0 8 6 14t14 6h48q8 0 14 -6t6 -14v-329q0 -38 6.5 -63.5t20 -40.5t34 -21.5t49.5 -6.5q32 0 66 11t69 28v422q0 8 6 14t14 6h49q8 0 13.5 -6t5.5 -14v-510z"/>
<glyph glyph-name="Uring" horiz-adv-x="662" unicode="Ů" d="M385 879q0 22 -15.5 37t-37.5 15t-37 -15t-15 -37t15 -37.5t37 -15.5t37.5 15.5t15.5 37.5zM433 878q0 -21 -8 -39.5t-21.5 -32t-32 -21.5t-39.5 -8t-39.5 8t-32.5 21.5t-22 32t-8 39.5t8 39.5t22 32.5t32.5 22t39.5 8t39.5 -8t32 -22t21.5 -32.5t8 -39.5zM587 270 q0 -143 -67.5 -210t-188.5 -67q-122 0 -189 67t-67 210v454q0 8 5.5 13.5t13.5 5.5h54q8 0 13.5 -5.5t5.5 -13.5v-454q0 -48 8 -85.5t27.5 -62.5t50.5 -38t78 -13q46 0 77.5 13t51 38t27.5 62t8 86v454q0 8 5.5 13.5t13.5 5.5h54q8 0 13.5 -5.5t5.5 -13.5v-454z"/>
<glyph glyph-name="uring" horiz-adv-x="557" unicode="ů" d="M332 704q0 22 -15.5 37t-37.5 15t-37 -15t-15 -37t15 -37.5t37 -15.5t37.5 15.5t15.5 37.5zM380 703q0 -21 -8 -39.5t-21.5 -32t-32 -21.5t-39.5 -8t-39.5 8t-32.5 21.5t-22 32t-8 39.5t8 39.5t22 32.5t32.5 22t39.5 8t39.5 -8t32 -22t21.5 -32.5t8 -39.5zM489 20 q0 -8 -5.5 -14t-13.5 -6h-50q-8 0 -13.5 6t-5.5 14v19q-42 -23 -78 -34.5t-81 -11.5q-91 0 -132.5 54t-41.5 154v329q0 8 6 14t14 6h48q8 0 14 -6t6 -14v-329q0 -38 6.5 -63.5t20 -40.5t34 -21.5t49.5 -6.5q32 0 66 11t69 28v422q0 8 6 14t14 6h49q8 0 13.5 -6t5.5 -14v-510 z"/>
<glyph glyph-name="Uhungarumlaut" horiz-adv-x="662" unicode="Ű" d="M380 943q0 -4 -4 -8l-112 -126q-7 -8 -11 -11.5t-12 -3.5h-54q-9 0 -9 7q0 6 4 10l97 124q7 8 11.5 11.5t13.5 3.5h65q11 0 11 -7zM555 943q0 -4 -4 -8l-112 -126q-7 -8 -11 -11.5t-12 -3.5h-54q-9 0 -9 7q0 6 4 10l97 124q7 8 11.5 11.5t13.5 3.5h65q11 0 11 -7z M587 270q0 -143 -67.5 -210t-188.5 -67q-122 0 -189 67t-67 210v454q0 8 5.5 13.5t13.5 5.5h54q8 0 13.5 -5.5t5.5 -13.5v-454q0 -48 8 -85.5t27.5 -62.5t50.5 -38t78 -13q46 0 77.5 13t51 38t27.5 62t8 86v454q0 8 5.5 13.5t13.5 5.5h54q8 0 13.5 -5.5t5.5 -13.5v-454z"/>
<glyph glyph-name="uhungarumlaut" horiz-adv-x="557" unicode="ű" d="M327 772q0 -4 -4 -8l-112 -126q-7 -8 -11 -11.5t-12 -3.5h-54q-9 0 -9 7q0 6 4 10l97 124q7 8 11.5 11.5t13.5 3.5h65q11 0 11 -7zM502 772q0 -4 -4 -8l-112 -126q-7 -8 -11 -11.5t-12 -3.5h-54q-9 0 -9 7q0 6 4 10l97 124q7 8 11.5 11.5t13.5 3.5h65q11 0 11 -7zM489 20 q0 -8 -5.5 -14t-13.5 -6h-50q-8 0 -13.5 6t-5.5 14v19q-42 -23 -78 -34.5t-81 -11.5q-91 0 -132.5 54t-41.5 154v329q0 8 6 14t14 6h48q8 0 14 -6t6 -14v-329q0 -38 6.5 -63.5t20 -40.5t34 -21.5t49.5 -6.5q32 0 66 11t69 28v422q0 8 6 14t14 6h49q8 0 13.5 -6t5.5 -14v-510 z"/>
<glyph glyph-name="Uogonek" horiz-adv-x="662" unicode="Ų" d="M587 270q0 -44 -5 -79.5t-18 -65t-34.5 -54t-53.5 -46.5l-96 -67q-26 -18 -40 -30t-14 -32q0 -19 15.5 -28.5t53.5 -9.5q24 0 45 5t26 5t5 -8v-39q0 -8 -11 -11q-2 -1 -23 -5.5t-53 -4.5q-37 0 -62 7.5t-40.5 20.5t-22 30.5t-6.5 37.5q0 19 6.5 34t16 26.5t21 18.5 t20.5 12l11 6q-121 1 -187 67.5t-66 209.5v454q0 8 5.5 13.5t13.5 5.5h54q8 0 13.5 -5.5t5.5 -13.5v-454q0 -48 8 -85.5t27.5 -62.5t50.5 -38t78 -13q46 0 77.5 13t51 38t27.5 62t8 86v454q0 8 5.5 13.5t13.5 5.5h54q8 0 13.5 -5.5t5.5 -13.5v-454z"/>
<glyph glyph-name="uogonek" horiz-adv-x="557" unicode="ų" d="M403 40q-42 -23 -79 -35t-82 -12q-91 0 -132.5 54t-41.5 154v329q0 8 6 14t14 6h48q8 0 14 -6t6 -14v-329q0 -38 6.5 -63.5t20 -40.5t34 -21.5t49.5 -6.5q32 0 66 11t69 28v422q0 8 6 14t14 6h49q8 0 13.5 -6t5.5 -14v-510q0 -5 -1.5 -8.5t-6.5 -7.5l-67 -46 q-26 -18 -40 -32t-14 -35q0 -15 10.5 -24t45.5 -9q24 0 41.5 5t22.5 5t5 -8v-39q0 -8 -11 -11q-2 -1 -19.5 -5.5t-49.5 -4.5q-68 0 -93.5 26.5t-25.5 66.5q0 33 17.5 53.5t47.5 40.5l52 33v20z"/>
<glyph glyph-name="Wcircumflex" horiz-adv-x="825" unicode="Ŵ" d="M579 801q0 -7 -9 -7h-52q-8 0 -12 3.5t-11 11.5l-82 97l-83 -97q-7 -8 -11 -11.5t-12 -3.5h-52q-9 0 -9 7q0 6 4 10l96 124q7 8 11 11.5t13 3.5h85q9 0 13.5 -3.5t11.5 -11.5l95 -124q4 -4 4 -10zM791 723l-111 -676q-5 -31 -21.5 -41t-40.5 -10h-43q-21 0 -36 13.5 t-21 36.5l-98 370q-2 7 -3 8t-3 1h-1h-1q-2 0 -3 -1t-3 -8l-99 -370q-6 -23 -21 -36.5t-36 -13.5h-42q-24 0 -40.5 10t-21.5 41l-111 676v3q0 17 17 17h58q14 0 17 -17l97 -637q2 -8 2 -11.5t3 -3.5q4 0 7 15l98 370q10 40 47 40h64q37 0 47 -40l98 -370q3 -15 7 -15 q3 0 3 3.5t2 11.5l97 637q3 17 17 17h58q17 0 17 -17v-3z"/>
<glyph glyph-name="wcircumflex" horiz-adv-x="786" unicode="ŵ" d="M560 630q0 -7 -9 -7h-52q-8 0 -12 3.5t-11 11.5l-82 97l-83 -97q-7 -8 -11 -11.5t-12 -3.5h-52q-9 0 -9 7q0 6 4 10l96 124q7 8 11 11.5t13 3.5h85q9 0 13.5 -3.5t11.5 -11.5l95 -124q4 -4 4 -10zM748 526l-97 -464q-5 -24 -10 -37.5t-14 -20.5t-23.5 -9t-36.5 -2 q-20 0 -33 2.5t-22 10t-15 21.5t-12 38l-87 340q-2 5 -2.5 6t-2.5 1t-2.5 -1t-2.5 -6l-87 -340q-6 -22 -12 -36t-15 -22t-22.5 -11t-32.5 -3q-23 0 -37 2t-23 9t-14 21t-10 37l-97 464v4q0 8 5.5 14t13.5 6h54q7 0 11.5 -5t5.5 -11l83 -456q2 -9 4 -10.5t4 -1.5q5 0 8 12 l98 384q5 17 14.5 23.5t25.5 6.5h56q16 0 25.5 -6.5t14.5 -23.5l98 -384q3 -12 8 -12q2 0 4 1.5t4 10.5l83 456q1 6 5.5 11t11.5 5h54q8 0 13.5 -6t5.5 -14v-4z"/>
<glyph glyph-name="Ycircumflex" horiz-adv-x="583" unicode="Ŷ" d="M460 802q0 -7 -9 -7h-52q-8 0 -12 3.5t-11 11.5l-82 97l-83 -97q-7 -8 -11 -11.5t-12 -3.5h-52q-9 0 -9 7q0 6 4 10l96 124q7 8 11 11.5t13 3.5h85q9 0 13.5 -3.5t11.5 -11.5l95 -124q4 -4 4 -10zM549 729q0 -5 -3 -11l-155 -348q-14 -30 -27 -45t-27 -21v-284 q0 -8 -5 -14t-13 -6h-55q-8 0 -13 6t-5 14v284q-14 5 -27 20.5t-27 45.5l-154 348q-3 6 -3 11q0 14 17 14h61q5 0 10.5 -4.5t7.5 -9.5l138 -324q8 -17 13 -21.5t10 -4.5t10 4.5t13 21.5l139 324q2 5 6.5 9.5t10.5 4.5h61q17 0 17 -14z"/>
<glyph glyph-name="ycircumflex" horiz-adv-x="534" unicode="ŷ" d="M434 630q0 -7 -9 -7h-52q-8 0 -12 3.5t-11 11.5l-82 97l-83 -97q-7 -8 -11 -11.5t-12 -3.5h-52q-9 0 -9 7q0 6 4 10l96 124q7 8 11 11.5t13 3.5h85q9 0 13.5 -3.5t11.5 -11.5l95 -124q4 -4 4 -10zM495 533q0 -5 -1 -7l-165 -576q-12 -41 -25.5 -69t-34.5 -45.5 t-50.5 -25.5t-72.5 -8q-21 0 -44.5 2.5t-39.5 6.5q-9 2 -15 5t-6 11v37q0 16 19 16h3q17 -2 44.5 -4t44.5 -2q21 0 37 3.5t27.5 13t20 26t14.5 42.5l10 41h-14q-11 0 -21.5 2t-20 9t-17.5 21t-15 37l-133 457q-1 2 -1 7q0 17 18 17h55q6 0 10.5 -5t6.5 -11l118 -434 q4 -15 9 -18.5t10 -3.5h16l122 457q2 6 7 10.5t12 4.5h56q16 0 16 -17z"/>
<glyph glyph-name="Ydieresis" horiz-adv-x="583" unicode="Ÿ" d="M243 821q0 -8 -6 -13.5t-14 -5.5h-39q-8 0 -14 5.5t-6 13.5v81q0 8 6 14t14 6h39q8 0 14 -6t6 -14v-81zM418 821q0 -8 -6 -13.5t-14 -5.5h-39q-8 0 -14 5.5t-6 13.5v81q0 8 6 14t14 6h39q8 0 14 -6t6 -14v-81zM549 729q0 -5 -3 -11l-155 -348q-14 -30 -27 -45t-27 -21 v-284q0 -8 -5 -14t-13 -6h-55q-8 0 -13 6t-5 14v284q-14 5 -27 20.5t-27 45.5l-154 348q-3 6 -3 11q0 14 17 14h61q5 0 10.5 -4.5t7.5 -9.5l138 -324q8 -17 13 -21.5t10 -4.5t10 4.5t13 21.5l139 324q2 5 6.5 9.5t10.5 4.5h61q17 0 17 -14z"/>
<glyph glyph-name="Zacute" horiz-adv-x="597" unicode="Ź" d="M435 943q0 -4 -4 -8l-113 -126q-7 -8 -11 -11.5t-12 -3.5h-54q-9 0 -9 7q0 6 4 10l98 124q7 8 11 11.5t13 3.5h66q11 0 11 -7zM544 18q0 -8 -6 -13t-14 -5h-385q-48 0 -65.5 14t-17.5 54q0 13 3.5 30t11.5 28l358 521q3 4 3 8q0 7 -10 7h-332q-8 0 -14 4.5t-6 12.5v47 q0 8 6 12.5t14 4.5h356q42 0 63.5 -12.5t21.5 -53.5q0 -14 -4 -31t-12 -28l-357 -521q-3 -5 -3 -9q0 -6 10 -6h359q8 0 14 -4.5t6 -12.5v-47z"/>
<glyph glyph-name="zacute" horiz-adv-x="482" unicode="ź" d="M398 772q0 -4 -4 -8l-113 -126q-7 -8 -11 -11.5t-12 -3.5h-54q-9 0 -9 7q0 6 4 10l98 124q7 8 11 11.5t13 3.5h66q11 0 11 -7zM432 20q0 -8 -6 -14t-14 -6h-302q-32 0 -46.5 17t-14.5 38v19q0 21 5 34.5t18 30.5l258 321q4 6 4 9q0 7 -10 7h-243q-8 0 -14 6t-6 14v34 q0 8 6 14t14 6h294q31 0 43.5 -13t12.5 -36v-24q0 -16 -5.5 -28.5t-17.5 -26.5l-263 -329q-5 -5 -5 -11q0 -8 8 -8h264q8 0 14 -6t6 -14v-34z"/>
<glyph glyph-name="Zdotaccent" horiz-adv-x="597" unicode="Ż" d="M342 829q0 -8 -5.5 -14t-13.5 -6h-48q-8 0 -14 6t-6 14v84q0 8 6 13.5t14 5.5h48q8 0 13.5 -5.5t5.5 -13.5v-84zM544 18q0 -8 -6 -13t-14 -5h-385q-48 0 -65.5 14t-17.5 54q0 13 3.5 30t11.5 28l358 521q3 4 3 8q0 7 -10 7h-332q-8 0 -14 4.5t-6 12.5v47q0 8 6 12.5 t14 4.5h356q42 0 63.5 -12.5t21.5 -53.5q0 -14 -4 -31t-12 -28l-357 -521q-3 -5 -3 -9q0 -6 10 -6h359q8 0 14 -4.5t6 -12.5v-47z"/>
<glyph glyph-name="zdotaccent" horiz-adv-x="482" unicode="ż" d="M285 658q0 -8 -5.5 -14t-13.5 -6h-48q-8 0 -14 6t-6 14v84q0 8 6 13.5t14 5.5h48q8 0 13.5 -5.5t5.5 -13.5v-84zM432 20q0 -8 -6 -14t-14 -6h-302q-32 0 -46.5 17t-14.5 38v19q0 21 5 34.5t18 30.5l258 321q4 6 4 9q0 7 -10 7h-243q-8 0 -14 6t-6 14v34q0 8 6 14t14 6 h294q31 0 43.5 -13t12.5 -36v-24q0 -16 -5.5 -28.5t-17.5 -26.5l-263 -329q-5 -5 -5 -11q0 -8 8 -8h264q8 0 14 -6t6 -14v-34z"/>
<glyph glyph-name="Zcaron" horiz-adv-x="597" unicode="Ž" d="M470 943q0 -6 -4 -10l-97 -124q-7 -8 -11.5 -11.5t-13.5 -3.5h-85q-9 0 -13 3.5t-11 11.5l-98 124q-4 4 -4 10q0 7 9 7h54q8 0 12 -4t11 -12l83 -96l82 96q7 8 11 12t12 4h54q9 0 9 -7zM544 18q0 -8 -6 -13t-14 -5h-385q-48 0 -65.5 14t-17.5 54q0 13 3.5 30t11.5 28 l358 521q3 4 3 8q0 7 -10 7h-332q-8 0 -14 4.5t-6 12.5v47q0 8 6 12.5t14 4.5h356q42 0 63.5 -12.5t21.5 -53.5q0 -14 -4 -31t-12 -28l-357 -521q-3 -5 -3 -9q0 -6 10 -6h359q8 0 14 -4.5t6 -12.5v-47z"/>
<glyph glyph-name="zcaron" horiz-adv-x="482" unicode="ž" d="M413 772q0 -6 -4 -10l-97 -124q-7 -8 -11.5 -11.5t-13.5 -3.5h-85q-9 0 -13 3.5t-11 11.5l-98 124q-4 4 -4 10q0 7 9 7h54q8 0 12 -4t11 -12l83 -96l82 96q7 8 11 12t12 4h54q9 0 9 -7zM432 20q0 -8 -6 -14t-14 -6h-302q-32 0 -46.5 17t-14.5 38v19q0 21 5 34.5t18 30.5 l258 321q4 6 4 9q0 7 -10 7h-243q-8 0 -14 6t-6 14v34q0 8 6 14t14 6h294q31 0 43.5 -13t12.5 -36v-24q0 -16 -5.5 -28.5t-17.5 -26.5l-263 -329q-5 -5 -5 -11q0 -8 8 -8h264q8 0 14 -6t6 -14v-34z"/>
<glyph glyph-name="florin" d="M548 739l-4 -32q-2 -15 -24 -15h-55q-36 0 -52.5 -14.5t-21.5 -53.5l-27 -196h143q17 0 17 -15v-3l-5 -37q-1 -8 -7.5 -13t-14.5 -5h-143l-50 -357q-6 -39 -20 -65.5t-34.5 -42t-47.5 -22.5t-58 -7q-26 0 -42 1.5t-27 3.5q-17 3 -17 14v3l4 32q1 15 24 15h55 q36 0 52.5 14.5t21.5 53.5l50 357h-128q-8 0 -13 4t-5 12v2l5 37q1 8 8 13t15 5h128l27 196q11 78 54 107.5t106 29.5q26 0 42 -1.5t27 -3.5q17 -3 17 -14v-3z" unicode="ƒ"/>
<glyph glyph-name="AEacute" horiz-adv-x="859" unicode="Ǽ" d="M669 944q0 -4 -4 -8l-113 -126q-7 -8 -11 -11.5t-12 -3.5h-54q-9 0 -9 7q0 6 4 10l98 124q7 8 11 11.5t13 3.5h66q11 0 11 -7zM416 664h-109q-15 0 -20 -17l-91 -323h220v340zM804 14q0 -5 -2.5 -9t-7.5 -5q-11 -1 -29.5 -2.5t-41.5 -2.5t-47.5 -1.5t-46.5 -0.5 q-106 0 -159.5 43t-53.5 143v66h-239l-64 -230q-2 -6 -7 -10.5t-11 -4.5h-59q-17 0 -17 16q0 5 1 7l185 645q7 23 18.5 37.5t25 23t29 11.5t29.5 3h487q5 0 7.5 -4.5t2.5 -9.5v-53q0 -12 -11 -12h-286v-239h277q8 0 14 -6t6 -14v-38q0 -8 -6 -14t-14 -6h-277v-168 q0 -29 4.5 -48.5t17.5 -32t37 -18t64 -5.5h163q11 0 11 -12v-49z"/>
<glyph glyph-name="aeacute" horiz-adv-x="853" unicode="ǽ" d="M592 772q0 -4 -4 -8l-113 -126q-7 -8 -11 -11.5t-12 -3.5h-54q-9 0 -9 7q0 6 4 10l98 124q7 8 11 11.5t13 3.5h66q11 0 11 -7zM364 265h-75q-45 0 -74.5 -5.5t-47 -17t-24 -30t-6.5 -45.5v-9q0 -27 9 -45t25 -29t36.5 -16t43.5 -5q31 0 61.5 7.5t51.5 23.5v171zM716 319 q0 163 -131 163q-65 0 -99.5 -42.5t-34.5 -120.5v-5h265v5zM803 269q0 -22 -19 -22h-333v-32q0 -77 35.5 -112.5t110.5 -35.5q44 0 90 4.5t81 9.5h2h3q16 0 16 -14v-34q0 -10 -4 -15.5t-16 -7.5q-43 -8 -84.5 -12.5t-92.5 -4.5q-58 0 -99.5 12.5t-73.5 46.5 q-35 -30 -82.5 -44.5t-97.5 -14.5q-37 0 -71.5 9.5t-61 29.5t-42.5 51t-16 75v9q0 41 12.5 71.5t41 50.5t74.5 30t113 10h75v40q0 63 -24.5 88t-83.5 25q-49 0 -86 -2.5t-67 -5.5h-2h-3q-8 0 -13 3.5t-5 12.5v35q0 16 21 19q31 5 67.5 9t87.5 4q62 0 102.5 -18t63.5 -52 q28 33 68.5 51.5t94.5 18.5q55 0 96 -18.5t68 -51.5t40.5 -78t13.5 -98v-42z"/>
<glyph glyph-name="Oslashacute" horiz-adv-x="661" unicode="Ǿ" d="M485 943q0 -4 -4 -8l-113 -126q-7 -8 -11 -11.5t-12 -3.5h-54q-9 0 -9 7q0 6 4 10l98 124q7 8 11 11.5t13 3.5h66q11 0 11 -7zM509 436q0 62 -12 106l-297 -414q23 -28 56 -40.5t75 -12.5q41 0 74 12.5t56 40.5t35.5 72t12.5 107v129zM462 613q-45 55 -131 55 q-41 0 -74 -12.5t-56.5 -40.5t-36 -72t-12.5 -107v-129q0 -32 3.5 -58.5t9.5 -49.5zM633 735q0 -4 -3 -8l-71 -98q20 -36 31 -84t11 -109v-129q0 -83 -20 -142.5t-56 -97.5t-85.5 -56t-108.5 -18q-54 0 -101 15.5t-82 47.5l-31 -44q-5 -6 -11 -12.5t-14 -6.5h-53 q-11 0 -11 11q0 3 3 8l72 100q-43 74 -43 195v129q0 83 20.5 142.5t56.5 97.5t85.5 56t108.5 18q55 0 102 -15.5t82 -48.5l29 41q5 6 11.5 12.5t14.5 6.5h52q11 0 11 -11z"/>
<glyph glyph-name="oslashacute" horiz-adv-x="545" unicode="ǿ" d="M422 772q0 -4 -4 -8l-113 -126q-7 -8 -11 -11.5t-12 -3.5h-54q-9 0 -9 7q0 6 4 10l98 124q7 8 11 11.5t13 3.5h66q11 0 11 -7zM407 313q0 42 -11 78l-214 -290q33 -31 90 -31q71 0 103 44.5t32 122.5v76zM362 449q-34 31 -90 31q-71 0 -102.5 -44.5t-31.5 -122.5v-76 q0 -46 10 -79zM528 575q0 -7 -4 -11l-70 -94q41 -62 41 -157v-76q0 -55 -14 -100t-42 -77t-70 -49.5t-97 -17.5q-85 0 -139 42l-44 -60q-5 -7 -8 -8.5t-8 -1.5h-49q-8 0 -8 8q0 7 4 11l71 96q-41 62 -41 157v76q0 55 14 100t42 77t69.5 49.5t96.5 17.5q86 0 140 -42l42 58 q5 7 8 8.5t8 1.5h50q8 0 8 -8z"/>
<glyph glyph-name="uni0218" horiz-adv-x="550" unicode="Ș" d="M500 193q0 -36 -11 -72t-38.5 -64.5t-75.5 -46t-122 -17.5q-53 0 -93 4.5t-73 9.5q-13 2 -16 6t-3 12v40q0 8 5 12t12 4h3q17 -2 38.5 -3t44 -1.5t44 -1t38.5 -0.5q45 0 74.5 8.5t46.5 24t24 37.5t7 48q0 19 -6 34.5t-20 30.5t-37 31.5t-57 37.5l-97 59 q-69 42 -103.5 84.5t-34.5 102.5q0 91 62 134t177 43q22 0 46.5 -1t48 -2.5t44.5 -4t35 -4.5q17 -3 17 -17v-43q0 -16 -17 -16h-2q-33 2 -80.5 4t-91.5 2q-78 0 -112.5 -20t-34.5 -75q0 -35 26 -61t83 -60l92 -55q43 -26 73 -50t49 -48t27 -50t8 -56zM319 -49q11 0 11 -11 l-1 -8l-54 -109q-5 -10 -9 -14.5t-15 -4.5h-41q-3 0 -6 1.5t-3 6.5q0 4 1 8l28 112q4 19 20 19h69z"/>
<glyph glyph-name="uni0219" horiz-adv-x="466" unicode="ș" d="M416 138q0 -38 -13.5 -65.5t-38 -45t-59 -26t-76.5 -8.5q-14 0 -33.5 0.5t-41 2.5t-43.5 4.5t-40 7.5q-21 5 -21 20v35q0 7 5 11t13 4h4q18 -2 39.5 -4t43.5 -3.5t41 -2.5t33 -1q49 0 74 15t25 56q0 23 -16 40t-59 43l-101 60q-46 28 -74 61.5t-28 81.5q0 39 14 64.5 t38 41t57 21.5t72 6q42 0 81.5 -3.5t74.5 -9.5q19 -3 19 -20v-33q0 -17 -17 -17h-3q-26 2 -69.5 5t-85.5 3t-67.5 -10t-25.5 -48q0 -23 17 -39.5t52 -36.5l99 -59q62 -37 86 -72t24 -79zM266 -49q11 0 11 -11l-1 -8l-54 -109q-5 -10 -9 -14.5t-15 -4.5h-41q-3 0 -6 1.5 t-3 6.5q0 4 1 8l28 112q4 19 20 19h69z"/>
<glyph glyph-name="uni021A" horiz-adv-x="590" unicode="Ț" d="M555 681q0 -16 -19 -16h-195v-645q0 -8 -5 -14t-13 -6h-55q-8 0 -13 6t-5 14v645h-195q-8 0 -14 4t-6 12v44q0 8 6 13t14 5h481q19 0 19 -18v-44zM333 -49q11 0 11 -11l-1 -8l-54 -109q-5 -10 -9 -14.5t-15 -4.5h-41q-3 0 -6 1.5t-3 6.5q0 4 1 8l28 112q4 19 20 19h69z "/>
<glyph glyph-name="uni021B" horiz-adv-x="385" unicode="ț" d="M360 15q0 -14 -18 -17q-15 -2 -33 -3.5t-32 -1.5q-35 0 -60.5 5.5t-42 20.5t-25 41t-8.5 67v349l-97 11q-19 2 -19 18v27q0 18 19 18h97v98q0 17 18 20l52 8h3q6 0 10.5 -4.5t4.5 -12.5v-109h108q8 0 14 -6t6 -14v-34q0 -8 -6 -14t-14 -6h-108v-349q0 -41 12 -52t42 -11 h56q21 0 21 -14v-35zM246 -49q11 0 11 -11l-1 -8l-54 -109q-5 -10 -9 -14.5t-15 -4.5h-41q-3 0 -6 1.5t-3 6.5q0 4 1 8l28 112q4 19 20 19h69z"/>
<glyph glyph-name="circumflex" horiz-adv-x="373" unicode="ˆ" d="M353 630q0 -7 -9 -7h-52q-8 0 -12 3.5t-11 11.5l-82 97l-83 -97q-7 -8 -11 -11.5t-12 -3.5h-52q-9 0 -9 7q0 6 4 10l96 124q7 8 11 11.5t13 3.5h85q9 0 13.5 -3.5t11.5 -11.5l95 -124q4 -4 4 -10z"/>
<glyph glyph-name="caron" horiz-adv-x="373" unicode="ˇ" d="M355 772q0 -6 -4 -10l-97 -124q-7 -8 -11.5 -11.5t-13.5 -3.5h-85q-9 0 -13 3.5t-11 11.5l-98 124q-4 4 -4 10q0 7 9 7h54q8 0 12 -4t11 -12l83 -96l82 96q7 8 11 12t12 4h54q9 0 9 -7z"/>
<glyph glyph-name="uni02C9" horiz-adv-x="373" unicode="ˉ" d="M351 692q0 -8 -6 -12.5t-14 -4.5h-288q-8 0 -14 4.5t-6 12.5v34q0 8 6 12.5t14 4.5h288q8 0 14 -4.5t6 -12.5v-34z"/>
<glyph glyph-name="breve" horiz-adv-x="373" unicode="˘" d="M350 762q-3 -35 -17.5 -61.5t-37 -44t-51 -26.5t-57.5 -9t-57.5 9t-51 26.5t-37 44t-17.5 61.5v4q0 13 11 13h37q14 0 15 -16q2 -20 11.5 -35t23 -25t30.5 -15t35 -5t35 5t30.5 15t23 25t11.5 35q1 16 15 16h37q11 0 11 -13v-4z"/>
<glyph glyph-name="dotaccent" horiz-adv-x="373" unicode="˙" d="M230 658q0 -8 -5.5 -14t-13.5 -6h-48q-8 0 -14 6t-6 14v84q0 8 6 13.5t14 5.5h48q8 0 13.5 -5.5t5.5 -13.5v-84z"/>
<glyph glyph-name="ring" horiz-adv-x="373" unicode="˚" d="M240 704q0 22 -15.5 37t-37.5 15t-37 -15t-15 -37t15 -37.5t37 -15.5t37.5 15.5t15.5 37.5zM288 703q0 -21 -8 -39.5t-21.5 -32t-32 -21.5t-39.5 -8t-39.5 8t-32.5 21.5t-22 32t-8 39.5t8 39.5t22 32.5t32.5 22t39.5 8t39.5 -8t32 -22t21.5 -32.5t8 -39.5z"/>
<glyph glyph-name="ogonek" horiz-adv-x="366" unicode="˛" d="M297 -179q0 -8 -11 -11q-2 -1 -23 -5.5t-53 -4.5q-37 0 -62 7.5t-40.5 20.5t-22 30.5t-6.5 37.5q0 19 6.5 34t16.5 26t21 18.5t20 12.5l66 40q5 4 11.5 7t13.5 3h52q12 0 12 -10q0 -5 -5 -9l-87 -60q-26 -17 -40 -29.5t-14 -32.5q0 -19 15.5 -28.5t53.5 -9.5q24 0 45 5 t26 5t5 -8v-39z"/>
<glyph glyph-name="tilde" horiz-adv-x="493" unicode="˜" d="M419 731q0 -52 -21.5 -78.5t-72.5 -26.5q-17 0 -33.5 5t-30.5 16l-61 49q-18 14 -25 18t-16 4q-18 0 -24.5 -11.5t-6.5 -34.5v-21q0 -7 -5 -12t-12 -5h-31q-7 0 -11.5 5t-4.5 12v21q0 54 25 81.5t70 27.5q17 0 31.5 -6.5t28.5 -17.5l71 -56q8 -6 18 -10t17 -4 q15 0 22.5 9t7.5 35v23q0 7 5 12t12 5h31q7 0 11.5 -5t4.5 -12v-23z"/>
<glyph glyph-name="hungarumlaut" horiz-adv-x="373" unicode="˝" d="M237 772q0 -4 -4 -8l-112 -126q-7 -8 -11 -11.5t-12 -3.5h-54q-9 0 -9 7q0 6 4 10l97 124q7 8 11.5 11.5t13.5 3.5h65q11 0 11 -7zM412 772q0 -4 -4 -8l-112 -126q-7 -8 -11 -11.5t-12 -3.5h-54q-9 0 -9 7q0 6 4 10l97 124q7 8 11.5 11.5t13.5 3.5h65q11 0 11 -7z"/>
<glyph glyph-name="afii10023" horiz-adv-x="551" unicode="Ё" d="M496 12q0 -5 -2.5 -9t-7.5 -5q-14 -2 -38 -2.5t-51.5 -1.5t-55.5 -1h-50q-106 0 -159.5 43t-53.5 143v385q0 100 53.5 143t159.5 43q73 0 118 -1.5t77 -4.5q5 -1 7.5 -5t2.5 -9v-50q0 -12 -11 -12h-193q-40 0 -64 -5.5t-37 -18t-17.5 -32.5t-4.5 -48v-139h307q8 0 14 -6 t6 -14v-38q0 -8 -6 -14t-14 -6h-307v-168q0 -29 4.5 -48.5t17.5 -32t37 -18t64 -5.5h193q11 0 11 -12v-51zM249 829q0 -8 -6 -13.5t-14 -5.5h-39q-8 0 -14 5.5t-6 13.5v81q0 8 6 14t14 6h39q8 0 14 -6t6 -14v-81zM424 829q0 -8 -6 -13.5t-14 -5.5h-39q-8 0 -14 5.5t-6 13.5 v81q0 8 6 14t14 6h39q8 0 14 -6t6 -14v-81z"/>
<glyph glyph-name="afii10051" horiz-adv-x="813" unicode="Ђ" d="M763 150q0 -47 -13.5 -80t-38 -53.5t-58.5 -30t-75 -9.5q-17 0 -31 2t-22 6q-6 3 -6 11v37q0 8 6 12.5t14 4.5h39q20 0 37 4.5t30 16t20 30.5t7 49v91q0 40 -10.5 65.5t-31 39t-51.5 18.5t-71 5q-12 0 -33 -1.5t-45.5 -4.5t-48.5 -7t-40 -9v-327q0 -8 -5 -14t-13 -6h-55 q-8 0 -13 6t-5 14v645h-195q-8 0 -14 4t-6 12v44q0 8 6 13t14 5h481q19 0 19 -18v-44q0 -16 -19 -16h-195v-243q41 14 89 20.5t95 6.5q52 0 96 -10t75.5 -34t49 -64t17.5 -100v-91z"/>
<glyph glyph-name="afii10052" horiz-adv-x="536" unicode="Ѓ" d="M496 680q0 -12 -11 -12h-193q-40 0 -64 -5.5t-37 -18t-17.5 -32.5t-4.5 -48v-544q0 -8 -6 -14t-14 -6h-51q-8 0 -14 6t-6 14v544q0 100 53.5 143t159.5 43q22 0 49.5 -0.5t54.5 -1t51 -2l40 -2.5q5 -1 7.5 -5t2.5 -9v-50zM309 809q-7 -8 -11 -11.5t-12 -3.5h-54 q-9 0 -9 7q0 4 4 10l98 124q7 8 11 11.5t13 3.5h66q8 0 9.5 -2.5t1.5 -4.5q0 -3 -4 -8z"/>
<glyph glyph-name="afii10053" horiz-adv-x="573" unicode="Є" d="M456 425q8 0 14 -6t6 -14v-38q0 -8 -6 -14t-14 -6h-330v-13q0 -76 18.5 -126t49 -79.5t70 -41.5t82.5 -12q58 0 91.5 2.5t60.5 4.5q20 2 20 -16v-40q0 -9 -6 -13.5t-14 -6.5q-16 -3 -30 -5.5t-30.5 -4t-38.5 -2.5t-54 -1q-54 0 -109.5 14.5t-100 53t-72.5 104.5t-28 169 v75q0 103 28 169t72.5 104t100 53t109.5 15q32 0 54 -1t38.5 -2.5t30.5 -4t30 -5.5q8 -2 14 -6.5t6 -13.5v-40q0 -18 -20 -16q-27 2 -60.5 4.5t-91.5 2.5q-42 0 -80.5 -11.5t-69 -39t-49.5 -74.5t-21 -118h330z"/>
<glyph glyph-name="afii10054" horiz-adv-x="550" unicode="Ѕ" d="M500 193q0 -36 -11 -72t-38.5 -64.5t-75.5 -46t-122 -17.5q-53 0 -93 4.5t-73 9.5q-13 2 -16 6t-3 12v40q0 9 6 13t14 3q17 -2 38.5 -3t44 -1.5t44 -1t38.5 -0.5q45 0 74.5 8.5t46.5 24t24 37.5t7 48q0 19 -6 34.5t-20 30.5t-37 31.5t-57 37.5l-97 59q-69 42 -103.5 84.5 t-34.5 102.5q0 91 62 134t177 43q22 0 46.5 -1t48 -2.5t44.5 -4t35 -4.5q17 -3 17 -17v-43q0 -8 -5.5 -12.5t-13.5 -3.5q-33 2 -80.5 4t-91.5 2q-78 0 -112.5 -20t-34.5 -75q0 -35 26 -61t83 -60l92 -55q43 -26 73 -50t49 -48t27 -50t8 -56z"/>
<glyph glyph-name="afii10055" horiz-adv-x="267" unicode="І" d="M179 20q0 -8 -5 -14t-13 -6h-55q-8 0 -13 6t-5 14v704q0 8 5 13.5t13 5.5h55q8 0 13 -5.5t5 -13.5v-704z"/>
<glyph glyph-name="afii10056" horiz-adv-x="267" unicode="Ї" d="M179 20q0 -8 -5 -14t-13 -6h-55q-8 0 -13 6t-5 14v704q0 8 5 13.5t13 5.5h55q8 0 13 -5.5t5 -13.5v-704zM86 828q0 -8 -6 -13.5t-14 -5.5h-39q-8 0 -14 5.5t-6 13.5v81q0 8 6 14t14 6h39q8 0 14 -6t6 -14v-81zM261 828q0 -8 -6 -13.5t-14 -5.5h-39q-8 0 -14 5.5t-6 13.5 v81q0 8 6 14t14 6h39q8 0 14 -6t6 -14v-81z"/>
<glyph glyph-name="afii10057" horiz-adv-x="257" unicode="Ј" d="M179 -37q0 -72 -36 -107.5t-119 -35.5q-17 0 -32.5 3t-20.5 5q-6 3 -6 11v37q0 8 6 12.5t14 4.5h39q40 0 52 16.5t12 53.5v761q0 8 5.5 13.5t13.5 5.5h53q8 0 13.5 -5.5t5.5 -13.5v-761z"/>
<glyph glyph-name="afii10058" horiz-adv-x="934" unicode="Љ" d="M482 743q8 0 14 -6t6 -14v-292q23 2 49.5 3t55.5 1q58 0 111 -9.5t93.5 -34t64 -65.5t23.5 -104v-17q0 -63 -23.5 -104t-64 -65t-93.5 -33.5t-111 -9.5q-50 0 -92 2t-71 7q-17 2 -25 10t-8 27v622h-96q-15 0 -20 -18l-171 -628q-2 -6 -5 -10.5t-13 -4.5h-59q-9 0 -13 4.5 t-4 10.5q0 4 1 8l182 644q6 23 17.5 37.5t25.5 23t29.5 12t29.5 3.5h167zM808 223q0 40 -14 66.5t-40 41.5t-63.5 21t-83.5 6q-26 0 -52.5 -1t-52.5 -3v-280q25 -1 52 -2.5t53 -1.5q46 0 83.5 6t63.5 21t40 41t14 67v18z"/>
<glyph glyph-name="afii10059" horiz-adv-x="1034" unicode="Њ" d="M908 223q0 40 -14 66.5t-40 41.5t-63.5 21t-83.5 6q-26 0 -52.5 -1t-52.5 -3v-280q25 -1 52 -2.5t53 -1.5q46 0 83.5 6t63.5 21t40 41t14 67v18zM999 205q0 -63 -23.5 -104t-64 -65t-93.5 -33.5t-111 -9.5q-36 0 -83.5 1.5t-92.5 5.5q-8 1 -14 6.5t-6 13.5v332h-342v-332 q0 -8 -6 -14t-14 -6h-51q-8 0 -14 6t-6 14v703q0 8 6 14t14 6h51q8 0 14 -6t6 -14v-290h342v290q0 8 6 14t14 6h51q8 0 14 -6t6 -14v-292q23 2 49.5 3t55.5 1q58 0 111 -9.5t93.5 -34t64 -65.5t23.5 -104v-17z"/>
<glyph glyph-name="afii10060" horiz-adv-x="804" unicode="Ћ" d="M736 20q0 -8 -6 -14t-14 -6h-51q-8 0 -14 6t-6 14v221q0 43 -10 68.5t-29 38.5t-45.5 17t-59.5 4q-22 0 -67 -3.5t-93 -17.5v-328q0 -8 -5 -14t-13 -6h-55q-8 0 -13 6t-5 14v645h-195q-8 0 -14 4t-6 12v44q0 8 6 13t14 5h481q19 0 19 -18v-44q0 -16 -19 -16h-195v-241 q47 14 94.5 19.5t79.5 5.5q49 0 89.5 -9.5t69.5 -33t45.5 -63.5t16.5 -102v-221z"/>
<glyph glyph-name="afii10061" horiz-adv-x="607" unicode="Ќ" d="M559 22q4 -6 4 -12q0 -10 -12 -10h-78q-13 0 -22 10l-282 343v-333q0 -8 -5 -14t-13 -6h-55q-8 0 -13 6t-5 14v704q0 8 5.5 13.5t13.5 5.5h53q8 0 13.5 -5.5t5.5 -13.5v-323l288 333q5 5 8.5 7t11.5 2h72q12 0 13.5 -7.5t-3.5 -13.5l-301 -340zM322 809q-7 -8 -11 -11.5 t-12 -3.5h-54q-9 0 -9 7q0 4 4 10l98 124q7 8 11 11.5t13 3.5h66q8 0 9.5 -2.5t1.5 -4.5q0 -3 -4 -8z"/>
<glyph glyph-name="afii10062" horiz-adv-x="588" unicode="Ў" d="M334 145q-15 -39 -31 -67.5t-38 -47.5t-52 -28t-73 -9q-18 0 -37 2t-26 4q-9 2 -15 5t-6 11v46q0 16 18 16h4q12 -1 20 -1.5t14.5 -1t13 -0.5h14.5q21 0 36 3t26 12.5t20.5 26t19.5 43.5l36 94h-5q-28 0 -43 13t-29 48l-151 404q-3 6 -3 11q0 4 3 9t14 5h61 q5 0 10.5 -4.5t7.5 -9.5l141 -375q5 -13 8.5 -16t11.5 -3h6l153 394q2 5 6.5 9.5t10.5 4.5h62q11 0 14 -5t3 -9q0 -5 -3 -11zM437 874.5q-16 -29.5 -38.5 -47t-51 -26.5t-57.5 -9t-57.5 9t-51 26.5t-37 44t-17.5 61.5v4q0 4 1.5 8.5t9.5 4.5h37q14 0 15 -16q2 -20 11.5 -35 t23 -25t30.5 -15t35 -5t35 5t30.5 15t23 25t11.5 35q1 16 15 16h37q8 0 9.5 -4.5t1.5 -8.5q0 -33 -16 -62.5z"/>
<glyph glyph-name="afii10145" horiz-adv-x="680" unicode="Џ" d="M386 -100q0 -8 -5 -14t-13 -6h-55q-8 0 -13 6t-5 14v100h-81q-18 0 -41.5 3.5t-44.5 16t-35.5 37.5t-14.5 68v598q0 8 6 14t14 6h51q8 0 14 -6t6 -14v-598q0 -11 1 -19.5t5.5 -13.5t13.5 -7.5t25 -2.5h252q31 0 38 10t7 33v598q0 8 6 14t14 6h51q8 0 14 -6t6 -14v-598 q0 -43 -14.5 -68t-35.5 -37.5t-44.5 -16t-41.5 -3.5h-80v-100z"/>
<glyph glyph-name="afii10017" horiz-adv-x="633" unicode="А" d="M336 653q-5 18 -19 18q-15 0 -20 -18l-91 -329h221zM604 16q0 -16 -17 -16h-59q-7 0 -11 4.5t-6 10.5l-65 230h-259l-64 -230q-2 -6 -7 -10.5t-11 -4.5h-59q-17 0 -17 16q0 5 1 7l185 651q6 23 17.5 37.5t25.5 23t29.5 12t29.5 3.5t29 -3t29 -11.5t25.5 -23t17.5 -37.5 l185 -652q1 -2 1 -7z"/>
<glyph glyph-name="afii10018" horiz-adv-x="616" unicode="Б" d="M475 223q0 40 -14 66.5t-40 41.5t-63.5 21t-83.5 6q-26 0 -52.5 -1t-52.5 -3v-280q25 -1 52 -2.5t53 -1.5q46 0 83.5 6t63.5 21t40 41t14 67v18zM566 205q0 -63 -23.5 -104t-64 -65t-93.5 -33.5t-111 -9.5q-50 0 -92 2t-71 7q-17 2 -25 10t-8 27v685q0 8 5 13.5t13 5.5 h382q8 0 14 -6t6 -14v-41q0 -8 -6 -14t-14 -6h-309v-231q23 2 49.5 3t55.5 1q58 0 111 -9.5t93.5 -34t64 -65.5t23.5 -104v-17z"/>
<glyph glyph-name="afii10019" horiz-adv-x="616" unicode="В" d="M475 222q0 25 -7 48t-24.5 40.5t-46.5 28t-73 10.5h-154v-275q25 -1 51.5 -2.5t52.5 -1.5q46 0 83.5 6t63.5 21t40 41t14 67v17zM471 557q0 36 -14.5 58.5t-41 35.5t-63.5 17.5t-83 4.5q-26 0 -52 -1t-47 -2v-248h154q43 0 71.5 9.5t45.5 26t23.5 38t6.5 45.5v16z M566 205q0 -63 -23.5 -104t-64 -65t-93.5 -33.5t-111 -9.5q-50 0 -92 2t-71 7q-17 2 -25 10t-8 27v666q0 34 32 37q25 3 67.5 5.5t91.5 2.5q60 0 113 -9t93 -31t63.5 -59t23.5 -94v-16q0 -56 -28 -96.5t-79 -60.5q52 -18 81.5 -61t29.5 -101v-17z"/>
<glyph glyph-name="afii10020" horiz-adv-x="536" unicode="Г" d="M496 680q0 -12 -11 -12h-193q-40 0 -64 -5.5t-37 -18t-17.5 -32.5t-4.5 -48v-544q0 -8 -6 -14t-14 -6h-51q-8 0 -14 6t-6 14v544q0 100 53.5 143t159.5 43q22 0 49.5 -0.5t54.5 -1t51 -2l40 -2.5q5 -1 7.5 -5t2.5 -9v-50z"/>
<glyph glyph-name="afii10021" horiz-adv-x="685" unicode="Д" d="M169 81h352l-157 572q-5 18 -19 18q-15 0 -20 -18zM74 81l169 593q6 23 17.5 37.5t25.5 23t29.5 12t29.5 3.5t29 -3t29 -11.5t25.5 -23t17.5 -37.5l168 -594h28q18 0 18 -19v-162q0 -8 -5 -14t-13 -6h-55q-8 0 -13 6t-5 14v100h-453v-100q0 -8 -5 -14t-13 -6h-55 q-8 0 -13 6t-5 14v162q0 8 5 13.5t13 5.5h31z"/>
<glyph glyph-name="afii10022" horiz-adv-x="551" unicode="Е" d="M496 12q0 -5 -2.5 -9t-7.5 -5q-14 -2 -38 -2.5t-51.5 -1.5t-55.5 -1h-50q-106 0 -159.5 43t-53.5 143v385q0 100 53.5 143t159.5 43q73 0 118 -1.5t77 -4.5q5 -1 7.5 -5t2.5 -9v-50q0 -12 -11 -12h-193q-40 0 -64 -5.5t-37 -18t-17.5 -32.5t-4.5 -48v-139h307q8 0 14 -6 t6 -14v-38q0 -8 -6 -14t-14 -6h-307v-168q0 -29 4.5 -48.5t17.5 -32t37 -18t64 -5.5h193q11 0 11 -12v-51z"/>
<glyph glyph-name="afii10024" horiz-adv-x="967" unicode="Ж" d="M919 22q4 -6 4 -12q0 -10 -12 -10h-78q-13 0 -22 10l-282 343v-333q0 -8 -5 -14t-13 -6h-55q-8 0 -13 6t-5 14v333l-282 -343q-9 -10 -22 -10h-78q-12 0 -12 10q0 6 4 12l301 360l-301 340q-5 6 -3.5 13.5t13.5 7.5h72q8 0 11.5 -2t8.5 -7l288 -333v323q0 8 5.5 13.5 t13.5 5.5h53q8 0 13.5 -5.5t5.5 -13.5v-323l288 333q5 5 8.5 7t11.5 2h72q12 0 13.5 -7.5t-3.5 -13.5l-301 -340z"/>
<glyph glyph-name="afii10025" horiz-adv-x="585" unicode="З" d="M507 207q0 -56 -18.5 -96.5t-51.5 -66.5t-78.5 -38.5t-100.5 -12.5q-48 0 -90.5 6t-78.5 14q-8 2 -13.5 6.5t-5.5 12.5v34q0 9 6 13.5t14 3.5q45 -6 89 -10t79 -4q82 0 119 33t37 105v21q0 20 -5.5 41.5t-19 39.5t-36 29.5t-56.5 11.5h-182q-19 0 -19 18v35q0 19 19 19 h182q36 0 59 11t35.5 28.5t17.5 38.5t5 41v14q0 62 -35.5 90.5t-120.5 28.5q-44 0 -81.5 -4.5t-86.5 -10.5q-8 -1 -14 3.5t-6 13.5v35q0 7 5.5 12t13.5 7q36 8 78.5 14t90.5 6q56 0 102 -9.5t78.5 -32.5t50.5 -60.5t18 -92.5v-14q0 -51 -24 -92t-71 -64q27 -13 45 -31 t29 -39t16 -43t5 -44v-21z"/>
<glyph glyph-name="afii10026" horiz-adv-x="680" unicode="И" d="M78 724q0 8 5 13.5t13 5.5h53q8 0 13 -5.5t5 -13.5v-585q0 -3 1 -3l2 3l307 584q6 11 13 15.5t28 4.5h55q12 0 20.5 -8t8.5 -20v-703q0 -8 -5 -10t-13 -2h-52q-8 0 -13 5.5t-5 13.5v584q0 3 -1 3q-2 0 -3 -3l-309 -587q-8 -16 -32 -16h-62q-12 0 -20.5 8.5t-8.5 20.5v695 z"/>
<glyph glyph-name="afii10027" horiz-adv-x="680" unicode="Й" d="M78 29v695q0 8 5 13.5t13 5.5h53q8 0 13 -5.5t5 -13.5v-585q0 -3 1 -3l2 3l307 584q6 11 13 15.5t28 4.5h55q12 0 20.5 -8t8.5 -20v-703q0 -8 -5 -10t-13 -2h-52q-8 0 -13 5.5t-5 13.5v584q0 3 -1 3q-2 0 -3 -3l-309 -587q-8 -16 -32 -16h-62q-12 0 -20.5 8.5t-8.5 20.5z M488 874.5q-16 -29.5 -38.5 -47t-51 -26.5t-57.5 -9t-57.5 9t-51 26.5t-37 44t-17.5 61.5v4q0 4 1.5 8.5t9.5 4.5h37q14 0 15 -16q2 -20 11.5 -35t23 -25t30.5 -15t35 -5t35 5t30.5 15t23 25t11.5 35q1 16 15 16h37q8 0 9.5 -4.5t1.5 -8.5q0 -33 -16 -62.5z"/>
<glyph glyph-name="afii10028" horiz-adv-x="607" unicode="К" d="M559 22q4 -6 4 -12q0 -10 -12 -10h-78q-13 0 -22 10l-282 343v-333q0 -8 -5 -14t-13 -6h-55q-8 0 -13 6t-5 14v704q0 8 5.5 13.5t13.5 5.5h53q8 0 13.5 -5.5t5.5 -13.5v-323l288 333q5 5 8.5 7t11.5 2h72q12 0 13.5 -7.5t-3.5 -13.5l-301 -340z"/>
<glyph glyph-name="afii10029" horiz-adv-x="633" unicode="Л" d="M336 653q-5 18 -19 18q-15 0 -20 -18l-174 -638q-2 -6 -7 -10.5t-11 -4.5h-59q-17 0 -17 16q0 5 1 7l185 651q6 23 17.5 37.5t25.5 23t29.5 12t29.5 3.5t29 -3t29 -11.5t25.5 -23t17.5 -37.5l185 -652q1 -2 1 -7q0 -16 -17 -16h-59q-7 0 -11 4.5t-6 10.5z"/>
<glyph glyph-name="afii10030" horiz-adv-x="761" unicode="М" d="M684 20q0 -8 -6 -14t-14 -6h-49q-8 0 -14 6t-6 14v593q0 7 -3 1l-143 -296q-8 -15 -17 -22t-28 -7h-46q-19 0 -28 7t-17 22l-143 296q-3 6 -3 -1v-593q0 -8 -6 -14t-14 -6h-49q-8 0 -14 6t-6 14v694q0 12 8.5 20.5t20.5 8.5h65q14 0 20.5 -3.5t11.5 -13.5l165 -343 q5 -11 12 -11t12 11l165 343q5 10 11.5 13.5t20.5 3.5h65q12 0 20.5 -8.5t8.5 -20.5v-694z"/>
<glyph glyph-name="afii10031" horiz-adv-x="680" unicode="Н" d="M602 20q0 -8 -6 -14t-14 -6h-51q-8 0 -14 6t-6 14v332h-342v-332q0 -8 -6 -14t-14 -6h-51q-8 0 -14 6t-6 14v703q0 8 6 14t14 6h51q8 0 14 -6t6 -14v-290h342v290q0 8 6 14t14 6h51q8 0 14 -6t6 -14v-703z"/>
<glyph glyph-name="afii10032" horiz-adv-x="661" unicode="О" d="M509 436q0 63 -12.5 107t-35.5 72t-56 40.5t-74 12.5t-74 -12.5t-56.5 -40.5t-36 -72t-12.5 -107v-129q0 -63 12.5 -107t35.5 -72t56.5 -40.5t74.5 -12.5t74 12.5t56 40.5t35.5 72t12.5 107v129zM601 307q0 -83 -20 -142.5t-56 -97.5t-85.5 -56t-108.5 -18t-108.5 18 t-85.5 56t-56.5 97.5t-20.5 142.5v129q0 83 20.5 142.5t56.5 97.5t85.5 56t108.5 18t108.5 -18t85.5 -56t56 -97.5t20 -142.5v-129z"/>
<glyph glyph-name="afii10033" horiz-adv-x="680" unicode="П" d="M511 618q0 22 -7 32.5t-38 10.5h-252q-16 0 -25 -2.5t-13.5 -8t-5.5 -13.5t-1 -19v-598q0 -8 -6 -14t-14 -6h-51q-8 0 -14 6t-6 14v598q0 43 14.5 68t35.5 37.5t44.5 16t41.5 3.5h252q18 0 41.5 -3.5t44.5 -16t35.5 -37.5t14.5 -68v-598q0 -8 -6 -14t-14 -6h-51 q-8 0 -14 6t-6 14v598z"/>
<glyph glyph-name="afii10034" horiz-adv-x="588" unicode="Р" d="M457 533q0 76 -46 108t-143 32q-23 0 -52.5 -1t-47.5 -3v-293q9 0 22 -1t27 -1.5t27.5 -1t23.5 -0.5q103 0 146 35t43 113v13zM548 520q0 -63 -21 -105.5t-58.5 -69t-88.5 -38t-112 -11.5q-24 0 -52 1.5t-48 3.5v-281q0 -8 -5 -14t-13 -6h-54q-8 0 -13 6t-5 14v697 q0 22 24 25q32 4 77 6t89 2q61 0 112 -11.5t88.5 -37t58.5 -67t21 -101.5v-13z"/>
<glyph glyph-name="afii10035" horiz-adv-x="545" unicode="С" d="M510 26q0 -9 -6 -13.5t-14 -6.5q-16 -3 -32 -5.5t-35 -4t-43 -2.5t-56 -1q-46 0 -93 14t-85 49.5t-62 95t-24 150.5v139q0 92 24 151.5t62 94.5t85 49t93 14q48 0 91.5 -5.5t76.5 -10.5q16 -2 16 -13v-51q0 -5 -3 -8.5t-12 -2.5q-14 1 -33.5 2.5t-42 3t-46.5 2.5t-46 1 q-37 0 -68.5 -11.5t-55 -38t-37 -70t-13.5 -107.5v-139q0 -63 13.5 -106.5t37 -70t55 -38.5t68.5 -12q21 0 44.5 1t46 2t41.5 2.5t33 2.5q20 2 20 -16v-41z"/>
<glyph glyph-name="afii10036" horiz-adv-x="590" unicode="Т" d="M555 681q0 -16 -19 -16h-195v-645q0 -8 -5 -14t-13 -6h-55q-8 0 -13 6t-5 14v645h-195q-8 0 -14 4t-6 12v44q0 8 6 13t14 5h481q19 0 19 -18v-44z"/>
<glyph glyph-name="afii10037" horiz-adv-x="588" unicode="У" d="M334 145q-15 -39 -31 -67.5t-38 -47.5t-52 -28t-73 -9q-18 0 -37 2t-26 4q-9 2 -15 5t-6 11v46q0 16 18 16h4q12 -1 20 -1.5t14.5 -1t13 -0.5h14.5q21 0 36 3t26 12.5t20.5 26t19.5 43.5l36 94h-5q-28 0 -43 13t-29 48l-151 404q-3 6 -3 11q0 4 3 9t14 5h61 q5 0 10.5 -4.5t7.5 -9.5l141 -375q5 -13 8.5 -16t11.5 -3h6l153 394q2 5 6.5 9.5t10.5 4.5h62q11 0 14 -5t3 -9q0 -5 -3 -11z"/>
<glyph glyph-name="afii10038" horiz-adv-x="789" unicode="Ф" d="M311 218h17t21 1v340h-38q-97 0 -143 -37t-46 -113v-33q0 -78 43 -118t146 -40zM439 559v-340q11 -1 20.5 -1h17.5q103 0 146 40t43 118v33q0 76 -46 113t-143 37h-38zM439 636h38q61 0 112 -13t88.5 -40.5t58.5 -70.5t21 -103v-33q0 -63 -21 -107t-58.5 -72.5 t-88.5 -41.5t-112 -13h-18.5t-19.5 1v-123q0 -8 -5 -14t-13 -6h-54q-8 0 -13 6t-5 14v123q-11 -1 -20.5 -1h-17.5q-61 0 -112 13t-88.5 41.5t-58.5 72.5t-21 107v33q0 60 21 103t58.5 70.5t88.5 40.5t112 13h38v94q0 8 5 14t13 6h54q8 0 13 -6t5 -14v-94z"/>
<glyph glyph-name="afii10039" horiz-adv-x="646" unicode="Х" d="M601 25q3 -5 3 -10q0 -3 -2 -9t-14 -6h-63q-8 0 -12 3.5t-9 11.5l-183 291l-179 -291q-10 -15 -21 -15h-59q-11 0 -13.5 6t-2.5 9q0 5 3 10l222 353l-220 341q-5 8 -2 16t14 8h65q8 0 11.5 -2.5t6.5 -7.5l180 -285l174 285q5 7 9 8.5t10 1.5h59q10 0 14 -8t-1 -16 l-215 -343z"/>
<glyph glyph-name="afii10040" horiz-adv-x="687" unicode="Ц" d="M214 0q-18 0 -41.5 3t-44.5 15.5t-35.5 37.5t-14.5 68v599q0 8 6 14t14 6h51q8 0 14 -6t6 -14v-599q0 -11 1 -19.5t5.5 -13.5t13.5 -7.5t25 -2.5h252q31 0 38 10t7 33v599q0 8 6 14t14 6h51q8 0 14 -6t6 -14v-598q0 -13 -1.5 -23.5t-3.5 -20.5h52q8 0 13 -5.5t5 -13.5 v-162q0 -8 -5 -14t-13 -6h-55q-8 0 -13 6t-5 14v100h-362z"/>
<glyph glyph-name="afii10041" horiz-adv-x="637" unicode="Ч" d="M559 20q0 -8 -6 -14t-14 -6h-51q-8 0 -14 6t-6 14v289q-18 -4 -40.5 -7.5t-46.5 -6t-47.5 -4t-43.5 -1.5q-46 0 -86.5 10t-70.5 34.5t-47.5 65t-17.5 102.5v221q0 8 6 14t14 6h51q8 0 14 -6t6 -14v-221q0 -38 8 -63t26 -39.5t47 -20.5t71 -6q12 0 34 1.5t46 4t45 5 t32 5.5v334q0 8 5 14t13 6h55q8 0 13 -6t5 -14v-703z"/>
<glyph glyph-name="afii10042" horiz-adv-x="933" unicode="Ш" d="M764 723q0 8 6 14t14 6h51q8 0 14 -6t6 -14v-599q0 -43 -14.5 -68t-35.5 -37.5t-44.5 -15.5t-41.5 -3h-505q-18 0 -41.5 3t-44.5 15.5t-35.5 37.5t-14.5 68v599q0 8 6 14t14 6h51q8 0 14 -6t6 -14v-599q0 -11 1 -19.5t5.5 -13.5t13.5 -7.5t25 -2.5h207v642q0 8 6 14t14 6 h51q8 0 14 -6t6 -14v-642h207q31 0 38 10t7 33v599z"/>
<glyph glyph-name="afii10043" horiz-adv-x="945" unicode="Щ" d="M719 81q31 0 38 10t7 33v599q0 8 6 14t14 6h51q8 0 14 -6t6 -14v-599q0 -16 -1.5 -25t-3.5 -18h52q18 0 18 -19v-162q0 -8 -5 -14t-13 -6h-55q-8 0 -13 6t-5 14v100h-615q-18 0 -41.5 3t-44.5 15.5t-35.5 37.5t-14.5 68v599q0 8 6 14t14 6h51q8 0 14 -6t6 -14v-599 q0 -11 1 -19.5t5.5 -13.5t13.5 -7.5t25 -2.5h207v642q0 8 6 14t14 6h51q8 0 14 -6t6 -14v-642h207z"/>
<glyph glyph-name="afii10044" horiz-adv-x="677" unicode="Ъ" d="M551 223q0 40 -14 66.5t-40 41.5t-63.5 21t-83.5 6q-26 0 -52.5 -1t-52.5 -3v-280q25 -1 52 -2.5t53 -1.5q46 0 83.5 6t63.5 21t40 41t14 67v18zM642 205q0 -63 -23.5 -104t-64 -65t-93.5 -33.5t-111 -9.5q-50 0 -92 2t-71 7q-17 2 -25 10t-8 27v623h-109q-8 0 -14 6 t-6 14v41q0 8 6 14t14 6h182q8 0 13 -5.5t5 -13.5v-293q23 2 49.5 3t55.5 1q58 0 111 -9.5t93.5 -34t64 -65.5t23.5 -104v-17z"/>
<glyph glyph-name="afii10045" horiz-adv-x="863" unicode="Ы" d="M475 223q0 40 -14 66.5t-40 41.5t-63.5 21t-83.5 6q-26 0 -52.5 -1t-52.5 -3v-280q25 -1 52 -2.5t53 -1.5q46 0 83.5 6t63.5 21t40 41t14 67v18zM566 205q0 -63 -23.5 -104t-64 -65t-93.5 -33.5t-111 -9.5q-50 0 -92 2t-71 7q-17 2 -25 10t-8 27v685q0 8 5 13.5t13 5.5 h55q8 0 13 -5.5t5 -13.5v-293q23 2 49.5 3t55.5 1q58 0 111 -9.5t93.5 -34t64 -65.5t23.5 -104v-17zM785 20q0 -8 -5 -14t-13 -6h-55q-8 0 -13 6t-5 14v704q0 8 5 13.5t13 5.5h55q8 0 13 -5.5t5 -13.5v-704z"/>
<glyph glyph-name="afii10046" horiz-adv-x="601" unicode="Ь" d="M475 223q0 40 -14 66.5t-40 41.5t-63.5 21t-83.5 6q-26 0 -52.5 -1t-52.5 -3v-280q25 -1 52 -2.5t53 -1.5q46 0 83.5 6t63.5 21t40 41t14 67v18zM566 205q0 -63 -23.5 -104t-64 -65t-93.5 -33.5t-111 -9.5q-50 0 -92 2t-71 7q-17 2 -25 10t-8 27v685q0 8 5 13.5t13 5.5 h55q8 0 13 -5.5t5 -13.5v-293q23 2 49.5 3t55.5 1q58 0 111 -9.5t93.5 -34t64 -65.5t23.5 -104v-17z"/>
<glyph glyph-name="afii10047" horiz-adv-x="573" unicode="Э" d="M447 425q-2 71 -21 118t-49.5 74.5t-69 39t-80.5 11.5q-29 0 -51.5 -0.5t-40.5 -1.5t-32.5 -2.5t-27.5 -2.5q-20 -2 -20 16v40q0 9 6 13.5t14 6.5q16 3 30 5.5t30.5 4t38.5 2.5t54 1q54 0 109.5 -15t100 -53t72.5 -104t28 -169v-75q0 -103 -28 -169t-72.5 -104.5 t-100 -53t-109.5 -14.5q-32 0 -54 1t-38.5 2.5t-30.5 4t-30 5.5q-8 2 -14 6.5t-6 13.5v40q0 18 20 16q13 -1 27.5 -2.5t32.5 -2.5t40.5 -1.5t51.5 -0.5q43 0 82.5 12t70 41.5t49 79.5t18.5 126v13h-330q-8 0 -14 6t-6 14v38q0 8 6 14t14 6h330z"/>
<glyph glyph-name="afii10048" horiz-adv-x="928" unicode="Ю" d="M776 436q0 63 -12.5 107t-35.5 72t-56 40.5t-74 12.5t-74 -12.5t-56.5 -40.5t-36 -72t-12.5 -107v-129q0 -63 12.5 -107t35.5 -72t56.5 -40.5t74.5 -12.5t74 12.5t56 40.5t35.5 72t12.5 107v129zM868 307q0 -83 -20 -142.5t-56 -97.5t-85.5 -56t-108.5 -18t-108.5 18 t-85.5 56t-56.5 97.5t-20.5 142.5v25h-148v-312q0 -8 -5 -14t-13 -6h-55q-8 0 -13 6t-5 14v704q0 8 5 13.5t13 5.5h55q8 0 13 -5.5t5 -13.5v-311h148v23q0 83 20.5 142.5t56.5 97.5t85.5 56t108.5 18t108.5 -18t85.5 -56t56 -97.5t20 -142.5v-129z"/>
<glyph glyph-name="afii10049" horiz-adv-x="634" unicode="Я" d="M466 665q-9 1 -23 1.5t-29 1t-30.5 0.5h-27.5q-94 0 -142 -29t-48 -104v-7q0 -41 12.5 -67.5t36.5 -42.5t59.5 -22.5t81.5 -6.5h17h20t29.5 0.5t43.5 1.5v274zM556 20q0 -8 -5 -14t-13 -6h-54q-8 0 -13 6t-5 14v294q-30 -2 -54 -2.5t-56 -0.5h-26l-179 -298 q-6 -10 -11.5 -11.5t-14.5 -1.5h-64q-9 0 -11 5t-2 8q0 5 3 9l182 304q-34 9 -63 26t-50 42t-32.5 58.5t-11.5 75.5v7q0 61 21.5 102t59 66t89 36t110.5 11q22 0 46 -0.5t47.5 -1.5t45 -2.5t37.5 -3.5q14 -2 19 -6.5t5 -15.5v-700z"/>
<glyph glyph-name="afii10065" horiz-adv-x="519" unicode="а" d="M363 266h-74q-45 0 -75 -5.5t-47 -17t-24 -30t-7 -45.5v-12q0 -54 24 -72.5t68 -18.5q35 0 67 10t68 30v161zM451 20q0 -8 -6 -14t-14 -6h-46q-8 0 -14 6t-6 14v22q-36 -21 -74 -35t-80 -14q-32 0 -61.5 7.5t-52 26.5t-36 50t-13.5 78v12q0 40 12.5 70.5t41 51t74.5 30.5 t113 10h74v40q0 63 -24 88t-83 25q-49 0 -86 -2.5t-67 -5.5q-8 -1 -15.5 2t-7.5 14v35q0 16 21 19q31 5 67.5 9t87.5 4q104 0 149.5 -50t45.5 -138v-349z"/>
<glyph glyph-name="afii10066" horiz-adv-x="545" unicode="б" d="M406 289q0 85 -31 130.5t-103 45.5t-103 -45.5t-31 -130.5v-46q0 -85 30.5 -129.5t102.5 -44.5t103.5 44.5t31.5 129.5v46zM495 243q0 -116 -55 -183t-169 -67q-110 0 -165.5 64t-55.5 186v46q0 78 4 142t24 113t62.5 81.5t119.5 47.5l72 14q38 8 51 21.5t16 30.5 q1 13 15 13h56q13 0 12 -13q-2 -29 -13.5 -49.5t-29.5 -35t-40.5 -23t-46.5 -13.5l-75 -16q-53 -11 -86.5 -31.5t-39.5 -69.5q18 15 48.5 27t72.5 12q109 0 166 -65t57 -186v-46z"/>
<glyph glyph-name="afii10067" horiz-adv-x="553" unicode="в" d="M409 168q0 29 -11.5 45.5t-30 25t-41.5 10.5t-45 2h-125v-185q23 -1 43 -1.5t43 -0.5q92 0 129.5 23t37.5 74v7zM403 408q0 46 -39 61.5t-115 15.5h-49t-44 -1v-165h125q22 0 44 2.5t39.5 11t28 25t10.5 45.5v5zM498 161q0 -47 -19 -79t-53 -52t-80.5 -28.5t-100.5 -8.5 q-14 0 -34 0.5t-41 1t-41 1.5t-32 3q-29 3 -29 28v496q0 26 28 29q22 2 62 3.5t97 1.5q42 0 84.5 -5t76.5 -21t55 -45.5t21 -77.5v-5q0 -35 -17 -68.5t-55 -48.5q42 -17 60 -48.5t18 -69.5v-7z"/>
<glyph glyph-name="afii10068" horiz-adv-x="409" unicode="г" d="M194 474q-23 0 -30.5 -7.5t-7.5 -30.5v-416q0 -8 -6 -14t-14 -6h-48q-8 0 -14 6t-6 14v416q0 43 13 66t32.5 33.5t41.5 12.5t39 2h175q8 0 14 -6t6 -14v-36q0 -8 -6 -14t-14 -6h-175z"/>
<glyph glyph-name="afii10069" horiz-adv-x="602" unicode="д" d="M171 76h249l-105 384q-5 18 -19 18q-15 0 -20 -18zM557 76q8 0 14 -5.5t6 -13.5v-146q0 -8 -6 -14t-14 -6h-47q-8 0 -14 6t-6 14v89h-378v-89q0 -8 -6 -14t-14 -6h-47q-8 0 -14 6t-6 14v146q0 8 6 13.5t14 5.5h33l116 405q6 23 17.5 37.5t25.5 23t29.5 12t29.5 3.5t29 -3 t29 -11.5t25.5 -23t17.5 -37.5l114 -406h46z"/>
<glyph glyph-name="afii10070" horiz-adv-x="544" unicode="е" d="M403 323q0 85 -32.5 121t-98.5 36q-65 0 -99.5 -38t-34.5 -119v-9h265v9zM492 269q0 -22 -19 -22h-335v-14q0 -89 35 -126t104 -37q44 0 93.5 3t84.5 8q9 2 15 -1.5t6 -12.5v-34q0 -10 -4 -15.5t-16 -7.5q-43 -8 -85.5 -12.5t-93.5 -4.5q-43 0 -84 11.5t-72.5 39 t-51 73.5t-19.5 116v90q0 108 57 171t165 63q55 0 96 -16.5t68.5 -47t41.5 -74t14 -96.5v-54z"/>
<glyph glyph-name="afii10072" horiz-adv-x="768" unicode="ж" d="M733 13q0 -13 -11 -13h-72q-8 0 -12.5 2.5t-10.5 10.5l-199 246v-239q0 -8 -6 -14t-14 -6h-48q-8 0 -14 6t-6 14v239l-199 -246q-6 -8 -10 -10.5t-13 -2.5h-72q-11 0 -11 13q0 6 3 9l222 268l-220 238q-5 5 -5 11q0 11 15 11h70q8 0 11.5 -2t8.5 -7l200 -225v214 q0 8 6 14t14 6h48q8 0 14 -6t6 -14v-214l200 225q5 5 8.5 7t11.5 2h70q15 0 15 -11q0 -6 -5 -11l-220 -238l222 -268q3 -3 3 -9z"/>
<glyph glyph-name="afii10073" horiz-adv-x="506" unicode="з" d="M446 159q0 -43 -17 -74t-46.5 -51.5t-69.5 -30.5t-87 -10q-41 0 -78 3.5t-68 9.5q-6 2 -13 5t-7 13v35q0 12 6.5 15t14.5 2q38 -5 76.5 -7t68.5 -2q69 0 99 20.5t30 71.5v9q0 36 -21 59.5t-76 23.5h-156q-19 0 -19 17v34q0 17 19 17h156q30 0 48.5 7t29.5 18t15 26t4 31 v8q0 43 -29 58.5t-101 15.5q-38 0 -70 -2.5t-74 -6.5q-8 -1 -14.5 2t-6.5 15v35q0 10 6.5 13t13.5 5q31 6 68 9.5t78 3.5q48 0 88 -7t69.5 -23.5t46 -45.5t16.5 -72v-8q0 -32 -18.5 -64.5t-56.5 -51.5q22 -11 36.5 -24.5t23 -29t12 -31.5t3.5 -32v-9z"/>
<glyph glyph-name="afii10074" horiz-adv-x="577" unicode="и" d="M68 531q0 19 18 19h52q8 0 13 -4.5t5 -14.5v-392q0 -2 1 -2.5t2 1.5l233 392q8 14 16.5 17t24.5 3h52q14 0 19 -5.5t5 -22.5v-502q0 -9 -5 -14.5t-13 -5.5h-52q-8 0 -13 5.5t-5 13.5v390q0 7 -4 1l-232 -394q-6 -11 -13 -13.5t-19 -2.5h-56q-12 0 -20.5 8.5t-8.5 20.5 v502z"/>
<glyph glyph-name="afii10075" horiz-adv-x="577" unicode="й" d="M68 29v502q0 19 18 19h52q8 0 13 -4.5t5 -14.5v-392q0 -2 1 -2.5t2 1.5l233 392q8 14 16.5 17t24.5 3h52q14 0 19 -5.5t5 -22.5v-502q0 -9 -5 -14.5t-13 -5.5h-52q-8 0 -13 5.5t-5 13.5v390q0 7 -4 1l-232 -394q-6 -11 -13 -13.5t-19 -2.5h-56q-12 0 -20.5 8.5t-8.5 20.5 zM430 703.5q-16 -29.5 -38.5 -47t-51 -26.5t-57.5 -9t-57.5 9t-51 26.5t-37 44t-17.5 61.5v4q0 4 1.5 8.5t9.5 4.5h37q14 0 15 -16q2 -20 11.5 -35t23 -25t30.5 -15t35 -5t35 5t30.5 15t23 25t11.5 35q1 16 15 16h37q8 0 9.5 -4.5t1.5 -8.5q0 -33 -16 -62.5z"/>
<glyph glyph-name="afii10076" horiz-adv-x="496" unicode="к" d="M461 13q0 -13 -11 -13h-72q-8 0 -12.5 2.5t-10.5 10.5l-199 246v-239q0 -8 -6 -14t-14 -6h-48q-8 0 -14 6t-6 14v510q0 8 6 14t14 6h48q8 0 14 -6t6 -14v-214l200 225q5 5 8.5 7t11.5 2h70q15 0 15 -11q0 -6 -5 -11l-220 -238l222 -268q3 -3 3 -9z"/>
<glyph glyph-name="afii10077" horiz-adv-x="538" unicode="л" d="M289 460q-5 18 -19 18q-15 0 -20 -18l-121 -445q-2 -7 -7 -11t-11 -4h-59q-17 0 -17 16q0 5 1 7l132 458q6 23 18 37t25 24q13 8 29 12t30 3q14 0 29 -3q15 -4 29 -12t26 -22t17 -38l131 -459q1 -2 1 -7q0 -16 -17 -16h-59q-7 0 -11 4t-6 11z"/>
<glyph glyph-name="afii10078" horiz-adv-x="663" unicode="м" d="M595 20q0 -8 -6 -14t-14 -6h-46q-8 0 -14 6t-6 14v421l-115 -210q-7 -12 -16.5 -18t-26.5 -6h-39q-17 0 -26.5 6t-16.5 18l-115 210v-421q0 -8 -6 -14t-14 -6h-46q-8 0 -14 6t-6 14v510q0 8 6 14t14 6h65q12 0 19.5 -3t12.5 -12l141 -256q3 -6 5 -6q3 0 6 6l141 256 q5 9 12.5 12t19.5 3h65q8 0 14 -6t6 -14v-510z"/>
<glyph glyph-name="afii10079" horiz-adv-x="577" unicode="н" d="M509 20q0 -8 -6 -14t-14 -6h-48q-8 0 -14 6t-6 14v223h-265v-223q0 -8 -6 -14t-14 -6h-48q-8 0 -14 6t-6 14v510q0 8 6 14t14 6h48q8 0 14 -6t6 -14v-212h265v212q0 8 6 14t14 6h48q8 0 14 -6t6 -14v-510z"/>
<glyph glyph-name="afii10080" horiz-adv-x="545" unicode="о" d="M407 313q0 77 -32 122t-103 45q-70 0 -102 -44.5t-32 -122.5v-76q0 -77 31.5 -122t102.5 -45q70 0 102.5 44.5t32.5 122.5v76zM495 237q0 -55 -14 -100t-42 -77t-70 -49.5t-97 -17.5t-96.5 17.5t-69.5 49.5t-42 77t-14 100v76q0 55 14 100t42 77t69.5 49.5t96.5 17.5 t97 -17.5t70 -49.5t42 -77t14 -100v-76z"/>
<glyph glyph-name="afii10081" horiz-adv-x="577" unicode="п" d="M509 20q0 -8 -6 -14t-14 -6h-48q-8 0 -14 6t-6 14v416q0 23 -7.5 30.5t-30.5 7.5h-189q-23 0 -30.5 -7.5t-7.5 -30.5v-416q0 -8 -6 -14t-14 -6h-48q-8 0 -14 6t-6 14v416q0 43 13 66t32.5 33.5t41.5 12.5t39 2h189q17 0 39 -2t41.5 -12.5t32.5 -33.5t13 -66v-416z"/>
<glyph glyph-name="afii10082" horiz-adv-x="541" unicode="р" d="M403 310q0 39 -6.5 71t-21.5 54.5t-40 35t-62 12.5q-32 0 -64 -3t-53 -7v-396q25 -5 59 -7.5t58 -2.5q37 0 62 11.5t40 33.5t21.5 54t6.5 72v72zM491 238q0 -118 -54 -181.5t-164 -63.5q-23 0 -55.5 3t-61.5 8v-181q0 -8 -5.5 -13.5t-13.5 -5.5h-51q-8 0 -13 5.5t-5 13.5 v688q0 10 3.5 15t17.5 8q40 10 89 16.5t95 6.5q56 0 97 -17.5t68 -50t40 -78t13 -101.5v-72z"/>
<glyph glyph-name="afii10083" horiz-adv-x="452" unicode="с" d="M408 26q0 -10 -4 -15t-16 -7q-25 -5 -57.5 -8t-67.5 -3q-51 0 -90.5 17.5t-67 49t-41.5 76.5t-14 100v78q0 55 14 100t41 76.5t67 49t91 17.5q35 0 67.5 -3t57.5 -8q12 -2 16 -6.5t4 -15.5v-36q0 -8 -6.5 -12t-14.5 -3q-33 4 -60 5.5t-64 1.5q-60 0 -92.5 -40.5 t-32.5 -125.5v-78q0 -85 32 -125.5t93 -40.5q37 0 64 1.5t60 5.5q8 1 14.5 -3t6.5 -12v-36z"/>
<glyph glyph-name="afii10084" horiz-adv-x="528" unicode="т" d="M493 497q0 -8 -6 -14t-14 -6h-165v-457q0 -8 -6 -14t-14 -6h-48q-8 0 -14 6t-6 14v457h-165q-8 0 -14 6t-6 14v33q0 8 6 14t14 6h418q8 0 14 -6t6 -14v-33z"/>
<glyph glyph-name="afii10085" horiz-adv-x="534" unicode="у" d="M329 -50q-12 -41 -25.5 -69t-34.5 -45.5t-50.5 -25.5t-72.5 -8q-21 0 -44.5 2.5t-39.5 6.5q-9 2 -15 5t-6 11v37q0 16 18 16h4q17 -2 44.5 -4t44.5 -2q21 0 37 3.5t27.5 13t20 26t14.5 42.5l10 41h-14q-11 0 -21.5 2t-20 9t-17.5 21t-15 37l-133 457q-1 4 -1 8 q0 5 3.5 10.5t14.5 5.5h55q6 0 10.5 -5t6.5 -11l118 -434q4 -15 9 -18.5t10 -3.5h16l122 457q2 6 7 10.5t12 4.5h56q9 0 12.5 -5.5t3.5 -10.5q0 -4 -1 -8z"/>
<glyph glyph-name="afii10086" horiz-adv-x="830" unicode="ф" d="M268 67q17 0 47 2t56 5v404q-20 2 -44.5 3.5t-50.5 1.5q-40 0 -66.5 -12t-42.5 -34.5t-22.5 -54.5t-6.5 -72v-72q0 -40 6.5 -72t21.5 -54t40 -33.5t62 -11.5zM554 483q-26 0 -50.5 -1.5t-44.5 -3.5v-404q26 -3 55.5 -5t47.5 -2q37 0 62 11.5t40 33.5t21.5 54t6.5 72v72 q0 40 -6.5 72t-22.5 54.5t-42.5 34.5t-66.5 12zM459 552q26 3 51 4t42 1q63 0 106.5 -17.5t70.5 -50t39 -78t12 -101.5v-72q0 -118 -54.5 -181.5t-163.5 -63.5q-19 0 -48 2.5t-55 5.5v-178q0 -8 -5.5 -13.5t-13.5 -5.5h-51q-8 0 -13 5.5t-5 13.5v178q-27 -3 -55.5 -5.5 t-47.5 -2.5q-109 0 -163.5 63.5t-54.5 181.5v72q0 56 12 101.5t39 78t70.5 50t106.5 17.5q16 0 41.5 -1t51.5 -4v180q0 8 6 14t14 6h48q8 0 14 -6t6 -14v-180z"/>
<glyph glyph-name="afii10087" horiz-adv-x="547" unicode="х" d="M507 23q4 -7 4 -13q0 -10 -13 -10h-69q-9 0 -14 8l-143 209l-143 -207q-5 -7 -7.5 -8.5t-9.5 -1.5h-60q-12 0 -12 10q0 6 5 13l180 257l-170 245q-8 11 -4 18t14 7h65q6 0 10.5 -3t9.5 -11l127 -188l128 188q7 10 10.5 12t10.5 2h58q10 0 12.5 -7.5t-4.5 -17.5l-168 -239 z"/>
<glyph glyph-name="afii10088" horiz-adv-x="584" unicode="ц" d="M421 530q0 8 6 14t14 6h48q8 0 14 -6t6 -14v-417q0 -20 -4 -37h39q8 0 14 -5.5t6 -13.5v-146q0 -8 -6 -14t-14 -6h-47q-8 0 -14 6t-6 14v89h-283q-17 0 -39 2t-41.5 12.5t-32.5 33.5t-13 66v416q0 8 6 14t14 6h48q8 0 14 -6t6 -14v-416q0 -23 7.5 -30.5t30.5 -7.5h189 q23 0 30.5 7.5t7.5 30.5v416z"/>
<glyph glyph-name="afii10089" horiz-adv-x="545" unicode="ч" d="M477 20q0 -8 -6 -14t-14 -6h-48q-8 0 -14 6t-6 14v205q-31 -5 -72 -9t-74 -4q-39 0 -74.5 6.5t-61.5 24.5t-41.5 49t-15.5 80v158q0 8 6 14t14 6h48q8 0 14 -6t6 -14v-158q0 -26 6 -43.5t20.5 -27.5t38 -14t58.5 -4q9 0 26.5 1t36.5 2.5t36.5 3.5t28.5 4v236q0 8 6 14 t14 6h48q8 0 14 -6t6 -14v-510z"/>
<glyph glyph-name="afii10090" horiz-adv-x="810" unicode="ш" d="M742 114q0 -43 -13 -66t-32.5 -33.5t-41.5 -12.5t-39 -2h-422q-17 0 -39 2t-41.5 12.5t-32.5 33.5t-13 66v416q0 8 6 14t14 6h48q8 0 14 -6t6 -14v-416q0 -23 7.5 -30.5t30.5 -7.5h167v454q0 8 6 14t14 6h48q8 0 14 -6t6 -14v-454h167q23 0 30.5 7.5t7.5 30.5v416 q0 8 6 14t14 6h48q8 0 14 -6t6 -14v-416z"/>
<glyph glyph-name="afii10091" horiz-adv-x="822" unicode="щ" d="M742 113q0 -14 -1 -22t-3 -15h39q8 0 14 -5.5t6 -13.5v-146q0 -8 -6 -14t-14 -6h-47q-8 0 -14 6t-6 14v89h-516q-17 0 -39 2t-41.5 12.5t-32.5 33.5t-13 66v416q0 8 6 14t14 6h48q8 0 14 -6t6 -14v-416q0 -23 7.5 -30.5t30.5 -7.5h167v454q0 8 6 14t14 6h48q8 0 14 -6 t6 -14v-454h167q23 0 30.5 7.5t7.5 30.5v416q0 8 6 14t14 6h48q8 0 14 -6t6 -14v-417z"/>
<glyph glyph-name="afii10092" horiz-adv-x="595" unicode="ъ" d="M466 169q0 51 -43 71.5t-124 20.5q-23 0 -46 -1t-45 -2v-186q22 -1 45 -2t46 -1q81 0 124 20.5t43 71.5v8zM555 161q0 -47 -19 -79t-53 -52t-80.5 -28.5t-100.5 -8.5q-44 0 -86 1.5t-67 4.5q-15 2 -22 8t-7 20v447h-85q-8 0 -14 6t-6 14v36q0 8 6 14t14 6h153q8 0 14 -6 t6 -14v-195q22 1 46 1.5t48 0.5q54 0 100.5 -8.5t80.5 -28.5t53 -52t19 -79v-8z"/>
<glyph glyph-name="afii10093" horiz-adv-x="747" unicode="ы" d="M414 169q0 51 -43 71.5t-124 20.5q-23 0 -46 -1t-45 -2v-186q22 -1 45 -2t46 -1q81 0 124 20.5t43 71.5v8zM503 161q0 -47 -19 -79t-53 -52t-80.5 -28.5t-100.5 -8.5q-44 0 -86 1.5t-67 4.5q-15 2 -22 8t-7 20v503q0 8 6 14t14 6h48q8 0 14 -6t6 -14v-195q22 1 46 1.5 t48 0.5q54 0 100.5 -8.5t80.5 -28.5t53 -52t19 -79v-8zM669 20q0 -8 -6 -14t-14 -6h-48q-8 0 -14 6t-6 14v510q0 8 6 14t14 6h48q8 0 14 -6t6 -14v-510z"/>
<glyph glyph-name="afii10094" horiz-adv-x="543" unicode="ь" d="M414 169q0 51 -43 71.5t-124 20.5q-23 0 -46 -1t-45 -2v-186q22 -1 45 -2t46 -1q81 0 124 20.5t43 71.5v8zM503 161q0 -47 -19 -79t-53 -52t-80.5 -28.5t-100.5 -8.5q-44 0 -86 1.5t-67 4.5q-15 2 -22 8t-7 20v503q0 8 6 14t14 6h48q8 0 14 -6t6 -14v-195q22 1 46 1.5 t48 0.5q54 0 100.5 -8.5t80.5 -28.5t53 -52t19 -79v-8z"/>
<glyph glyph-name="afii10095" horiz-adv-x="452" unicode="э" d="M44 62q0 16 21 15q34 -3 59.5 -5t57.5 -2q132 0 132 166v6h-207q-8 0 -14 6t-6 14v35q0 8 6 14t14 6h207q-1 84 -34 123.5t-98 39.5q-32 0 -58 -1.5t-59 -5.5q-21 -2 -21 15v36q0 11 4 15.5t16 6.5q25 5 57.5 8t67.5 3q54 0 94 -17.5t66.5 -49t39.5 -76.5t13 -100v-78 q0 -55 -13.5 -100t-40 -76.5t-66.5 -49t-93 -17.5q-35 0 -67.5 3t-57.5 8q-12 2 -16 7t-4 15v36z"/>
<glyph glyph-name="afii10096" horiz-adv-x="772" unicode="ю" d="M634 313q0 77 -32 122t-103 45q-70 0 -102 -44.5t-32 -122.5v-76q0 -77 31.5 -122t102.5 -45q70 0 102.5 44.5t32.5 122.5v76zM722 237q0 -55 -14 -100t-42 -77t-70 -49.5t-97 -17.5t-96.5 17.5t-69.5 49.5t-42 77t-14 100v7h-121v-224q0 -8 -6 -14t-14 -6h-48 q-8 0 -14 6t-6 14v510q0 8 6 14t14 6h48q8 0 14 -6t6 -14v-213h121q0 54 14.5 98.5t42 76t69 48.5t96.5 17t97 -17.5t70 -49.5t42 -77t14 -100v-76z"/>
<glyph glyph-name="afii10097" horiz-adv-x="539" unicode="я" d="M383 483q-17 2 -35 2h-37q-80 0 -118.5 -20t-38.5 -71v-5q0 -56 39 -75.5t118 -19.5q14 0 29.5 0.5t42.5 1.5v187zM471 20q0 -8 -6 -14t-14 -6h-48q-8 0 -14 6t-6 14v205q-16 0 -25.5 -0.5t-16.5 -1t-13.5 -0.5h-16.5h-20l-149 -211q-6 -8 -12 -10t-14 -2h-55 q-11 0 -13.5 6t-2.5 9q0 5 3 9l151 209q-60 14 -95.5 54t-35.5 102v5q0 46 19 77.5t52 50.5t77.5 27t94.5 8q38 0 72.5 -1.5t62.5 -4.5q12 -2 18.5 -6t6.5 -15v-510z"/>
<glyph glyph-name="afii10071" horiz-adv-x="544" unicode="ё" d="M403 323q0 85 -32.5 121t-98.5 36q-65 0 -99.5 -38t-34.5 -119v-9h265v9zM492 269q0 -22 -19 -22h-335v-14q0 -89 35 -126t104 -37q44 0 93.5 3t84.5 8q8 2 14.5 -1.5t6.5 -12.5v-34q0 -10 -4 -15.5t-16 -7.5q-43 -8 -85.5 -12.5t-93.5 -4.5q-43 0 -84 11.5t-72.5 39 t-51 73.5t-19.5 116v90q0 108 57 171t165 63q55 0 96 -16.5t68.5 -47t41.5 -74t14 -96.5v-54zM228 660q0 -8 -6 -13.5t-14 -5.5h-39q-8 0 -14 5.5t-6 13.5v81q0 8 6 14t14 6h39q8 0 14 -6t6 -14v-81zM403 660q0 -8 -6 -13.5t-14 -5.5h-39q-8 0 -14 5.5t-6 13.5v81q0 8 6 14 t14 6h39q8 0 14 -6t6 -14v-81z"/>
<glyph glyph-name="afii10099" horiz-adv-x="557" unicode="ђ" d="M489 24q0 -54 -4.5 -90t-18.5 -62q-19 -34 -53.5 -52t-88.5 -18q-10 0 -16.5 0.5t-12 1l-11 1t-14.5 1.5q-8 1 -14 6.5t-6 13.5v30q0 8 4.5 14.5t15.5 5.5q18 -1 25.5 -1.5t18.5 -0.5q34 0 50.5 8t24.5 28q7 17 9.5 44t2.5 70v325q0 75 -29 103t-78 28q-12 0 -28.5 -1.5 t-35.5 -5t-38.5 -9t-35.5 -12.5v-432q0 -8 -6 -14t-14 -6h-49q-8 0 -13.5 6t-5.5 14v601h-55q-8 0 -14 6t-6 14v22q0 8 6 14t14 6h55v49q0 8 5.5 14t13.5 6h50q8 0 13.5 -6t5.5 -14v-49h133q8 0 14 -6t6 -14v-22q0 -8 -6 -14t-14 -6h-133v-95q36 16 78.5 23.5t74.5 7.5 q40 0 73 -12t57 -37t37 -64.5t13 -94.5v-325z"/>
<glyph glyph-name="afii10100" horiz-adv-x="409" unicode="ѓ" d="M194 474q-23 0 -30.5 -7.5t-7.5 -30.5v-416q0 -8 -6 -14t-14 -6h-48q-8 0 -14 6t-6 14v416q0 43 13 66t32.5 33.5t41.5 12.5t39 2h175q8 0 14 -6t6 -14v-36q0 -8 -6 -14t-14 -6h-175zM254 638q-7 -8 -11 -11.5t-12 -3.5h-54q-9 0 -9 7q0 4 4 10l98 124q7 8 11 11.5 t13 3.5h66q8 0 9.5 -2.5t1.5 -4.5q0 -3 -4 -8z"/>
<glyph glyph-name="afii10101" horiz-adv-x="452" unicode="є" d="M408 26q0 -10 -4 -15t-16 -7q-25 -5 -57.5 -8t-67.5 -3q-53 0 -93 17.5t-66.5 49t-40 76.5t-13.5 100v78q0 55 13 100t39.5 76.5t66.5 49t94 17.5q35 0 67.5 -3t57.5 -8q12 -2 16 -6.5t4 -15.5v-36q0 -8 -6.5 -12t-14.5 -3q-33 4 -59 5.5t-58 1.5q-65 0 -98 -39.5 t-34 -123.5h207q8 0 14 -6t6 -14v-35q0 -8 -6 -14t-14 -6h-207v-6q0 -166 132 -166q32 0 58 1.5t59 5.5q8 1 14.5 -3t6.5 -12v-36z"/>
<glyph glyph-name="afii10102" horiz-adv-x="466" unicode="ѕ" d="M416 138q0 -38 -13.5 -65.5t-38 -45t-59 -26t-76.5 -8.5q-14 0 -33.5 0.5t-41 2.5t-43.5 4.5t-40 7.5q-21 5 -21 20v35q0 8 6.5 12.5t15.5 2.5q18 -2 39.5 -4t43.5 -3.5t41 -2.5t33 -1q49 0 74 15t25 56q0 23 -16 40t-59 43l-101 60q-46 28 -74 61.5t-28 81.5 q0 39 14 64.5t38 41t57 21.5t72 6q42 0 81.5 -3.5t74.5 -9.5q19 -3 19 -20v-33q0 -19 -20 -17q-26 2 -69.5 5t-85.5 3t-67.5 -10t-25.5 -48q0 -23 17 -39.5t52 -36.5l99 -59q62 -37 86 -72t24 -79z"/>
<glyph glyph-name="afii10103" horiz-adv-x="247" unicode="і" d="M167 20q0 -8 -6 -14t-14 -6h-48q-8 0 -14 6t-6 14v510q0 8 6 14t14 6h48q8 0 14 -6t6 -14v-510zM169 658q0 -8 -6 -14t-14 -6h-51q-8 0 -14 6t-6 14v80q0 8 6 14t14 6h51q8 0 14 -6t6 -14v-80z"/>
<glyph glyph-name="afii10104" horiz-adv-x="247" unicode="ї" d="M167 20q0 -8 -6 -14t-14 -6h-48q-8 0 -14 6t-6 14v510q0 8 6 14t14 6h48q8 0 14 -6t6 -14v-510zM75 660q0 -8 -6 -13.5t-14 -5.5h-39q-8 0 -14 5.5t-6 13.5v81q0 8 6 14t14 6h39q8 0 14 -6t6 -14v-81zM250 660q0 -8 -6 -13.5t-14 -5.5h-39q-8 0 -14 5.5t-6 13.5v81 q0 8 6 14t14 6h39q8 0 14 -6t6 -14v-81z"/>
<glyph glyph-name="afii10105" horiz-adv-x="247" unicode="ј" d="M167 -64q0 -39 -8.5 -64.5t-24 -41t-39 -21.5t-53.5 -6q-15 0 -27 1t-27 3q-18 3 -18 16v37q0 14 21 14h41q29 0 38 12t9 50v594q0 8 5 14t13 6h52q8 0 13 -6t5 -14v-594zM169 657q0 -8 -6 -13.5t-14 -5.5h-51q-8 0 -14 5.5t-6 13.5v81q0 8 6 14t14 6h51q8 0 14 -6t6 -14 v-81z"/>
<glyph glyph-name="afii10106" horiz-adv-x="817" unicode="љ" d="M410 550q8 0 14 -6t6 -14v-195q22 1 46 1.5t48 0.5q54 0 100.5 -8.5t80.5 -28.5t53 -52t19 -79v-8q0 -47 -19 -79t-53 -52t-80.5 -28.5t-100.5 -8.5q-44 0 -90 2.5t-72 4.5q-8 1 -14 6.5t-6 13.5v451h-79q-15 0 -20 -18l-119 -438q-2 -6 -7 -10.5t-11 -4.5h-59 q-17 0 -17 16q0 5 1 7l130 451q6 23 17.5 37.5t25.5 23t29.5 12t29.5 3.5h147zM688 169q0 51 -43 71.5t-124 20.5q-23 0 -46 -1t-45 -2v-186q22 -1 45 -2t46 -1q81 0 124 20.5t43 71.5v8z"/>
<glyph glyph-name="afii10107" horiz-adv-x="875" unicode="њ" d="M746 169q0 51 -43 71.5t-124 20.5q-23 0 -46 -1t-45 -2v-186q22 -1 45 -2t46 -1q81 0 124 20.5t43 71.5v8zM835 161q0 -47 -19 -79t-53 -52t-80.5 -28.5t-100.5 -8.5q-44 0 -86 1.5t-67 4.5q-15 2 -22 8t-7 20v217h-244v-224q0 -8 -6 -14t-14 -6h-48q-8 0 -14 6t-6 14 v510q0 8 6 14t14 6h48q8 0 14 -6t6 -14v-213h244v213q0 8 6 14t14 6h48q8 0 14 -6t6 -14v-195q22 1 46 1.5t48 0.5q54 0 100.5 -8.5t80.5 -28.5t53 -52t19 -79v-8z"/>
<glyph glyph-name="afii10108" horiz-adv-x="557" unicode="ћ" d="M489 20q0 -8 -6 -14t-14 -6h-48q-8 0 -14 6t-6 14v329q0 75 -29 103t-78 28q-12 0 -28.5 -1.5t-35.5 -5t-38.5 -9t-35.5 -12.5v-432q0 -8 -6 -14t-14 -6h-49q-8 0 -13.5 6t-5.5 14v601h-55q-8 0 -14 6t-6 14v22q0 8 6 14t14 6h55v49q0 8 5.5 14t13.5 6h50q8 0 13.5 -6 t5.5 -14v-49h133q8 0 14 -6t6 -14v-22q0 -8 -6 -14t-14 -6h-133v-95q36 16 78.5 23.5t74.5 7.5q40 0 73 -12t57 -37t37 -64.5t13 -94.5v-329z"/>
<glyph glyph-name="afii10109" horiz-adv-x="496" unicode="ќ" d="M461 13q0 -13 -11 -13h-72q-8 0 -12.5 2.5t-10.5 10.5l-199 246v-239q0 -8 -6 -14t-14 -6h-48q-8 0 -14 6t-6 14v510q0 8 6 14t14 6h48q8 0 14 -6t6 -14v-214l200 225q5 5 8.5 7t11.5 2h70q15 0 15 -11q0 -6 -5 -11l-220 -238l222 -268q3 -3 3 -9zM274 638 q-7 -8 -11 -11.5t-12 -3.5h-54q-9 0 -9 7q0 4 4 10l98 124q7 8 11 11.5t13 3.5h66q8 0 9.5 -2.5t1.5 -4.5q0 -3 -4 -8z"/>
<glyph glyph-name="afii10110" horiz-adv-x="534" unicode="ў" d="M329 -50q-12 -41 -25.5 -69t-34.5 -45.5t-50.5 -25.5t-72.5 -8q-21 0 -44.5 2.5t-39.5 6.5q-9 2 -15 5t-6 11v37q0 16 18 16h4q17 -2 44.5 -4t44.5 -2q21 0 37 3.5t27.5 13t20 26t14.5 42.5l10 41h-14q-11 0 -21.5 2t-20 9t-17.5 21t-15 37l-133 457q-1 4 -1 8 q0 5 3.5 10.5t14.5 5.5h55q6 0 10.5 -5t6.5 -11l118 -434q4 -15 9 -18.5t10 -3.5h16l122 457q2 6 7 10.5t12 4.5h56q9 0 12.5 -5.5t3.5 -10.5q0 -4 -1 -8zM414 703.5q-16 -29.5 -38.5 -47t-51 -26.5t-57.5 -9t-57.5 9t-51 26.5t-37 44t-17.5 61.5v4q0 4 1.5 8.5t9.5 4.5h37 q14 0 15 -16q2 -20 11.5 -35t23 -25t30.5 -15t35 -5t35 5t30.5 15t23 25t11.5 35q1 16 15 16h37q8 0 9.5 -4.5t1.5 -8.5q0 -33 -16 -62.5z"/>
<glyph glyph-name="afii10193" horiz-adv-x="577" unicode="џ" d="M509 114q0 -43 -13 -66t-32.5 -33.5t-41.5 -12.5t-39 -2h-51v-89q0 -8 -6 -14t-14 -6h-47q-8 0 -14 6t-6 14v89h-51q-17 0 -39 2t-41.5 12.5t-32.5 33.5t-13 66v416q0 8 6 14t14 6h48q8 0 14 -6t6 -14v-416q0 -23 7.5 -30.5t30.5 -7.5h189q23 0 30.5 7.5t7.5 30.5v416 q0 8 6 14t14 6h48q8 0 14 -6t6 -14v-416z"/>
<glyph glyph-name="afii10050" horiz-adv-x="536" unicode="Ґ" d="M496 680q0 -12 -11 -12h-193q-40 0 -64 -5.5t-37 -18t-17.5 -32.5t-4.5 -48v-544q0 -8 -6 -14t-14 -6h-51q-8 0 -14 6t-6 14v544q0 100 53.5 143t159.5 43q24 0 55 -0.5t60 -1.5v57q0 8 5 13.5t13 5.5h54q8 0 13 -5.5t5 -13.5v-125z"/>
<glyph glyph-name="afii10098" horiz-adv-x="409" unicode="ґ" d="M389 494q0 -8 -6 -14t-14 -6h-175q-23 0 -30.5 -7.5t-7.5 -30.5v-416q0 -8 -6 -14t-14 -6h-48q-8 0 -14 6t-6 14v416q0 43 13 66t32.5 33.5t41.5 12.5t39 2h107v62q0 8 6 14t14 6h48q8 0 14 -6t6 -14v-118z"/>
<glyph glyph-name="Wgrave" horiz-adv-x="825" unicode="Ẁ" d="M484 801q0 -7 -9 -7h-54q-8 0 -12 3.5t-11 11.5l-113 126q-4 4 -4 8q0 7 11 7h66q9 0 13.5 -3.5t11.5 -11.5l97 -124q4 -4 4 -10zM791 723l-111 -676q-5 -31 -21.5 -41t-40.5 -10h-43q-21 0 -36 13.5t-21 36.5l-98 370q-2 7 -3 8t-3 1h-1h-1q-2 0 -3 -1t-3 -8l-99 -370 q-6 -23 -21 -36.5t-36 -13.5h-42q-24 0 -40.5 10t-21.5 41l-111 676v3q0 17 17 17h58q14 0 17 -17l97 -637q2 -8 2 -11.5t3 -3.5q4 0 7 15l98 370q10 40 47 40h64q37 0 47 -40l98 -370q3 -15 7 -15q3 0 3 3.5t2 11.5l97 637q3 17 17 17h58q17 0 17 -17v-3z"/>
<glyph glyph-name="wgrave" horiz-adv-x="786" unicode="ẁ" d="M464 630q0 -7 -9 -7h-54q-8 0 -12 3.5t-11 11.5l-113 126q-4 4 -4 8q0 7 11 7h66q9 0 13.5 -3.5t11.5 -11.5l97 -124q4 -4 4 -10zM748 526l-97 -464q-5 -24 -10 -37.5t-14 -20.5t-23.5 -9t-36.5 -2q-20 0 -33 2.5t-22 10t-15 21.5t-12 38l-87 340q-2 5 -2.5 6t-2.5 1 t-2.5 -1t-2.5 -6l-87 -340q-6 -22 -12 -36t-15 -22t-22.5 -11t-32.5 -3q-23 0 -37 2t-23 9t-14 21t-10 37l-97 464v4q0 8 5.5 14t13.5 6h54q7 0 11.5 -5t5.5 -11l83 -456q2 -9 4 -10.5t4 -1.5q5 0 8 12l98 384q5 17 14.5 23.5t25.5 6.5h56q16 0 25.5 -6.5t14.5 -23.5 l98 -384q3 -12 8 -12q2 0 4 1.5t4 10.5l83 456q1 6 5.5 11t11.5 5h54q8 0 13.5 -6t5.5 -14v-4z"/>
<glyph glyph-name="Wacute" horiz-adv-x="825" unicode="Ẃ" d="M559 944q0 -4 -4 -8l-113 -126q-7 -8 -11 -11.5t-12 -3.5h-54q-9 0 -9 7q0 6 4 10l98 124q7 8 11 11.5t13 3.5h66q11 0 11 -7zM791 723l-111 -676q-5 -31 -21.5 -41t-40.5 -10h-43q-21 0 -36 13.5t-21 36.5l-98 370q-2 7 -3 8t-3 1h-1h-1q-2 0 -3 -1t-3 -8l-99 -370 q-6 -23 -21 -36.5t-36 -13.5h-42q-24 0 -40.5 10t-21.5 41l-111 676v3q0 17 17 17h58q14 0 17 -17l97 -637q2 -8 2 -11.5t3 -3.5q4 0 7 15l98 370q10 40 47 40h64q37 0 47 -40l98 -370q3 -15 7 -15q3 0 3 3.5t2 11.5l97 637q3 17 17 17h58q17 0 17 -17v-3z"/>
<glyph glyph-name="wacute" horiz-adv-x="786" unicode="ẃ" d="M542 772q0 -4 -4 -8l-113 -126q-7 -8 -11 -11.5t-12 -3.5h-54q-9 0 -9 7q0 6 4 10l98 124q7 8 11 11.5t13 3.5h66q11 0 11 -7zM748 526l-97 -464q-5 -24 -10 -37.5t-14 -20.5t-23.5 -9t-36.5 -2q-20 0 -33 2.5t-22 10t-15 21.5t-12 38l-87 340q-2 5 -2.5 6t-2.5 1 t-2.5 -1t-2.5 -6l-87 -340q-6 -22 -12 -36t-15 -22t-22.5 -11t-32.5 -3q-23 0 -37 2t-23 9t-14 21t-10 37l-97 464v4q0 8 5.5 14t13.5 6h54q7 0 11.5 -5t5.5 -11l83 -456q2 -9 4 -10.5t4 -1.5q5 0 8 12l98 384q5 17 14.5 23.5t25.5 6.5h56q16 0 25.5 -6.5t14.5 -23.5 l98 -384q3 -12 8 -12q2 0 4 1.5t4 10.5l83 456q1 6 5.5 11t11.5 5h54q8 0 13.5 -6t5.5 -14v-4z"/>
<glyph glyph-name="Wdieresis" horiz-adv-x="825" unicode="Ẅ" d="M364 813q0 -8 -6 -13.5t-14 -5.5h-39q-8 0 -14 5.5t-6 13.5v81q0 8 6 14t14 6h39q8 0 14 -6t6 -14v-81zM539 813q0 -8 -6 -13.5t-14 -5.5h-39q-8 0 -14 5.5t-6 13.5v81q0 8 6 14t14 6h39q8 0 14 -6t6 -14v-81zM791 723l-111 -676q-5 -31 -21.5 -41t-40.5 -10h-43 q-21 0 -36 13.5t-21 36.5l-98 370q-2 7 -3 8t-3 1h-1h-1q-2 0 -3 -1t-3 -8l-99 -370q-6 -23 -21 -36.5t-36 -13.5h-42q-24 0 -40.5 10t-21.5 41l-111 676v3q0 17 17 17h58q14 0 17 -17l97 -637q2 -8 2 -11.5t3 -3.5q4 0 7 15l98 370q10 40 47 40h64q37 0 47 -40l98 -370 q3 -15 7 -15q3 0 3 3.5t2 11.5l97 637q3 17 17 17h58q17 0 17 -17v-3z"/>
<glyph glyph-name="wdieresis" horiz-adv-x="786" unicode="ẅ" d="M345 660q0 -8 -6 -13.5t-14 -5.5h-39q-8 0 -14 5.5t-6 13.5v81q0 8 6 14t14 6h39q8 0 14 -6t6 -14v-81zM520 660q0 -8 -6 -13.5t-14 -5.5h-39q-8 0 -14 5.5t-6 13.5v81q0 8 6 14t14 6h39q8 0 14 -6t6 -14v-81zM748 526l-97 -464q-5 -24 -10 -37.5t-14 -20.5t-23.5 -9 t-36.5 -2q-20 0 -33 2.5t-22 10t-15 21.5t-12 38l-87 340q-2 5 -2.5 6t-2.5 1t-2.5 -1t-2.5 -6l-87 -340q-6 -22 -12 -36t-15 -22t-22.5 -11t-32.5 -3q-23 0 -37 2t-23 9t-14 21t-10 37l-97 464v4q0 8 5.5 14t13.5 6h54q7 0 11.5 -5t5.5 -11l83 -456q2 -9 4 -10.5t4 -1.5 q5 0 8 12l98 384q5 17 14.5 23.5t25.5 6.5h56q16 0 25.5 -6.5t14.5 -23.5l98 -384q3 -12 8 -12q2 0 4 1.5t4 10.5l83 456q1 6 5.5 11t11.5 5h54q8 0 13.5 -6t5.5 -14v-4z"/>
<glyph glyph-name="Ygrave" horiz-adv-x="583" unicode="Ỳ" d="M356 801q0 -7 -9 -7h-54q-8 0 -12 3.5t-11 11.5l-113 126q-4 4 -4 8q0 7 11 7h66q9 0 13.5 -3.5t11.5 -11.5l97 -124q4 -4 4 -10zM549 729q0 -5 -3 -11l-155 -348q-14 -30 -27 -45t-27 -21v-284q0 -8 -5 -14t-13 -6h-55q-8 0 -13 6t-5 14v284q-14 5 -27 20.5t-27 45.5 l-154 348q-3 6 -3 11q0 14 17 14h61q5 0 10.5 -4.5t7.5 -9.5l138 -324q8 -17 13 -21.5t10 -4.5t10 4.5t13 21.5l139 324q2 5 6.5 9.5t10.5 4.5h61q17 0 17 -14z"/>
<glyph glyph-name="ygrave" horiz-adv-x="534" unicode="ỳ" d="M336 630q0 -7 -9 -7h-54q-8 0 -12 3.5t-11 11.5l-113 126q-4 4 -4 8q0 7 11 7h66q9 0 13.5 -3.5t11.5 -11.5l97 -124q4 -4 4 -10zM495 533q0 -5 -1 -7l-165 -576q-12 -41 -25.5 -69t-34.5 -45.5t-50.5 -25.5t-72.5 -8q-21 0 -44.5 2.5t-39.5 6.5q-9 2 -15 5t-6 11v37 q0 16 19 16h3q17 -2 44.5 -4t44.5 -2q21 0 37 3.5t27.5 13t20 26t14.5 42.5l10 41h-14q-11 0 -21.5 2t-20 9t-17.5 21t-15 37l-133 457q-1 2 -1 7q0 17 18 17h55q6 0 10.5 -5t6.5 -11l118 -434q4 -15 9 -18.5t10 -3.5h16l122 457q2 6 7 10.5t12 4.5h56q16 0 16 -17z"/>
<glyph glyph-name="endash" horiz-adv-x="310" unicode="–" d="M325 263q0 -17 -19 -17h-302q-19 0 -19 17v39q0 8 5.5 13t13.5 5h302q8 0 13.5 -5t5.5 -13v-39z"/>
<glyph glyph-name="emdash" horiz-adv-x="600" unicode="—" d="M615 263q0 -17 -19 -17h-592q-19 0 -19 17v39q0 8 5.5 13t13.5 5h592q8 0 13.5 -5t5.5 -13v-39z"/>
<glyph glyph-name="quoteleft" horiz-adv-x="186" unicode="‘" d="M157 742q0 -6 -1 -9l-37 -189q-4 -19 -20 -19h-59q-11 0 -11 11q0 5 1 8l61 189q5 19 19 19h38q9 0 9 -10z"/>
<glyph glyph-name="quoteright" horiz-adv-x="186" unicode="’" d="M157 741q0 -5 -1 -8l-61 -189q-5 -19 -19 -19h-38q-9 0 -9 10q0 6 1 9l37 189q4 19 20 19h59q11 0 11 -11z"/>
<glyph glyph-name="quotesinglbase" horiz-adv-x="186" unicode="‚" d="M169 118q0 -2 -2 -8l-75 -189q-4 -10 -7.5 -14.5t-11.5 -4.5h-41q-12 0 -12 12q0 5 1 7l57 189q6 19 20 19h58q13 0 13 -11z"/>
<glyph glyph-name="quotedblleft" horiz-adv-x="336" unicode="“" d="M157 742q0 -6 -1 -9l-37 -189q-4 -19 -20 -19h-59q-11 0 -11 11q0 5 1 8l61 189q5 19 19 19h38q9 0 9 -10zM307 742q0 -6 -1 -9l-37 -189q-4 -19 -20 -19h-59q-11 0 -11 11q0 5 1 8l61 189q5 19 19 19h38q9 0 9 -10z"/>
<glyph glyph-name="quotedblright" horiz-adv-x="336" unicode="”" d="M157 741q0 -5 -1 -8l-61 -189q-5 -19 -19 -19h-38q-9 0 -9 10q0 6 1 9l37 189q4 19 20 19h59q11 0 11 -11zM307 741q0 -5 -1 -8l-61 -189q-5 -19 -19 -19h-38q-9 0 -9 10q0 6 1 9l37 189q4 19 20 19h59q11 0 11 -11z"/>
<glyph glyph-name="quotedblbase" horiz-adv-x="336" unicode="„" d="M169 118q0 -2 -2 -8l-75 -189q-4 -10 -7.5 -14.5t-11.5 -4.5h-41q-12 0 -12 12q0 5 1 7l57 189q6 19 20 19h58q13 0 13 -11zM349 118q0 -2 -2 -8l-75 -189q-4 -10 -7.5 -14.5t-11.5 -4.5h-41q-12 0 -12 12q0 5 1 7l57 189q6 19 20 19h58q13 0 13 -11z"/>
<glyph glyph-name="bullet" horiz-adv-x="418" unicode="•" d="M368 367q0 -33 -12.5 -62t-34 -50.5t-50.5 -34t-62 -12.5t-62 12.5t-50.5 34t-34 50.5t-12.5 62t12.5 62t34 50.5t50.5 34t62 12.5t62 -12.5t50.5 -34t34 -50.5t12.5 -62z"/>
<glyph glyph-name="guilsinglleft" horiz-adv-x="354" unicode="‹" d="M300 79q0 -9 -11 -9h-58q-6 0 -10.5 2t-10.5 8l-169 169q-5 5 -8 13.5t-3 14.5t3 14.5t8 13.5l169 169q6 6 10.5 8t10.5 2h58q11 0 11 -9q0 -7 -6 -13l-178 -185l178 -185q6 -6 6 -13z"/>
<glyph glyph-name="guilsinglright" horiz-adv-x="354" unicode="›" d="M324 277q0 -6 -3 -14.5t-8 -13.5l-169 -169q-10 -10 -21 -10h-58q-11 0 -11 9q0 7 6 13l178 185l-178 185q-6 6 -6 13q0 9 11 9h58q6 0 10.5 -2t10.5 -8l169 -169q5 -5 8 -13.5t3 -14.5z"/>
</font>
</defs>
</svg>
