<?xml version="1.0" encoding="UTF-8" standalone="no"?>
<!DOCTYPE svg  PUBLIC '-//W3C//DTD SVG 1.1//EN'  'http://www.w3.org/Graphics/SVG/1.1/DTD/svg11.dtd'>
<svg xmlns="http://www.w3.org/2000/svg">
<defs>
<font id="NeoSansPro-Italic" horiz-adv-x="557">
<font-face slope="-12" underline-position="-21" font-weight="400" descent="-200" panose-1="2 11 5 4 3 5 4 11 2 4" units-per-em="1000" unicode-range="U+0020-2215" bbox="-200 -216 1459 980" x-height="550" underline-thickness="57" font-family="NeoSansPro" ascent="800" font-style="italic" cap-height="743"/>
<missing-glyph horiz-adv-x="1000"/>
<glyph glyph-name=".notdef" horiz-adv-x="1000"/>
<glyph glyph-name=".null" horiz-adv-x="0"/>
<glyph glyph-name="nonmarkingreturn" horiz-adv-x="1000"/>
<glyph glyph-name="space" horiz-adv-x="273" unicode=" "/>
<glyph glyph-name="exclam" horiz-adv-x="217" unicode="!" d="M172 113l-17 -94q-3 -19 -22 -19h-48q-16 0 -16 16v3l17 94q2 8 8 13.5t14 5.5h48q16 0 16 -16v-3zM283 733l-99 -520q-2 -8 -8.5 -13.5t-14.5 -5.5h-36q-16 0 -16 16v3l84 520q2 8 9 13.5t15 5.5h50q16 0 16 -16v-3z"/>
<glyph glyph-name="quotedbl" horiz-adv-x="362" unicode='&quot;' d="M294 744q0 -4 -3 -11l-91 -189q-5 -11 -9.5 -15t-12.5 -4h-47q-8 0 -8 7q0 6 3 12l79 189q8 19 24 19h56q9 0 9 -8zM464 744q0 -4 -3 -11l-91 -189q-5 -11 -9.5 -15t-12.5 -4h-47q-8 0 -8 7q0 6 3 12l79 189q8 19 24 19h56q9 0 9 -8z"/>
<glyph glyph-name="numbersign" horiz-adv-x="660" unicode="#" d="M341 469l-54 -202h155l54 202h-155zM701 517q0 -5 -1 -7l-6 -22q-5 -19 -23 -19h-97l-54 -202h98q13 0 13 -14q0 -5 -1 -7l-5 -21q-5 -19 -24 -19h-98l-49 -187q-2 -8 -7.5 -13.5t-13.5 -5.5h-44q-14 0 -14 14q0 1 0.5 2t0.5 3l49 187h-155l-49 -187q-2 -8 -7.5 -13.5 t-13.5 -5.5h-45q-14 0 -14 14q0 2 0.5 2.5t0.5 2.5l49 187h-93q-13 0 -13 14q0 5 1 7l6 21q5 19 23 19h93l54 202h-94q-7 0 -10.5 4.5t-3.5 10.5q0 4 1 6l6 22q5 19 24 19h93l51 193q2 8 8 13.5t14 5.5h45q13 0 13 -14q0 -1 -0.5 -2t-0.5 -3l-51 -193h155l51 193q2 8 8 13.5 t14 5.5h44q13 0 13 -13q0 -4 -1 -6l-51 -193h98q13 0 13 -14z"/>
<glyph glyph-name="dollar" horiz-adv-x="605" unicode="$" d="M634 720l-8 -43q-3 -16 -19 -16h-2q-33 0 -80 4.5t-91 4.5q-31 0 -61 -3.5t-53 -15.5t-37.5 -34.5t-14.5 -61.5q0 -30 22.5 -51.5t67.5 -51.5l82 -55q37 -25 61 -47t38 -43t19.5 -42t5.5 -43q0 -48 -17.5 -87t-47.5 -67.5t-70.5 -46.5t-85.5 -24l-16 -94q-2 -8 -9 -14 t-15 -6h-47q-16 0 -16 16v3v1l16 90q-44 1 -78 5t-63 9q-17 3 -17 12q0 2 0.5 3t0.5 3l8 41q3 16 19 16h2h1q17 -2 38 -3.5t43.5 -2.5t44 -2t38.5 -1q34 0 65.5 7t56 23.5t39 43t14.5 65.5q0 29 -22.5 54t-75.5 61l-87 59q-56 38 -81.5 76.5t-25.5 83.5q0 48 17 84t46 60 t67.5 38t82.5 19l14 86q2 8 9 14t15 6h47q16 0 16 -16v-3v-1l-14 -83q40 -2 80 -5.5t64 -7.5q14 -2 14 -14v-2v-1z"/>
<glyph glyph-name="percent" horiz-adv-x="794" unicode="%" d="M360 631q0 35 -15 49t-43 14q-32 0 -56 -24t-35 -81l-17 -93q-2 -12 -3 -22.5t-1 -19.5q0 -35 15.5 -49t43.5 -14q33 0 56.5 25t33.5 80l17 93q2 12 3 22.5t1 19.5zM735 290q0 35 -15 49t-43 14q-32 0 -56 -24t-35 -81l-17 -93q-2 -12 -3 -22.5t-1 -19.5q0 -35 15.5 -49 t43.5 -14q33 0 56.5 25t33.5 80l17 93q2 12 3 22.5t1 19.5zM422 635q0 -11 -1 -22.5t-3 -23.5l-17 -93q-16 -88 -56.5 -125t-105.5 -37q-51 0 -81 31t-30 88q0 10 1 21t3 22l17 93q16 87 57 124t106 37q52 0 81 -29t29 -86zM780 738q0 -6 -7 -14l-543 -708q-8 -11 -13 -15.5 t-13 -4.5h-49q-8 0 -8 6t6 14l543 708q8 11 13 15t13 4h51q7 0 7 -5zM797 294q0 -11 -1 -22.5t-3 -23.5l-17 -93q-16 -88 -56.5 -125t-105.5 -37q-51 0 -81 31t-30 88q0 10 1 21t3 22l17 93q16 87 57 124t106 37q52 0 81 -29t29 -86z"/>
<glyph glyph-name="ampersand" horiz-adv-x="678" unicode="&amp;" d="M307 326q-27 -15 -51.5 -31t-43 -36.5t-29.5 -46t-11 -60.5q0 -54 35.5 -72t101.5 -18q48 0 88.5 14t71.5 37zM519 614q0 34 -25 52t-91 18q-69 0 -102 -27.5t-33 -96.5q0 -17 3.5 -32t11 -29.5t18.5 -30t25 -34.5l9 -12l40 22q34 19 60.5 34.5t45 33.5t28.5 42t10 60z M674 361q-14 -66 -38.5 -128.5t-69.5 -115.5l75 -100q4 -5 4 -9q0 -8 -12 -8h-70q-7 0 -10 2t-5 5l-40 54q-43 -32 -96 -50t-115 -18q-48 0 -87.5 9t-68 28t-44 48.5t-15.5 70.5t12.5 73t36 59t57.5 51t78 49l-10 14q-32 45 -51 81.5t-19 83.5q0 50 16 86t45 59t68.5 34 t87.5 11q97 0 147.5 -36.5t50.5 -99.5q0 -37 -11.5 -66.5t-34.5 -55.5t-59 -51.5t-85 -54.5l-34 -20l146 -194q31 42 47.5 90t27.5 99q2 8 5 12t11 4h45q15 0 15 -12v-4z"/>
<glyph glyph-name="quotesingle" horiz-adv-x="192" unicode="&apos;" d="M294 744q0 -4 -3 -11l-91 -189q-5 -11 -9.5 -15t-12.5 -4h-47q-8 0 -8 7q0 6 3 12l79 189q8 19 24 19h56q9 0 9 -8z"/>
<glyph glyph-name="parenleft" horiz-adv-x="305" unicode="(" d="M415 746q0 -4 -6 -12q-117 -137 -172.5 -300t-55.5 -341q0 -80 14 -151t46 -133q2 -6 2 -8q0 -10 -12 -10h-42q-8 0 -12 1.5t-9 9.5q-38 57 -55.5 137.5t-17.5 171.5q0 82 14.5 169t43.5 170t72.5 157.5t102.5 133.5q8 8 12.5 9.5t12.5 1.5h53q9 0 9 -6z"/>
<glyph glyph-name="parenright" horiz-adv-x="305" unicode=")" d="M320 432q0 -82 -14.5 -169t-43.5 -170t-73 -158t-102 -133q-8 -8 -12.5 -9.5t-12.5 -1.5h-53q-9 0 -9 7q0 4 5 11q118 137 173.5 299.5t55.5 341.5q0 75 -14 148.5t-46 135.5q-2 4 -2 7q0 11 13 11h41q8 0 12 -1.5t9 -9.5q38 -57 55.5 -137.5t17.5 -171.5z"/>
<glyph glyph-name="asterisk" horiz-adv-x="465" unicode="*" d="M525 598q0 -10 -14 -15l-125 -39l77 -106q5 -7 5 -13q0 -7 -6 -11l-24 -18q-5 -3 -8 -3q-8 0 -15 10l-76 106l-76 -106q-7 -10 -15 -10q-4 0 -8 3l-25 18q-6 4 -6 11q0 6 5 13l78 106l-124 39q-6 2 -10.5 6t-4.5 9q0 2 0.5 2.5t0.5 2.5l9 29q3 10 13 10q3 0 9 -2l125 -41 l-1 131q0 19 15 19h30q15 0 15 -19l-1 -131l125 41q6 2 9 2q10 0 13 -10l9 -29q1 -2 1 -5z"/>
<glyph glyph-name="plus" horiz-adv-x="595" unicode="+" d="M596 371q0 -8 -6 -12t-14 -4h-172v-171q0 -8 -4 -14t-12 -6h-40q-8 0 -12 6t-4 14v171h-171q-8 0 -14 4t-6 12v40q0 8 6 12t14 4h171v172q0 8 4 14t12 6h40q8 0 12 -6t4 -14v-172h172q8 0 14 -4t6 -12v-40z"/>
<glyph glyph-name="comma" horiz-adv-x="214" unicode="," d="M189 121q0 -5 -3 -11l-108 -189q-5 -10 -9.5 -14.5t-12.5 -4.5h-41q-11 0 -11 9q0 4 3 10l90 189q9 19 24 19h58q10 0 10 -8z"/>
<glyph glyph-name="hyphen" horiz-adv-x="333" unicode="-" d="M340 312l-7 -39q-3 -17 -22 -17h-199q-16 0 -16 14v3l7 39q2 8 8 13t14 5h199q16 0 16 -15v-3z"/>
<glyph glyph-name="period" horiz-adv-x="214" unicode="." d="M170 114l-16 -93q-2 -8 -8.5 -14t-14.5 -6h-48q-15 0 -15 16v4l16 93q3 19 22 19h48q16 0 16 -16v-3z"/>
<glyph glyph-name="slash" horiz-adv-x="355" unicode="/" d="M461 732q0 -3 -2 -9l-349 -703q-4 -8 -9 -14t-13 -6h-51q-11 0 -11 11q0 3 2 9l350 703q4 8 8.5 14t12.5 6h51q11 0 11 -11z"/>
<glyph glyph-name="zero" horiz-adv-x="605" unicode="0" d="M543 533q0 77 -31.5 108.5t-89.5 31.5q-34 0 -65 -14t-56.5 -42.5t-45 -72.5t-29.5 -105l-23 -135q-9 -56 -9 -96q0 -77 31 -107.5t90 -30.5q33 0 64 13.5t57 42t45 72.5t30 106l23 135q9 54 9 94zM634 536q0 -45 -9 -97l-23 -135q-15 -85 -41.5 -144.5t-64.5 -96.5 t-86.5 -53.5t-107.5 -16.5q-92 0 -146 52.5t-54 164.5q0 43 9 94l23 135q15 86 42 145.5t65 96t87 53t107 16.5q94 0 146.5 -52t52.5 -162z"/>
<glyph glyph-name="one" horiz-adv-x="605" unicode="1" d="M90 0q-8 0 -13 4.5t-5 9.5q0 2 1 4l7 44q2 8 8.5 12.5t14.5 4.5h159l101 570l-169 -66q-6 -2 -14 -2.5t-6 10.5l9 51q1 8 12 13l193 82q13 6 23 6h41q8 0 12.5 -5.5t2.5 -13.5l-114 -645h160q8 0 13 -4t5 -9q0 -2 -1 -4l-7 -44q-2 -8 -8.5 -13t-14.5 -5h-410z"/>
<glyph glyph-name="two" horiz-adv-x="605" unicode="2" d="M631 599q0 -39 -12.5 -70.5t-34.5 -58.5t-52.5 -50.5t-67.5 -45.5l-108 -65q-47 -28 -77.5 -52t-50 -48t-29.5 -50.5t-16 -58.5l-4 -21h333q7 0 12 -3.5t5 -10.5v-3l-8 -44q-2 -8 -8.5 -13t-14.5 -5h-397q-17 0 -17 16v3l15 81q8 45 23 82t39 69t57.5 60.5t79.5 55.5 l113 68q30 18 54 34t41 34.5t26.5 41t9.5 54.5q0 40 -30.5 57.5t-104.5 17.5q-39 0 -88 -4.5t-92 -10.5q-10 -2 -15 1.5t-2 16.5l7 35q2 11 8 13.5t14 4.5q41 10 88.5 15t92.5 5q211 0 211 -151z"/>
<glyph glyph-name="three" horiz-adv-x="605" unicode="3" d="M623 599q0 -33 -8.5 -65.5t-25 -60.5t-40.5 -51t-55 -37q39 -21 53.5 -56t14.5 -70q0 -69 -20.5 -119t-58.5 -83t-91.5 -48.5t-120.5 -15.5q-48 0 -89.5 6t-76.5 14q-8 2 -12 4.5t-4 8.5q0 3 1 6l6 34q2 9 6.5 14t16.5 3q45 -6 87.5 -10t77.5 -4q92 0 139 46.5t47 140.5 q0 18 -4.5 34.5t-16 30t-30 21.5t-46.5 8h-182q-8 0 -13 3.5t-3 14.5l6 35q2 8 6 13.5t16 5.5h182q36 0 63 13t45 35.5t27 52.5t9 63q0 25 -7 42t-22.5 27t-41.5 14.5t-64 4.5q-44 0 -84 -4.5t-90 -10.5h-3q-17 0 -14 17l6 35q2 11 8.5 14t14.5 5q38 8 81 14t91 6 q101 0 160 -36.5t59 -114.5z"/>
<glyph glyph-name="four" horiz-adv-x="605" unicode="4" d="M478 605q0 4 -4 4q-3 0 -9 -6l-279 -315q-5 -7 -5 -9q0 -5 7 -5h231l59 329v2zM597 274q19 0 16 -18l-7 -40q-2 -11 -8 -14.5t-14 -3.5h-87l-31 -178q-3 -20 -21 -20h-58q-16 0 -13 20l31 178h-289q-35 0 -35 26q0 8 1 13l6 38q3 19 19 37l369 415q5 6 12 11t20 5h59 q15 0 19.5 -5.5t2.5 -16.5l-79 -447h87z"/>
<glyph glyph-name="five" horiz-adv-x="605" unicode="5" d="M614 743q12 0 15 -3.5t3 -8.5q0 -2 -1 -5l-8 -44q-3 -16 -23 -16h-287l-54 -216h47q130 0 198.5 -40.5t68.5 -132.5q0 -70 -21 -123t-60.5 -89t-95 -54t-124.5 -18q-49 0 -93 4.5t-80 13.5q-19 3 -16 20l7 37q2 16 16 16q3 0 7 -1q46 -8 90 -11t82 -3q96 0 145.5 55.5 t49.5 147.5q0 31 -11 51t-33.5 31.5t-58 16t-84.5 4.5h-117q-11 0 -14.5 5.5t-1.5 12.5l87 333q2 8 8.5 12.5t14.5 4.5h344z"/>
<glyph glyph-name="six" horiz-adv-x="605" unicode="6" d="M494 288q0 31 -11 51t-29.5 31.5t-42.5 15.5t-50 4q-18 0 -39 -1.5t-42 -4t-40 -6t-33 -6.5l-17 -95q-5 -26 -6.5 -48t-1.5 -41q0 -36 8 -59.5t24 -37t38.5 -19t52.5 -5.5q46 0 81.5 18.5t59.5 49.5t36 71t12 82zM444 750q60 0 100 -5t69 -12q8 -2 15 -6t5 -13l-7 -39 q-2 -13 -8.5 -16t-18.5 -1q-37 8 -78.5 12t-89.5 4q-54 0 -90.5 -16.5t-60 -45.5t-37 -70t-22.5 -90l-2 -11q32 7 69.5 13.5t84.5 6.5q44 0 82.5 -9.5t67.5 -30t45.5 -52t16.5 -75.5q0 -67 -20 -122.5t-58 -95t-92 -61.5t-123 -22q-97 0 -147.5 48t-50.5 148q0 19 1 42.5 t5 45.5l31 175q15 84 41.5 141t65.5 92t90.5 50t115.5 15z"/>
<glyph glyph-name="seven" horiz-adv-x="605" unicode="7" d="M650 680q0 -17 -4.5 -31.5t-10.5 -23.5l-394 -610q-11 -15 -25 -15h-63q-12 0 -12 11q0 7 5 15l412 628q2 4 2 6q0 5 -6 5h-338q-8 0 -13.5 3t-3.5 14l8 42q2 8 6.5 13.5t16.5 5.5h324q52 0 74 -16t22 -47z"/>
<glyph glyph-name="eight" horiz-adv-x="605" unicode="8" d="M502 251q0 19 -5.5 37t-18 32t-32.5 23t-50 9h-62q-38 0 -67 -14.5t-48.5 -39t-29 -56.5t-9.5 -67q0 -57 32.5 -81.5t97.5 -24.5h10q87 0 134.5 49t47.5 133zM561 579q0 53 -33.5 75t-100.5 22h-10q-36 0 -68 -10.5t-56.5 -30.5t-39 -49.5t-14.5 -67.5q0 -19 6 -36 t18.5 -30t33 -20.5t50.5 -7.5h62q34 0 62 12t48 32.5t31 49t11 61.5zM651 594q0 -66 -34.5 -122t-94.5 -84q36 -22 53.5 -58t17.5 -75q0 -64 -21.5 -113t-59.5 -82t-90.5 -50t-114.5 -17h-10q-44 0 -82 12t-66 35t-44.5 55.5t-16.5 74.5q0 69 35 127.5t97 90.5 q-35 20 -52.5 51.5t-17.5 70.5q0 62 23 107t61.5 74.5t89 44t106.5 14.5h10q45 0 84 -10t67 -29.5t44 -48.5t16 -68z"/>
<glyph glyph-name="nine" horiz-adv-x="605" unicode="9" d="M543 555q0 36 -8 59.5t-24 37t-38.5 19t-52.5 5.5q-47 0 -82 -18.5t-59 -49.5t-36 -71t-12 -82q0 -32 11 -51.5t29.5 -31t42.5 -15.5t50 -4q18 0 39 1.5t42 4t40 6t33 6.5l17 95q5 26 6.5 48t1.5 41zM631 554q0 -19 -1 -42.5t-5 -45.5l-31 -175q-15 -84 -41.5 -141 t-65.5 -92t-90.5 -50t-115.5 -15q-60 0 -100 5t-69 12q-11 2 -16 5.5t-5 9.5q0 2 1 4l7 39q2 13 7.5 16t19.5 1q39 -8 79.5 -12t88.5 -4q54 0 90.5 16.5t60 45.5t37 70t22.5 90l2 11q-32 -7 -69.5 -13.5t-84.5 -6.5q-44 0 -82.5 9.5t-67.5 29.5t-45.5 52t-16.5 76 q0 67 20 122t58 95t92 62t123 22q97 0 147.5 -48t50.5 -148z"/>
<glyph glyph-name="colon" horiz-adv-x="219" unicode=":" d="M173 113l-17 -94q-2 -8 -8.5 -13.5t-14.5 -5.5h-47q-7 0 -12 4.5t-5 11.5v3l17 94q2 8 8.5 13.5t14.5 5.5h47q17 0 17 -16v-3zM246 530l-16 -93q-2 -8 -8.5 -13.5t-14.5 -5.5h-47q-7 0 -12 4.5t-5 11.5v3l16 93q2 8 9 14t15 6h47q7 0 11.5 -5t4.5 -12v-3z"/>
<glyph glyph-name="semicolon" horiz-adv-x="219" unicode=";" d="M177 120q0 -5 -3 -11l-108 -189q-5 -10 -10 -15t-13 -5h-40q-10 0 -10 9q0 5 3 11l90 189q9 19 24 19h57q10 0 10 -8zM246 530l-16 -93q-3 -19 -22 -19h-49q-16 0 -16 16v3l16 93q2 8 8.5 14t14.5 6h49q15 0 15 -16v-4z"/>
<glyph glyph-name="less" horiz-adv-x="595" unicode="&lt;" d="M535 150q0 -10 -12 -10h-58q-8 0 -15 2.5t-16 10.5l-241 204q-18 15 -18 34t18 34l241 204q9 8 16 10.5t15 2.5h58q12 0 12 -10q0 -8 -10 -17l-262 -224l262 -224q10 -9 10 -17z"/>
<glyph glyph-name="equal" horiz-adv-x="595" unicode="=" d="M590 261q0 -8 -6 -12t-14 -4h-385q-8 0 -14 4t-6 12v40q0 8 6 12t14 4h385q8 0 14 -4t6 -12v-40zM590 482q0 -8 -6 -12t-14 -4h-385q-8 0 -14 4t-6 12v40q0 8 6 12t14 4h385q8 0 14 -4t6 -12v-40z"/>
<glyph glyph-name="greater" horiz-adv-x="595" unicode="&gt;" d="M582 391q0 -19 -18 -34l-241 -204q-16 -13 -31 -13h-58q-12 0 -12 10q0 8 10 17l262 224l-262 224q-10 9 -10 17q0 10 12 10h58q8 0 15 -2.5t16 -10.5l241 -204q18 -15 18 -34z"/>
<glyph glyph-name="question" horiz-adv-x="446" unicode="?" d="M218 112l-17 -93q-3 -19 -22 -19h-48q-17 0 -17 16v3l17 93q2 8 8.5 14t14.5 6h48q8 0 12 -5t4 -12v-3zM494 627q0 -35 -10.5 -64t-28 -54.5t-40.5 -48.5t-47 -46l-54 -51q-17 -16 -29 -27.5t-20.5 -22.5t-13.5 -23t-8 -28l-8 -49q-2 -8 -9 -13.5t-15 -5.5h-44 q-15 0 -15 15v3v1l8 49q4 24 10 43t17 36t27 35t39 39l55 51q22 20 38.5 37t27.5 34t16.5 36t5.5 44q0 31 -22 42.5t-70 11.5q-36 0 -68.5 -2.5t-67.5 -6.5h-3q-12 0 -12 12v3v2l6 35q2 9 5.5 15t15.5 8q32 6 69 9.5t71 3.5q37 0 68.5 -7t55 -22t37 -38.5t13.5 -55.5z"/>
<glyph glyph-name="at" horiz-adv-x="767" unicode="@" d="M500 409q-16 2 -33 4t-34 2q-45 0 -68.5 -21.5t-32.5 -67.5l-23 -114q-2 -11 -3 -20t-1 -17q0 -17 6 -26.5t16.5 -14.5t23 -6.5t26.5 -1.5h26h1h3h19.5t19.5 2zM769 401q0 -98 -25.5 -164.5t-74.5 -107t-120 -58t-162 -17.5q-78 0 -121.5 29t-43.5 89q0 20 4 39l24 117 q9 46 25.5 76.5t41 49t57.5 26t75 7.5q39 0 74 -5.5t52 -9.5q20 -5 20 -19q0 -2 -0.5 -3t-0.5 -3l-63 -313q51 8 84 34t52.5 63t27.5 81.5t8 89.5q0 98 -59 147t-165 49q-129 0 -211.5 -64.5t-108.5 -189.5l-31 -152q-7 -32 -7 -63q0 -92 60 -137t171 -45q41 0 76.5 2 t67.5 5h2q8 0 8 -6v-1l-4 -32q-1 -8 -5 -10.5t-12 -3.5q-6 -1 -20.5 -2t-33.5 -2.5t-42 -2.5t-45 -1q-63 0 -115.5 15.5t-91 45t-59.5 73.5t-21 101q0 31 6 64l31 156q30 154 130 231t265 77q61 0 112.5 -18t88.5 -51.5t58 -80.5t21 -105z"/>
<glyph glyph-name="A" horiz-adv-x="633" unicode="A" d="M453 653q-2 18 -16 18q-15 0 -23 -18l-149 -329h221zM607 19q0 -19 -17 -19h-60q-7 0 -10 4.5t-4 10.5l-25 230h-259l-104 -230q-2 -6 -7 -10.5t-14 -4.5h-61q-14 0 -14 13q0 6 2 10l300 651q21 46 51.5 61t63.5 15q15 0 30 -3t27 -11.5t20 -23t11 -37.5l70 -652v-4z"/>
<glyph glyph-name="B" horiz-adv-x="616" unicode="B" d="M516 251q0 20 -6.5 38t-21.5 31.5t-40 21t-62 7.5h-154l-49 -275q25 -1 51 -2.5t52 -1.5q46 0 84.5 6t67.5 21t47.5 41t25.5 67q4 20 4.5 29t0.5 17zM570 583q0 28 -13 45.5t-37 27.5t-57.5 13.5t-74.5 3.5q-26 0 -52.5 -1t-47.5 -2l-44 -248h154q43 0 73 9.5t49.5 26 t30 38t15.5 45.5q3 16 3.5 21.5t0.5 9.5v11zM661 574q0 -5 -0.5 -10.5t-3.5 -22.5q-12 -63 -46 -100t-88 -57q41 -17 62.5 -52t21.5 -80q0 -8 -0.5 -17.5t-4.5 -29.5q-11 -64 -40 -105t-72 -65t-98 -33t-119 -9q-50 0 -92 2t-70 7q-27 4 -27 26q0 7 1 11l117 666q6 32 39 37 q26 3 68.5 5.5t91.5 2.5q55 0 102.5 -8.5t82.5 -27.5t55 -49t20 -73v-18z"/>
<glyph glyph-name="C" horiz-adv-x="545" unicode="C" d="M456 750q48 0 90.5 -5.5t74.5 -10.5q6 -1 10.5 -2.5t4.5 -6.5q0 -2 -1 -4l-9 -51q-1 -12 -17 -11l-32.5 2.5t-42 3t-46 2.5t-45.5 1q-37 0 -70.5 -11.5t-62 -38.5t-49.5 -70.5t-32 -106.5l-25 -139q-4 -21 -5.5 -39t-1.5 -35q0 -42 10.5 -71t29 -47.5t44.5 -26.5t57 -8 q21 0 45 1t46.5 2.5t42 2.5t33.5 2q12 1 15.5 -2.5t1.5 -13.5l-7 -41q-2 -9 -6 -13.5t-18 -6.5q-16 -3 -32.5 -5.5t-36 -4t-43.5 -2.5t-56 -1q-38 0 -76.5 12t-70 39t-51 70.5t-19.5 107.5q0 18 1.5 38t5.5 42l25 139q17 95 51 155.5t77.5 94.5t92.5 46.5t97 12.5z"/>
<glyph glyph-name="D" horiz-adv-x="641" unicode="D" d="M577 511q0 46 -13.5 77t-37.5 50t-56.5 26.5t-70.5 7.5q-35 0 -60.5 -0.5t-50.5 -2.5l-105 -596q24 -2 50 -2h61q44 0 85 12t74.5 39.5t58 72t35.5 109.5l23 135q7 38 7 72zM668 516q0 -18 -1.5 -37t-5.5 -40l-23 -135q-14 -83 -45 -141.5t-76.5 -96.5t-105 -55.5 t-131.5 -17.5q-29 0 -56.5 1t-51.5 2.5t-42.5 3t-29.5 3.5q-12 2 -15 7t-3 11q0 3 1 7l121 687q5 22 25 25q11 2 30.5 3.5t44 3t52.5 2.5t57 1q57 0 104 -14.5t80.5 -43.5t52 -73t18.5 -103z"/>
<glyph glyph-name="E" horiz-adv-x="551" unicode="E" d="M410 668q-40 0 -65 -5.5t-40.5 -18t-23.5 -32.5t-13 -48l-24 -139h307q19 0 16 -20l-6 -38q-2 -8 -6.5 -14t-17.5 -6h-307l-29 -168q-2 -12 -3.5 -22t-1.5 -19q0 -34 23 -48.5t86 -14.5h190q8 0 11 -2t1 -10l-9 -49q-1 -5 -2.5 -8.5t-9.5 -5.5q-11 -1 -34.5 -2.5 t-52 -2.5t-58 -1.5t-51.5 -0.5q-86 0 -135 35.5t-49 108.5q0 22 4 42l67 385q10 55 30 91t50.5 57t71.5 29.5t94 8.5q85 0 129.5 -2.5t64.5 -6.5q5 -1 7 -3t2 -5q0 -2 -1 -6l-9 -47q-1 -8 -4.5 -10t-8.5 -2h-193z"/>
<glyph glyph-name="F" horiz-adv-x="551" unicode="F" d="M410 668q-40 0 -65 -5.5t-40.5 -18t-23.5 -32.5t-13 -48l-24 -139h307q8 0 13 -4t3 -16l-6 -38q-2 -8 -6 -14t-18 -6h-307l-57 -327q-2 -8 -6.5 -14t-16.5 -6h-51q-11 0 -14.5 5t-3.5 10q0 2 1 5l95 544q10 56 30 92t50.5 57t71.5 29t94 8q80 0 121.5 -2t67.5 -6 q10 -2 12 -4.5t2 -5.5q0 -2 -1 -5l-9 -47q-2 -12 -13 -12h-193z"/>
<glyph glyph-name="G" horiz-adv-x="612" unicode="G" d="M458 750q70 0 115 -4.5t73 -9.5q7 -1 11 -3.5t4 -7.5q0 -2 -1 -4l-9 -50q-1 -8 -5.5 -9.5t-12.5 -0.5q-22 2 -42 3.5t-42 2t-47.5 1t-57.5 0.5q-33 0 -67 -10.5t-63.5 -36.5t-52.5 -70.5t-35 -112.5l-23 -134q-4 -23 -6 -42.5t-2 -36.5q0 -42 10.5 -71t28.5 -46.5 t42.5 -25.5t53.5 -8q46 0 77.5 2t49.5 4l51 286q2 8 7.5 14t13.5 6h54q8 0 12 -5t4 -12v-3l-60 -336q-3 -19 -22 -22q-38 -6 -84 -10.5t-117 -4.5q-40 0 -78 13t-67.5 41.5t-47.5 73t-18 107.5q0 17 1.5 36.5t5.5 39.5l23 134q16 96 50 156.5t78 95t94.5 47.5t100.5 13z"/>
<glyph glyph-name="H" horiz-adv-x="680" unicode="H" d="M713 743q16 0 16 -15v-5l-123 -703q-2 -8 -9 -14t-15 -6h-51q-19 0 -16 20l58 332h-342l-58 -332q-2 -8 -6 -14t-18 -6h-51q-9 0 -13 5t-4 10q0 2 1 5l123 703q2 8 6 14t18 6h51q19 0 16 -20l-51 -290h342l51 290q2 8 6 14t18 6h51z"/>
<glyph glyph-name="I" horiz-adv-x="267" unicode="I" d="M292 743q15 0 15 -14v-5l-124 -704q-3 -20 -22 -20h-55q-10 0 -12.5 5t-2.5 9q0 3 1 6l124 704q2 8 6 13.5t15 5.5h55z"/>
<glyph glyph-name="J" horiz-adv-x="257" unicode="J" d="M291 743q8 0 12.5 -3.5t4.5 -9.5q0 -3 -1 -6l-135 -761q-13 -72 -55 -107.5t-125 -35.5q-17 0 -30 2.5t-18 4.5q-8 3 -7 12l6 37q2 8 6 12.5t17 4.5h39q40 0 54.5 16.5t21.5 53.5l135 761q2 8 6.5 13.5t15.5 5.5h53z"/>
<glyph glyph-name="K" horiz-adv-x="607" unicode="K" d="M691 733q0 -6 -5 -11l-370 -340l239 -366q2 -4 2 -6q0 -10 -11 -10h-72q-14 0 -20 10l-222 346l-59 -336q-2 -8 -5.5 -14t-16.5 -6h-55q-8 0 -11.5 5t-3.5 10q0 2 1 5l124 704q2 8 6 13.5t16 5.5h53q8 0 13 -4t3 -15l-55 -314l336 324q5 5 9.5 7t12.5 2h78q13 0 13 -10z "/>
<glyph glyph-name="L" horiz-adv-x="514" unicode="L" d="M506 60l-7 -44q-1 -7 -3 -9.5t-10 -4.5q-20 -3 -72.5 -6t-123.5 -3q-37 0 -70.5 5.5t-58.5 21.5t-39.5 43.5t-14.5 71.5q0 13 1 26.5t4 29.5l93 532q2 8 6 14t18 6h51q9 0 13.5 -6t2.5 -14l-95 -544q-2 -12 -3.5 -23.5t-1.5 -20.5q0 -34 23 -47t86 -13h188q13 0 13 -12 v-3z"/>
<glyph glyph-name="M" horiz-adv-x="761" unicode="M" d="M786 743q25 0 25 -21q0 -4 -1 -8l-122 -694q-2 -8 -6 -14t-18 -6h-49q-19 0 -16 20l103 588q1 6 -1 6l-3 -3l-193 -293q-10 -15 -20.5 -22t-29.5 -7h-46q-19 0 -27 7t-13 22l-88 292q-2 5 -2.5 5.5t-1.5 0.5q-2 0 -3 -8l-103 -588q-2 -8 -6.5 -14t-17.5 -6h-49 q-9 0 -13 5t-4 10q0 2 1 5l122 694q2 12 8.5 20.5t25.5 8.5h62q15 0 20.5 -3.5t8.5 -13.5l105 -343q4 -11 10 -11q4 0 6.5 2t7.5 9l225 343q6 10 13.5 13.5t21.5 3.5h68z"/>
<glyph glyph-name="N" horiz-adv-x="680" unicode="N" d="M641 724q2 8 6 13.5t15 5.5h53q8 0 11.5 -4.5t3.5 -10.5v-4l-123 -695q-2 -12 -8 -20.5t-26 -8.5h-58q-16 0 -21 4t-8 12l-210 587l-2 3q-2 0 -2 -3l-103 -584q-2 -8 -7.5 -13.5t-13.5 -5.5h-58q-11 0 -11 8q0 2 1 4l124 703q2 12 9.5 20t24.5 8h49q21 0 27 -4.5 t10 -15.5l208 -579q3 -8 4 -8q2 0 3 8z"/>
<glyph glyph-name="O" horiz-adv-x="661" unicode="O" d="M594 519q0 82 -38 115.5t-107 33.5q-83 0 -140.5 -55.5t-79.5 -176.5l-23 -129q-4 -21 -5.5 -40t-1.5 -36q0 -86 38.5 -121t106.5 -35q82 0 139.5 55.5t79.5 176.5l23 129q5 23 6.5 44t1.5 39zM686 520q0 -20 -2 -40.5t-6 -43.5l-23 -129q-15 -83 -43.5 -142.5t-70 -97.5 t-95 -56t-116.5 -18q-48 0 -89 14t-71 42.5t-47 71.5t-17 102q0 20 2 40.5t6 43.5l23 129q16 89 46.5 149t73 97t95 52.5t111.5 15.5q50 0 91 -14.5t70.5 -43.5t45.5 -72t16 -100z"/>
<glyph glyph-name="P" horiz-adv-x="593" unicode="P" d="M554 568q0 59 -40.5 82t-126.5 23q-24 0 -53.5 -1t-47.5 -3l-52 -293q9 0 22 -1t27 -1.5t27.5 -1t23.5 -0.5q103 0 153.5 38t61.5 110l2 13q3 19 3 35zM645 574q0 -19 -3 -41l-2 -13q-11 -68 -39.5 -111t-70.5 -68.5t-96 -35t-114 -9.5q-24 0 -52 1.5t-47 3.5l-49 -281 q-2 -8 -6 -14t-16 -6h-54q-14 0 -14 14v6l122 697q5 22 29 25q33 4 78 6t89 2q112 0 178.5 -42.5t66.5 -133.5z"/>
<glyph glyph-name="Q" horiz-adv-x="661" unicode="Q" d="M594 519q0 82 -38 115.5t-107 33.5q-83 0 -140.5 -55.5t-79.5 -176.5l-23 -129q-4 -21 -5.5 -40t-1.5 -36q0 -86 38.5 -121t106.5 -35q82 0 139.5 55.5t79.5 176.5l23 129q5 23 6.5 44t1.5 39zM686 520q0 -20 -2 -40.5t-6 -43.5l-23 -129q-27 -152 -100 -226.5 t-182 -85.5l-7 -43q-3 -17 -3 -27q0 -20 12 -25.5t42 -5.5h59q9 0 15 -3t4 -13l-6 -34q-2 -13 -24.5 -18.5t-60.5 -5.5q-63 0 -97 18.5t-34 72.5q0 20 4 40l8 45q-39 6 -72 23t-57 45t-37 67.5t-13 91.5q0 20 2 40.5t6 43.5l23 129q16 89 46.5 149t73 97t95 52.5t111.5 15.5 q50 0 91 -14.5t70.5 -43.5t45.5 -72t16 -100z"/>
<glyph glyph-name="R" horiz-adv-x="625" unicode="R" d="M565 568q0 59 -41.5 79.5t-127.5 20.5h-27.5t-31 -0.5t-29.5 -1t-23 -1.5l-48 -274q19 -1 47.5 -1.5t62.5 -0.5q42 0 79 7t65 23.5t46 43t24 65.5l1 7q3 18 3 33zM655 572q0 -18 -3 -37l-1 -7q-13 -88 -64.5 -138t-128.5 -64l130 -307q2 -4 2 -9q0 -10 -11 -10h-69 q-9 0 -12.5 1.5t-7.5 11.5l-126 298h-31q-25 0 -58 1t-52 2l-51 -294q-2 -8 -6.5 -14t-15.5 -6h-54q-14 0 -14 14v6l123 700q2 11 8 15.5t20 6.5q16 2 39 3.5t48 2.5t48.5 1.5t41.5 0.5q54 0 99 -10.5t77.5 -32t50.5 -55.5t18 -80z"/>
<glyph glyph-name="S" horiz-adv-x="550" unicode="S" d="M406 750q22 0 49 -1t53 -2.5t48.5 -4t36.5 -4.5q10 -2 12.5 -4.5t2.5 -6.5q0 -3 -1 -6l-7 -43q-2 -9 -5.5 -13.5t-16.5 -2.5q-33 2 -80.5 4t-91.5 2q-30 0 -60 -3.5t-53.5 -14.5t-38 -31t-14.5 -53q0 -18 4.5 -32t15 -27.5t27.5 -27t42 -29.5l82 -55q35 -23 59 -45 t39 -44.5t21.5 -47t6.5 -51.5q0 -53 -21 -93t-58.5 -67t-88.5 -40.5t-111 -13.5q-21 0 -44 1t-45.5 3t-43.5 4.5t-37 5.5q-9 2 -13 5t-4 8q0 2 1 5l7 40q2 11 6 14.5t17 1.5q17 -2 38 -3t43.5 -1.5t44 -1t38.5 -0.5q81 0 128 30.5t47 101.5q0 18 -5 32t-16.5 27.5t-30 28 t-44.5 32.5l-87 59q-51 35 -80 78t-29 97q0 52 21 88t56.5 58.5t82 32.5t97.5 10z"/>
<glyph glyph-name="T" horiz-adv-x="590" unicode="T" d="M345 20q-2 -8 -8 -14t-14 -6h-55q-8 0 -12 6t-2 14l113 645h-195q-8 0 -13 2.5t-5 8.5q0 2 1 5l8 44q2 11 8.5 14.5t14.5 3.5h481q8 0 12.5 -3t4.5 -9q0 -3 -1 -6l-8 -44q-2 -8 -6 -12t-16 -4h-195z"/>
<glyph glyph-name="U" horiz-adv-x="662" unicode="U" d="M699 743q8 0 12.5 -3.5t4.5 -9.5q0 -3 -1 -6l-80 -454q-26 -148 -101.5 -212.5t-203.5 -64.5q-99 0 -156.5 51t-57.5 153q0 17 1.5 35t5.5 38l80 454q2 8 6.5 13.5t15.5 5.5h54q8 0 13 -4t3 -15l-80 -454q-4 -20 -6 -37.5t-2 -34.5q0 -63 31.5 -95t105.5 -32q46 0 80 13 t57.5 38t38 62.5t23.5 85.5l80 454q2 8 6 13.5t16 5.5h54z"/>
<glyph glyph-name="V" horiz-adv-x="643" unicode="V" d="M723 743q15 0 15 -11q0 -5 -3 -12l-299 -651q-11 -24 -25 -38.5t-29 -23t-31 -11.5t-30 -3t-28.5 3t-27 11.5t-21.5 23t-12 38.5l-70 651v6q0 9 5.5 13t15.5 4h56q10 0 12 -4.5t3 -10.5l62 -637q1 -21 16 -21q14 0 23 21l287 637q3 6 6 10.5t14 4.5h61z"/>
<glyph glyph-name="W" horiz-adv-x="825" unicode="W" d="M905 743q8 0 11.5 -3.5t3.5 -7.5t-2 -9l-230 -676q-11 -31 -29 -41t-42 -10h-43q-21 0 -33.5 13.5t-14.5 36.5l-33 370q-2 9 -5 9q-2 0 -4 -1t-5 -8l-164 -370q-10 -23 -27.5 -36.5t-38.5 -13.5h-42q-24 0 -38.5 9.5t-14.5 40.5v1l8 676q0 20 21 20h57q14 0 14 -17 l-15 -637q0 -15 3 -15q2 0 9 15l163 370q9 20 21.5 30t32.5 10h64q37 0 40 -40l33 -370q1 -7 1 -11t3 -4t4.5 3.5t3.5 11.5l209 637q6 17 20 17h59z"/>
<glyph glyph-name="X" horiz-adv-x="646" unicode="X" d="M719 731q0 -5 -5 -12l-279 -345l164 -349q2 -6 2 -8q0 -7 -5 -12t-14 -5h-50q-8 0 -11 3.5t-7 11.5l-135 288l-233 -288q-12 -15 -24 -15h-60q-14 0 -14 12q0 6 5 13l290 355l-159 339q-2 4 -2 7q0 7 5 12t13 5h51q8 0 11 -2.5t5 -7.5l133 -284l232 284q5 7 10 8.5 t11 1.5h52q14 0 14 -12z"/>
<glyph glyph-name="Y" horiz-adv-x="583" unicode="Y" d="M677 731q0 -5 -5 -13l-217 -348q-19 -30 -34.5 -45t-30.5 -21l-50 -284q-2 -8 -6 -14t-16 -6h-55q-17 0 -14 20l50 284q-13 5 -24 20.5t-19 45.5l-92 348q-2 5 -2 10q0 15 20 15h58q8 0 11 -4.5t5 -9.5l80 -324q5 -17 9.5 -21.5t9.5 -4.5t10.5 4.5t16.5 21.5l197 324 q5 8 9.5 11t15.5 3h58q15 0 15 -12z"/>
<glyph glyph-name="Z" horiz-adv-x="597" unicode="Z" d="M645 674q0 -20 -8 -39.5t-31 -45.5l-429 -493q-4 -4 -4 -8q0 -6 8 -6h357q13 0 16 -4.5t1 -12.5l-8 -47q-2 -8 -5.5 -13t-17.5 -5h-343q-52 0 -76 20.5t-24 55.5q0 18 7 37.5t22 36.5l425 492q5 6 6.5 9t1.5 5q0 6 -9 6h-327q-8 0 -13.5 3t-3.5 14l8 47q2 8 5.5 12.5 t17.5 4.5h330q54 0 74 -18.5t20 -50.5z"/>
<glyph glyph-name="bracketleft" horiz-adv-x="327" unicode="[" d="M430 723l-5 -33q-2 -8 -9 -14t-15 -6h-114l-139 -791h114q16 0 16 -16v-4l-6 -33q-2 -8 -8.5 -14t-14.5 -6h-186q-7 0 -10.5 4.5t-3.5 10.5v4l159 899q2 8 7 13.5t13 5.5h186q16 0 16 -16v-4z"/>
<glyph glyph-name="backslash" horiz-adv-x="355" unicode="\" d="M268 0q-8 0 -10.5 6t-3.5 14l-103 703v2q0 7 4.5 12.5t12.5 5.5h51q8 0 10 -6t3 -14l101 -683q1 -5 2 -13.5t1 -9.5q0 -7 -4.5 -12t-12.5 -5h-51z"/>
<glyph glyph-name="bracketright" horiz-adv-x="327" unicode="]" d="M375 724l-159 -899q-2 -8 -7 -13.5t-13 -5.5h-186q-17 0 -17 17v3l6 33q2 8 9 14t15 6h114l139 791h-114q-16 0 -16 16v4l5 33q2 8 9 14t15 6h186q7 0 10.5 -4.5t3.5 -10.5v-4z"/>
<glyph glyph-name="asciicircum" horiz-adv-x="595" unicode="^" d="M578 572q0 -9 -11 -9h-60q-11 0 -15.5 4.5t-12.5 13.5l-103 120l-103 -120q-8 -9 -12.5 -13.5t-15.5 -4.5h-60q-11 0 -11 9q0 6 4 11l115 149q8 11 13.5 14.5t16.5 3.5h106q11 0 16.5 -3.5t13.5 -14.5l115 -149q4 -5 4 -11z"/>
<glyph glyph-name="underscore" horiz-adv-x="494" unicode="_" d="M514 -65l-5 -25q-2 -8 -8.5 -12t-14.5 -4h-515q-17 0 -17 13v3l5 25q3 16 22 16h515q8 0 13 -3t5 -10v-3z"/>
<glyph glyph-name="grave" horiz-adv-x="372" unicode="`" d="M354 632q0 -9 -10 -9h-54q-8 0 -12 3.5t-9 11.5l-90 126q-3 4 -3 7q0 8 12 8h66q9 0 13.5 -3.5t9.5 -11.5l75 -124q2 -3 2 -8z"/>
<glyph glyph-name="a" horiz-adv-x="527" unicode="a" d="M455 473q-20 4 -42.5 7t-54.5 3q-78 0 -119 -41.5t-55 -121.5l-18 -103q-2 -11 -3 -23t-1 -23q0 -58 25.5 -81t61.5 -23q35 0 69 15t76 43zM358 557q45 0 91 -6.5t84 -16.5q14 -3 16 -7t2 -8q0 -3 -1 -8l-86 -491q-2 -8 -6.5 -14t-16.5 -6h-40q-11 0 -14 5.5t-1 16.5 l5 31q-22 -16 -40.5 -27t-37 -18.5t-38.5 -11t-45 -3.5q-32 0 -60.5 10.5t-49.5 32t-33.5 55t-12.5 79.5q0 28 6 60l18 99q12 65 37 108.5t59.5 70t76.5 38t87 11.5z"/>
<glyph glyph-name="b" horiz-adv-x="541" unicode="b" d="M465 380q0 52 -25 76t-82 24q-24 0 -58.5 -1t-60.5 -6l-70 -397q25 -2 57.5 -4t58.5 -2q70 0 108 46t52 124l13 72q4 20 5.5 37t1.5 31zM552 378q0 -32 -6 -66l-13 -72q-22 -119 -84.5 -183t-176.5 -64q-45 0 -90.5 4t-90.5 13q-15 3 -16.5 6.5t-1.5 7.5t1 9l123 700 q2 8 6 13.5t16 5.5h51q8 0 12.5 -3.5t2.5 -15.5l-33 -186q30 5 62.5 7.5t56.5 2.5q91 0 136 -47.5t45 -131.5z"/>
<glyph glyph-name="c" horiz-adv-x="452" unicode="c" d="M348 480q-60 0 -101 -44t-54 -122l-13 -78q-6 -35 -6 -60q0 -57 26 -81.5t75 -24.5q37 0 65 1.5t61 5.5q12 2 16 -2.5t2 -12.5l-6 -36q-2 -11 -7 -15.5t-17 -6.5q-25 -5 -58.5 -8t-68.5 -3q-44 0 -77 14.5t-54.5 39.5t-32.5 59.5t-11 74.5q0 14 1.5 27.5t3.5 27.5l13 78 q20 122 86.5 182.5t169.5 60.5q35 0 67 -3t56 -8q14 -2 15.5 -6t1.5 -7q0 -4 -1 -9l-6 -36q-2 -8 -6 -12.5t-18 -2.5q-32 4 -58.5 5.5t-63.5 1.5z"/>
<glyph glyph-name="d" horiz-adv-x="541" unicode="d" d="M468 473q-24 5 -57.5 6t-57.5 1q-37 0 -64 -12.5t-46 -35t-31 -53.5t-19 -67l-13 -72q-3 -18 -5 -34.5t-2 -30.5q0 -51 24.5 -78t82.5 -27q26 0 59 2t59 4zM514 733q4 19 23 19h51q14 0 14 -14v-5l-123 -700q-2 -10 -6.5 -15.5t-18.5 -7.5q-48 -9 -94.5 -13t-92.5 -4 t-80 13.5t-56.5 37.5t-33.5 58t-11 75q0 30 6 63l13 72q23 129 87 187t174 58q23 0 55 -2.5t60 -7.5z"/>
<glyph glyph-name="e" horiz-adv-x="544" unicode="e" d="M467 374q0 106 -108 106q-33 0 -60 -12t-47.5 -34t-34.5 -51.5t-21 -63.5l-1 -5h265l1 5q6 30 6 55zM555 371q0 -29 -6 -60l-8 -42q-2 -10 -6.5 -16t-15.5 -6h-337l-2 -12q-6 -35 -6 -61q0 -57 33 -82t91 -25q44 0 91 4.5t82 9.5q22 3 19 -14l-6 -34q-2 -11 -6.5 -16 t-17.5 -7q-45 -8 -84.5 -12.5t-90.5 -4.5q-37 0 -72.5 10t-63 32t-44.5 57t-17 86q0 29 6 62l13 70q23 120 90.5 183.5t174.5 63.5q46 0 80.5 -14.5t57.5 -39.5t34 -59t11 -73z"/>
<glyph glyph-name="f" horiz-adv-x="370" unicode="f" d="M399 691q-18 0 -30.5 -2t-21 -9t-14.5 -21t-10 -37l-13 -72h108q8 0 13 -3.5t3 -14.5l-6 -35q-3 -17 -23 -17h-107l-89 -504q-8 -45 -23 -72t-36.5 -42t-48 -20t-56.5 -5q-13 0 -30 1.5t-29 3.5q-19 3 -16 16l6 33q2 10 7.5 12.5t13.5 2.5h47q35 0 52 14.5t25 55.5 l89 504l-93 7q-19 2 -16 17l5 28q2 8 6.5 13t15.5 5h94l13 72q8 46 22.5 73.5t35 42t47 19t59.5 4.5q14 0 30 -2t28 -4q11 -2 14 -5t3 -6q0 -2 -1 -5l-6 -33q-2 -8 -5.5 -11.5t-14.5 -3.5h-48z"/>
<glyph glyph-name="g" horiz-adv-x="541" unicode="g" d="M468 472q-20 4 -49 7.5t-61 3.5q-70 0 -109.5 -41.5t-55.5 -129.5l-13 -73q-4 -20 -5.5 -38t-1.5 -33q0 -57 27.5 -79t84.5 -22q10 0 25 0.5t30.5 2t31 3.5t27.5 5zM105 312q12 67 34 114t55 76t77 42t100 13q45 0 93 -7.5t82 -15.5q14 -3 16 -7t2 -8q0 -3 -1 -8 l-90 -510q-10 -58 -28.5 -96.5t-47 -61t-68.5 -31.5t-94 -9q-57 0 -102 6t-65 12q-12 3 -14.5 6.5t-2.5 8.5q0 3 1 6l5 29q2 10 6.5 14t17.5 2t33 -4t43.5 -3.5l47 -3t43.5 -1.5q33 0 56.5 6t39 20t25 37t15.5 57l2 12q-10 -2 -24.5 -4.5t-31 -4.5t-32 -3.5t-26.5 -1.5 q-41 0 -75 10t-58.5 32t-38.5 56t-14 81q0 31 6 67z"/>
<glyph glyph-name="h" d="M556 397q0 -10 -1 -20t-3 -21l-59 -336q-2 -8 -6.5 -14t-17.5 -6h-48q-19 0 -16 20l59 336q4 20 4 40q0 46 -26.5 66t-85.5 20q-30 0 -62 -4t-56 -11l-78 -447q-2 -8 -6 -14t-18 -6h-48q-12 0 -14.5 5t-2.5 9q0 3 1 6l125 713q2 8 6 13.5t16 5.5h51q8 0 12.5 -4t2.5 -15 l-33 -190q26 6 57 10t60 4q48 0 83.5 -12.5t58.5 -34t34 -50.5t11 -63z" unicode="h"/>
<glyph glyph-name="i" horiz-adv-x="247" unicode="i" d="M244 550q9 0 13.5 -4t2.5 -16l-89 -510q-2 -8 -6.5 -14t-17.5 -6h-48q-11 0 -14 5t-3 9q0 3 1 6l89 510q2 14 9 17t15 3h48zM283 758q16 0 16 -15v-5l-14 -80q-2 -11 -7 -15.5t-17 -4.5h-51q-11 0 -14 5t-3 9q0 3 1 6l14 80q2 8 7.5 14t16.5 6h51z"/>
<glyph glyph-name="j" horiz-adv-x="247" unicode="j" d="M172 530q2 14 9 17t15 3h48q9 0 13.5 -4t2.5 -16l-104 -594q-7 -39 -20 -64.5t-32 -41t-43.5 -21.5t-54.5 -6q-15 0 -27 1t-26 3q-10 2 -13 5.5t-2 10.5l6 37q2 9 7.5 11.5t16.5 2.5h42q14 0 23.5 2.5t16 9.5t11 19t7.5 31zM283 758q16 0 16 -15v-5l-14 -80 q-2 -11 -7 -15.5t-17 -4.5h-51q-11 0 -14 5t-3 9q0 3 1 6l14 80q2 8 7.5 14t16.5 6h51z"/>
<glyph glyph-name="k" horiz-adv-x="496" unicode="k" d="M546 540q0 -7 -6 -13l-259 -238l181 -266q3 -5 3 -9q0 -5 -3.5 -9.5t-10.5 -4.5h-58q-8 0 -14.5 3t-12.5 12l-164 246l-42 -241q-2 -8 -6.5 -14t-12.5 -6h-53q-9 0 -13 5t-4 10q0 2 1 5l125 712q2 8 9 14t15 6h48q20 0 16 -20l-72 -406l230 215q9 9 22 9h68q13 0 13 -10z "/>
<glyph glyph-name="l" horiz-adv-x="244" unicode="l" d="M281 752q15 0 15 -13q0 -3 -1 -6l-125 -713q-2 -8 -6 -14t-16 -6h-52q-8 0 -11.5 5t-3.5 10q0 2 1 5l125 713q2 8 6.5 13.5t15.5 5.5h52z"/>
<glyph glyph-name="m" horiz-adv-x="797" unicode="m" d="M800 412q0 -11 -1.5 -21t-3.5 -22l-61 -349q-2 -8 -9 -14t-15 -6h-48q-9 0 -13.5 6t-2.5 14l61 349q2 12 3 22.5t1 19.5q0 40 -19.5 54.5t-59.5 14.5q-23 0 -55.5 -6t-66.5 -23q2 -11 2 -26q0 -7 -1 -23.5t-3 -30.5l-61 -351q-2 -8 -8 -14t-14 -6h-53q-9 0 -12 6.5 t-1 13.5l61 351q3 17 5 29.5t2 24.5q0 32 -17 43.5t-43 11.5q-18 0 -37 -4.5t-37 -10.5t-33.5 -12.5t-25.5 -10.5l-74 -422q-2 -8 -8 -14t-14 -6h-53q-9 0 -11.5 5t-2.5 9q0 3 1 6l89 510q2 8 6.5 14t16.5 6h48q12 0 14.5 -6t0.5 -14l-3 -19q38 23 73 34.5t73 11.5 q32 0 59 -12.5t41 -32.5q48 26 85 35.5t79 9.5q75 0 110.5 -39.5t35.5 -105.5z"/>
<glyph glyph-name="n" d="M556 403q0 -26 -5 -54l-58 -329q-2 -8 -9 -14t-15 -6h-48q-9 0 -13.5 6t-2.5 14l58 329q2 14 3.5 28.5t1.5 26.5q0 36 -19 56t-74 20q-29 0 -61 -7.5t-80 -30.5l-74 -422q-2 -8 -9 -14t-15 -6h-49q-9 0 -12.5 5.5t-3.5 9.5q0 2 1 5l89 510q2 8 7 14t19 6h42q22 0 19 -20 l-3 -21q36 20 73 34t88 14q40 0 68.5 -12t46.5 -33t26.5 -49t8.5 -60z" unicode="n"/>
<glyph glyph-name="o" horiz-adv-x="545" unicode="o" d="M467 370q0 54 -25.5 82t-84.5 28q-66 0 -108.5 -45t-55.5 -122l-13 -76q-6 -33 -6 -59q0 -54 25.5 -81t84.5 -27q33 0 60.5 12.5t48.5 34.5t35.5 52.5t20.5 67.5l13 76q3 16 4 30t1 27zM555 369q0 -14 -1.5 -28t-3.5 -28l-13 -76q-10 -57 -30.5 -102.5t-53 -77t-78 -48 t-104.5 -16.5q-45 0 -79.5 14t-57.5 39t-35 59.5t-12 76.5q0 14 1.5 27.5t3.5 27.5l13 76q42 244 265 244q46 0 80.5 -14t58 -39t35 -59.5t11.5 -75.5z"/>
<glyph glyph-name="p" horiz-adv-x="541" unicode="p" d="M465 379q0 51 -24 77.5t-83 26.5q-32 0 -65 -3t-54 -7l-69 -396q24 -5 57.5 -7.5t57.5 -2.5q69 0 107.5 46.5t52.5 124.5l13 72q4 20 5.5 37t1.5 32zM552 374q0 -31 -6 -64l-13 -72q-23 -128 -84.5 -186.5t-176.5 -58.5q-23 0 -55 3t-60 8l-32 -181q-2 -8 -8.5 -13.5 t-14.5 -5.5h-51q-14 0 -14 15v3v1l121 688q2 11 6.5 15.5t18.5 7.5q42 10 92 16.5t96 6.5q92 0 136.5 -50.5t44.5 -132.5z"/>
<glyph glyph-name="q" horiz-adv-x="541" unicode="q" d="M468 473q-20 4 -51.5 7t-63.5 3q-35 0 -61.5 -13t-46 -36.5t-32.5 -55t-20 -68.5l-13 -72q-8 -43 -8 -71q0 -52 25 -76t83 -24q24 0 58.5 2.5t60.5 7.5zM366 557q45 0 93.5 -6.5t86.5 -16.5q14 -3 16 -7t2 -8q0 -3 -1 -8l-121 -688q-3 -19 -22 -19h-51q-18 0 -15 19 l32 181q-30 -5 -62.5 -8t-56.5 -3q-88 0 -134.5 48t-46.5 133q0 29 6 64l13 72q22 122 83.5 184.5t177.5 62.5z"/>
<glyph glyph-name="r" horiz-adv-x="342" unicode="r" d="M160 20q-2 -8 -9 -14t-15 -6h-49q-8 0 -12 5t-4 10q0 2 1 5l89 510q2 8 8.5 14t14.5 6h47q9 0 13 -6t2 -14l-4 -23q41 32 77 41t71 9h2q13 0 16 -4t3 -9q0 -3 -1 -5l-7 -42q-3 -17 -24 -17h-3q-43 0 -74.5 -9t-68.5 -32z"/>
<glyph glyph-name="s" horiz-adv-x="466" unicode="s" d="M329 557q29 0 49.5 -1t37 -2.5t30.5 -4t30 -5.5q11 -2 13.5 -5t2.5 -7q0 -3 -1 -8l-5 -33q-3 -17 -18 -17h-5q-26 3 -65.5 5.5t-81.5 2.5q-17 0 -35.5 -3t-34 -11t-25.5 -21.5t-10 -35.5q0 -19 14 -34t40 -32l89 -59q26 -17 43 -33t27.5 -31.5t14.5 -32.5t4 -37 q0 -44 -18 -74.5t-48 -49.5t-69 -27t-80 -8q-16 0 -36 1t-41 2.5t-42 4.5t-37 7q-8 2 -13 6.5t-5 9.5q0 2 1 4l6 35q2 10 7 13.5t18 1.5q18 -2 39 -4t42.5 -3.5t40.5 -2.5t33 -1q22 0 42.5 4.5t36 14t25 26t9.5 40.5q0 17 -12 32.5t-46 38.5l-90 59q-42 27 -63 58t-21 72 q0 42 18.5 69.5t47.5 44.5t66 24t75 7z"/>
<glyph glyph-name="t" horiz-adv-x="375" unicode="t" d="M424 550q16 0 16 -15v-5l-6 -34q-2 -14 -8.5 -17t-14.5 -3h-108l-62 -351q-3 -18 -3 -29q0 -22 11 -27t35 -5h61q17 0 14 -14l-6 -35q-2 -7 -6 -11t-15 -6q-15 -2 -32 -3.5t-31 -1.5q-51 0 -85.5 21.5t-34.5 73.5q0 10 1 18.5t3 20.5l62 349l-95 11q-8 1 -12.5 5t-4.5 9 q0 2 1 4l5 27q2 11 8 14.5t14 3.5h97l16 98q3 17 22 20l53 8q3 1 5 1q7 0 9.5 -5t0.5 -13l-18 -109h108z"/>
<glyph glyph-name="u" d="M567 550q11 0 13.5 -5t2.5 -9q0 -3 -1 -6l-89 -510q-2 -8 -8.5 -14t-14.5 -6h-47q-9 0 -13 6t-2 14l3 18q-45 -23 -83 -34t-83 -11q-65 0 -105.5 39.5t-40.5 118.5q0 28 6 61l56 318q2 11 9 15.5t15 4.5h48q19 0 16 -20l-58 -329q-6 -33 -6 -57q0 -42 21.5 -58t71.5 -16 q32 0 68 10t74 27l74 423q2 8 6.5 14t17.5 6h49z" unicode="u"/>
<glyph glyph-name="v" horiz-adv-x="530" unicode="v" d="M586 538q0 -6 -3 -12l-208 -454q-22 -47 -51.5 -63t-59.5 -16q-15 0 -28.5 3.5t-25 12.5t-19 24t-10.5 39l-48 454q-1 4 -1 6q0 9 5.5 13.5t14.5 4.5h51q6 0 10.5 -4.5t5.5 -14.5l35 -434q2 -19 6.5 -25t12.5 -6q7 0 14 6t15 25l189 434q5 10 10 14.5t16 4.5h56 q13 0 13 -12z"/>
<glyph glyph-name="w" horiz-adv-x="786" unicode="w" d="M826 550q9 0 13 -4t4 -9t-2 -11l-179 -464q-14 -38 -38.5 -53.5t-57.5 -15.5q-29 0 -47 19t-21 56l-29 337q-1 7 -4 7t-6 -7l-147 -337q-17 -37 -37.5 -56t-56.5 -19q-33 0 -51.5 15.5t-20.5 53.5l-15 465q0 8 7 15.5t16 7.5h52q7 0 10.5 -5t3.5 -11l3 -453q0 -9 2 -10.5 t4 -1.5q5 0 10 12l165 381q8 17 19 23.5t27 6.5h56q16 0 24 -6.5t10 -23.5l31 -381q1 -12 6 -12q2 0 4.5 1.5t5.5 10.5l163 453q2 6 7 11t13 5h56z"/>
<glyph glyph-name="x" horiz-adv-x="547" unicode="x" d="M594 540q0 -7 -7 -15l-214 -243l134 -259q3 -5 3 -10q0 -13 -16 -13h-56q-8 0 -12 3t-8 11l-104 201l-181 -205q-6 -7 -9 -8.5t-10 -1.5h-58q-14 0 -14 8t6 15l230 262l-124 240q-3 6 -3 10q0 7 5 11t12 4h55q10 0 18 -14l96 -185l162 185q8 9 12 11.5t11 2.5h61 q11 0 11 -10z"/>
<glyph glyph-name="y" horiz-adv-x="534" unicode="y" d="M592 537q0 -5 -3 -11l-267 -576q-19 -41 -37.5 -69t-42.5 -45.5t-55 -25.5t-74 -8q-21 0 -44 2.5t-38 6.5q-8 2 -14.5 5t-4.5 11l7 37q2 11 6.5 14.5t18.5 1.5q8 -1 19.5 -2t24 -2t24.5 -1.5t20 -0.5q21 0 37.5 3.5t30 13t24.5 26t22 42.5l17 41h-11q-12 0 -22.5 3 t-19.5 11.5t-15 23.5t-9 40l-51 448q-2 16 4 20t17 4h52q9 0 11 -5t3 -11l42 -434q2 -15 6 -18.5t9 -3.5h16l202 457q3 8 7 11.5t15 3.5h59q14 0 14 -13z"/>
<glyph glyph-name="z" horiz-adv-x="466" unicode="z" d="M493 481q0 -16 -6.5 -32t-20.5 -31l-313 -325q-7 -7 -7 -12q0 -7 10 -7h255q13 0 15.5 -6t0.5 -14l-6 -34q-2 -11 -6 -15.5t-17 -4.5h-253q-45 0 -66 20.5t-21 49.5q0 15 5 30.5t18 28.5l319 331q6 6 6 11t-10 5h-246q-19 0 -16 20l6 34q2 12 8.5 16t14.5 4h250 q43 0 61.5 -20.5t18.5 -48.5z"/>
<glyph glyph-name="braceleft" horiz-adv-x="331" unicode="{" d="M430 723l-5 -33q-2 -8 -9 -14t-15 -6h-45q-22 0 -36 -3t-22.5 -10t-13.5 -20t-8 -32l-32 -178q-10 -53 -31 -89.5t-67 -64.5q26 -23 37 -51t11 -60q0 -23 -4 -42l-31 -176q-3 -17 -3 -29q0 -22 13 -29t48 -7h46q16 0 16 -16v-4l-6 -33q-2 -8 -8.5 -14t-14.5 -6h-42 q-73 0 -107.5 24t-34.5 72q0 22 4 42l31 176q2 13 3.5 23.5t1.5 20.5q0 26 -10 44.5t-33 36.5l10 58q20 12 33.5 24.5t23 26.5t15.5 32t10 41l32 178q8 43 20 70t32.5 42t51.5 20.5t77 5.5h46q8 0 12 -5t4 -12v-3z"/>
<glyph glyph-name="bar" horiz-adv-x="249" unicode="|" d="M246 -175q0 -8 -5 -13.5t-13 -5.5h-52q-8 0 -13.5 5.5t-5.5 13.5v899q0 8 5.5 13.5t13.5 5.5h52q8 0 13 -5.5t5 -13.5v-899z"/>
<glyph glyph-name="braceright" horiz-adv-x="331" unicode="}" d="M354 245q-20 -12 -33.5 -24.5t-23 -27t-15.5 -32.5t-10 -41l-31 -176q-8 -42 -18.5 -68.5t-30 -42t-50.5 -21.5t-78 -6h-51q-8 0 -12.5 5t-4.5 12v2v1l6 33q2 8 9 14t15 6h46q22 0 36 2.5t22.5 10t13.5 20t8 32.5l31 176q9 53 31 89t67 64q-26 25 -37.5 51t-11.5 57 q0 11 1.5 22t3.5 24l32 178q3 16 3 29q0 21 -13 28.5t-48 7.5h-45q-8 0 -12 5t-4 12v3l5 33q2 8 9 14t15 6h50q72 0 102.5 -23t30.5 -72q0 -10 -1 -20.5t-3 -22.5l-32 -178q-2 -13 -3.5 -23.5t-1.5 -20.5q0 -26 10 -44t33 -36z"/>
<glyph glyph-name="asciitilde" horiz-adv-x="595" unicode="~" d="M581 467q0 -63 -24.5 -95.5t-84.5 -32.5q-20 0 -39.5 7.5t-36.5 20.5l-73 58q-22 17 -32 24t-21 7q-29 0 -35.5 -16t-6.5 -43v-26q0 -8 -6 -14t-14 -6h-29q-8 0 -14 6t-6 14v26q0 65 28.5 97.5t82.5 32.5q20 0 39.5 -7.5t35.5 -20.5l85 -68q9 -8 21.5 -14t20.5 -6 q28 0 34 13t6 43v28q0 8 6 14t14 6h29q8 0 14 -6t6 -14v-28z"/>
<glyph glyph-name="uni00A0" horiz-adv-x="273" unicode=" "/>
<glyph glyph-name="exclamdown" horiz-adv-x="217" unicode="¡" d="M207 337l-84 -520q-2 -8 -9 -13.5t-15 -5.5h-50q-16 0 -16 16v3l99 520q2 8 8.5 13.5t14.5 5.5h36q16 0 16 -16v-3zM247 531l-17 -94q-2 -8 -8 -13.5t-14 -5.5h-48q-16 0 -16 16v3l17 94q3 19 22 19h48q16 0 16 -16v-3z"/>
<glyph glyph-name="cent" horiz-adv-x="605" unicode="¢" d="M546 531q0 -2 -0.5 -3.5t-0.5 -3.5l-6 -36q-2 -8 -7.5 -11.5t-13.5 -3.5h-3q-32 4 -58.5 6t-63.5 2q-60 0 -100.5 -41t-54.5 -126l-13 -78q-2 -15 -3.5 -29t-1.5 -27q0 -111 100 -111q37 0 65 2t61 6h4q14 0 14 -12v-3l-6 -36q-2 -11 -7 -15.5t-17 -6.5 q-20 -3 -44.5 -5.5t-51.5 -4.5l-16 -90q-2 -8 -8.5 -14t-14.5 -6h-41q-17 0 -17 17v3l17 94q-63 13 -94.5 63.5t-31.5 120.5q0 13 1.5 26.5t3.5 27.5l13 78q10 58 30 101t47 72t60 44.5t68 20.5l17 93q2 8 8.5 14t14.5 6h41q17 0 17 -17v-3l-16 -89q26 -2 50 -4.5t42 -5.5 q17 -3 17 -15z"/>
<glyph glyph-name="sterling" horiz-adv-x="605" unicode="£" d="M664 717q0 -2 -0.5 -2.5t-0.5 -2.5l-8 -41q-3 -17 -19 -17h-4q-32 4 -74.5 7.5t-77.5 3.5q-39 0 -66 -8.5t-45 -28.5t-29.5 -53.5t-20.5 -84.5l-11 -65h215q16 0 16 -15v-3l-8 -42q-2 -8 -8.5 -13t-14.5 -5h-214l-27 -152q-7 -38 -23 -67t-33 -52h319q8 0 13 -3t5 -9v-3 l-8 -44q-2 -8 -8.5 -12.5t-14.5 -4.5h-399q-8 0 -11 3.5t-3 8.5v3l7 39q2 8 6 13l8 10q23 29 33.5 54t17.5 64l27 152h-52q-15 0 -15 14v4l8 42q2 8 8.5 13t14.5 5h50l11 65q11 65 30 112.5t50 78.5t76.5 46t109.5 15q19 0 40.5 -1t42 -3t39 -4.5t31.5 -4.5q17 -3 17 -12z "/>
<glyph glyph-name="currency" horiz-adv-x="605" unicode="¤" d="M485 373q0 25 -9.5 46.5t-26 37.5t-38 25.5t-46.5 9.5t-46.5 -9.5t-38 -25.5t-26 -37.5t-9.5 -46.5t9.5 -46.5t26 -38t38 -26t46.5 -9.5t46.5 9.5t38 26t26 38t9.5 46.5zM612 574q0 -8 -7 -15l-82 -82q17 -23 25 -50t8 -54q0 -28 -8.5 -55t-25.5 -51l82 -82q7 -7 7 -15 q0 -7 -5 -12l-27 -27q-5 -5 -11 -5q-8 0 -15 7l-84 84q-47 -33 -102 -33q-27 0 -54 8t-50 25l-82 -82q-3 -3 -7 -5.5t-9 -2.5t-10 5l-27 28q-5 7 -5 11q0 8 7 15l81 81q-17 23 -25.5 50.5t-8.5 55.5q0 27 7.5 53.5t24.5 49.5l-81 81q-7 7 -7 15t5 12l28 27q5 5 11 5 q7 0 15 -8l80 -80q24 17 51 25.5t55 8.5q58 0 106 -34l82 82q7 7 15 7q6 0 11 -5l27 -27q5 -5 5 -11z"/>
<glyph glyph-name="yen" horiz-adv-x="605" unicode="¥" d="M694 732q0 -8 -5 -14l-161 -236h110q16 0 16 -16v-4l-5 -30q-2 -8 -8.5 -14t-14.5 -6h-145l-75 -110l-3 -21h200q16 0 16 -16v-4l-5 -30q-2 -8 -9 -14t-15 -6h-200l-33 -191q-2 -8 -8 -14t-14 -6h-57q-7 0 -10 4.5t-3 10.5v5l33 191h-201q-16 0 -16 16v4l5 30q2 8 9 14 t15 6h201l3 21l-35 110h-146q-17 0 -17 17v3l5 30q2 8 9 14t15 6h111l-77 236q-2 6 -2 9q0 16 19 16h59q5 0 9 -4.5t6 -9.5l102 -339l222 339q3 5 8 9.5t11 4.5h66q15 0 15 -11z"/>
<glyph glyph-name="brokenbar" horiz-adv-x="249" unicode="¦" d="M229 -191q0 -8 -5 -14t-13 -6h-53q-8 0 -13 6t-5 14v347q0 8 5 13.5t13 5.5h53q8 0 13 -5.5t5 -13.5v-347zM229 362q0 -8 -5 -14t-13 -6h-53q-8 0 -13 6t-5 14v347q0 8 5 13.5t13 5.5h53q8 0 13 -5.5t5 -13.5v-347z"/>
<glyph glyph-name="section" horiz-adv-x="547" unicode="§" d="M443 216q0 29 -18.5 50.5t-63.5 52.5l-80 55q-15 11 -32.5 23t-31.5 24q-8 -17 -14 -34t-6 -36q0 -29 18.5 -51.5t52.5 -45.5l99 -66q20 -14 32 -22.5t27 -20.5q17 34 17 71zM607 718l-8 -43q-2 -8 -7.5 -12.5t-13.5 -4.5h-1q-44 2 -86 5.5t-86 3.5q-31 0 -60 -3.5 t-52 -15.5t-37 -34t-14 -59q0 -26 18.5 -47t64.5 -51l97 -64q64 -43 89 -80.5t25 -79.5q0 -40 -14 -78.5t-39 -69.5q17 -34 17 -70q0 -63 -23.5 -107t-63 -71.5t-91 -40t-108.5 -12.5q-53 0 -93.5 4.5t-72.5 9.5q-15 2 -15 16v3l7 42q2 8 8.5 12.5t14.5 4.5h2 q41 -3 79.5 -6.5t80.5 -3.5q35 0 67 6.5t56 23t38.5 43.5t14.5 68q0 14 -4.5 26.5t-14.5 24.5t-27 25t-41 30l-100 67q-59 40 -81.5 78.5t-22.5 77.5q0 41 15 73t41 63q-9 17 -14 35.5t-5 39.5q0 61 23 100t61 62t87 32t101 9q21 0 46.5 -1.5t50.5 -3.5t45 -4t31 -4 q6 -2 10.5 -6t4.5 -10v-3z"/>
<glyph glyph-name="dieresis" horiz-adv-x="373" unicode="¨" d="M270 741l-15 -81q-2 -8 -8.5 -13.5t-14.5 -5.5h-39q-7 0 -12 4t-5 12v3l15 81q2 8 8.5 14t14.5 6h39q7 0 12 -5t5 -12v-3zM445 741l-15 -81q-2 -8 -8.5 -13.5t-14.5 -5.5h-39q-7 0 -12 4t-5 12v3l15 81q2 8 8.5 14t14.5 6h39q7 0 12 -5t5 -12v-3z"/>
<glyph glyph-name="copyright" horiz-adv-x="750" unicode="©" d="M546 183q0 -8 -5 -11t-10 -4q-11 -2 -33.5 -4.5t-57.5 -2.5q-32 0 -60 10t-48.5 31.5t-32.5 56.5t-12 85v66q0 50 12 85t32.5 57t48.5 32t60 10q35 0 57.5 -3t33.5 -5q5 -1 10 -3.5t5 -10.5v-28q0 -8 -4 -10t-9 -2h-3q-16 2 -39.5 3.5t-50.5 1.5q-18 0 -34.5 -6t-29 -21 t-20 -39.5t-7.5 -60.5v-66q0 -36 7.5 -60.5t20 -39t29 -20.5t34.5 -6q26 0 50 1.5t40 3.5h2q5 0 9.5 -2.5t4.5 -10.5v-27zM726 374q0 58 -22 110t-60.5 90t-90 60.5t-109.5 22.5q-59 0 -110 -22.5t-89 -60.5t-60 -90t-22 -110q0 -59 22 -110t60 -88.5t89 -59.5t110 -22 q58 0 109.5 22t90 59.5t60.5 88.5t22 110zM770 374q0 -67 -26 -126t-70 -103t-103.5 -69.5t-126.5 -25.5t-126 25.5t-103 69.5t-69.5 103t-25.5 126t25.5 126.5t69.5 104t103 70.5t126 26t126.5 -26t103.5 -70.5t70 -104t26 -126.5z"/>
<glyph glyph-name="ordfeminine" horiz-adv-x="302" unicode="ª" d="M284 576h-9q-48 -2 -69 -12.5t-25 -37.5l-1 -7q-1 -5 -1.5 -8.5t-0.5 -7.5q0 -18 13.5 -26.5t47.5 -8.5q14 0 27.5 1.5t21.5 3.5l19 103h-23zM378 665q0 -16 -3 -34l-32 -181q-2 -13 -12 -16q-25 -6 -50.5 -9.5t-50.5 -3.5q-58 0 -84 17.5t-26 55.5q0 5 0.5 11.5 t1.5 13.5l1 7q7 49 46 70.5t112 21.5h32l2 13q1 7 1.5 13t0.5 11q0 22 -11 30.5t-34 8.5q-27 0 -47.5 -1.5t-37.5 -3.5h-2q-11 0 -11 10v3l3 21q1 7 6.5 10t11.5 4q17 3 38.5 6t48.5 3q51 0 73.5 -20.5t22.5 -60.5z"/>
<glyph glyph-name="guillemotleft" horiz-adv-x="614" unicode="«" d="M385 477q0 -3 -2 -7.5t-6 -7.5l-210 -185l139 -185q4 -6 4 -11q0 -11 -12 -11h-53q-10 0 -19 10l-139 169q-8 9 -8 25q0 21 12 31l199 169q8 6 13.5 8t11.5 2h61q9 0 9 -7zM645 477q0 -3 -2 -7.5t-6 -7.5l-210 -185l139 -185q4 -6 4 -11q0 -11 -12 -11h-53q-10 0 -19 10 l-139 169q-8 9 -8 25q0 21 12 31l199 169q8 6 13.5 8t11.5 2h61q9 0 9 -7z"/>
<glyph glyph-name="logicalnot" horiz-adv-x="595" unicode="¬" d="M585 247q0 -8 -6 -14t-14 -6h-32q-8 0 -14 6t-6 14v219h-333q-8 0 -14 4t-6 12v40q0 8 6 12t14 4h388q17 0 17 -17v-274z"/>
<glyph glyph-name="uni00AD" horiz-adv-x="333" unicode="­" d="M340 312l-7 -39q-3 -17 -22 -17h-199q-16 0 -16 14v3l7 39q2 8 8 13t14 5h199q16 0 16 -15v-3z"/>
<glyph glyph-name="registered" horiz-adv-x="598" unicode="®" d="M449 559q0 30 -18 42t-60 12h-32h-14v-112q8 0 24 -0.5t22 -0.5q42 0 60 12.5t18 42.5v4zM511 331q0 -13 -12 -13h-28q-8 0 -12 8l-81 128l-10 3h-42v-124q0 -5 -4 -10t-10 -5h-25q-6 0 -9.5 5t-3.5 10v302q0 20 18 22q6 1 15.5 1.5t20 1t21.5 0.5h19q63 0 97 -22t34 -79 v-4q0 -38 -17.5 -59.5t-49.5 -30.5l77 -125q2 -4 2 -9zM614 484q0 47 -18 89t-49 73t-73 49t-89 18t-88.5 -18t-72.5 -49t-48.5 -73t-17.5 -89t17.5 -88.5t48.5 -72.5t72.5 -48.5t88.5 -17.5t89 17.5t73 48.5t49 72.5t18 88.5zM655 484q0 -56 -21 -105t-58 -85t-86 -57 t-105 -21t-105 21t-85.5 57t-57.5 85t-21 105t21 105t57.5 85.5t85.5 57.5t105 21t105 -21t86 -57.5t58 -85.5t21 -105z"/>
<glyph glyph-name="macron" horiz-adv-x="373" unicode="¯" d="M479 726l-6 -34q-2 -8 -8.5 -12.5t-14.5 -4.5h-288q-17 0 -17 14v3l6 34q2 8 8.5 12.5t14.5 4.5h288q17 0 17 -14v-3z"/>
<glyph glyph-name="degree" horiz-adv-x="342" unicode="°" d="M368 608q0 18 -7 34t-19 28t-28 19t-34 7t-34 -7t-28 -19t-19 -28t-7 -34t7 -34t19 -28t28 -19t34 -7t34 7t28 19t19 28t7 34zM422 608q0 -29 -11 -55t-30.5 -45.5t-45.5 -30.5t-55 -11t-55 11t-45.5 30.5t-31 45.5t-11.5 55t11.5 55t31 45.5t45.5 30.5t55 11t55 -11 t45.5 -30.5t30.5 -45.5t11 -55z"/>
<glyph glyph-name="plusminus" horiz-adv-x="595" unicode="±" d="M574 9q0 -8 -6 -12t-14 -4h-415q-8 0 -14 4t-6 12v33q0 8 6 12t14 4h415q8 0 14 -4t6 -12v-33zM574 371q0 -8 -6 -12t-14 -4h-172v-171q0 -8 -4 -14t-12 -6h-40q-8 0 -12 6t-4 14v171h-171q-8 0 -14 4t-6 12v40q0 8 6 12t14 4h171v172q0 8 4 14t12 6h40q8 0 12 -6t4 -14 v-172h172q8 0 14 -4t6 -12v-40z"/>
<glyph glyph-name="two.superior" horiz-adv-x="341" unicode="²" d="M413 663q0 -24 -7.5 -43t-20.5 -34.5t-30 -28.5t-36 -25l-58 -36q-24 -15 -39 -28t-23.5 -25.5t-12.5 -25.5t-7 -28l-1 -5h173q12 0 11 -10l-6 -37q-2 -7 -5 -8.5t-10 -1.5h-225q-7 0 -8.5 3.5t-1.5 8.5l7 40q9 52 33.5 90.5t81.5 73.5l61 37q19 12 31 20.5t18.5 17 t8.5 17.5t2 21q0 20 -16.5 27t-57.5 7q-20 0 -43.5 -1.5t-46.5 -5.5q-15 -3 -12 10l6 31q1 7 14 10q20 5 45.5 8.5t51.5 3.5q57 0 90 -21t33 -62z"/>
<glyph glyph-name="three.superior" horiz-adv-x="338" unicode="³" d="M186 734q20 6 44.5 9t46.5 3q63 0 97 -25.5t34 -68.5q0 -73 -68 -109q21 -14 28 -36t7 -39q0 -39 -13 -66.5t-35.5 -45t-53 -25.5t-66.5 -8q-23 0 -49.5 3.5t-43.5 8.5q-3 1 -6 3t-2 8l5 29q2 8 5.5 9.5t6.5 1.5t8 -0.5t11 -1.5q14 -2 30.5 -3t30.5 -1q24 0 44 3t34.5 12 t22.5 26t8 45q0 23 -10.5 37t-40.5 14h-100q-4 0 -8 2t-2 9l6 31q2 11 14 11h98q36 0 55 19.5t19 54.5q0 26 -20 35.5t-65 9.5q-18 0 -41 -2.5t-39 -4.5q-12 -1 -10 11l5 30q1 7 13 11z"/>
<glyph glyph-name="acute" horiz-adv-x="373" unicode="´" d="M469 773q0 -4 -5 -9l-136 -126q-8 -8 -12.5 -11.5t-12.5 -3.5h-54q-8 0 -8 6q0 5 6 11l120 124q8 8 12.5 11.5t13.5 3.5h66q10 0 10 -6z"/>
<glyph glyph-name="mu" d="M582 530l-85 -486q-3 -17 -23 -23q-37 -13 -88 -20.5t-102 -7.5q-78 0 -124 29l-35 -198q-2 -8 -9 -14t-15 -6h-48q-16 0 -16 16v4l124 706q2 8 8.5 14t14.5 6h50q15 0 15 -16v-4l-58 -329q-4 -20 -4 -42q0 -48 27 -69.5t83 -21.5q30 0 62 3.5t56 10.5l79 448q2 8 9 14 t15 6h49q15 0 15 -16v-4z" unicode="µ"/>
<glyph glyph-name="paragraph" horiz-adv-x="622" unicode="¶" d="M686 731q0 -2 -0.5 -3.5t-0.5 -3.5l-159 -900q-2 -8 -7 -13.5t-13 -5.5h-23q-7 0 -10.5 4.5t-3.5 10.5v4l152 865h-58l-152 -865q-2 -8 -7 -13.5t-13 -5.5h-23q-7 0 -10.5 4.5t-3.5 10.5v4l77 439h-98q-46 0 -84 12.5t-65 36t-42 57t-15 74.5q0 23 4 43l6 34 q9 54 34 95.5t61 70t82 43t98 14.5h260q14 0 14 -12z"/>
<glyph glyph-name="periodcentered" horiz-adv-x="214" unicode="·" d="M227 438l-16 -93q-2 -8 -8.5 -14t-14.5 -6h-48q-15 0 -15 16v4l16 93q2 8 8.5 13.5t14.5 5.5h48q7 0 11 -4.5t4 -10.5v-4z"/>
<glyph glyph-name="cedilla" horiz-adv-x="366" unicode="¸" d="M247 -38q0 -4 -5 -9l-136 -126q-8 -8 -12.5 -11.5t-12.5 -3.5h-54q-8 0 -8 6q0 5 6 11l119 124q8 8 13 11.5t14 3.5h66q10 0 10 -6z"/>
<glyph glyph-name="one.superior" horiz-adv-x="282" unicode="¹" d="M312 743q10 0 9 -10l-69 -395q0 -5 -3.5 -8t-8.5 -3h-45q-8 0 -7 11l60 341l-78 -31q-3 -2 -7.5 -1t-3.5 8l6 37q1 8 10 11l79 33q15 7 26 7h32z"/>
<glyph glyph-name="ordmasculine" horiz-adv-x="322" unicode="º" d="M339 635q0 29 -13 43.5t-42 14.5q-71 0 -86 -92l-6 -35q-3 -18 -3 -33q0 -60 56 -60q37 0 57 23.5t28 69.5l6 35q3 19 3 34zM401 643q0 -22 -4 -42l-6 -35q-12 -70 -51.5 -107.5t-103.5 -37.5q-54 0 -81 26.5t-27 77.5q0 21 4 41l6 35q12 70 52 107.5t104 37.5 q54 0 80.5 -26.5t26.5 -76.5z"/>
<glyph glyph-name="guillemotright" horiz-adv-x="614" unicode="»" d="M375 280q0 -21 -12 -31l-199 -169q-13 -10 -25 -10h-61q-9 0 -9 7q0 3 2 7.5t6 7.5l210 185l-139 185q-4 6 -4 11q0 11 12 11h53q10 0 19 -10l139 -169q8 -9 8 -25zM635 280q0 -21 -12 -31l-199 -169q-13 -10 -25 -10h-61q-9 0 -9 7q0 3 2 7.5t6 7.5l210 185l-139 185 q-4 6 -4 11q0 11 12 11h53q10 0 19 -10l139 -169q8 -9 8 -25z"/>
<glyph glyph-name="onequarter" horiz-adv-x="737" unicode="¼" d="M641 325l-141 -162h113zM728 124q-2 -8 -8 -12.5t-14 -4.5h-38l-15 -88q-2 -7 -8 -13t-14 -6h-31q-8 0 -11.5 5.5t-1.5 13.5l15 88h-147q-17 0 -23 5.5t-3 22.5l3 20q3 15 13 26l202 224q4 4 8 7.5t14 3.5h31q22 0 19 -20l-41 -233h38q8 0 13 -4.5t3 -12.5zM739 738 q0 -6 -7 -14l-543 -708q-8 -11 -13 -15.5t-13 -4.5h-49q-8 0 -8 6t6 14l543 708q8 11 13 15t13 4h51q7 0 7 -5zM304 743q10 0 9 -10l-69 -395q0 -5 -3.5 -8t-8.5 -3h-45q-8 0 -7 11l60 341l-78 -31q-3 -2 -7.5 -1t-3.5 8l6 37q1 8 10 11l79 33q15 7 26 7h32z"/>
<glyph glyph-name="onehalf" horiz-adv-x="790" unicode="½" d="M792 336q0 -24 -7.5 -43t-20.5 -34.5t-30 -28.5t-36 -25l-58 -36q-24 -15 -39 -28t-23.5 -25.5t-12.5 -25.5t-7 -28l-1 -5h173q12 0 11 -10l-6 -37q-2 -7 -5 -8.5t-10 -1.5h-225q-7 0 -8.5 3.5t-1.5 8.5l7 40q9 52 33.5 90.5t81.5 73.5l61 37q19 12 31 20.5t18.5 17 t8.5 17.5t2 21q0 20 -16.5 27t-57.5 7q-20 0 -43.5 -1.5t-46.5 -5.5q-15 -3 -12 10l6 31q1 7 14 10q20 5 45.5 8.5t51.5 3.5q57 0 90 -21t33 -62zM739 738q0 -6 -7 -14l-543 -708q-8 -11 -13 -15.5t-13 -4.5h-49q-8 0 -8 6t6 14l543 708q8 11 13 15t13 4h51q7 0 7 -5z M304 743q10 0 9 -10l-69 -395q0 -5 -3.5 -8t-8.5 -3h-45q-8 0 -7 11l60 341l-78 -31q-3 -2 -7.5 -1t-3.5 8l6 37q1 8 10 11l79 33q15 7 26 7h32z"/>
<glyph glyph-name="threequarters" horiz-adv-x="798" unicode="¾" d="M187 734q20 6 44.5 9t46.5 3q63 0 97 -25.5t34 -68.5q0 -73 -68 -109q21 -14 28 -36t7 -39q0 -39 -13 -66.5t-35.5 -45t-53 -25.5t-66.5 -8q-23 0 -49.5 3.5t-43.5 8.5q-3 1 -6 3t-2 8l5 29q2 8 5.5 9.5t6.5 1.5t8 -0.5t11 -1.5q14 -2 30.5 -3t30.5 -1q24 0 44 3t34.5 12 t22.5 26t8 45q0 23 -10.5 37t-40.5 14h-100q-4 0 -8 2t-2 9l6 31q2 11 14 11h98q36 0 55 19.5t19 54.5q0 26 -20 35.5t-65 9.5q-18 0 -41 -2.5t-39 -4.5q-12 -1 -10 11l5 30q1 7 13 11zM702 325l-141 -162h113zM789 124q-2 -8 -8 -12.5t-14 -4.5h-38l-15 -88q-2 -7 -8 -13 t-14 -6h-31q-8 0 -11.5 5.5t-1.5 13.5l15 88h-147q-17 0 -23 5.5t-3 22.5l3 20q3 15 13 26l202 224q4 4 8 7.5t14 3.5h31q22 0 19 -20l-41 -233h38q8 0 13 -4.5t3 -12.5zM800 738q0 -6 -7 -14l-543 -708q-8 -11 -13 -15.5t-13 -4.5h-49q-8 0 -8 6t6 14l543 708q8 11 13 15 t13 4h51q7 0 7 -5z"/>
<glyph glyph-name="questiondown" horiz-adv-x="446" unicode="¿" d="M384 337l-8 -49q-4 -24 -10 -43t-17 -36t-27 -35t-39 -39l-55 -51q-22 -20 -38.5 -37t-27.5 -34t-16.5 -36t-5.5 -44q0 -31 22 -42.5t70 -11.5q36 0 68.5 2.5t67.5 6.5h3q12 0 12 -12v-3v-2l-6 -35q-2 -9 -5.5 -15t-15.5 -8q-32 -6 -69 -9.5t-71 -3.5q-37 0 -68.5 7 t-55 22t-37 38.5t-13.5 55.5q0 35 10.5 64t28 54.5t40.5 48.5t47 46l54 51q17 16 29 27.5t20.5 22.5t13.5 22.5t8 28.5l8 49q2 8 9 13.5t15 5.5h44q15 0 15 -15v-3v-1zM422 531l-17 -93q-2 -8 -8.5 -14t-14.5 -6h-48q-8 0 -12 5t-4 12v3l17 93q3 19 22 19h48q17 0 17 -16v-3 z"/>
<glyph glyph-name="Agrave" horiz-adv-x="633" unicode="À" d="M526 803q0 -9 -10 -9h-54q-8 0 -12 3.5t-9 11.5l-90 126q-3 4 -3 7q0 8 12 8h66q9 0 13.5 -3.5t9.5 -11.5l75 -124q2 -3 2 -8zM453 653q-2 18 -16 18q-15 0 -23 -18l-149 -329h221zM607 19q0 -19 -17 -19h-60q-7 0 -10 4.5t-4 10.5l-25 230h-259l-104 -230 q-2 -6 -8.5 -10.5t-12.5 -4.5h-61q-14 0 -14 13q0 6 2 10l300 651q10 23 24 37.5t29.5 23t31.5 12t30 3.5t28.5 -3t27 -11.5t21 -23t11.5 -37.5l70 -652v-4z"/>
<glyph glyph-name="Aacute" horiz-adv-x="633" unicode="Á" d="M635 944q0 -4 -5 -9l-136 -126q-8 -8 -12.5 -11.5t-12.5 -3.5h-54q-8 0 -8 6q0 5 6 11l120 124q8 8 12.5 11.5t13.5 3.5h66q10 0 10 -6zM453 653q-2 18 -16 18q-15 0 -23 -18l-149 -329h221zM607 19q0 -19 -17 -19h-60q-7 0 -10 4.5t-4 10.5l-25 230h-259l-104 -230 q-2 -6 -8.5 -10.5t-12.5 -4.5h-61q-14 0 -14 13q0 6 2 10l300 651q10 23 24 37.5t29.5 23t31.5 12t30 3.5t28.5 -3t27 -11.5t21 -23t11.5 -37.5l70 -652v-4z"/>
<glyph glyph-name="Acircumflex" horiz-adv-x="633" unicode="Â" d="M630 803q0 -9 -10 -9h-49q-8 0 -12 3.5t-9 11.5l-64 97l-101 -97q-8 -8 -12.5 -11.5t-12.5 -3.5h-55q-8 0 -8 6q0 5 6 11l118 124q8 8 12.5 11.5t13.5 3.5h85q9 0 13.5 -3.5t9.5 -11.5l73 -124q2 -3 2 -8zM453 653q-2 18 -16 18q-15 0 -23 -18l-149 -329h221zM607 19 q0 -19 -17 -19h-60q-7 0 -10 4.5t-4 10.5l-25 230h-259l-104 -230q-2 -6 -8.5 -10.5t-12.5 -4.5h-61q-14 0 -14 13q0 6 2 10l300 651q10 23 24 37.5t29.5 23t31.5 12t30 3.5t28.5 -3t27 -11.5t21 -23t11.5 -37.5l70 -652v-4z"/>
<glyph glyph-name="Atilde" horiz-adv-x="633" unicode="Ã" d="M660 917l-4 -23q-9 -52 -31.5 -78.5t-70.5 -26.5q-17 0 -38 4.5t-38 21.5l-47 44q-15 14 -21.5 18t-15.5 4q-34 0 -40 -46l-3 -21q-1 -7 -5.5 -12t-11.5 -5h-34q-13 0 -13 14v3l3 21q8 60 35.5 84.5t68.5 24.5q23 0 38.5 -7t35.5 -24l54 -49q7 -6 16 -10t16 -4q15 0 24 9 t14 35l4 23q2 7 6 12t11 5h34q13 0 13 -14v-3zM453 653q-2 18 -16 18q-15 0 -23 -18l-149 -329h221zM607 19q0 -19 -17 -19h-60q-7 0 -10 4.5t-4 10.5l-25 230h-259l-104 -230q-2 -6 -8.5 -10.5t-12.5 -4.5h-61q-14 0 -14 13q0 6 2 10l300 651q10 23 24 37.5t29.5 23 t31.5 12t30 3.5t28.5 -3t27 -11.5t21 -23t11.5 -37.5l70 -652v-4z"/>
<glyph glyph-name="Adieresis" horiz-adv-x="633" unicode="Ä" d="M436 908l-15 -81q-2 -8 -8.5 -13.5t-14.5 -5.5h-39q-7 0 -12 4t-5 12v3l15 81q2 8 8.5 14t14.5 6h39q7 0 12 -5t5 -12v-3zM611 908l-15 -81q-2 -8 -8.5 -13.5t-14.5 -5.5h-39q-7 0 -12 4t-5 12v3l15 81q2 8 8.5 14t14.5 6h39q7 0 12 -5t5 -12v-3zM453 653q-2 18 -16 18 q-15 0 -23 -18l-149 -329h221zM607 19q0 -19 -17 -19h-60q-7 0 -10 4.5t-4 10.5l-25 230h-259l-104 -230q-2 -6 -8.5 -10.5t-12.5 -4.5h-61q-14 0 -14 13q0 6 2 10l300 651q10 23 24 37.5t29.5 23t31.5 12t30 3.5t28.5 -3t27 -11.5t21 -23t11.5 -37.5l70 -652v-4z"/>
<glyph glyph-name="Aring" horiz-adv-x="633" unicode="Å" d="M519 879q0 22 -15.5 37t-37.5 15t-37 -15t-15 -37t15 -37.5t37 -15.5t37.5 15.5t15.5 37.5zM567 878q0 -21 -8 -39.5t-21.5 -32t-32 -21.5t-39.5 -8t-39.5 8t-32.5 21.5t-22 32t-8 39.5t8 39.5t22 32.5t32.5 22t39.5 8t39.5 -8t32 -22t21.5 -32.5t8 -39.5zM453 653 q-2 18 -16 18q-15 0 -23 -18l-149 -329h221zM607 19q0 -19 -17 -19h-60q-7 0 -10 4.5t-4 10.5l-25 230h-259l-104 -230q-2 -6 -8.5 -10.5t-12.5 -4.5h-61q-14 0 -14 13q0 6 2 10l300 651q10 23 24 37.5t29.5 23t31.5 12t30 3.5t28.5 -3t27 -11.5t21 -23t11.5 -37.5l70 -652 v-4z"/>
<glyph glyph-name="AE" horiz-adv-x="859" unicode="Æ" d="M423 664q-15 0 -23 -17l-147 -323h220l61 340h-111zM933 729l-9 -53q-2 -12 -13 -12h-286l-43 -239h277q16 0 16 -16v-4l-6 -38q-2 -8 -9 -14t-15 -6h-277l-29 -168q-2 -14 -3.5 -25t-1.5 -20q0 -17 5 -28.5t18 -18.5t33.5 -9.5t52.5 -2.5h163q9 0 9 -9v-3l-9 -49 q-1 -5 -4 -9t-8 -5q-11 -1 -30 -2.5t-42 -2.5t-47.5 -1.5t-46.5 -0.5q-185 0 -185 140q0 11 1.5 22.5t3.5 23.5l11 66h-239l-104 -230q-2 -6 -8.5 -10.5t-12.5 -4.5h-59q-14 0 -14 13q0 7 2 10l299 645q22 47 50 61t66 14h487q4 0 5.5 -3.5t1.5 -7.5v-3z"/>
<glyph glyph-name="Ccedilla" horiz-adv-x="545" unicode="Ç" d="M375 -38q0 -3 -6 -9l-136 -126q-8 -8 -12.5 -11.5t-12.5 -3.5h-54q-8 0 -8 6q0 5 6 11l119 124q8 8 13.5 11.5t13.5 3.5h66q11 0 11 -6zM635 721l-9 -51q-1 -11 -14 -11h-3l-32.5 2.5t-42 3t-46 2.5t-45.5 1q-37 0 -70.5 -11.5t-62 -38.5t-49.5 -70.5t-32 -106.5 l-25 -139q-4 -21 -5.5 -39t-1.5 -35q0 -42 10.5 -71t29 -47.5t44.5 -26.5t57 -8q21 0 45 1t46.5 2t42 2.5t33.5 2.5h4q13 0 13 -11v-5l-7 -41q-2 -9 -9 -13.5t-15 -6.5q-16 -3 -32.5 -5.5t-36 -4t-43.5 -2.5t-56 -1q-38 0 -76.5 12t-70 39t-51 70.5t-19.5 107.5q0 18 1.5 38 t5.5 42l25 139q17 95 51 155.5t77.5 94.5t92.5 46.5t97 12.5t90.5 -5.5t74.5 -10.5q5 -1 9.5 -3t4.5 -8v-2z"/>
<glyph glyph-name="Egrave" horiz-adv-x="551" unicode="È" d="M501 802q0 -9 -10 -9h-54q-8 0 -12 3.5t-9 11.5l-90 126q-3 4 -3 7q0 8 12 8h66q9 0 13.5 -3.5t9.5 -11.5l75 -124q2 -3 2 -8zM625 727l-9 -47q-2 -12 -13 -12h-193q-40 0 -65 -5.5t-40.5 -18t-23.5 -32.5t-13 -48l-24 -139h307q16 0 16 -17v-3l-6 -38q-2 -8 -9 -14 t-15 -6h-307l-29 -168q-2 -12 -3.5 -22t-1.5 -19q0 -34 23 -48.5t86 -14.5h193q9 0 9 -9v-3l-9 -49q-1 -5 -4 -9t-8 -5q-11 -1 -34.5 -2.5t-52 -2.5t-58 -1.5t-51.5 -0.5q-86 0 -135 35.5t-49 108.5q0 22 4 42l67 385q10 55 30 91t50.5 57t71.5 29.5t94 8.5q85 0 129.5 -2.5 t64.5 -6.5q5 -1 6.5 -4.5t1.5 -7.5v-2z"/>
<glyph glyph-name="Eacute" horiz-adv-x="551" unicode="É" d="M612 944q0 -4 -5 -9l-136 -126q-8 -8 -12.5 -11.5t-12.5 -3.5h-54q-8 0 -8 6q0 5 6 11l120 124q8 8 12.5 11.5t13.5 3.5h66q10 0 10 -6zM625 727l-9 -47q-2 -12 -13 -12h-193q-40 0 -65 -5.5t-40.5 -18t-23.5 -32.5t-13 -48l-24 -139h307q16 0 16 -17v-3l-6 -38 q-2 -8 -9 -14t-15 -6h-307l-29 -168q-2 -12 -3.5 -22t-1.5 -19q0 -34 23 -48.5t86 -14.5h193q9 0 9 -9v-3l-9 -49q-1 -5 -4 -9t-8 -5q-11 -1 -34.5 -2.5t-52 -2.5t-58 -1.5t-51.5 -0.5q-86 0 -135 35.5t-49 108.5q0 22 4 42l67 385q10 55 30 91t50.5 57t71.5 29.5t94 8.5 q85 0 129.5 -2.5t64.5 -6.5q5 -1 6.5 -4.5t1.5 -7.5v-2z"/>
<glyph glyph-name="Ecircumflex" horiz-adv-x="551" unicode="Ê" d="M598 803q0 -9 -10 -9h-49q-8 0 -12 3.5t-9 11.5l-64 97l-101 -97q-8 -8 -12.5 -11.5t-12.5 -3.5h-55q-8 0 -8 6q0 5 6 11l118 124q8 8 12.5 11.5t13.5 3.5h85q9 0 13.5 -3.5t9.5 -11.5l73 -124q2 -3 2 -8zM625 727l-9 -47q-2 -12 -13 -12h-193q-40 0 -65 -5.5t-40.5 -18 t-23.5 -32.5t-13 -48l-24 -139h307q16 0 16 -17v-3l-6 -38q-2 -8 -9 -14t-15 -6h-307l-29 -168q-2 -12 -3.5 -22t-1.5 -19q0 -34 23 -48.5t86 -14.5h193q9 0 9 -9v-3l-9 -49q-1 -5 -4 -9t-8 -5q-11 -1 -34.5 -2.5t-52 -2.5t-58 -1.5t-51.5 -0.5q-86 0 -135 35.5t-49 108.5 q0 22 4 42l67 385q10 55 30 91t50.5 57t71.5 29.5t94 8.5q85 0 129.5 -2.5t64.5 -6.5q5 -1 6.5 -4.5t1.5 -7.5v-2z"/>
<glyph glyph-name="Edieresis" horiz-adv-x="551" unicode="Ë" d="M410 910l-15 -81q-2 -8 -8.5 -13.5t-14.5 -5.5h-39q-7 0 -12 4t-5 12v3l15 81q2 8 8.5 14t14.5 6h39q7 0 12 -5t5 -12v-3zM585 910l-15 -81q-2 -8 -8.5 -13.5t-14.5 -5.5h-39q-7 0 -12 4t-5 12v3l15 81q2 8 8.5 14t14.5 6h39q7 0 12 -5t5 -12v-3zM625 727l-9 -47 q-2 -12 -13 -12h-193q-40 0 -65 -5.5t-40.5 -18t-23.5 -32.5t-13 -48l-24 -139h307q16 0 16 -17v-3l-6 -38q-2 -8 -9 -14t-15 -6h-307l-29 -168q-2 -12 -3.5 -22t-1.5 -19q0 -34 23 -48.5t86 -14.5h193q9 0 9 -9v-3l-9 -49q-1 -5 -4 -9t-8 -5q-11 -1 -34.5 -2.5t-52 -2.5 t-58 -1.5t-51.5 -0.5q-86 0 -135 35.5t-49 108.5q0 22 4 42l67 385q10 55 30 91t50.5 57t71.5 29.5t94 8.5q85 0 129.5 -2.5t64.5 -6.5q5 -1 6.5 -4.5t1.5 -7.5v-2z"/>
<glyph glyph-name="Igrave" horiz-adv-x="267" unicode="Ì" d="M336 803q0 -9 -10 -9h-54q-8 0 -12 3.5t-9 11.5l-90 126q-3 4 -3 7q0 8 12 8h66q9 0 13.5 -3.5t9.5 -11.5l75 -124q2 -3 2 -8zM307 724l-124 -704q-2 -8 -8 -14t-14 -6h-55q-14 0 -14 16v4l124 704q2 8 7.5 13.5t13.5 5.5h55q7 0 11 -4.5t4 -10.5v-4z"/>
<glyph glyph-name="Iacute" horiz-adv-x="267" unicode="Í" d="M432 944q0 -4 -5 -9l-136 -126q-8 -8 -12.5 -11.5t-12.5 -3.5h-54q-8 0 -8 6q0 5 6 11l120 124q8 8 12.5 11.5t13.5 3.5h66q10 0 10 -6zM307 724l-124 -704q-2 -8 -8 -14t-14 -6h-55q-14 0 -14 16v4l124 704q2 8 7.5 13.5t13.5 5.5h55q7 0 11 -4.5t4 -10.5v-4z"/>
<glyph glyph-name="Icircumflex" horiz-adv-x="267" unicode="Î" d="M438 803q0 -9 -10 -9h-49q-8 0 -12 3.5t-9 11.5l-64 97l-101 -97q-8 -8 -12.5 -11.5t-12.5 -3.5h-55q-8 0 -8 6q0 5 6 11l118 124q8 8 12.5 11.5t13.5 3.5h85q9 0 13.5 -3.5t9.5 -11.5l73 -124q2 -3 2 -8zM307 724l-124 -704q-2 -8 -8 -14t-14 -6h-55q-14 0 -14 16v4 l124 704q2 8 7.5 13.5t13.5 5.5h55q7 0 11 -4.5t4 -10.5v-4z"/>
<glyph glyph-name="Idieresis" horiz-adv-x="267" unicode="Ï" d="M242 909l-15 -81q-2 -8 -8.5 -13.5t-14.5 -5.5h-39q-7 0 -12 4t-5 12v3l15 81q2 8 8.5 14t14.5 6h39q7 0 12 -5t5 -12v-3zM417 909l-15 -81q-2 -8 -8.5 -13.5t-14.5 -5.5h-39q-7 0 -12 4t-5 12v3l15 81q2 8 8.5 14t14.5 6h39q7 0 12 -5t5 -12v-3zM307 724l-124 -704 q-2 -8 -8 -14t-14 -6h-55q-14 0 -14 16v4l124 704q2 8 7.5 13.5t13.5 5.5h55q7 0 11 -4.5t4 -10.5v-4z"/>
<glyph glyph-name="Eth" horiz-adv-x="641" unicode="Ð" d="M229 347l-48 -274q24 -2 50 -2h61q44 0 85 12t74.5 39.5t58 72t35.5 109.5l23 135q7 38 7 72q0 46 -13.5 77t-37.5 50t-56.5 26.5t-70.5 7.5q-35 0 -60.5 -0.5t-50.5 -2.5l-43 -244h104q16 0 16 -17v-3l-6 -38q-2 -8 -9 -14t-15 -6h-104zM666 516q0 -18 -1.5 -37 t-5.5 -40l-23 -135q-14 -83 -45 -141.5t-76.5 -96.5t-105 -55.5t-131.5 -17.5q-29 0 -56.5 1t-51.5 2.5t-42.5 3t-29.5 3.5q-18 3 -18 19q0 2 0.5 3t0.5 3l56 319h-37q-16 0 -16 17v3l6 38q2 8 9 14t15 6h37l51 290q5 22 25 25q11 2 30.5 3.5t44 3t52.5 2.5t57 1 q57 0 104 -14.5t80.5 -43.5t52 -73t18.5 -103z"/>
<glyph glyph-name="Ntilde" horiz-adv-x="680" unicode="Ñ" d="M670 915l-4 -23q-9 -52 -31.5 -78.5t-70.5 -26.5q-17 0 -38 4.5t-38 21.5l-47 44q-15 14 -21.5 18t-15.5 4q-34 0 -40 -46l-3 -21q-1 -7 -5.5 -12t-11.5 -5h-34q-13 0 -13 14v3l3 21q8 60 35.5 84.5t68.5 24.5q23 0 38.5 -7t35.5 -24l54 -49q7 -6 16 -10t16 -4q15 0 24 9 t14 35l4 23q2 7 6 12t11 5h34q13 0 13 -14v-3zM730 724l-123 -695q-2 -12 -12 -20.5t-22 -8.5h-58q-23 0 -29 16l-210 587l-2 3q-2 0 -2 -3l-103 -584q-2 -8 -7.5 -13.5t-13.5 -5.5h-52q-16 0 -16 9v3l124 703q2 12 12 20t22 8h49q21 0 27 -4.5t10 -15.5l210 -584l1 -3h2 l1 3l103 585q2 8 7.5 13.5t13.5 5.5h53q8 0 11.5 -4.5t3.5 -10.5v-4z"/>
<glyph glyph-name="Ograve" horiz-adv-x="661" unicode="Ò" d="M538 803q0 -9 -10 -9h-54q-8 0 -12 3.5t-9 11.5l-90 126q-3 4 -3 7q0 8 12 8h66q9 0 13.5 -3.5t9.5 -11.5l75 -124q2 -3 2 -8zM594 519q0 82 -38 115.5t-107 33.5q-83 0 -140.5 -55.5t-79.5 -176.5l-23 -129q-4 -21 -5.5 -40t-1.5 -36q0 -86 38.5 -121t106.5 -35 q82 0 139.5 55.5t79.5 176.5l23 129q5 23 6.5 44t1.5 39zM686 520q0 -20 -2 -40.5t-6 -43.5l-23 -129q-15 -83 -43.5 -142.5t-70 -97.5t-95 -56t-116.5 -18q-48 0 -89 14t-71 42.5t-47 71.5t-17 102q0 20 2 40.5t6 43.5l23 129q16 89 46.5 149t73 97t95 52.5t111.5 15.5 q50 0 91 -14.5t70.5 -43.5t45.5 -72t16 -100z"/>
<glyph glyph-name="Oacute" horiz-adv-x="661" unicode="Ó" d="M623 944q0 -4 -5 -9l-136 -126q-8 -8 -12.5 -11.5t-12.5 -3.5h-54q-8 0 -8 6q0 5 6 11l120 124q8 8 12.5 11.5t13.5 3.5h66q10 0 10 -6zM594 519q0 82 -38 115.5t-107 33.5q-83 0 -140.5 -55.5t-79.5 -176.5l-23 -129q-4 -21 -5.5 -40t-1.5 -36q0 -86 38.5 -121 t106.5 -35q82 0 139.5 55.5t79.5 176.5l23 129q5 23 6.5 44t1.5 39zM686 520q0 -20 -2 -40.5t-6 -43.5l-23 -129q-15 -83 -43.5 -142.5t-70 -97.5t-95 -56t-116.5 -18q-48 0 -89 14t-71 42.5t-47 71.5t-17 102q0 20 2 40.5t6 43.5l23 129q16 89 46.5 149t73 97t95 52.5 t111.5 15.5q50 0 91 -14.5t70.5 -43.5t45.5 -72t16 -100z"/>
<glyph glyph-name="Ocircumflex" horiz-adv-x="661" unicode="Ô" d="M639 804q0 -9 -10 -9h-49q-8 0 -12 3.5t-9 11.5l-64 97l-101 -97q-8 -8 -12.5 -11.5t-12.5 -3.5h-55q-8 0 -8 6q0 5 6 11l118 124q8 8 12.5 11.5t13.5 3.5h85q9 0 13.5 -3.5t9.5 -11.5l73 -124q2 -3 2 -8zM594 519q0 82 -38 115.5t-107 33.5q-83 0 -140.5 -55.5 t-79.5 -176.5l-23 -129q-4 -21 -5.5 -40t-1.5 -36q0 -86 38.5 -121t106.5 -35q82 0 139.5 55.5t79.5 176.5l23 129q5 23 6.5 44t1.5 39zM686 520q0 -20 -2 -40.5t-6 -43.5l-23 -129q-15 -83 -43.5 -142.5t-70 -97.5t-95 -56t-116.5 -18q-48 0 -89 14t-71 42.5t-47 71.5 t-17 102q0 20 2 40.5t6 43.5l23 129q16 89 46.5 149t73 97t95 52.5t111.5 15.5q50 0 91 -14.5t70.5 -43.5t45.5 -72t16 -100z"/>
<glyph glyph-name="Otilde" horiz-adv-x="661" unicode="Õ" d="M673 917l-4 -23q-9 -52 -31.5 -78.5t-70.5 -26.5q-17 0 -38 4.5t-38 21.5l-47 44q-15 14 -21.5 18t-15.5 4q-34 0 -40 -46l-3 -21q-1 -7 -5.5 -12t-11.5 -5h-34q-13 0 -13 14v3l3 21q8 60 35.5 84.5t68.5 24.5q23 0 38.5 -7t35.5 -24l54 -49q7 -6 16 -10t16 -4q15 0 24 9 t14 35l4 23q2 7 6 12t11 5h34q13 0 13 -14v-3zM594 519q0 82 -38 115.5t-107 33.5q-83 0 -140.5 -55.5t-79.5 -176.5l-23 -129q-4 -21 -5.5 -40t-1.5 -36q0 -86 38.5 -121t106.5 -35q82 0 139.5 55.5t79.5 176.5l23 129q5 23 6.5 44t1.5 39zM686 520q0 -20 -2 -40.5 t-6 -43.5l-23 -129q-15 -83 -43.5 -142.5t-70 -97.5t-95 -56t-116.5 -18q-48 0 -89 14t-71 42.5t-47 71.5t-17 102q0 20 2 40.5t6 43.5l23 129q16 89 46.5 149t73 97t95 52.5t111.5 15.5q50 0 91 -14.5t70.5 -43.5t45.5 -72t16 -100z"/>
<glyph glyph-name="Odieresis" horiz-adv-x="661" unicode="Ö" d="M444 910l-15 -81q-2 -8 -8.5 -13.5t-14.5 -5.5h-39q-7 0 -12 4t-5 12v3l15 81q2 8 8.5 14t14.5 6h39q7 0 12 -5t5 -12v-3zM619 910l-15 -81q-2 -8 -8.5 -13.5t-14.5 -5.5h-39q-7 0 -12 4t-5 12v3l15 81q2 8 8.5 14t14.5 6h39q7 0 12 -5t5 -12v-3zM594 519q0 82 -38 115.5 t-107 33.5q-83 0 -140.5 -55.5t-79.5 -176.5l-23 -129q-4 -21 -5.5 -40t-1.5 -36q0 -86 38.5 -121t106.5 -35q82 0 139.5 55.5t79.5 176.5l23 129q5 23 6.5 44t1.5 39zM686 520q0 -20 -2 -40.5t-6 -43.5l-23 -129q-15 -83 -43.5 -142.5t-70 -97.5t-95 -56t-116.5 -18 q-48 0 -89 14t-71 42.5t-47 71.5t-17 102q0 20 2 40.5t6 43.5l23 129q16 89 46.5 149t73 97t95 52.5t111.5 15.5q50 0 91 -14.5t70.5 -43.5t45.5 -72t16 -100z"/>
<glyph glyph-name="multiply" horiz-adv-x="595" unicode="×" d="M568 243q0 -5 -5 -10l-28 -28q-5 -5 -10 -5q-8 0 -16 8l-15 15l-117 117l-131 -131q-8 -8 -16 -8q-5 0 -10 5l-28 28q-5 5 -5 10q0 8 8 16l131 131q-33 33 -65.5 66t-65.5 66q-8 8 -8 15q0 5 5 10l28 28q5 5 11 5q8 0 15 -7q33 -33 65.5 -66t65.5 -66l132 132q8 8 16 8 q5 0 10 -5l28 -28q5 -5 5 -10q0 -8 -8 -16l-132 -132l132 -132q8 -8 8 -16z"/>
<glyph glyph-name="Oslash" horiz-adv-x="661" unicode="Ø" d="M594 519v12t-1 12l-370 -415q18 -29 48.5 -41t72.5 -12q82 0 139.5 55.5t79.5 176.5l23 129q5 23 6.5 44t1.5 39zM571 615q-18 29 -49 41t-73 12q-83 0 -140.5 -55.5t-79.5 -176.5l-23 -129q-4 -21 -5.5 -40t-1.5 -36q0 -8 0.5 -15.5t1.5 -15.5zM766 742q0 -6 -5 -11 l-94 -105q9 -23 14 -49t5 -57q0 -20 -2 -40.5t-6 -43.5l-23 -129q-15 -83 -43.5 -142.5t-70 -97.5t-95 -56t-116.5 -18q-52 0 -95.5 16t-73.5 49l-50 -55q-5 -6 -8.5 -8t-11.5 -2h-53q-9 0 -9 9q0 6 4 10l92 103q-19 47 -19 108q0 20 2 40.5t6 43.5l23 129q16 89 46.5 149 t73 97t95 52.5t111.5 15.5q54 0 97 -17t72 -50l51 57q9 10 22 10h52q9 0 9 -8z"/>
<glyph glyph-name="Ugrave" horiz-adv-x="662" unicode="Ù" d="M531 803q0 -9 -10 -9h-54q-8 0 -12 3.5t-9 11.5l-90 126q-3 4 -3 7q0 8 12 8h66q9 0 13.5 -3.5t9.5 -11.5l75 -124q2 -3 2 -8zM715 724l-80 -454q-26 -148 -101.5 -212.5t-203.5 -64.5q-99 0 -156.5 51t-57.5 153q0 17 1.5 35t5.5 38l80 454q2 8 8 13.5t14 5.5h54 q16 0 16 -16v-3l-80 -454q-4 -20 -6 -37.5t-2 -34.5q0 -63 31.5 -95t105.5 -32q46 0 80 13t57.5 38t38 62.5t23.5 85.5l80 454q2 8 8 13.5t14 5.5h54q16 0 16 -16v-3z"/>
<glyph glyph-name="Uacute" horiz-adv-x="662" unicode="Ú" d="M640 944q0 -4 -5 -9l-136 -126q-8 -8 -12.5 -11.5t-12.5 -3.5h-54q-8 0 -8 6q0 5 6 11l120 124q8 8 12.5 11.5t13.5 3.5h66q10 0 10 -6zM715 724l-80 -454q-26 -148 -101.5 -212.5t-203.5 -64.5q-99 0 -156.5 51t-57.5 153q0 17 1.5 35t5.5 38l80 454q2 8 8 13.5t14 5.5 h54q16 0 16 -16v-3l-80 -454q-4 -20 -6 -37.5t-2 -34.5q0 -63 31.5 -95t105.5 -32q46 0 80 13t57.5 38t38 62.5t23.5 85.5l80 454q2 8 8 13.5t14 5.5h54q16 0 16 -16v-3z"/>
<glyph glyph-name="Ucircumflex" horiz-adv-x="662" unicode="Û" d="M633 803q0 -9 -10 -9h-49q-8 0 -12 3.5t-9 11.5l-64 97l-101 -97q-8 -8 -12.5 -11.5t-12.5 -3.5h-55q-8 0 -8 6q0 5 6 11l118 124q8 8 12.5 11.5t13.5 3.5h85q9 0 13.5 -3.5t9.5 -11.5l73 -124q2 -3 2 -8zM715 724l-80 -454q-26 -148 -101.5 -212.5t-203.5 -64.5 q-99 0 -156.5 51t-57.5 153q0 17 1.5 35t5.5 38l80 454q2 8 8 13.5t14 5.5h54q16 0 16 -16v-3l-80 -454q-4 -20 -6 -37.5t-2 -34.5q0 -63 31.5 -95t105.5 -32q46 0 80 13t57.5 38t38 62.5t23.5 85.5l80 454q2 8 8 13.5t14 5.5h54q16 0 16 -16v-3z"/>
<glyph glyph-name="Udieresis" horiz-adv-x="662" unicode="Ü" d="M437 910l-15 -81q-2 -8 -8.5 -13.5t-14.5 -5.5h-39q-7 0 -12 4t-5 12v3l15 81q2 8 8.5 14t14.5 6h39q7 0 12 -5t5 -12v-3zM612 910l-15 -81q-2 -8 -8.5 -13.5t-14.5 -5.5h-39q-7 0 -12 4t-5 12v3l15 81q2 8 8.5 14t14.5 6h39q7 0 12 -5t5 -12v-3zM715 724l-80 -454 q-26 -148 -101.5 -212.5t-203.5 -64.5q-99 0 -156.5 51t-57.5 153q0 17 1.5 35t5.5 38l80 454q2 8 8 13.5t14 5.5h54q16 0 16 -16v-3l-80 -454q-4 -20 -6 -37.5t-2 -34.5q0 -63 31.5 -95t105.5 -32q46 0 80 13t57.5 38t38 62.5t23.5 85.5l80 454q2 8 8 13.5t14 5.5h54 q16 0 16 -16v-3z"/>
<glyph glyph-name="Yacute" horiz-adv-x="583" unicode="Ý" d="M604 944q0 -4 -5 -9l-136 -126q-8 -8 -12.5 -11.5t-12.5 -3.5h-54q-8 0 -8 6q0 5 6 11l120 124q8 8 12.5 11.5t13.5 3.5h66q10 0 10 -6zM677 731q0 -5 -5 -13l-217 -348q-19 -30 -34.5 -45t-30.5 -21l-50 -284q-2 -8 -8 -14t-14 -6h-55q-14 0 -14 16v4l50 284 q-13 5 -24 20.5t-19 45.5l-92 348q-1 3 -1 7q0 18 19 18h58q5 0 9.5 -4.5t6.5 -9.5l80 -324q5 -17 9.5 -21.5t9.5 -4.5t10.5 4.5t16.5 21.5l197 324q3 5 8 9.5t11 4.5h64q15 0 15 -12z"/>
<glyph glyph-name="Thorn" horiz-adv-x="593" unicode="Þ" d="M536 479q0 58 -44.5 79t-125.5 21h-44.5t-53.5 -2l-52 -296q9 0 21.5 -0.5t26.5 -1t27.5 -1t23.5 -0.5q109 0 164 51t57 149v1zM629 482q0 -56 -16 -107t-53.5 -90t-98 -62t-148.5 -23q-69 0 -111 3l-32 -183q-2 -8 -5.5 -14t-15.5 -6h-56q-14 0 -14 14v6l124 704 q2 8 5.5 13.5t15.5 5.5h56q17 0 14 -19l-13 -69q34 2 54.5 2.5t42.5 0.5q57 0 103.5 -9.5t79 -30.5t50.5 -54.5t18 -81.5z"/>
<glyph glyph-name="germandbls" horiz-adv-x="581" unicode="ß" d="M613 599q0 -72 -34.5 -125t-103.5 -80q46 -19 70 -58.5t24 -84.5q0 -62 -21.5 -110t-59 -81t-89 -50t-110.5 -17q-11 0 -22 0.5t-26 2.5q-16 2 -16 16v2v1l7 41q1 11 13 11q10 0 22.5 -0.5t20.5 -0.5q92 0 142 46t50 140q0 48 -32.5 76.5t-101.5 28.5h-37q-17 0 -17 16v4 l6 29q2 8 8.5 14t14.5 6h37q78 0 122.5 44.5t44.5 121.5q0 43 -26.5 66t-86.5 23q-70 0 -111 -39.5t-56 -127.5l-87 -493q-2 -8 -8 -14.5t-14 -6.5h-53q-8 0 -11 5t-3 12v4l87 493q23 132 92.5 188t177.5 56q40 0 74.5 -10t59.5 -30.5t39 -50t14 -68.5z"/>
<glyph glyph-name="agrave" horiz-adv-x="527" unicode="à" d="M450 632q0 -9 -10 -9h-54q-8 0 -12 3.5t-9 11.5l-90 126q-3 4 -3 7q0 8 12 8h66q9 0 13.5 -3.5t9.5 -11.5l75 -124q2 -3 2 -8zM455 473q-20 4 -42.5 7t-54.5 3q-78 0 -119 -41.5t-55 -121.5l-18 -103q-2 -11 -3 -23t-1 -23q0 -58 25.5 -81t61.5 -23q35 0 69 15t76 43z M551 519q0 -5 -1 -8l-86 -491q-2 -8 -8.5 -14t-14.5 -6h-40q-9 0 -12 4.5t-3 11.5v4v2l5 31q-22 -16 -40.5 -27t-37 -18.5t-38.5 -11t-45 -3.5q-32 0 -60.5 10.5t-49.5 32t-33.5 55t-12.5 79.5q0 28 6 60l18 99q12 65 37 108.5t59.5 70t76.5 38t87 11.5t91 -6.5t84 -16.5 q18 -4 18 -15z"/>
<glyph glyph-name="aacute" horiz-adv-x="527" unicode="á" d="M558 773q0 -4 -5 -9l-136 -126q-8 -8 -12.5 -11.5t-12.5 -3.5h-54q-8 0 -8 6q0 5 6 11l120 124q8 8 12.5 11.5t13.5 3.5h66q10 0 10 -6zM455 473q-20 4 -42.5 7t-54.5 3q-78 0 -119 -41.5t-55 -121.5l-18 -103q-2 -11 -3 -23t-1 -23q0 -58 25.5 -81t61.5 -23q35 0 69 15 t76 43zM551 519q0 -5 -1 -8l-86 -491q-2 -8 -8.5 -14t-14.5 -6h-40q-9 0 -12 4.5t-3 11.5v4v2l5 31q-22 -16 -40.5 -27t-37 -18.5t-38.5 -11t-45 -3.5q-32 0 -60.5 10.5t-49.5 32t-33.5 55t-12.5 79.5q0 28 6 60l18 99q12 65 37 108.5t59.5 70t76.5 38t87 11.5t91 -6.5 t84 -16.5q18 -4 18 -15z"/>
<glyph glyph-name="acircumflex" horiz-adv-x="527" unicode="â" d="M551 632q0 -9 -10 -9h-49q-8 0 -12 3.5t-9 11.5l-64 97l-101 -97q-8 -8 -12.5 -11.5t-12.5 -3.5h-55q-8 0 -8 6q0 5 6 11l118 124q8 8 12.5 11.5t13.5 3.5h85q9 0 13.5 -3.5t9.5 -11.5l73 -124q2 -3 2 -8zM455 473q-20 4 -42.5 7t-54.5 3q-78 0 -119 -41.5t-55 -121.5 l-18 -103q-2 -11 -3 -23t-1 -23q0 -58 25.5 -81t61.5 -23q35 0 69 15t76 43zM551 519q0 -5 -1 -8l-86 -491q-2 -8 -8.5 -14t-14.5 -6h-40q-9 0 -12 4.5t-3 11.5v4v2l5 31q-22 -16 -40.5 -27t-37 -18.5t-38.5 -11t-45 -3.5q-32 0 -60.5 10.5t-49.5 32t-33.5 55t-12.5 79.5 q0 28 6 60l18 99q12 65 37 108.5t59.5 70t76.5 38t87 11.5t91 -6.5t84 -16.5q18 -4 18 -15z"/>
<glyph glyph-name="atilde" horiz-adv-x="527" unicode="ã" d="M579 754l-4 -23q-9 -52 -31.5 -78.5t-70.5 -26.5q-17 0 -38 4.5t-38 21.5l-47 44q-15 14 -21.5 18t-15.5 4q-34 0 -40 -46l-3 -21q-1 -7 -5.5 -12t-11.5 -5h-34q-13 0 -13 14v3l3 21q8 60 35.5 84.5t68.5 24.5q23 0 38.5 -7t35.5 -24l54 -49q7 -6 16 -10t16 -4q15 0 24 9 t14 35l4 23q2 7 6 12t11 5h34q13 0 13 -14v-3zM455 473q-20 4 -42.5 7t-54.5 3q-78 0 -119 -41.5t-55 -121.5l-18 -103q-2 -11 -3 -23t-1 -23q0 -58 25.5 -81t61.5 -23q35 0 69 15t76 43zM551 519q0 -5 -1 -8l-86 -491q-2 -8 -8.5 -14t-14.5 -6h-40q-9 0 -12 4.5t-3 11.5v4 v2l5 31q-22 -16 -40.5 -27t-37 -18.5t-38.5 -11t-45 -3.5q-32 0 -60.5 10.5t-49.5 32t-33.5 55t-12.5 79.5q0 28 6 60l18 99q12 65 37 108.5t59.5 70t76.5 38t87 11.5t91 -6.5t84 -16.5q18 -4 18 -15z"/>
<glyph glyph-name="adieresis" horiz-adv-x="527" unicode="ä" d="M354 741l-15 -81q-2 -8 -8.5 -13.5t-14.5 -5.5h-39q-7 0 -12 4t-5 12v3l15 81q2 8 8.5 14t14.5 6h39q7 0 12 -5t5 -12v-3zM529 741l-15 -81q-2 -8 -8.5 -13.5t-14.5 -5.5h-39q-7 0 -12 4t-5 12v3l15 81q2 8 8.5 14t14.5 6h39q7 0 12 -5t5 -12v-3zM455 473q-20 4 -42.5 7 t-54.5 3q-78 0 -119 -41.5t-55 -121.5l-18 -103q-2 -11 -3 -23t-1 -23q0 -58 25.5 -81t61.5 -23q35 0 69 15t76 43zM551 519q0 -5 -1 -8l-86 -491q-2 -8 -8.5 -14t-14.5 -6h-40q-9 0 -12 4.5t-3 11.5v4v2l5 31q-22 -16 -40.5 -27t-37 -18.5t-38.5 -11t-45 -3.5 q-32 0 -60.5 10.5t-49.5 32t-33.5 55t-12.5 79.5q0 28 6 60l18 99q12 65 37 108.5t59.5 70t76.5 38t87 11.5t91 -6.5t84 -16.5q18 -4 18 -15z"/>
<glyph glyph-name="aring" horiz-adv-x="527" unicode="å" d="M455 704q0 22 -15.5 37t-37.5 15t-37 -15t-15 -37t15 -37.5t37 -15.5t37.5 15.5t15.5 37.5zM503 703q0 -21 -8 -39.5t-21.5 -32t-32 -21.5t-39.5 -8t-39.5 8t-32.5 21.5t-22 32t-8 39.5t8 39.5t22 32.5t32.5 22t39.5 8t39.5 -8t32 -22t21.5 -32.5t8 -39.5zM455 473 q-20 4 -42.5 7t-54.5 3q-78 0 -119 -41.5t-55 -121.5l-18 -103q-2 -11 -3 -23t-1 -23q0 -58 25.5 -81t61.5 -23q35 0 69 15t76 43zM551 519q0 -5 -1 -8l-86 -491q-2 -8 -8.5 -14t-14.5 -6h-40q-9 0 -12 4.5t-3 11.5v4v2l5 31q-22 -16 -40.5 -27t-37 -18.5t-38.5 -11 t-45 -3.5q-32 0 -60.5 10.5t-49.5 32t-33.5 55t-12.5 79.5q0 28 6 60l18 99q12 65 37 108.5t59.5 70t76.5 38t87 11.5t91 -6.5t84 -16.5q18 -4 18 -15z"/>
<glyph glyph-name="ae" horiz-adv-x="853" unicode="æ" d="M336 265q-45 0 -76.5 -5.5t-51 -17t-29.5 -30t-13 -45.5l-1 -9q-1 -4 -1 -7.5v-6.5v-10q0 -40 24.5 -55.5t69.5 -15.5q35 0 69 9t54 22l30 171h-75zM778 376q0 56 -27 81.5t-81 25.5q-66 0 -107 -43.5t-56 -120.5l-1 -5h266q2 11 4 28.5t2 33.5zM862 368q0 -9 -1 -21.5 t-2.5 -26.5t-4 -27.5t-5.5 -23.5t-7.5 -16t-13.5 -6h-333l-6 -32q-2 -14 -3.5 -26t-1.5 -23q0 -60 31.5 -79.5t93.5 -19.5q44 0 91 4.5t82 9.5h2h3q5 0 9.5 -2.5t4.5 -8.5v-2v-1l-6 -34q-2 -11 -6.5 -16t-17.5 -7q-45 -8 -87 -12.5t-93 -4.5t-90 13t-66 47 q-18 -12 -40.5 -23t-48.5 -19.5t-54 -13t-55 -4.5q-30 0 -59 8t-52 24.5t-37 43t-14 63.5v11q0 10 1 15l1 9q5 43 22 73.5t48.5 50t79.5 29t115 9.5h80l7 40q2 12 3 23t1 20q0 41 -21 55.5t-71 14.5q-49 0 -86 -2.5t-68 -5.5h-4q-7 0 -12 2.5t-5 9.5v4l7 35q3 16 24 19 q32 5 69 9t88 4q62 0 96.5 -18t51.5 -53q38 41 80.5 56t100.5 15q46 0 80 -14.5t56 -40t32.5 -60t10.5 -74.5z"/>
<glyph glyph-name="ccedilla" horiz-adv-x="452" unicode="ç" d="M312 -38q0 -4 -5 -9l-136 -126q-8 -8 -12.5 -11.5t-12.5 -3.5h-54q-8 0 -8 6q0 5 6 11l119 124q8 8 13 11.5t14 3.5h66q10 0 10 -6zM498 531q0 -2 -0.5 -3.5t-0.5 -3.5l-6 -36q-2 -8 -8 -11.5t-13 -3.5h-3q-32 4 -58.5 5.5t-63.5 1.5q-60 0 -101 -44t-54 -122l-13 -78 q-6 -35 -6 -60q0 -57 26 -81.5t75 -24.5q37 0 65 1.5t61 5.5h3q6 0 10.5 -3t4.5 -9v-3l-6 -36q-2 -11 -7 -15.5t-17 -6.5q-26 -5 -59 -8t-68 -3q-44 0 -77 14.5t-54.5 39.5t-32.5 59.5t-11 74.5q0 14 1.5 27.5t3.5 27.5l13 78q20 122 86.5 182.5t169.5 60.5q35 0 67 -3 t56 -8q17 -3 17 -15z"/>
<glyph glyph-name="egrave" horiz-adv-x="544" unicode="è" d="M429 632q0 -9 -10 -9h-54q-8 0 -12 3.5t-9 11.5l-90 126q-3 4 -3 7q0 8 12 8h66q9 0 13.5 -3.5t9.5 -11.5l75 -124q2 -3 2 -8zM467 374q0 106 -108 106q-33 0 -60 -12t-47.5 -34t-34.5 -51.5t-21 -63.5l-1 -5h265l1 5q6 30 6 55zM555 371q0 -29 -6 -60l-8 -42 q-2 -10 -6.5 -16t-15.5 -6h-335l-3 -12q-5 -17 -6.5 -32t-1.5 -29q0 -57 33.5 -82t91.5 -25q44 0 91 4.5t82 9.5h2h4q13 0 13 -10v-3v-1l-6 -34q-2 -11 -6.5 -16t-17.5 -7q-45 -8 -84.5 -12.5t-90.5 -4.5q-37 0 -72.5 10t-63 32t-44.5 57t-17 86q0 29 6 62l13 70 q23 120 90.5 183.5t174.5 63.5q46 0 80.5 -14.5t57.5 -39.5t34 -59t11 -73z"/>
<glyph glyph-name="eacute" horiz-adv-x="544" unicode="é" d="M570 773q0 -4 -5 -9l-136 -126q-8 -8 -12.5 -11.5t-12.5 -3.5h-54q-8 0 -8 6q0 5 6 11l120 124q8 8 12.5 11.5t13.5 3.5h66q10 0 10 -6zM467 374q0 106 -108 106q-33 0 -60 -12t-47.5 -34t-34.5 -51.5t-21 -63.5l-1 -5h265l1 5q6 30 6 55zM555 371q0 -29 -6 -60l-8 -42 q-2 -10 -6.5 -16t-15.5 -6h-335l-3 -12q-5 -17 -6.5 -32t-1.5 -29q0 -57 33.5 -82t91.5 -25q44 0 91 4.5t82 9.5h2h4q13 0 13 -10v-3v-1l-6 -34q-2 -11 -6.5 -16t-17.5 -7q-45 -8 -84.5 -12.5t-90.5 -4.5q-37 0 -72.5 10t-63 32t-44.5 57t-17 86q0 29 6 62l13 70 q23 120 90.5 183.5t174.5 63.5q46 0 80.5 -14.5t57.5 -39.5t34 -59t11 -73z"/>
<glyph glyph-name="ecircumflex" horiz-adv-x="544" unicode="ê" d="M551 632q0 -9 -10 -9h-49q-8 0 -12 3.5t-9 11.5l-64 97l-101 -97q-8 -8 -12.5 -11.5t-12.5 -3.5h-55q-8 0 -8 6q0 5 6 11l118 124q8 8 12.5 11.5t13.5 3.5h85q9 0 13.5 -3.5t9.5 -11.5l73 -124q2 -3 2 -8zM467 374q0 106 -108 106q-33 0 -60 -12t-47.5 -34t-34.5 -51.5 t-21 -63.5l-1 -5h265l1 5q6 30 6 55zM555 371q0 -29 -6 -60l-8 -42q-2 -10 -6.5 -16t-15.5 -6h-335l-3 -12q-5 -17 -6.5 -32t-1.5 -29q0 -57 33.5 -82t91.5 -25q44 0 91 4.5t82 9.5h2h4q13 0 13 -10v-3v-1l-6 -34q-2 -11 -6.5 -16t-17.5 -7q-45 -8 -84.5 -12.5t-90.5 -4.5 q-37 0 -72.5 10t-63 32t-44.5 57t-17 86q0 29 6 62l13 70q23 120 90.5 183.5t174.5 63.5q46 0 80.5 -14.5t57.5 -39.5t34 -59t11 -73z"/>
<glyph glyph-name="edieresis" horiz-adv-x="544" unicode="ë" d="M359 741l-15 -81q-2 -8 -8.5 -13.5t-14.5 -5.5h-39q-7 0 -12 4t-5 12v3l15 81q2 8 8.5 14t14.5 6h39q7 0 12 -5t5 -12v-3zM534 741l-15 -81q-2 -8 -8.5 -13.5t-14.5 -5.5h-39q-7 0 -12 4t-5 12v3l15 81q2 8 8.5 14t14.5 6h39q7 0 12 -5t5 -12v-3zM467 374q0 106 -108 106 q-33 0 -60 -12t-47.5 -34t-34.5 -51.5t-21 -63.5l-1 -5h265l1 5q6 30 6 55zM555 371q0 -29 -6 -60l-8 -42q-2 -10 -6.5 -16t-15.5 -6h-335l-3 -12q-5 -17 -6.5 -32t-1.5 -29q0 -57 33.5 -82t91.5 -25q44 0 91 4.5t82 9.5h2h4q13 0 13 -10v-3v-1l-6 -34q-2 -11 -6.5 -16 t-17.5 -7q-45 -8 -84.5 -12.5t-90.5 -4.5q-37 0 -72.5 10t-63 32t-44.5 57t-17 86q0 29 6 62l13 70q23 120 90.5 183.5t174.5 63.5q46 0 80.5 -14.5t57.5 -39.5t34 -59t11 -73z"/>
<glyph glyph-name="igrave" horiz-adv-x="247" unicode="ì" d="M296 632q0 -9 -10 -9h-54q-8 0 -12 3.5t-9 11.5l-90 126q-3 4 -3 7q0 8 12 8h66q9 0 13.5 -3.5t9.5 -11.5l75 -124q2 -3 2 -8zM260 530l-89 -510q-2 -8 -9 -14t-15 -6h-48q-16 0 -16 16v4l89 510q2 8 9 14t15 6h48q16 0 16 -16v-4z"/>
<glyph glyph-name="iacute" horiz-adv-x="247" unicode="í" d="M407 773q0 -4 -5 -9l-136 -126q-8 -8 -12.5 -11.5t-12.5 -3.5h-54q-8 0 -8 6q0 5 6 11l120 124q8 8 12.5 11.5t13.5 3.5h66q10 0 10 -6zM260 530l-89 -510q-2 -8 -9 -14t-15 -6h-48q-16 0 -16 16v4l89 510q2 8 9 14t15 6h48q16 0 16 -16v-4z"/>
<glyph glyph-name="icircumflex" horiz-adv-x="247" unicode="î" d="M400 632q0 -9 -10 -9h-49q-8 0 -12 3.5t-9 11.5l-64 97l-101 -97q-8 -8 -12.5 -11.5t-12.5 -3.5h-55q-8 0 -8 6q0 5 6 11l118 124q8 8 12.5 11.5t13.5 3.5h85q9 0 13.5 -3.5t9.5 -11.5l73 -124q2 -3 2 -8zM260 530l-89 -510q-2 -8 -9 -14t-15 -6h-48q-16 0 -16 16v4 l89 510q2 8 9 14t15 6h48q16 0 16 -16v-4z"/>
<glyph glyph-name="idieresis" horiz-adv-x="247" unicode="ï" d="M206 741l-15 -81q-2 -8 -8.5 -13.5t-14.5 -5.5h-39q-7 0 -12 4t-5 12v3l15 81q2 8 8.5 14t14.5 6h39q7 0 12 -5t5 -12v-3zM381 741l-15 -81q-2 -8 -8.5 -13.5t-14.5 -5.5h-39q-7 0 -12 4t-5 12v3l15 81q2 8 8.5 14t14.5 6h39q7 0 12 -5t5 -12v-3zM260 530l-89 -510 q-2 -8 -9 -14t-15 -6h-48q-16 0 -16 16v4l89 510q2 8 9 14t15 6h48q16 0 16 -16v-4z"/>
<glyph glyph-name="eth" horiz-adv-x="545" unicode="ð" d="M468 365q0 56 -26.5 82t-85.5 26q-35 0 -62.5 -13t-48 -36.5t-33.5 -55.5t-20 -70q-2 -14 -5 -27.5t-5 -27.5q-4 -20 -5.5 -37t-1.5 -32q0 -54 25.5 -79.5t85.5 -25.5q70 0 110 46.5t55 127.5q2 14 5 27.5t5 27.5q7 35 7 67zM561 432q0 -30 -2.5 -64t-9.5 -70 q-2 -14 -5 -27.5t-5 -27.5q-11 -60 -31.5 -106.5t-53 -78.5t-77.5 -48.5t-104 -16.5q-47 0 -81.5 13.5t-58 38.5t-35 59t-11.5 76q0 30 6 63q2 14 5 27.5t5 27.5q24 132 91 191t176 59q28 0 58 -9.5t49 -29.5q-8 39 -38 76.5t-85 65.5q-25 -17 -49.5 -34t-49.5 -34 q-4 -2 -7.5 -4t-6.5 -2q-6 0 -10 6q-4 5 -7 9.5t-7 9.5q-2 4 -2 6q0 5 4.5 10t8.5 8q18 12 36 24.5t36 24.5q-17 6 -36 11.5t-40 10.5q-14 3 -14 13q0 1 2 7q4 8 8 14.5t8 14.5q6 12 13 12q3 0 11 -2q33 -8 61.5 -16.5t54.5 -19.5q27 18 54.5 36.5t54.5 36.5q7 5 14 5 q6 0 11 -6q3 -5 6.5 -9t6.5 -9q3 -3 3 -7q0 -5 -3.5 -8.5t-8.5 -6.5q-21 -14 -42.5 -29t-42.5 -29q77 -48 108.5 -111.5t31.5 -150.5z"/>
<glyph glyph-name="ntilde" d="M594 754l-4 -23q-9 -52 -31.5 -78.5t-70.5 -26.5q-17 0 -38 4.5t-38 21.5l-47 44q-15 14 -21.5 18t-15.5 4q-34 0 -40 -46l-3 -21q-1 -7 -5.5 -12t-11.5 -5h-34q-13 0 -13 14v3l3 21q8 60 35.5 84.5t68.5 24.5q23 0 38.5 -7t35.5 -24l54 -49q7 -6 16 -10t16 -4q15 0 24 9 t14 35l4 23q2 7 6 12t11 5h34q13 0 13 -14v-3zM556 403q0 -26 -5 -54l-58 -329q-2 -8 -9 -14t-15 -6h-48q-16 0 -16 16v4l58 329q2 14 3.5 28.5t1.5 26.5q0 36 -19 56t-74 20q-29 0 -61 -7.5t-80 -30.5l-74 -422q-2 -8 -9 -14t-15 -6h-49q-8 0 -11.5 5t-3.5 11v4l89 510 q2 8 8.5 14t14.5 6h49q8 0 11.5 -5t3.5 -11v-4l-3 -21q36 20 73 34t88 14q40 0 68.5 -12t46.5 -33t26.5 -49t8.5 -60z" unicode="ñ"/>
<glyph glyph-name="ograve" horiz-adv-x="545" unicode="ò" d="M441 632q0 -9 -10 -9h-54q-8 0 -12 3.5t-9 11.5l-90 126q-3 4 -3 7q0 8 12 8h66q9 0 13.5 -3.5t9.5 -11.5l75 -124q2 -3 2 -8zM467 370q0 54 -25.5 82t-84.5 28q-66 0 -108.5 -45t-55.5 -122l-13 -76q-6 -33 -6 -59q0 -54 25.5 -81t84.5 -27q33 0 60.5 12.5t48.5 34.5 t35.5 52.5t20.5 67.5l13 76q3 16 4 30t1 27zM555 369q0 -14 -1.5 -28t-3.5 -28l-13 -76q-10 -57 -30.5 -102.5t-53 -77t-78 -48t-104.5 -16.5q-45 0 -79.5 14t-57.5 39t-35 59.5t-12 76.5q0 14 1.5 27.5t3.5 27.5l13 76q42 244 265 244q46 0 80.5 -14t58 -39t35 -59.5 t11.5 -75.5z"/>
<glyph glyph-name="oacute" horiz-adv-x="545" unicode="ó" d="M562 773q0 -4 -5 -9l-136 -126q-8 -8 -12.5 -11.5t-12.5 -3.5h-54q-8 0 -8 6q0 5 6 11l120 124q8 8 12.5 11.5t13.5 3.5h66q10 0 10 -6zM467 370q0 54 -25.5 82t-84.5 28q-66 0 -108.5 -45t-55.5 -122l-13 -76q-6 -33 -6 -59q0 -54 25.5 -81t84.5 -27q33 0 60.5 12.5 t48.5 34.5t35.5 52.5t20.5 67.5l13 76q3 16 4 30t1 27zM555 369q0 -14 -1.5 -28t-3.5 -28l-13 -76q-10 -57 -30.5 -102.5t-53 -77t-78 -48t-104.5 -16.5q-45 0 -79.5 14t-57.5 39t-35 59.5t-12 76.5q0 14 1.5 27.5t3.5 27.5l13 76q42 244 265 244q46 0 80.5 -14t58 -39 t35 -59.5t11.5 -75.5z"/>
<glyph glyph-name="ocircumflex" horiz-adv-x="545" unicode="ô" d="M551 632q0 -9 -10 -9h-49q-8 0 -12 3.5t-9 11.5l-64 97l-101 -97q-8 -8 -12.5 -11.5t-12.5 -3.5h-55q-8 0 -8 6q0 5 6 11l118 124q8 8 12.5 11.5t13.5 3.5h85q9 0 13.5 -3.5t9.5 -11.5l73 -124q2 -3 2 -8zM467 370q0 54 -25.5 82t-84.5 28q-66 0 -108.5 -45t-55.5 -122 l-13 -76q-6 -33 -6 -59q0 -54 25.5 -81t84.5 -27q33 0 60.5 12.5t48.5 34.5t35.5 52.5t20.5 67.5l13 76q3 16 4 30t1 27zM555 369q0 -14 -1.5 -28t-3.5 -28l-13 -76q-10 -57 -30.5 -102.5t-53 -77t-78 -48t-104.5 -16.5q-45 0 -79.5 14t-57.5 39t-35 59.5t-12 76.5 q0 14 1.5 27.5t3.5 27.5l13 76q42 244 265 244q46 0 80.5 -14t58 -39t35 -59.5t11.5 -75.5z"/>
<glyph glyph-name="otilde" horiz-adv-x="545" unicode="õ" d="M589 754l-4 -23q-9 -52 -31.5 -78.5t-70.5 -26.5q-17 0 -38 4.5t-38 21.5l-47 44q-15 14 -21.5 18t-15.5 4q-34 0 -40 -46l-3 -21q-1 -7 -5.5 -12t-11.5 -5h-34q-13 0 -13 14v3l3 21q8 60 35.5 84.5t68.5 24.5q23 0 38.5 -7t35.5 -24l54 -49q7 -6 16 -10t16 -4q15 0 24 9 t14 35l4 23q2 7 6 12t11 5h34q13 0 13 -14v-3zM467 370q0 54 -25.5 82t-84.5 28q-66 0 -108.5 -45t-55.5 -122l-13 -76q-6 -33 -6 -59q0 -54 25.5 -81t84.5 -27q33 0 60.5 12.5t48.5 34.5t35.5 52.5t20.5 67.5l13 76q3 16 4 30t1 27zM555 369q0 -14 -1.5 -28t-3.5 -28 l-13 -76q-10 -57 -30.5 -102.5t-53 -77t-78 -48t-104.5 -16.5q-45 0 -79.5 14t-57.5 39t-35 59.5t-12 76.5q0 14 1.5 27.5t3.5 27.5l13 76q42 244 265 244q46 0 80.5 -14t58 -39t35 -59.5t11.5 -75.5z"/>
<glyph glyph-name="odieresis" horiz-adv-x="545" unicode="ö" d="M357 741l-15 -81q-2 -8 -8.5 -13.5t-14.5 -5.5h-39q-7 0 -12 4t-5 12v3l15 81q2 8 8.5 14t14.5 6h39q7 0 12 -5t5 -12v-3zM532 741l-15 -81q-2 -8 -8.5 -13.5t-14.5 -5.5h-39q-7 0 -12 4t-5 12v3l15 81q2 8 8.5 14t14.5 6h39q7 0 12 -5t5 -12v-3zM467 370q0 54 -25.5 82 t-84.5 28q-66 0 -108.5 -45t-55.5 -122l-13 -76q-6 -33 -6 -59q0 -54 25.5 -81t84.5 -27q33 0 60.5 12.5t48.5 34.5t35.5 52.5t20.5 67.5l13 76q3 16 4 30t1 27zM555 369q0 -14 -1.5 -28t-3.5 -28l-13 -76q-10 -57 -30.5 -102.5t-53 -77t-78 -48t-104.5 -16.5 q-45 0 -79.5 14t-57.5 39t-35 59.5t-12 76.5q0 14 1.5 27.5t3.5 27.5l13 76q42 244 265 244q46 0 80.5 -14t58 -39t35 -59.5t11.5 -75.5z"/>
<glyph glyph-name="divide" horiz-adv-x="595" unicode="÷" d="M413 162q0 -8 -5.5 -13.5t-13.5 -5.5h-48q-8 0 -14 5.5t-6 13.5v89q0 8 6 13.5t14 5.5h48q8 0 13.5 -5.5t5.5 -13.5v-89zM583 371q0 -8 -6 -12t-14 -4h-385q-8 0 -14 4t-6 12v40q0 8 6 12t14 4h385q8 0 14 -4t6 -12v-40zM413 527q0 -8 -5.5 -14t-13.5 -6h-48q-8 0 -14 6 t-6 14v88q0 8 6 13.5t14 5.5h48q8 0 13.5 -5.5t5.5 -13.5v-88z"/>
<glyph glyph-name="oslash" horiz-adv-x="545" unicode="ø" d="M467 364q0 7 -0.5 13.5t-1.5 13.5l-265 -290q28 -31 84 -31q71 0 111 44.5t54 122.5l13 76q2 14 3.5 26.5t1.5 24.5zM441 449q-28 31 -84 31q-71 0 -110.5 -44.5t-53.5 -122.5l-13 -76q-2 -15 -3.5 -28.5t-1.5 -26.5v-13t1 -11zM630 577q0 -6 -7 -13l-86 -94 q19 -38 19 -93q0 -30 -6 -64l-13 -76q-9 -55 -31.5 -100t-56 -77t-78.5 -49.5t-100 -17.5q-84 0 -132 42l-54 -60q-6 -7 -9.5 -8.5t-8.5 -1.5h-49q-7 0 -7 6q0 7 6 13l88 96q-19 38 -19 93q0 29 6 64l13 76q9 55 31 100t55.5 77t78.5 49.5t100 17.5q85 0 133 -42l52 58 q6 7 9.5 8.5t8.5 1.5h50q7 0 7 -6z"/>
<glyph glyph-name="ugrave" d="M447 632q0 -9 -10 -9h-54q-8 0 -12 3.5t-9 11.5l-90 126q-3 4 -3 7q0 8 12 8h66q9 0 13.5 -3.5t9.5 -11.5l75 -124q2 -3 2 -8zM582 530l-89 -510q-2 -8 -8.5 -14t-14.5 -6h-47q-15 0 -15 16v4l3 18q-45 -23 -83 -34t-83 -11q-65 0 -105.5 39.5t-40.5 118.5q0 28 6 61 l56 318q2 8 9 14t15 6h48q16 0 16 -16v-4l-58 -329q-6 -33 -6 -57q0 -42 21.5 -58t71.5 -16q32 0 68 10t74 27l74 423q2 8 9 14t15 6h49q8 0 11.5 -5t3.5 -11v-4z" unicode="ù"/>
<glyph glyph-name="uacute" d="M570 773q0 -4 -5 -9l-136 -126q-8 -8 -12.5 -11.5t-12.5 -3.5h-54q-8 0 -8 6q0 5 6 11l120 124q8 8 12.5 11.5t13.5 3.5h66q10 0 10 -6zM582 530l-89 -510q-2 -8 -8.5 -14t-14.5 -6h-47q-15 0 -15 16v4l3 18q-45 -23 -83 -34t-83 -11q-65 0 -105.5 39.5t-40.5 118.5 q0 28 6 61l56 318q2 8 9 14t15 6h48q16 0 16 -16v-4l-58 -329q-6 -33 -6 -57q0 -42 21.5 -58t71.5 -16q32 0 68 10t74 27l74 423q2 8 9 14t15 6h49q8 0 11.5 -5t3.5 -11v-4z" unicode="ú"/>
<glyph glyph-name="ucircumflex" d="M555 632q0 -9 -10 -9h-49q-8 0 -12 3.5t-9 11.5l-64 97l-101 -97q-8 -8 -12.5 -11.5t-12.5 -3.5h-55q-8 0 -8 6q0 5 6 11l118 124q8 8 12.5 11.5t13.5 3.5h85q9 0 13.5 -3.5t9.5 -11.5l73 -124q2 -3 2 -8zM582 530l-89 -510q-2 -8 -8.5 -14t-14.5 -6h-47q-15 0 -15 16v4 l3 18q-45 -23 -83 -34t-83 -11q-65 0 -105.5 39.5t-40.5 118.5q0 28 6 61l56 318q2 8 9 14t15 6h48q16 0 16 -16v-4l-58 -329q-6 -33 -6 -57q0 -42 21.5 -58t71.5 -16q32 0 68 10t74 27l74 423q2 8 9 14t15 6h49q8 0 11.5 -5t3.5 -11v-4z" unicode="û"/>
<glyph glyph-name="udieresis" d="M362 741l-15 -81q-2 -8 -8.5 -13.5t-14.5 -5.5h-39q-7 0 -12 4t-5 12v3l15 81q2 8 8.5 14t14.5 6h39q7 0 12 -5t5 -12v-3zM537 741l-15 -81q-2 -8 -8.5 -13.5t-14.5 -5.5h-39q-7 0 -12 4t-5 12v3l15 81q2 8 8.5 14t14.5 6h39q7 0 12 -5t5 -12v-3zM582 530l-89 -510 q-2 -8 -8.5 -14t-14.5 -6h-47q-15 0 -15 16v4l3 18q-45 -23 -83 -34t-83 -11q-65 0 -105.5 39.5t-40.5 118.5q0 28 6 61l56 318q2 8 9 14t15 6h48q16 0 16 -16v-4l-58 -329q-6 -33 -6 -57q0 -42 21.5 -58t71.5 -16q32 0 68 10t74 27l74 423q2 8 9 14t15 6h49q8 0 11.5 -5 t3.5 -11v-4z" unicode="ü"/>
<glyph glyph-name="yacute" horiz-adv-x="534" unicode="ý" d="M572 773q0 -4 -5 -9l-136 -126q-8 -8 -12.5 -11.5t-12.5 -3.5h-54q-8 0 -8 6q0 5 6 11l120 124q8 8 12.5 11.5t13.5 3.5h66q10 0 10 -6zM592 537q0 -5 -3 -11l-267 -576q-19 -41 -37.5 -69t-42.5 -45.5t-55 -25.5t-74 -8q-21 0 -44 2.5t-38 6.5q-8 2 -13.5 5t-5.5 9v2 l7 37q3 16 22 16h3q8 -1 19.5 -2t24 -2t24.5 -1.5t20 -0.5q21 0 37.5 3.5t30 13t24.5 26t22 42.5l17 41h-11q-12 0 -22.5 3t-19.5 11.5t-15 23.5t-9 40l-51 448v3q0 9 5.5 15t15.5 6h52q6 0 9.5 -5t4.5 -11l42 -434q2 -15 6 -18.5t9 -3.5h16l202 457q2 6 8.5 10.5t13.5 4.5 h59q14 0 14 -13z"/>
<glyph glyph-name="thorn" horiz-adv-x="541" unicode="þ" d="M465 377q0 52 -24.5 79t-82.5 27q-32 0 -65 -3t-54 -7l-69 -396q24 -5 57.5 -7.5t57.5 -2.5q71 0 108.5 46t51.5 125l13 72q7 35 7 67zM552 376q0 -32 -6 -66l-13 -72q-22 -122 -83 -183.5t-178 -61.5q-23 0 -55 3t-60 8l-32 -181q-2 -11 -6.5 -15t-16.5 -4h-51 q-7 0 -11 4t-4 9q0 3 1 6l160 909q2 8 6.5 14t17.5 6h48q10 0 14 -4t2 -16l-33 -185q30 5 60.5 7.5t58.5 2.5q93 0 137 -50t44 -131z"/>
<glyph glyph-name="ydieresis" horiz-adv-x="534" unicode="ÿ" d="M360 741l-15 -81q-2 -8 -8.5 -13.5t-14.5 -5.5h-39q-7 0 -12 4t-5 12v3l15 81q2 8 8.5 14t14.5 6h39q7 0 12 -5t5 -12v-3zM535 741l-15 -81q-2 -8 -8.5 -13.5t-14.5 -5.5h-39q-7 0 -12 4t-5 12v3l15 81q2 8 8.5 14t14.5 6h39q7 0 12 -5t5 -12v-3zM592 537q0 -5 -3 -11 l-267 -576q-19 -41 -37.5 -69t-42.5 -45.5t-55 -25.5t-74 -8q-21 0 -44 2.5t-38 6.5q-8 2 -13.5 5t-5.5 9v2l7 37q3 16 22 16h3q8 -1 19.5 -2t24 -2t24.5 -1.5t20 -0.5q21 0 37.5 3.5t30 13t24.5 26t22 42.5l17 41h-11q-12 0 -22.5 3t-19.5 11.5t-15 23.5t-9 40l-51 448v3 q0 9 5.5 15t15.5 6h52q6 0 9.5 -5t4.5 -11l42 -434q2 -15 6 -18.5t9 -3.5h16l202 457q2 6 8.5 10.5t13.5 4.5h59q14 0 14 -13z"/>
<glyph glyph-name="Amacron" horiz-adv-x="633" unicode="Ā" d="M646 871l-6 -34q-2 -8 -8.5 -12.5t-14.5 -4.5h-288q-17 0 -17 14v3l6 34q2 8 8.5 12.5t14.5 4.5h288q17 0 17 -14v-3zM453 653q-2 18 -16 18q-15 0 -23 -18l-149 -329h221zM607 19q0 -19 -17 -19h-60q-7 0 -10 4.5t-4 10.5l-25 230h-259l-104 -230q-2 -6 -8.5 -10.5 t-12.5 -4.5h-61q-14 0 -14 13q0 6 2 10l300 651q10 23 24 37.5t29.5 23t31.5 12t30 3.5t28.5 -3t27 -11.5t21 -23t11.5 -37.5l70 -652v-4z"/>
<glyph glyph-name="amacron" horiz-adv-x="527" unicode="ā" d="M554 700l-6 -34q-2 -8 -8.5 -12.5t-14.5 -4.5h-288q-17 0 -17 14v3l6 34q2 8 8.5 12.5t14.5 4.5h288q17 0 17 -14v-3zM455 473q-20 4 -42.5 7t-54.5 3q-78 0 -119 -41.5t-55 -121.5l-18 -103q-2 -11 -3 -23t-1 -23q0 -58 25.5 -81t61.5 -23q35 0 69 15t76 43zM358 557 q45 0 91 -6.5t84 -16.5q14 -3 16 -7t2 -8q0 -3 -1 -8l-86 -491q-2 -8 -6.5 -14t-16.5 -6h-40q-11 0 -14 5.5t-1 16.5l5 31q-22 -16 -40.5 -27t-37 -18.5t-38.5 -11t-45 -3.5q-32 0 -60.5 10.5t-49.5 32t-33.5 55t-12.5 79.5q0 28 6 60l18 99q12 65 37 108.5t59.5 70t76.5 38 t87 11.5z"/>
<glyph glyph-name="Abreve" horiz-adv-x="633" unicode="Ă" d="M639 941q0 -5 -1 -8q-8 -36 -25.5 -62.5t-41.5 -44t-52.5 -26t-57.5 -8.5t-56 8t-47.5 25.5t-33 44t-12.5 63.5q0 7 3 12t11 5h35q8 0 10.5 -4t2.5 -12q0 -80 87 -80q46 0 74 21t39 59q2 8 5.5 12t11.5 4h39q9 0 9 -9zM453 653q-2 18 -16 18q-15 0 -23 -18l-149 -329h221 zM607 19q0 -19 -17 -19h-60q-7 0 -10 4.5t-4 10.5l-25 230h-259l-104 -230q-2 -6 -8.5 -10.5t-12.5 -4.5h-61q-14 0 -14 13q0 6 2 10l300 651q10 23 24 37.5t29.5 23t31.5 12t30 3.5t28.5 -3t27 -11.5t21 -23t11.5 -37.5l70 -652v-4z"/>
<glyph glyph-name="abreve" horiz-adv-x="527" unicode="ă" d="M572 771q0 -5 -1 -8q-8 -36 -25.5 -62.5t-41.5 -44t-52.5 -26t-57.5 -8.5t-56 8t-47.5 25.5t-33 44t-12.5 63.5q0 7 3 12t11 5h35q8 0 10.5 -4t2.5 -12q0 -80 87 -80q46 0 74 21t39 59q2 8 5.5 12t11.5 4h39q9 0 9 -9zM455 473q-20 4 -42.5 7t-54.5 3q-78 0 -119 -41.5 t-55 -121.5l-18 -103q-2 -11 -3 -23t-1 -23q0 -58 25.5 -81t61.5 -23q35 0 69 15t76 43zM358 557q45 0 91 -6.5t84 -16.5q14 -3 16 -7t2 -8q0 -3 -1 -8l-86 -491q-2 -8 -6.5 -14t-16.5 -6h-40q-11 0 -14 5.5t-1 16.5l5 31q-22 -16 -40.5 -27t-37 -18.5t-38.5 -11t-45 -3.5 q-32 0 -60.5 10.5t-49.5 32t-33.5 55t-12.5 79.5q0 28 6 60l18 99q12 65 37 108.5t59.5 70t76.5 38t87 11.5z"/>
<glyph glyph-name="Aogonek" horiz-adv-x="633" unicode="Ą" d="M453 653q-2 18 -16 18q-15 0 -23 -18l-149 -329h221zM603 57q3 -25 3.5 -32.5t0.5 -9.5q0 -3 -1 -6t-8 -7l-71 -44q-20 -12 -32.5 -20.5t-20 -16t-10.5 -15t-3 -17.5q0 -15 14.5 -23t48.5 -8q24 0 46 5t27 5t4 -8l-7 -39q-1 -8 -13 -11q-2 -1 -24 -5.5t-54 -4.5 q-65 0 -90.5 21.5t-25.5 54.5q0 22 8.5 40t20.5 31.5t26.5 23.5t26.5 16l47 26l-25 232h-259l-104 -230q-2 -6 -8.5 -10.5t-12.5 -4.5h-61q-14 0 -14 13q0 6 2 10l300 651q10 23 24 37.5t29.5 23t31.5 12t30 3.5t28.5 -3t27 -11.5t21 -23t11.5 -37.5z"/>
<glyph glyph-name="aogonek" horiz-adv-x="527" unicode="ą" d="M455 473q-20 4 -42.5 7t-54.5 3q-78 0 -119 -41.5t-55 -121.5l-18 -103q-2 -11 -3 -23t-1 -23q0 -58 25.5 -81t61.5 -23q35 0 69 15t76 43zM467 37q-3 -16 -6.5 -23t-13.5 -13l-70 -43q-38 -23 -52 -36.5t-14 -32.5q0 -15 14.5 -23t48.5 -8q24 0 46 5t27 5t4 -8l-7 -39 q-1 -5 -4 -7t-9 -4q-2 -1 -24 -5.5t-54 -4.5q-65 0 -90.5 21.5t-25.5 54.5q0 22 7 39t18 30t26 23t31 19l67 37l5 29q-22 -16 -40.5 -27t-37 -18.5t-38.5 -11t-45 -3.5q-32 0 -60.5 10.5t-49.5 32t-33.5 55t-12.5 79.5q0 28 6 60l18 99q12 65 37 108.5t59.5 70t76.5 38 t87 11.5t91 -6.5t84 -16.5q18 -4 18 -15q0 -5 -1 -8z"/>
<glyph glyph-name="Cacute" horiz-adv-x="545" unicode="Ć" d="M635 944q0 -4 -5 -9l-136 -126q-8 -8 -12.5 -11.5t-12.5 -3.5h-54q-8 0 -8 6q0 5 6 11l120 124q8 8 12.5 11.5t13.5 3.5h66q10 0 10 -6zM456 750q48 0 90.5 -5.5t74.5 -10.5q6 -1 10.5 -2.5t4.5 -6.5q0 -2 -1 -4l-9 -51q-1 -12 -17 -11l-32.5 2.5t-42 3t-46 2.5t-45.5 1 q-37 0 -70.5 -11.5t-62 -38.5t-49.5 -70.5t-32 -106.5l-25 -139q-4 -21 -5.5 -39t-1.5 -35q0 -42 10.5 -71t29 -47.5t44.5 -26.5t57 -8q21 0 45 1t46.5 2.5t42 2.5t33.5 2q12 1 15.5 -2.5t1.5 -13.5l-7 -41q-2 -9 -6 -13.5t-18 -6.5q-16 -3 -32.5 -5.5t-36 -4t-43.5 -2.5 t-56 -1q-38 0 -76.5 12t-70 39t-51 70.5t-19.5 107.5q0 18 1.5 38t5.5 42l25 139q17 95 51 155.5t77.5 94.5t92.5 46.5t97 12.5z"/>
<glyph glyph-name="cacute" horiz-adv-x="452" unicode="ć" d="M516 773q0 -4 -5 -9l-136 -126q-8 -8 -12.5 -11.5t-12.5 -3.5h-54q-8 0 -8 6q0 5 6 11l120 124q8 8 12.5 11.5t13.5 3.5h66q10 0 10 -6zM348 480q-60 0 -101 -44t-54 -122l-13 -78q-6 -35 -6 -60q0 -57 26 -81.5t75 -24.5q37 0 65 1.5t61 5.5q12 2 16 -2.5t2 -12.5 l-6 -36q-2 -11 -7 -15.5t-17 -6.5q-25 -5 -58.5 -8t-68.5 -3q-44 0 -77 14.5t-54.5 39.5t-32.5 59.5t-11 74.5q0 14 1.5 27.5t3.5 27.5l13 78q20 122 86.5 182.5t169.5 60.5q35 0 67 -3t56 -8q14 -2 15.5 -6t1.5 -7q0 -4 -1 -9l-6 -36q-2 -8 -6 -12.5t-18 -2.5 q-32 4 -58.5 5.5t-63.5 1.5z"/>
<glyph glyph-name="Ccircumflex" horiz-adv-x="545" unicode="Ĉ" d="M621 803q0 -9 -10 -9h-49q-8 0 -12 3.5t-9 11.5l-64 97l-101 -97q-8 -8 -12.5 -11.5t-12.5 -3.5h-55q-8 0 -8 6q0 5 6 11l118 124q8 8 12.5 11.5t13.5 3.5h85q9 0 13.5 -3.5t9.5 -11.5l73 -124q2 -3 2 -8zM456 750q48 0 90.5 -5.5t74.5 -10.5q6 -1 10.5 -2.5t4.5 -6.5 q0 -2 -1 -4l-9 -51q-1 -12 -17 -11l-32.5 2.5t-42 3t-46 2.5t-45.5 1q-37 0 -70.5 -11.5t-62 -38.5t-49.5 -70.5t-32 -106.5l-25 -139q-4 -21 -5.5 -39t-1.5 -35q0 -42 10.5 -71t29 -47.5t44.5 -26.5t57 -8q21 0 45 1t46.5 2.5t42 2.5t33.5 2q12 1 15.5 -2.5t1.5 -13.5 l-7 -41q-2 -9 -6 -13.5t-18 -6.5q-16 -3 -32.5 -5.5t-36 -4t-43.5 -2.5t-56 -1q-38 0 -76.5 12t-70 39t-51 70.5t-19.5 107.5q0 18 1.5 38t5.5 42l25 139q17 95 51 155.5t77.5 94.5t92.5 46.5t97 12.5z"/>
<glyph glyph-name="ccircumflex" horiz-adv-x="452" unicode="ĉ" d="M519 632q0 -9 -10 -9h-49q-8 0 -12 3.5t-9 11.5l-64 97l-101 -97q-8 -8 -12.5 -11.5t-12.5 -3.5h-55q-8 0 -8 6q0 5 6 11l118 124q8 8 12.5 11.5t13.5 3.5h85q9 0 13.5 -3.5t9.5 -11.5l73 -124q2 -3 2 -8zM348 480q-60 0 -101 -44t-54 -122l-13 -78q-6 -35 -6 -60 q0 -57 26 -81.5t75 -24.5q37 0 65 1.5t61 5.5q12 2 16 -2.5t2 -12.5l-6 -36q-2 -11 -7 -15.5t-17 -6.5q-25 -5 -58.5 -8t-68.5 -3q-44 0 -77 14.5t-54.5 39.5t-32.5 59.5t-11 74.5q0 14 1.5 27.5t3.5 27.5l13 78q20 122 86.5 182.5t169.5 60.5q35 0 67 -3t56 -8 q14 -2 15.5 -6t1.5 -7q0 -4 -1 -9l-6 -36q-2 -8 -6 -12.5t-18 -2.5q-32 4 -58.5 5.5t-63.5 1.5z"/>
<glyph glyph-name="Cdotaccent" horiz-adv-x="545" unicode="Ċ" d="M550 924l-15 -84q-2 -8 -8.5 -14t-14.5 -6h-48q-16 0 -16 17v3l15 84q2 8 8.5 13.5t14.5 5.5h48q16 0 16 -16v-3zM456 750q48 0 90.5 -5.5t74.5 -10.5q6 -1 10.5 -2.5t4.5 -6.5q0 -2 -1 -4l-9 -51q-1 -12 -17 -11l-32.5 2.5t-42 3t-46 2.5t-45.5 1q-37 0 -70.5 -11.5 t-62 -38.5t-49.5 -70.5t-32 -106.5l-25 -139q-4 -21 -5.5 -39t-1.5 -35q0 -42 10.5 -71t29 -47.5t44.5 -26.5t57 -8q21 0 45 1t46.5 2.5t42 2.5t33.5 2q12 1 15.5 -2.5t1.5 -13.5l-7 -41q-2 -9 -6 -13.5t-18 -6.5q-16 -3 -32.5 -5.5t-36 -4t-43.5 -2.5t-56 -1 q-38 0 -76.5 12t-70 39t-51 70.5t-19.5 107.5q0 18 1.5 38t5.5 42l25 139q17 95 51 155.5t77.5 94.5t92.5 46.5t97 12.5z"/>
<glyph glyph-name="cdotaccent" horiz-adv-x="452" unicode="ċ" d="M440 742l-15 -84q-2 -8 -8.5 -14t-14.5 -6h-48q-16 0 -16 17v3l15 84q2 8 8.5 13.5t14.5 5.5h48q16 0 16 -16v-3zM348 480q-60 0 -101 -44t-54 -122l-13 -78q-6 -35 -6 -60q0 -57 26 -81.5t75 -24.5q37 0 65 1.5t61 5.5q12 2 16 -2.5t2 -12.5l-6 -36q-2 -11 -7 -15.5 t-17 -6.5q-25 -5 -58.5 -8t-68.5 -3q-44 0 -77 14.5t-54.5 39.5t-32.5 59.5t-11 74.5q0 14 1.5 27.5t3.5 27.5l13 78q20 122 86.5 182.5t169.5 60.5q35 0 67 -3t56 -8q14 -2 15.5 -6t1.5 -7q0 -4 -1 -9l-6 -36q-2 -8 -6 -12.5t-18 -2.5q-32 4 -58.5 5.5t-63.5 1.5z"/>
<glyph glyph-name="Ccaron" horiz-adv-x="545" unicode="Č" d="M660 944q0 -5 -6 -11l-119 -124q-8 -8 -13 -11.5t-14 -3.5h-85q-9 0 -13 3.5t-9 11.5l-76 124q-2 3 -2 8q0 9 10 9h47q8 0 12 -4t9 -12l66 -96l99 96q8 8 12.5 12t12.5 4h61q8 0 8 -6zM456 750q48 0 90.5 -5.5t74.5 -10.5q6 -1 10.5 -2.5t4.5 -6.5q0 -2 -1 -4l-9 -51 q-1 -12 -17 -11l-32.5 2.5t-42 3t-46 2.5t-45.5 1q-37 0 -70.5 -11.5t-62 -38.5t-49.5 -70.5t-32 -106.5l-25 -139q-4 -21 -5.5 -39t-1.5 -35q0 -42 10.5 -71t29 -47.5t44.5 -26.5t57 -8q21 0 45 1t46.5 2.5t42 2.5t33.5 2q12 1 15.5 -2.5t1.5 -13.5l-7 -41q-2 -9 -6 -13.5 t-18 -6.5q-16 -3 -32.5 -5.5t-36 -4t-43.5 -2.5t-56 -1q-38 0 -76.5 12t-70 39t-51 70.5t-19.5 107.5q0 18 1.5 38t5.5 42l25 139q17 95 51 155.5t77.5 94.5t92.5 46.5t97 12.5z"/>
<glyph glyph-name="ccaron" horiz-adv-x="452" unicode="č" d="M566 773q0 -5 -6 -11l-119 -124q-8 -8 -13 -11.5t-14 -3.5h-85q-9 0 -13 3.5t-9 11.5l-76 124q-2 3 -2 8q0 9 10 9h47q8 0 12 -4t9 -12l66 -96l99 96q8 8 12.5 12t12.5 4h61q8 0 8 -6zM348 480q-60 0 -101 -44t-54 -122l-13 -78q-6 -35 -6 -60q0 -57 26 -81.5t75 -24.5 q37 0 65 1.5t61 5.5q12 2 16 -2.5t2 -12.5l-6 -36q-2 -11 -7 -15.5t-17 -6.5q-25 -5 -58.5 -8t-68.5 -3q-44 0 -77 14.5t-54.5 39.5t-32.5 59.5t-11 74.5q0 14 1.5 27.5t3.5 27.5l13 78q20 122 86.5 182.5t169.5 60.5q35 0 67 -3t56 -8q14 -2 15.5 -6t1.5 -7q0 -4 -1 -9 l-6 -36q-2 -8 -6 -12.5t-18 -2.5q-32 4 -58.5 5.5t-63.5 1.5z"/>
<glyph glyph-name="Dcaron" horiz-adv-x="641" unicode="Ď" d="M637 944q0 -5 -6 -11l-119 -124q-8 -8 -13 -11.5t-14 -3.5h-85q-9 0 -13 3.5t-9 11.5l-76 124q-2 3 -2 8q0 9 10 9h47q8 0 12 -4t9 -12l66 -96l99 96q8 8 12.5 12t12.5 4h61q8 0 8 -6zM577 511q0 46 -13.5 77t-37.5 50t-56.5 26.5t-70.5 7.5q-35 0 -60.5 -0.5t-50.5 -2.5 l-105 -596q24 -2 50 -2h61q44 0 85 12t74.5 39.5t58 72t35.5 109.5l23 135q7 38 7 72zM668 516q0 -18 -1.5 -37t-5.5 -40l-23 -135q-14 -83 -45 -141.5t-76.5 -96.5t-105 -55.5t-131.5 -17.5q-29 0 -56.5 1t-51.5 2.5t-42.5 3t-29.5 3.5q-12 2 -15 7t-3 11q0 3 1 7l121 687 q5 22 25 25q11 2 30.5 3.5t44 3t52.5 2.5t57 1q57 0 104 -14.5t80.5 -43.5t52 -73t18.5 -103z"/>
<glyph glyph-name="dcaron" horiz-adv-x="650" unicode="ď" d="M779 741q0 -2 -2 -8l-75 -189q-4 -10 -7.5 -14.5t-11.5 -4.5h-41q-12 0 -12 12q0 5 1 7l57 189q6 19 20 19h58q13 0 13 -11zM468 473q-24 5 -57.5 6t-57.5 1q-37 0 -64 -12.5t-46 -35t-31 -53.5t-19 -67l-13 -72q-3 -18 -5 -34.5t-2 -30.5q0 -51 24.5 -78t82.5 -27 q26 0 59 2t59 4zM602 733l-123 -700q-2 -10 -6.5 -15.5t-18.5 -7.5q-48 -9 -94.5 -13t-92.5 -4t-80 13.5t-56.5 37.5t-33.5 58t-11 75q0 30 6 63l13 72q23 129 87 187t174 58q23 0 55 -2.5t60 -7.5l33 186q2 8 8.5 13.5t14.5 5.5h51q14 0 14 -15v-3v-1z"/>
<glyph glyph-name="Dcroat" horiz-adv-x="641" unicode="Đ" d="M229 347l-48 -274q24 -2 50 -2h61q44 0 85 12t74.5 39.5t58 72t35.5 109.5l23 135q7 38 7 72q0 46 -13.5 77t-37.5 50t-56.5 26.5t-70.5 7.5q-35 0 -60.5 -0.5t-50.5 -2.5l-43 -244h104q16 0 16 -17v-3l-6 -38q-2 -8 -9 -14t-15 -6h-104zM666 516q0 -18 -1.5 -37 t-5.5 -40l-23 -135q-14 -83 -45 -141.5t-76.5 -96.5t-105 -55.5t-131.5 -17.5q-29 0 -56.5 1t-51.5 2.5t-42.5 3t-29.5 3.5q-18 3 -18 19q0 2 0.5 3t0.5 3l56 319h-37q-16 0 -16 17v3l6 38q2 8 9 14t15 6h37l51 290q5 22 25 25q11 2 30.5 3.5t44 3t52.5 2.5t57 1 q57 0 104 -14.5t80.5 -43.5t52 -73t18.5 -103z"/>
<glyph glyph-name="dcroat" horiz-adv-x="541" unicode="đ" d="M468 473q-24 5 -57.5 6t-57.5 1q-37 0 -64 -12.5t-46 -35t-31 -53.5t-19 -67l-13 -72q-3 -18 -5 -34.5t-2 -30.5q0 -51 24.5 -78t82.5 -27q26 0 59 2t59 4zM582 623l-103 -590q-2 -10 -6.5 -15.5t-18.5 -7.5q-48 -9 -94.5 -13t-92.5 -4t-80 13.5t-56.5 37.5t-33.5 58 t-11 75q0 30 6 63l13 72q23 129 87 187t174 58q23 0 55 -2.5t60 -7.5l13 76h-169q-16 0 -16 17v3l6 33q2 8 9 14t15 6h168l7 37q2 8 8.5 13.5t14.5 5.5h51q14 0 14 -15v-4l-7 -37h47q16 0 16 -17v-3l-6 -33q-2 -8 -9 -14t-15 -6h-46z"/>
<glyph glyph-name="Emacron" horiz-adv-x="551" unicode="Ē" d="M612 871l-6 -34q-2 -8 -8.5 -12.5t-14.5 -4.5h-288q-17 0 -17 14v3l6 34q2 8 8.5 12.5t14.5 4.5h288q17 0 17 -14v-3zM410 668q-40 0 -65 -5.5t-40.5 -18t-23.5 -32.5t-13 -48l-24 -139h307q19 0 16 -20l-6 -38q-2 -8 -6.5 -14t-17.5 -6h-307l-29 -168q-2 -12 -3.5 -22 t-1.5 -19q0 -34 23 -48.5t86 -14.5h190q8 0 11 -2t1 -10l-9 -49q-1 -5 -2.5 -8.5t-9.5 -5.5q-11 -1 -34.5 -2.5t-52 -2.5t-58 -1.5t-51.5 -0.5q-86 0 -135 35.5t-49 108.5q0 22 4 42l67 385q10 55 30 91t50.5 57t71.5 29.5t94 8.5q85 0 129.5 -2.5t64.5 -6.5q5 -1 7 -3t2 -5 q0 -2 -1 -6l-9 -47q-1 -8 -4.5 -10t-8.5 -2h-193z"/>
<glyph glyph-name="emacron" horiz-adv-x="544" unicode="ē" d="M572 700l-6 -34q-2 -8 -8.5 -12.5t-14.5 -4.5h-288q-17 0 -17 14v3l6 34q2 8 8.5 12.5t14.5 4.5h288q17 0 17 -14v-3zM467 374q0 106 -108 106q-33 0 -60 -12t-47.5 -34t-34.5 -51.5t-21 -63.5l-1 -5h265l1 5q6 30 6 55zM555 371q0 -29 -6 -60l-8 -42q-2 -10 -6.5 -16 t-15.5 -6h-337l-2 -12q-6 -35 -6 -61q0 -57 33 -82t91 -25q44 0 91 4.5t82 9.5q22 3 19 -14l-6 -34q-2 -11 -6.5 -16t-17.5 -7q-45 -8 -84.5 -12.5t-90.5 -4.5q-37 0 -72.5 10t-63 32t-44.5 57t-17 86q0 29 6 62l13 70q23 120 90.5 183.5t174.5 63.5q46 0 80.5 -14.5 t57.5 -39.5t34 -59t11 -73z"/>
<glyph glyph-name="Ebreve" horiz-adv-x="551" unicode="Ĕ" d="M633 941q0 -5 -1 -8q-8 -36 -25.5 -62.5t-41.5 -44t-52.5 -26t-57.5 -8.5t-56 8t-47.5 25.5t-33 44t-12.5 63.5q0 7 3 12t11 5h35q8 0 10.5 -4t2.5 -12q0 -80 87 -80q46 0 74 21t39 59q2 8 5.5 12t11.5 4h39q9 0 9 -9zM410 668q-40 0 -65 -5.5t-40.5 -18t-23.5 -32.5 t-13 -48l-24 -139h307q19 0 16 -20l-6 -38q-2 -8 -6.5 -14t-17.5 -6h-307l-29 -168q-2 -12 -3.5 -22t-1.5 -19q0 -34 23 -48.5t86 -14.5h190q8 0 11 -2t1 -10l-9 -49q-1 -5 -2.5 -8.5t-9.5 -5.5q-11 -1 -34.5 -2.5t-52 -2.5t-58 -1.5t-51.5 -0.5q-86 0 -135 35.5t-49 108.5 q0 22 4 42l67 385q10 55 30 91t50.5 57t71.5 29.5t94 8.5q85 0 129.5 -2.5t64.5 -6.5q5 -1 7 -3t2 -5q0 -2 -1 -6l-9 -47q-1 -8 -4.5 -10t-8.5 -2h-193z"/>
<glyph glyph-name="ebreve" horiz-adv-x="544" unicode="ĕ" d="M580 770q0 -5 -1 -8q-8 -36 -25.5 -62.5t-41.5 -44t-52.5 -26t-57.5 -8.5t-56 8t-47.5 25.5t-33 44t-12.5 63.5q0 7 3 12t11 5h35q8 0 10.5 -4t2.5 -12q0 -80 87 -80q46 0 74 21t39 59q2 8 5.5 12t11.5 4h39q9 0 9 -9zM467 374q0 106 -108 106q-33 0 -60 -12t-47.5 -34 t-34.5 -51.5t-21 -63.5l-1 -5h265l1 5q6 30 6 55zM555 371q0 -29 -6 -60l-8 -42q-2 -10 -6.5 -16t-15.5 -6h-337l-2 -12q-6 -35 -6 -61q0 -57 33 -82t91 -25q44 0 91 4.5t82 9.5q22 3 19 -14l-6 -34q-2 -11 -6.5 -16t-17.5 -7q-45 -8 -84.5 -12.5t-90.5 -4.5q-37 0 -72.5 10 t-63 32t-44.5 57t-17 86q0 29 6 62l13 70q23 120 90.5 183.5t174.5 63.5q46 0 80.5 -14.5t57.5 -39.5t34 -59t11 -73z"/>
<glyph glyph-name="Edotaccent" horiz-adv-x="551" unicode="Ė" d="M510 913l-15 -84q-2 -8 -8.5 -14t-14.5 -6h-48q-16 0 -16 17v3l15 84q2 8 8.5 13.5t14.5 5.5h48q16 0 16 -16v-3zM410 668q-40 0 -65 -5.5t-40.5 -18t-23.5 -32.5t-13 -48l-24 -139h307q19 0 16 -20l-6 -38q-2 -8 -6.5 -14t-17.5 -6h-307l-29 -168q-2 -12 -3.5 -22 t-1.5 -19q0 -34 23 -48.5t86 -14.5h190q8 0 11 -2t1 -10l-9 -49q-1 -5 -2.5 -8.5t-9.5 -5.5q-11 -1 -34.5 -2.5t-52 -2.5t-58 -1.5t-51.5 -0.5q-86 0 -135 35.5t-49 108.5q0 22 4 42l67 385q10 55 30 91t50.5 57t71.5 29.5t94 8.5q85 0 129.5 -2.5t64.5 -6.5q5 -1 7 -3t2 -5 q0 -2 -1 -6l-9 -47q-1 -8 -4.5 -10t-8.5 -2h-193z"/>
<glyph glyph-name="edotaccent" horiz-adv-x="544" unicode="ė" d="M464 742l-15 -84q-2 -8 -8.5 -14t-14.5 -6h-48q-16 0 -16 17v3l15 84q2 8 8.5 13.5t14.5 5.5h48q16 0 16 -16v-3zM467 374q0 106 -108 106q-33 0 -60 -12t-47.5 -34t-34.5 -51.5t-21 -63.5l-1 -5h265l1 5q6 30 6 55zM555 371q0 -29 -6 -60l-8 -42q-2 -10 -6.5 -16 t-15.5 -6h-337l-2 -12q-6 -35 -6 -61q0 -57 33 -82t91 -25q44 0 91 4.5t82 9.5q22 3 19 -14l-6 -34q-2 -11 -6.5 -16t-17.5 -7q-45 -8 -84.5 -12.5t-90.5 -4.5q-37 0 -72.5 10t-63 32t-44.5 57t-17 86q0 29 6 62l13 70q23 120 90.5 183.5t174.5 63.5q46 0 80.5 -14.5 t57.5 -39.5t34 -59t11 -73z"/>
<glyph glyph-name="Eogonek" horiz-adv-x="551" unicode="Ę" d="M625 727l-9 -47q-2 -12 -13 -12h-193q-40 0 -65 -5.5t-40.5 -18t-23.5 -32.5t-13 -48l-24 -139h307q16 0 16 -17v-3l-6 -38q-2 -8 -9 -14t-15 -6h-307l-29 -168q-2 -12 -3.5 -22t-1.5 -19q0 -34 23 -48.5t86 -14.5h193q9 0 9 -9v-3l-9 -49q-1 -5 -4 -9t-8 -5 q-5 0 -13.5 -0.5t-19.5 -1.5l-64 -40q-20 -12 -32.5 -20.5t-20 -16t-10.5 -15t-3 -18.5q0 -22 18.5 -26t44.5 -4q24 0 46 5t27 5t4 -8l-7 -39q-1 -8 -13 -11q-2 -1 -24 -5.5t-54 -4.5q-60 0 -88 21.5t-28 54.5q0 22 7 39.5t18.5 30.5t26 23t30.5 18l14 7q-15 -1 -29.5 -1 h-25.5q-86 0 -135 35.5t-49 108.5q0 22 4 42l67 385q10 55 30 91t50.5 57t71.5 29.5t94 8.5q85 0 129.5 -2.5t64.5 -6.5q5 -1 6.5 -4.5t1.5 -7.5v-2z"/>
<glyph glyph-name="eogonek" horiz-adv-x="544" unicode="ę" d="M467 374q0 106 -108 106q-33 0 -60 -12t-47.5 -34t-34.5 -51.5t-21 -63.5l-1 -5h265l1 5q6 30 6 55zM555 371q0 -29 -6 -60l-8 -42q-2 -10 -6.5 -16t-15.5 -6h-335l-3 -12q-5 -17 -6.5 -32t-1.5 -29q0 -57 33.5 -82t91.5 -25q44 0 91 4.5t82 9.5l9 1q7 0 9.5 -3t0.5 -12 l-6 -34q-2 -8 -4.5 -12.5t-9.5 -8.5l-89 -54q-29 -18 -47.5 -32t-18.5 -37q0 -15 14.5 -23t48.5 -8q24 0 46 5t27 5t4 -8l-7 -39q-1 -8 -13 -11q-2 -1 -24 -5.5t-54 -4.5q-65 0 -90 22t-25 58q0 21 7.5 37.5t19 29.5t26 22.5t28.5 17.5l13 7q-12 -1 -24.5 -1h-26.5 q-37 0 -72.5 10t-63 32t-44.5 57t-17 86q0 29 6 62l13 70q23 120 90.5 183.5t174.5 63.5q46 0 80.5 -14.5t57.5 -39.5t34 -59t11 -73z"/>
<glyph glyph-name="Ecaron" horiz-adv-x="551" unicode="Ě" d="M650 944q0 -5 -6 -11l-119 -124q-8 -8 -13 -11.5t-14 -3.5h-85q-9 0 -13 3.5t-9 11.5l-76 124q-2 3 -2 8q0 9 10 9h47q8 0 12 -4t9 -12l66 -96l99 96q8 8 12.5 12t12.5 4h61q8 0 8 -6zM410 668q-40 0 -65 -5.5t-40.5 -18t-23.5 -32.5t-13 -48l-24 -139h307q19 0 16 -20 l-6 -38q-2 -8 -6.5 -14t-17.5 -6h-307l-29 -168q-2 -12 -3.5 -22t-1.5 -19q0 -34 23 -48.5t86 -14.5h190q8 0 11 -2t1 -10l-9 -49q-1 -5 -2.5 -8.5t-9.5 -5.5q-11 -1 -34.5 -2.5t-52 -2.5t-58 -1.5t-51.5 -0.5q-86 0 -135 35.5t-49 108.5q0 22 4 42l67 385q10 55 30 91 t50.5 57t71.5 29.5t94 8.5q85 0 129.5 -2.5t64.5 -6.5q5 -1 7 -3t2 -5q0 -2 -1 -6l-9 -47q-1 -8 -4.5 -10t-8.5 -2h-193z"/>
<glyph glyph-name="ecaron" horiz-adv-x="544" unicode="ě" d="M594 773q0 -5 -6 -11l-119 -124q-8 -8 -13 -11.5t-14 -3.5h-85q-9 0 -13 3.5t-9 11.5l-76 124q-2 3 -2 8q0 9 10 9h47q8 0 12 -4t9 -12l66 -96l99 96q8 8 12.5 12t12.5 4h61q8 0 8 -6zM467 374q0 106 -108 106q-33 0 -60 -12t-47.5 -34t-34.5 -51.5t-21 -63.5l-1 -5h265 l1 5q6 30 6 55zM555 371q0 -29 -6 -60l-8 -42q-2 -10 -6.5 -16t-15.5 -6h-337l-2 -12q-6 -35 -6 -61q0 -57 33 -82t91 -25q44 0 91 4.5t82 9.5q22 3 19 -14l-6 -34q-2 -11 -6.5 -16t-17.5 -7q-45 -8 -84.5 -12.5t-90.5 -4.5q-37 0 -72.5 10t-63 32t-44.5 57t-17 86 q0 29 6 62l13 70q23 120 90.5 183.5t174.5 63.5q46 0 80.5 -14.5t57.5 -39.5t34 -59t11 -73z"/>
<glyph glyph-name="Gcircumflex" horiz-adv-x="612" unicode="Ĝ" d="M640 802q0 -9 -10 -9h-49q-8 0 -12 3.5t-9 11.5l-64 97l-101 -97q-8 -8 -12.5 -11.5t-12.5 -3.5h-55q-8 0 -8 6q0 5 6 11l118 124q8 8 12.5 11.5t13.5 3.5h85q9 0 13.5 -3.5t9.5 -11.5l73 -124q2 -3 2 -8zM458 750q70 0 115 -4.5t73 -9.5q7 -1 11 -3.5t4 -7.5q0 -2 -1 -4 l-9 -50q-1 -8 -5.5 -9.5t-12.5 -0.5q-22 2 -42 3.5t-42 2t-47.5 1t-57.5 0.5q-33 0 -67 -10.5t-63.5 -36.5t-52.5 -70.5t-35 -112.5l-23 -134q-4 -23 -6 -42.5t-2 -36.5q0 -42 10.5 -71t28.5 -46.5t42.5 -25.5t53.5 -8q46 0 77.5 2t49.5 4l51 286q2 8 7.5 14t13.5 6h54 q8 0 12 -5t4 -12v-3l-60 -336q-3 -19 -22 -22q-38 -6 -84 -10.5t-117 -4.5q-40 0 -78 13t-67.5 41.5t-47.5 73t-18 107.5q0 17 1.5 36.5t5.5 39.5l23 134q16 96 50 156.5t78 95t94.5 47.5t100.5 13z"/>
<glyph glyph-name="gcircumflex" horiz-adv-x="541" unicode="ĝ" d="M550 632q0 -9 -10 -9h-49q-8 0 -12 3.5t-9 11.5l-64 97l-101 -97q-8 -8 -12.5 -11.5t-12.5 -3.5h-55q-8 0 -8 6q0 5 6 11l118 124q8 8 12.5 11.5t13.5 3.5h85q9 0 13.5 -3.5t9.5 -11.5l73 -124q2 -3 2 -8zM468 472q-20 4 -49 7.5t-61 3.5q-70 0 -109.5 -41.5 t-55.5 -129.5l-13 -73q-4 -20 -5.5 -38t-1.5 -33q0 -57 27.5 -79t84.5 -22q10 0 25 0.5t30.5 2t31 3.5t27.5 5zM105 312q12 67 34 114t55 76t77 42t100 13q45 0 93 -7.5t82 -15.5q14 -3 16 -7t2 -8q0 -3 -1 -8l-90 -510q-10 -58 -28.5 -96.5t-47 -61t-68.5 -31.5t-94 -9 q-57 0 -102 6t-65 12q-12 3 -14.5 6.5t-2.5 8.5q0 3 1 6l5 29q2 10 6.5 14t17.5 2t33 -4t43.5 -3.5l47 -3t43.5 -1.5q33 0 56.5 6t39 20t25 37t15.5 57l2 12q-10 -2 -24.5 -4.5t-31 -4.5t-32 -3.5t-26.5 -1.5q-41 0 -75 10t-58.5 32t-38.5 56t-14 81q0 31 6 67z"/>
<glyph glyph-name="Gbreve" horiz-adv-x="612" unicode="Ğ" d="M653 943q0 -5 -1 -8q-8 -36 -25.5 -62.5t-41.5 -44t-52.5 -26t-57.5 -8.5t-56 8t-47.5 25.5t-33 44t-12.5 63.5q0 7 3 12t11 5h35q8 0 10.5 -4t2.5 -12q0 -80 87 -80q46 0 74 21t39 59q2 8 5.5 12t11.5 4h39q9 0 9 -9zM458 750q70 0 115 -4.5t73 -9.5q7 -1 11 -3.5 t4 -7.5q0 -2 -1 -4l-9 -50q-1 -8 -5.5 -9.5t-12.5 -0.5q-22 2 -42 3.5t-42 2t-47.5 1t-57.5 0.5q-33 0 -67 -10.5t-63.5 -36.5t-52.5 -70.5t-35 -112.5l-23 -134q-4 -23 -6 -42.5t-2 -36.5q0 -42 10.5 -71t28.5 -46.5t42.5 -25.5t53.5 -8q46 0 77.5 2t49.5 4l51 286 q2 8 7.5 14t13.5 6h54q8 0 12 -5t4 -12v-3l-60 -336q-3 -19 -22 -22q-38 -6 -84 -10.5t-117 -4.5q-40 0 -78 13t-67.5 41.5t-47.5 73t-18 107.5q0 17 1.5 36.5t5.5 39.5l23 134q16 96 50 156.5t78 95t94.5 47.5t100.5 13z"/>
<glyph glyph-name="gbreve" horiz-adv-x="541" unicode="ğ" d="M577 771q0 -5 -1 -8q-8 -36 -25.5 -62.5t-41.5 -44t-52.5 -26t-57.5 -8.5t-56 8t-47.5 25.5t-33 44t-12.5 63.5q0 7 3 12t11 5h35q8 0 10.5 -4t2.5 -12q0 -80 87 -80q46 0 74 21t39 59q2 8 5.5 12t11.5 4h39q9 0 9 -9zM468 472q-20 4 -49 7.5t-61 3.5q-70 0 -109.5 -41.5 t-55.5 -129.5l-13 -73q-4 -20 -5.5 -38t-1.5 -33q0 -57 27.5 -79t84.5 -22q10 0 25 0.5t30.5 2t31 3.5t27.5 5zM105 312q12 67 34 114t55 76t77 42t100 13q45 0 93 -7.5t82 -15.5q14 -3 16 -7t2 -8q0 -3 -1 -8l-90 -510q-10 -58 -28.5 -96.5t-47 -61t-68.5 -31.5t-94 -9 q-57 0 -102 6t-65 12q-12 3 -14.5 6.5t-2.5 8.5q0 3 1 6l5 29q2 10 6.5 14t17.5 2t33 -4t43.5 -3.5l47 -3t43.5 -1.5q33 0 56.5 6t39 20t25 37t15.5 57l2 12q-10 -2 -24.5 -4.5t-31 -4.5t-32 -3.5t-26.5 -1.5q-41 0 -75 10t-58.5 32t-38.5 56t-14 81q0 31 6 67z"/>
<glyph glyph-name="Gdotaccent" horiz-adv-x="612" unicode="Ġ" d="M542 897l-15 -84q-2 -8 -8.5 -14t-14.5 -6h-48q-16 0 -16 17v3l15 84q2 8 8.5 13.5t14.5 5.5h48q16 0 16 -16v-3zM458 750q70 0 115 -4.5t73 -9.5q7 -1 11 -3.5t4 -7.5q0 -2 -1 -4l-9 -50q-1 -8 -5.5 -9.5t-12.5 -0.5q-22 2 -42 3.5t-42 2t-47.5 1t-57.5 0.5 q-33 0 -67 -10.5t-63.5 -36.5t-52.5 -70.5t-35 -112.5l-23 -134q-4 -23 -6 -42.5t-2 -36.5q0 -42 10.5 -71t28.5 -46.5t42.5 -25.5t53.5 -8q46 0 77.5 2t49.5 4l51 286q2 8 7.5 14t13.5 6h54q8 0 12 -5t4 -12v-3l-60 -336q-3 -19 -22 -22q-38 -6 -84 -10.5t-117 -4.5 q-40 0 -78 13t-67.5 41.5t-47.5 73t-18 107.5q0 17 1.5 36.5t5.5 39.5l23 134q16 96 50 156.5t78 95t94.5 47.5t100.5 13z"/>
<glyph glyph-name="gdotaccent" horiz-adv-x="541" unicode="ġ" d="M458 742l-15 -84q-2 -8 -8.5 -14t-14.5 -6h-48q-16 0 -16 17v3l15 84q2 8 8.5 13.5t14.5 5.5h48q16 0 16 -16v-3zM468 472q-20 4 -49 7.5t-61 3.5q-70 0 -109.5 -41.5t-55.5 -129.5l-13 -73q-4 -20 -5.5 -38t-1.5 -33q0 -57 27.5 -79t84.5 -22q10 0 25 0.5t30.5 2t31 3.5 t27.5 5zM105 312q12 67 34 114t55 76t77 42t100 13q45 0 93 -7.5t82 -15.5q14 -3 16 -7t2 -8q0 -3 -1 -8l-90 -510q-10 -58 -28.5 -96.5t-47 -61t-68.5 -31.5t-94 -9q-57 0 -102 6t-65 12q-12 3 -14.5 6.5t-2.5 8.5q0 3 1 6l5 29q2 10 6.5 14t17.5 2t33 -4t43.5 -3.5l47 -3 t43.5 -1.5q33 0 56.5 6t39 20t25 37t15.5 57l2 12q-10 -2 -24.5 -4.5t-31 -4.5t-32 -3.5t-26.5 -1.5q-41 0 -75 10t-58.5 32t-38.5 56t-14 81q0 31 6 67z"/>
<glyph glyph-name="Gcommaaccent" horiz-adv-x="612" unicode="Ģ" d="M351 -49q11 0 9 -11l-2 -8l-74 -109q-6 -10 -11 -14.5t-16 -4.5h-41q-3 0 -6 1.5t-2 6.5q1 2 1 3.5t2 4.5l48 112q7 19 23 19h69zM458 750q70 0 115 -4.5t73 -9.5q7 -1 11 -3.5t4 -7.5q0 -2 -1 -4l-9 -50q-1 -8 -5.5 -9.5t-12.5 -0.5q-22 2 -42 3.5t-42 2t-47.5 1 t-57.5 0.5q-33 0 -67 -10.5t-63.5 -36.5t-52.5 -70.5t-35 -112.5l-23 -134q-4 -23 -6 -42.5t-2 -36.5q0 -42 10.5 -71t28.5 -46.5t42.5 -25.5t53.5 -8q46 0 77.5 2t49.5 4l51 286q2 8 7.5 14t13.5 6h54q8 0 12 -5t4 -12v-3l-60 -336q-3 -19 -22 -22q-38 -6 -84 -10.5 t-117 -4.5q-40 0 -78 13t-67.5 41.5t-47.5 73t-18 107.5q0 17 1.5 36.5t5.5 39.5l23 134q16 96 50 156.5t78 95t94.5 47.5t100.5 13z"/>
<glyph glyph-name="gcommaaccent" horiz-adv-x="541" unicode="ģ" d="M348 623q-4 0 -7.5 3t-2.5 8q0 4 4 8l73 109q6 10 11 14.5t16 4.5h41q3 0 6 -1.5t2 -6.5q-1 -2 -1 -3.5t-2 -4.5l-47 -112q-8 -19 -24 -19h-69zM468 472q-20 4 -49 7.5t-61 3.5q-70 0 -109.5 -41.5t-55.5 -129.5l-13 -73q-4 -20 -5.5 -38t-1.5 -33q0 -57 27.5 -79 t84.5 -22q10 0 25 0.5t30.5 2t31 3.5t27.5 5zM105 312q12 67 34 114t55 76t77 42t100 13q45 0 93 -7.5t82 -15.5q14 -3 16 -7t2 -8q0 -3 -1 -8l-90 -510q-10 -58 -28.5 -96.5t-47 -61t-68.5 -31.5t-94 -9q-57 0 -102 6t-65 12q-12 3 -14.5 6.5t-2.5 8.5q0 3 1 6l5 29 q2 10 6.5 14t17.5 2t33 -4t43.5 -3.5l47 -3t43.5 -1.5q33 0 56.5 6t39 20t25 37t15.5 57l2 12q-10 -2 -24.5 -4.5t-31 -4.5t-32 -3.5t-26.5 -1.5q-41 0 -75 10t-58.5 32t-38.5 56t-14 81q0 31 6 67z"/>
<glyph glyph-name="Hcircumflex" horiz-adv-x="680" unicode="Ĥ" d="M643 802q0 -9 -10 -9h-49q-8 0 -12 3.5t-9 11.5l-64 97l-101 -97q-8 -8 -12.5 -11.5t-12.5 -3.5h-55q-8 0 -8 6q0 5 6 11l118 124q8 8 12.5 11.5t13.5 3.5h85q9 0 13.5 -3.5t9.5 -11.5l73 -124q2 -3 2 -8zM713 743q16 0 16 -15v-5l-123 -703q-2 -8 -9 -14t-15 -6h-51 q-19 0 -16 20l58 332h-342l-58 -332q-2 -8 -6 -14t-18 -6h-51q-9 0 -13 5t-4 10q0 2 1 5l123 703q2 8 6 14t18 6h51q19 0 16 -20l-51 -290h342l51 290q2 8 6 14t18 6h51z"/>
<glyph glyph-name="hcircumflex" d="M598 802q0 -9 -10 -9h-49q-8 0 -12 3.5t-9 11.5l-64 97l-101 -97q-8 -8 -12.5 -11.5t-12.5 -3.5h-55q-8 0 -8 6q0 5 6 11l118 124q8 8 12.5 11.5t13.5 3.5h85q9 0 13.5 -3.5t9.5 -11.5l73 -124q2 -3 2 -8zM556 397q0 -10 -1 -20t-3 -21l-59 -336q-2 -8 -6.5 -14t-17.5 -6 h-48q-19 0 -16 20l59 336q4 20 4 40q0 46 -26.5 66t-85.5 20q-30 0 -62 -4t-56 -11l-78 -447q-2 -8 -6 -14t-18 -6h-48q-12 0 -14.5 5t-2.5 9q0 3 1 6l125 713q2 8 6 13.5t16 5.5h51q8 0 12.5 -4t2.5 -15l-33 -190q26 6 57 10t60 4q48 0 83.5 -12.5t58.5 -34t34 -50.5 t11 -63z" unicode="ĥ"/>
<glyph glyph-name="Hbar" horiz-adv-x="680" unicode="Ħ" d="M587 433l19 109h-342l-19 -109h342zM759 562q-2 -8 -9 -14t-15 -6h-38l-92 -522q-2 -8 -8.5 -14t-14.5 -6h-51q-8 0 -13.5 6t-3.5 14l59 332h-342l-59 -332q-2 -8 -8.5 -14t-14.5 -6h-51q-8 0 -13 5t-5 11q0 2 1 4l92 522h-38q-8 0 -13 6t-3 14l7 41q2 8 8.5 14t14.5 6 h38l18 100q2 8 9 14t15 6h51q8 0 13 -6t3 -14l-18 -100h342l18 100q2 8 9 14t15 6h51q8 0 13 -6t3 -14l-18 -100h38q8 0 13 -5t5 -11q0 -2 -1 -4z"/>
<glyph glyph-name="hbar" d="M190 697l7 36q2 8 8 13.5t14 5.5h51q15 0 15 -15v-4l-6 -36h160q8 0 13.5 -4.5t3.5 -15.5l-6 -34q-2 -13 -9 -16.5t-15 -3.5h-160l-14 -80q26 6 57 10t60 4q48 0 83.5 -12.5t58.5 -34t34 -50.5t11 -63q0 -10 -1 -20t-3 -21l-59 -336q-2 -8 -9 -14t-15 -6h-48 q-16 0 -16 16v4l59 336q4 20 4 40q0 46 -26.5 66t-85.5 20q-30 0 -62 -4t-56 -11l-78 -447q-2 -8 -9 -14t-15 -6h-48q-16 0 -16 16v4l105 603h-34q-8 0 -13 4.5t-3 15.5l6 34q2 12 8.5 16t14.5 4h34z" unicode="ħ"/>
<glyph glyph-name="Itilde" horiz-adv-x="267" unicode="Ĩ" d="M470 914l-4 -23q-9 -52 -31.5 -78.5t-70.5 -26.5q-17 0 -38 4.5t-38 21.5l-47 44q-15 14 -21.5 18t-15.5 4q-34 0 -40 -46l-3 -21q-1 -7 -5.5 -12t-11.5 -5h-34q-13 0 -13 14v3l3 21q8 60 35.5 84.5t68.5 24.5q23 0 38.5 -7t35.5 -24l54 -49q7 -6 16 -10t16 -4q15 0 24 9 t14 35l4 23q2 7 6 12t11 5h34q13 0 13 -14v-3zM292 743q15 0 15 -14v-5l-124 -704q-3 -20 -22 -20h-55q-10 0 -12.5 5t-2.5 9q0 3 1 6l124 704q2 8 6 13.5t15 5.5h55z"/>
<glyph glyph-name="itilde" horiz-adv-x="247" unicode="ĩ" d="M436 754l-4 -23q-9 -52 -31.5 -78.5t-70.5 -26.5q-17 0 -38 4.5t-38 21.5l-47 44q-15 14 -21.5 18t-15.5 4q-34 0 -40 -46l-3 -21q-1 -7 -5.5 -12t-11.5 -5h-34q-13 0 -13 14v3l3 21q8 60 35.5 84.5t68.5 24.5q23 0 38.5 -7t35.5 -24l54 -49q7 -6 16 -10t16 -4q15 0 24 9 t14 35l4 23q2 7 6 12t11 5h34q13 0 13 -14v-3zM260 530l-89 -510q-2 -8 -9 -14t-15 -6h-48q-16 0 -16 16v4l89 510q2 8 9 14t15 6h48q16 0 16 -16v-4z"/>
<glyph glyph-name="Imacron" horiz-adv-x="267" unicode="Ī" d="M451 870l-6 -34q-2 -8 -8.5 -12.5t-14.5 -4.5h-288q-17 0 -17 14v3l6 34q2 8 8.5 12.5t14.5 4.5h288q17 0 17 -14v-3zM292 743q15 0 15 -14v-5l-124 -704q-3 -20 -22 -20h-55q-10 0 -12.5 5t-2.5 9q0 3 1 6l124 704q2 8 6 13.5t15 5.5h55z"/>
<glyph glyph-name="imacron" horiz-adv-x="247" unicode="ī" d="M409 700l-6 -34q-2 -8 -8.5 -12.5t-14.5 -4.5h-288q-17 0 -17 14v3l6 34q2 8 8.5 12.5t14.5 4.5h288q17 0 17 -14v-3zM260 530l-89 -510q-2 -8 -9 -14t-15 -6h-48q-16 0 -16 16v4l89 510q2 8 9 14t15 6h48q16 0 16 -16v-4z"/>
<glyph glyph-name="Ibreve" horiz-adv-x="267" unicode="Ĭ" d="M457 942q0 -5 -1 -8q-8 -36 -25.5 -62.5t-41.5 -44t-52.5 -26t-57.5 -8.5t-56 8t-47.5 25.5t-33 44t-12.5 63.5q0 7 3 12t11 5h35q8 0 10.5 -4t2.5 -12q0 -80 87 -80q46 0 74 21t39 59q2 8 5.5 12t11.5 4h39q9 0 9 -9zM292 743q15 0 15 -14v-5l-124 -704q-3 -20 -22 -20 h-55q-10 0 -12.5 5t-2.5 9q0 3 1 6l124 704q2 8 6 13.5t15 5.5h55z"/>
<glyph glyph-name="ibreve" horiz-adv-x="247" unicode="ĭ" d="M417 770q0 -5 -1 -8q-8 -36 -25.5 -62.5t-41.5 -44t-52.5 -26t-57.5 -8.5t-56 8t-47.5 25.5t-33 44t-12.5 63.5q0 7 3 12t11 5h35q8 0 10.5 -4t2.5 -12q0 -80 87 -80q46 0 74 21t39 59q2 8 5.5 12t11.5 4h39q9 0 9 -9zM260 530l-89 -510q-2 -8 -9 -14t-15 -6h-48 q-16 0 -16 16v4l89 510q2 8 9 14t15 6h48q16 0 16 -16v-4z"/>
<glyph glyph-name="Iogonek" horiz-adv-x="267" unicode="Į" d="M183 19q-1 -12 -13 -18l-71 -43q-29 -18 -47.5 -32t-18.5 -37q0 -15 14.5 -23t48.5 -8q24 0 46 5t27 5t4 -8l-7 -39q-1 -8 -13 -11q-2 -1 -24 -5.5t-54 -4.5q-65 0 -90.5 21.5t-25.5 54.5q0 22 7.5 39.5t19 30.5t26 23t29.5 18l50 27l125 710q2 8 7.5 13.5t13.5 5.5h55 q7 0 11 -4.5t4 -10.5v-4z"/>
<glyph glyph-name="iogonek" horiz-adv-x="247" unicode="į" d="M299 738l-14 -80q-2 -8 -9 -14t-15 -6h-51q-16 0 -16 16v4l14 80q2 8 9 14t15 6h51q16 0 16 -16v-4zM174 37q-2 -15 -6 -23t-13 -13l-71 -43q-21 -13 -34 -21.5t-20 -16t-9.5 -14.5t-2.5 -17q0 -15 14.5 -23t48.5 -8q24 0 46 5t27 5t4 -8l-7 -39q-1 -8 -13 -11 q-2 -1 -24 -5.5t-54 -4.5q-65 0 -90.5 21.5t-25.5 54.5q0 22 7 39t19 30t26.5 23t29.5 19l57 33l89 510q2 8 9 14t15 6h48q16 0 16 -16v-4z"/>
<glyph glyph-name="Idotaccent" horiz-adv-x="267" unicode="İ" d="M343 913l-15 -84q-2 -8 -8.5 -14t-14.5 -6h-48q-16 0 -16 17v3l15 84q2 8 8.5 13.5t14.5 5.5h48q16 0 16 -16v-3zM292 743q15 0 15 -14v-5l-124 -704q-3 -20 -22 -20h-55q-10 0 -12.5 5t-2.5 9q0 3 1 6l124 704q2 8 6 13.5t15 5.5h55z"/>
<glyph glyph-name="dotlessi" horiz-adv-x="247" unicode="ı" d="M260 530l-89 -510q-2 -8 -9 -14t-15 -6h-48q-16 0 -16 16v4l89 510q2 8 9 14t15 6h48q16 0 16 -16v-4z"/>
<glyph glyph-name="IJ" horiz-adv-x="524" unicode="Ĳ" d="M574 724l-135 -761q-13 -72 -55 -107.5t-125 -35.5q-17 0 -32 3t-19 5q-4 3 -4 8v3l6 37q2 8 8.5 12.5t14.5 4.5h39q40 0 54.5 16.5t21.5 53.5l135 761q2 8 8 13.5t14 5.5h53q16 0 16 -16v-3zM307 724l-124 -704q-2 -8 -8 -14t-14 -6h-55q-14 0 -14 16v4l124 704 q2 8 7.5 13.5t13.5 5.5h55q7 0 11 -4.5t4 -10.5v-4z"/>
<glyph glyph-name="ij" horiz-adv-x="494" unicode="ĳ" d="M507 530l-104 -594q-7 -39 -20 -64.5t-32 -41t-43.5 -21.5t-54.5 -6q-15 0 -27 1t-26 3q-15 3 -15 12v4l6 37q3 14 24 14h42q14 0 23.5 2.5t16 9.5t11 19t7.5 31l104 594q2 8 9 14t15 6h48q16 0 16 -16v-4zM546 739l-14 -81q-2 -8 -9 -14t-15 -6h-52q-15 0 -15 16v4 l14 81q2 8 8.5 13.5t14.5 5.5h52q16 0 16 -16v-3zM260 530l-89 -510q-2 -8 -9 -14t-15 -6h-48q-16 0 -16 16v4l89 510q2 8 9 14t15 6h48q16 0 16 -16v-4zM299 738l-14 -80q-2 -8 -9 -14t-15 -6h-51q-16 0 -16 16v4l14 80q2 8 9 14t15 6h51q16 0 16 -16v-4z"/>
<glyph glyph-name="Jcircumflex" horiz-adv-x="257" unicode="Ĵ" d="M435 802q0 -9 -10 -9h-49q-8 0 -12 3.5t-9 11.5l-64 97l-101 -97q-8 -8 -12.5 -11.5t-12.5 -3.5h-55q-8 0 -8 6q0 5 6 11l118 124q8 8 12.5 11.5t13.5 3.5h85q9 0 13.5 -3.5t9.5 -11.5l73 -124q2 -3 2 -8zM291 743q8 0 12.5 -3.5t4.5 -9.5q0 -3 -1 -6l-135 -761 q-13 -72 -55 -107.5t-125 -35.5q-17 0 -30 2.5t-18 4.5q-8 3 -7 12l6 37q2 8 6 12.5t17 4.5h39q40 0 54.5 16.5t21.5 53.5l135 761q2 8 6.5 13.5t15.5 5.5h53z"/>
<glyph glyph-name="jcircumflex" horiz-adv-x="247" unicode="ĵ" d="M395 632q0 -9 -10 -9h-49q-8 0 -12 3.5t-9 11.5l-64 97l-101 -97q-8 -8 -12.5 -11.5t-12.5 -3.5h-55q-8 0 -8 6q0 5 6 11l118 124q8 8 12.5 11.5t13.5 3.5h85q9 0 13.5 -3.5t9.5 -11.5l73 -124q2 -3 2 -8zM260 530l-104 -594q-7 -39 -20 -64.5t-32 -41t-43.5 -21.5 t-54.5 -6q-15 0 -27 1t-26 3q-15 3 -15 12v4l6 37q3 14 24 14h42q14 0 23.5 2.5t16 9.5t11 19t7.5 31l104 594q2 8 9 14t15 6h48q16 0 16 -16v-4z"/>
<glyph glyph-name="Kcommaaccent" horiz-adv-x="607" unicode="Ķ" d="M348 -49q11 0 9 -11l-2 -8l-74 -109q-6 -10 -11 -14.5t-16 -4.5h-41q-3 0 -6 1.5t-2 6.5q1 2 1 3.5t2 4.5l48 112q7 19 23 19h69zM691 733q0 -6 -5 -11l-370 -340l239 -366q2 -4 2 -6q0 -10 -11 -10h-72q-14 0 -20 10l-222 346l-59 -336q-2 -8 -5.5 -14t-16.5 -6h-55 q-8 0 -11.5 5t-3.5 10q0 2 1 5l124 704q2 8 6 13.5t16 5.5h53q8 0 13 -4t3 -15l-55 -314l336 324q5 5 9.5 7t12.5 2h78q13 0 13 -10z"/>
<glyph glyph-name="kcommaaccent" horiz-adv-x="496" unicode="ķ" d="M293 -49q11 0 9 -11l-2 -8l-74 -109q-6 -10 -11 -14.5t-16 -4.5h-41q-3 0 -6 1.5t-2 6.5q1 2 1 3.5t2 4.5l48 112q7 19 23 19h69zM546 540q0 -7 -6 -13l-259 -238l181 -266q3 -5 3 -9q0 -5 -3.5 -9.5t-10.5 -4.5h-58q-8 0 -14.5 3t-12.5 12l-164 246l-42 -241 q-2 -8 -6.5 -14t-12.5 -6h-53q-9 0 -13 5t-4 10q0 2 1 5l125 712q2 8 9 14t15 6h48q20 0 16 -20l-72 -406l230 215q9 9 22 9h68q13 0 13 -10z"/>
<glyph glyph-name="kgreenlandic" horiz-adv-x="496" unicode="ĸ" d="M546 540q0 -7 -6 -13l-259 -238l181 -266q3 -5 3 -9q0 -5 -3.5 -9.5t-10.5 -4.5h-58q-8 0 -14.5 3t-12.5 12l-164 246l-42 -241q-2 -8 -6.5 -14t-12.5 -6h-53q-16 0 -16 16v4l89 510q2 8 9 14t15 6h48q16 0 16 -16v-4l-36 -204l230 215q9 9 22 9h68q13 0 13 -10z"/>
<glyph glyph-name="Lacute" horiz-adv-x="514" unicode="Ĺ" d="M551 944q0 -4 -5 -9l-136 -126q-8 -8 -12.5 -11.5t-12.5 -3.5h-54q-8 0 -8 6q0 5 6 11l120 124q8 8 12.5 11.5t13.5 3.5h66q10 0 10 -6zM506 60l-7 -44q-1 -7 -3 -9.5t-10 -4.5q-20 -3 -72.5 -6t-123.5 -3q-37 0 -70.5 5.5t-58.5 21.5t-39.5 43.5t-14.5 71.5q0 13 1 26.5 t4 29.5l93 532q2 8 6 14t18 6h51q9 0 13.5 -6t2.5 -14l-95 -544q-2 -12 -3.5 -23.5t-1.5 -20.5q0 -34 23 -47t86 -13h188q13 0 13 -12v-3z"/>
<glyph glyph-name="lacute" horiz-adv-x="244" unicode="ĺ" d="M422 944q0 -4 -5 -9l-136 -126q-8 -8 -12.5 -11.5t-12.5 -3.5h-54q-8 0 -8 6q0 5 6 11l120 124q8 8 12.5 11.5t13.5 3.5h66q10 0 10 -6zM281 752q15 0 15 -13q0 -3 -1 -6l-125 -713q-2 -8 -6 -14t-16 -6h-52q-8 0 -11.5 5t-3.5 10q0 2 1 5l125 713q2 8 6.5 13.5t15.5 5.5 h52z"/>
<glyph glyph-name="Lcommaaccent" horiz-adv-x="514" unicode="Ļ" d="M315 -49q11 0 9 -11l-2 -8l-74 -109q-6 -10 -11 -14.5t-16 -4.5h-41q-3 0 -6 1.5t-2 6.5q1 2 1 3.5t2 4.5l48 112q7 19 23 19h69zM506 60l-7 -44q-1 -7 -3 -9.5t-10 -4.5q-20 -3 -72.5 -6t-123.5 -3q-37 0 -70.5 5.5t-58.5 21.5t-39.5 43.5t-14.5 71.5q0 13 1 26.5 t4 29.5l93 532q2 8 6 14t18 6h51q9 0 13.5 -6t2.5 -14l-95 -544q-2 -12 -3.5 -23.5t-1.5 -20.5q0 -34 23 -47t86 -13h188q13 0 13 -12v-3z"/>
<glyph glyph-name="lcommaaccent" horiz-adv-x="244" unicode="ļ" d="M147 -49q11 0 9 -11l-2 -8l-74 -109q-6 -10 -11 -14.5t-16 -4.5h-41q-3 0 -5.5 1.5t-2.5 4.5v4q1 3 3 6l48 112q7 19 23 19h69zM281 752q15 0 15 -13q0 -3 -1 -6l-125 -713q-2 -8 -6 -14t-16 -6h-52q-8 0 -11.5 5t-3.5 10q0 2 1 5l125 713q2 8 6.5 13.5t15.5 5.5h52z"/>
<glyph glyph-name="Lcaron" horiz-adv-x="514" unicode="Ľ" d="M528 728.5q-1 -2.5 -2 -4.5l-109 -189q-5 -10 -9.5 -14.5t-12.5 -4.5h-41q-12 0 -10 12q1 2 1 3.5t1 3.5l91 189q9 19 23 19h58q11 0 11 -8q0 -4 -1 -6.5zM506 60l-7 -44q-1 -7 -3 -9.5t-10 -4.5q-20 -3 -72.5 -6t-123.5 -3q-37 0 -70.5 5.5t-58.5 21.5t-39.5 43.5 t-14.5 71.5q0 13 1 26.5t4 29.5l93 532q2 8 6 14t18 6h51q9 0 13.5 -6t2.5 -14l-95 -544q-2 -12 -3.5 -23.5t-1.5 -20.5q0 -34 23 -47t86 -13h188q13 0 13 -12v-3z"/>
<glyph glyph-name="lcaron" horiz-adv-x="340" unicode="ľ" d="M469 741q0 -2 -2 -8l-75 -189q-4 -10 -7.5 -14.5t-11.5 -4.5h-41q-12 0 -12 12q0 5 1 7l57 189q6 19 20 19h58q13 0 13 -11zM295 733l-125 -713q-2 -8 -8 -14t-14 -6h-52q-14 0 -14 16v4l125 713q3 19 22 19h52q14 0 14 -15v-4z"/>
<glyph glyph-name="Ldot" horiz-adv-x="514" unicode="Ŀ" d="M470 408l-15 -84q-2 -8 -8.5 -14t-14.5 -6h-48q-16 0 -16 17v3l15 84q2 8 8.5 13.5t14.5 5.5h48q16 0 16 -16v-3zM506 60l-7 -44q-1 -7 -3 -9.5t-10 -4.5q-20 -3 -72.5 -6t-123.5 -3q-37 0 -70.5 5.5t-58.5 21.5t-39.5 43.5t-14.5 71.5q0 13 1 26.5t4 29.5l93 532 q2 8 6 14t18 6h51q9 0 13.5 -6t2.5 -14l-95 -544q-2 -12 -3.5 -23.5t-1.5 -20.5q0 -34 23 -47t86 -13h188q13 0 13 -12v-3z"/>
<glyph glyph-name="ldot" horiz-adv-x="388" unicode="ŀ" d="M421 408l-15 -84q-2 -8 -8.5 -14t-14.5 -6h-48q-16 0 -16 17v3l15 84q2 8 8.5 13.5t14.5 5.5h48q16 0 16 -16v-3zM295 733l-125 -713q-2 -8 -8 -14t-14 -6h-52q-14 0 -14 16v4l125 713q3 19 22 19h52q14 0 14 -15v-4z"/>
<glyph glyph-name="Lslash" horiz-adv-x="514" unicode="Ł" d="M507 63q-2 -12 -4 -23.5t-4 -23.5q0 -2 -1.5 -4.5t-3.5 -4.5q-2 -3 -8 -5q-3 -1 -6 -1t-8 -1q-26 -3 -73.5 -5t-108.5 -2q-89 0 -136.5 35t-47.5 107q0 11 1 21.5t3 22.5q5 29 10 58.5t10 58.5q-14 -14 -27.5 -28t-27.5 -28l-19 -19q-3 -3 -7 -5q-2 -1 -5 -1t-4 1 q-2 2 -2 4v1q3 16 5.5 31.5t5.5 31.5q1 5 2.5 10.5t8.5 12.5q22 23 44 44.5t44 44.5q2 7 2.5 13.5t2.5 13.5l26 150l26 150q2 8 9 14t15 6h51q7 0 12 -5q4 -4 4 -12v-3q-10 -54 -19 -108t-19 -108q21 21 41.5 42t41.5 42q3 3 7 5t5 2q4 0 5 -1t1 -5v-1q-3 -17 -5.5 -32.5 t-5.5 -32.5q-1 -6 -3 -11t-9 -12q-24 -24 -47.5 -48t-47.5 -48q-2 -7 -2.5 -13.5t-2.5 -14.5q-9 -51 -18 -100t-17 -100q-2 -12 -3.5 -22.5t-1.5 -19.5q0 -34 23 -48t86 -14h193q9 0 9 -9v-3z"/>
<glyph glyph-name="lslash" horiz-adv-x="244" unicode="ł" d="M352 587q-3 -17 -6 -32.5t-6 -32.5q-1 -6 -3.5 -9.5t-5.5 -6.5q-23 -23 -46 -47t-46 -47q-17 -99 -34.5 -196t-34.5 -196q-2 -8 -8 -14t-14 -6h-52q-14 0 -14 16v4q13 72 25 142t25 142l-66 -66l-17 -17q-2 -2 -6 -4q-2 -1 -5 -1q-7 0 -7 7v1q3 15 5.5 30t5.5 30 q1 5 2.5 10.5t8.5 12.5q24 24 48 48.5t48 48.5q2 7 2.5 13.5t2.5 13.5q14 76 27 151t26 151q2 8 8 13.5t14 5.5h52q14 0 14 -15v-4q-10 -56 -19.5 -110.5t-19.5 -110.5q20 20 39 39.5t39 39.5q5 5 10 5q8 0 8 -8v-1z"/>
<glyph glyph-name="Nacute" horiz-adv-x="680" unicode="Ń" d="M631 944q0 -4 -5 -9l-136 -126q-8 -8 -12.5 -11.5t-12.5 -3.5h-54q-8 0 -8 6q0 5 6 11l120 124q8 8 12.5 11.5t13.5 3.5h66q10 0 10 -6zM641 724q2 8 6 13.5t15 5.5h53q8 0 11.5 -4.5t3.5 -10.5v-4l-123 -695q-2 -12 -8 -20.5t-26 -8.5h-58q-16 0 -21 4t-8 12l-210 587 l-2 3q-2 0 -2 -3l-103 -584q-2 -8 -7.5 -13.5t-13.5 -5.5h-58q-11 0 -11 8q0 2 1 4l124 703q2 12 9.5 20t24.5 8h49q21 0 27 -4.5t10 -15.5l208 -579q3 -8 4 -8q2 0 3 8z"/>
<glyph glyph-name="nacute" d="M535 773q0 -4 -5 -9l-136 -126q-8 -8 -12.5 -11.5t-12.5 -3.5h-54q-8 0 -8 6q0 5 6 11l120 124q8 8 12.5 11.5t13.5 3.5h66q10 0 10 -6zM556 403q0 -26 -5 -54l-58 -329q-2 -8 -9 -14t-15 -6h-48q-9 0 -13.5 6t-2.5 14l58 329q2 14 3.5 28.5t1.5 26.5q0 36 -19 56t-74 20 q-29 0 -61 -7.5t-80 -30.5l-74 -422q-2 -8 -9 -14t-15 -6h-49q-9 0 -12.5 5.5t-3.5 9.5q0 2 1 5l89 510q2 8 7 14t19 6h42q22 0 19 -20l-3 -21q36 20 73 34t88 14q40 0 68.5 -12t46.5 -33t26.5 -49t8.5 -60z" unicode="ń"/>
<glyph glyph-name="Ncommaaccent" horiz-adv-x="680" unicode="Ņ" d="M385 -49q11 0 9 -11l-2 -8l-74 -109q-6 -10 -11 -14.5t-16 -4.5h-41q-3 0 -6 1.5t-2 6.5q1 2 1 3.5t2 4.5l48 112q7 19 23 19h69zM641 724q2 8 6 13.5t15 5.5h53q8 0 11.5 -4.5t3.5 -10.5v-4l-123 -695q-2 -12 -8 -20.5t-26 -8.5h-58q-16 0 -21 4t-8 12l-210 587l-2 3 q-2 0 -2 -3l-103 -584q-2 -8 -7.5 -13.5t-13.5 -5.5h-58q-11 0 -11 8q0 2 1 4l124 703q2 12 9.5 20t24.5 8h49q21 0 27 -4.5t10 -15.5l208 -579q3 -8 4 -8q2 0 3 8z"/>
<glyph glyph-name="ncommaaccent" d="M312 -49q11 0 9 -11l-2 -8l-74 -109q-6 -10 -11 -14.5t-16 -4.5h-41q-3 0 -6 1.5t-2 6.5q1 2 1 3.5t2 4.5l48 112q7 19 23 19h69zM556 403q0 -26 -5 -54l-58 -329q-2 -8 -9 -14t-15 -6h-48q-9 0 -13.5 6t-2.5 14l58 329q2 14 3.5 28.5t1.5 26.5q0 36 -19 56t-74 20 q-29 0 -61 -7.5t-80 -30.5l-74 -422q-2 -8 -9 -14t-15 -6h-49q-9 0 -12.5 5.5t-3.5 9.5q0 2 1 5l89 510q2 8 7 14t19 6h42q22 0 19 -20l-3 -21q36 20 73 34t88 14q40 0 68.5 -12t46.5 -33t26.5 -49t8.5 -60z" unicode="ņ"/>
<glyph glyph-name="Ncaron" horiz-adv-x="680" unicode="Ň" d="M664 944q0 -5 -6 -11l-119 -124q-8 -8 -13 -11.5t-14 -3.5h-85q-9 0 -13 3.5t-9 11.5l-76 124q-2 3 -2 8q0 9 10 9h47q8 0 12 -4t9 -12l66 -96l99 96q8 8 12.5 12t12.5 4h61q8 0 8 -6zM641 724q2 8 6 13.5t15 5.5h53q8 0 11.5 -4.5t3.5 -10.5v-4l-123 -695 q-2 -12 -8 -20.5t-26 -8.5h-58q-16 0 -21 4t-8 12l-210 587l-2 3q-2 0 -2 -3l-103 -584q-2 -8 -7.5 -13.5t-13.5 -5.5h-58q-11 0 -11 8q0 2 1 4l124 703q2 12 9.5 20t24.5 8h49q21 0 27 -4.5t10 -15.5l208 -579q3 -8 4 -8q2 0 3 8z"/>
<glyph glyph-name="ncaron" d="M577 773q0 -5 -6 -11l-119 -124q-8 -8 -13 -11.5t-14 -3.5h-85q-9 0 -13 3.5t-9 11.5l-76 124q-2 3 -2 8q0 9 10 9h47q8 0 12 -4t9 -12l66 -96l99 96q8 8 12.5 12t12.5 4h61q8 0 8 -6zM556 403q0 -26 -5 -54l-58 -329q-2 -8 -9 -14t-15 -6h-48q-9 0 -13.5 6t-2.5 14 l58 329q2 14 3.5 28.5t1.5 26.5q0 36 -19 56t-74 20q-29 0 -61 -7.5t-80 -30.5l-74 -422q-2 -8 -9 -14t-15 -6h-49q-9 0 -12.5 5.5t-3.5 9.5q0 2 1 5l89 510q2 8 7 14t19 6h42q22 0 19 -20l-3 -21q36 20 73 34t88 14q40 0 68.5 -12t46.5 -33t26.5 -49t8.5 -60z" unicode="ň"/>
<glyph glyph-name="napostrophe" horiz-adv-x="668" unicode="ŉ" d="M667 403q0 -26 -5 -54l-58 -329q-2 -8 -6.5 -14t-17.5 -6h-48q-9 0 -13.5 6t-2.5 14l58 329q2 14 3.5 28.5t1.5 26.5q0 36 -19 56t-74 20q-29 0 -61 -7.5t-80 -30.5l-74 -422q-2 -8 -6 -14t-18 -6h-49q-9 0 -13 6.5t-2 13.5l89 510q2 8 7 14t16 6h49q11 0 14 -5.5 t1 -14.5l-3 -21q36 20 73 34t88 14q40 0 68.5 -12t46.5 -33t26.5 -49t8.5 -60zM262 744q0 -5 -3 -11l-94 -189q-5 -11 -9.5 -15t-12.5 -4h-38q-8 0 -8 7q0 4 3 12l70 189q7 19 24 19h59q9 0 9 -8z"/>
<glyph glyph-name="Eng" horiz-adv-x="680" unicode="Ŋ" d="M730 724q-31 -174 -52 -293.5t-35 -199t-22 -125t-13 -72t-7.5 -41t-5.5 -30.5q-13 -72 -55 -107.5t-125 -35.5q-17 0 -32 3t-19 5q-4 3 -4 8v3l6 37q2 8 8.5 12.5t14.5 4.5h39q40 0 54.5 16.5t21.5 53.5l6 37q-19 1 -24 16l-210 587l-2 3q-2 0 -2 -3l-103 -584 q-2 -8 -7.5 -13.5t-13.5 -5.5h-52q-16 0 -16 9v3l124 703q2 12 12 20t22 8h49q21 0 27 -4.5t10 -15.5l210 -584l1 -3h2l1 3l103 585q2 8 7.5 13.5t13.5 5.5h53q8 0 11.5 -4.5t3.5 -10.5v-4z"/>
<glyph glyph-name="eng" d="M463 349q2 14 3.5 28.5t1.5 26.5q0 36 -19 56t-74 20q-29 0 -61 -7.5t-80 -30.5l-74 -422q-2 -8 -9 -14t-15 -6h-49q-8 0 -11.5 5t-3.5 11v4l89 510q2 8 8.5 14t14.5 6h49q8 0 11.5 -5t3.5 -11v-4l-3 -21q36 20 73 34t88 14q40 0 68.5 -12t46.5 -33t26.5 -49t8.5 -60 q0 -26 -5 -54l-73 -413q-7 -39 -20 -64.5t-32 -41t-43.5 -21.5t-54.5 -6q-15 0 -27 1t-26 3q-15 3 -15 12v4l6 37q3 14 24 14h42q14 0 23.5 2.5t16 9.5t11 19t7.5 31z" unicode="ŋ"/>
<glyph glyph-name="Omacron" horiz-adv-x="661" unicode="Ō" d="M657 871l-6 -34q-2 -8 -8.5 -12.5t-14.5 -4.5h-288q-17 0 -17 14v3l6 34q2 8 8.5 12.5t14.5 4.5h288q17 0 17 -14v-3zM594 519q0 82 -38 115.5t-107 33.5q-83 0 -140.5 -55.5t-79.5 -176.5l-23 -129q-4 -21 -5.5 -40t-1.5 -36q0 -86 38.5 -121t106.5 -35q82 0 139.5 55.5 t79.5 176.5l23 129q5 23 6.5 44t1.5 39zM686 520q0 -20 -2 -40.5t-6 -43.5l-23 -129q-15 -83 -43.5 -142.5t-70 -97.5t-95 -56t-116.5 -18q-48 0 -89 14t-71 42.5t-47 71.5t-17 102q0 20 2 40.5t6 43.5l23 129q16 89 46.5 149t73 97t95 52.5t111.5 15.5q50 0 91 -14.5 t70.5 -43.5t45.5 -72t16 -100z"/>
<glyph glyph-name="omacron" horiz-adv-x="545" unicode="ō" d="M568 700l-6 -34q-2 -8 -8.5 -12.5t-14.5 -4.5h-288q-17 0 -17 14v3l6 34q2 8 8.5 12.5t14.5 4.5h288q17 0 17 -14v-3zM467 370q0 54 -25.5 82t-84.5 28q-66 0 -108.5 -45t-55.5 -122l-13 -76q-6 -33 -6 -59q0 -54 25.5 -81t84.5 -27q33 0 60.5 12.5t48.5 34.5t35.5 52.5 t20.5 67.5l13 76q3 16 4 30t1 27zM555 369q0 -14 -1.5 -28t-3.5 -28l-13 -76q-10 -57 -30.5 -102.5t-53 -77t-78 -48t-104.5 -16.5q-45 0 -79.5 14t-57.5 39t-35 59.5t-12 76.5q0 14 1.5 27.5t3.5 27.5l13 76q42 244 265 244q46 0 80.5 -14t58 -39t35 -59.5t11.5 -75.5z"/>
<glyph glyph-name="Obreve" horiz-adv-x="661" unicode="Ŏ" d="M681 942q0 -5 -1 -8q-8 -36 -25.5 -62.5t-41.5 -44t-52.5 -26t-57.5 -8.5t-56 8t-47.5 25.5t-33 44t-12.5 63.5q0 7 3 12t11 5h35q8 0 10.5 -4t2.5 -12q0 -80 87 -80q46 0 74 21t39 59q2 8 5.5 12t11.5 4h39q9 0 9 -9zM594 519q0 82 -38 115.5t-107 33.5 q-83 0 -140.5 -55.5t-79.5 -176.5l-23 -129q-4 -21 -5.5 -40t-1.5 -36q0 -86 38.5 -121t106.5 -35q82 0 139.5 55.5t79.5 176.5l23 129q5 23 6.5 44t1.5 39zM686 520q0 -20 -2 -40.5t-6 -43.5l-23 -129q-15 -83 -43.5 -142.5t-70 -97.5t-95 -56t-116.5 -18q-48 0 -89 14 t-71 42.5t-47 71.5t-17 102q0 20 2 40.5t6 43.5l23 129q16 89 46.5 149t73 97t95 52.5t111.5 15.5q50 0 91 -14.5t70.5 -43.5t45.5 -72t16 -100z"/>
<glyph glyph-name="obreve" horiz-adv-x="545" unicode="ŏ" d="M579 770q0 -5 -1 -8q-8 -36 -25.5 -62.5t-41.5 -44t-52.5 -26t-57.5 -8.5t-56 8t-47.5 25.5t-33 44t-12.5 63.5q0 7 3 12t11 5h35q8 0 10.5 -4t2.5 -12q0 -80 87 -80q46 0 74 21t39 59q2 8 5.5 12t11.5 4h39q9 0 9 -9zM467 370q0 54 -25.5 82t-84.5 28q-66 0 -108.5 -45 t-55.5 -122l-13 -76q-6 -33 -6 -59q0 -54 25.5 -81t84.5 -27q33 0 60.5 12.5t48.5 34.5t35.5 52.5t20.5 67.5l13 76q3 16 4 30t1 27zM555 369q0 -14 -1.5 -28t-3.5 -28l-13 -76q-10 -57 -30.5 -102.5t-53 -77t-78 -48t-104.5 -16.5q-45 0 -79.5 14t-57.5 39t-35 59.5 t-12 76.5q0 14 1.5 27.5t3.5 27.5l13 76q42 244 265 244q46 0 80.5 -14t58 -39t35 -59.5t11.5 -75.5z"/>
<glyph glyph-name="Ohungarumlaut" horiz-adv-x="661" unicode="Ő" d="M550 944q0 -4 -5 -9l-135 -126q-8 -8 -12.5 -11.5t-12.5 -3.5h-54q-8 0 -8 6q0 5 6 11l119 124q8 8 13 11.5t14 3.5h65q10 0 10 -6zM725 944q0 -4 -5 -9l-135 -126q-8 -8 -12.5 -11.5t-12.5 -3.5h-54q-8 0 -8 6q0 5 6 11l119 124q8 8 13 11.5t14 3.5h65q10 0 10 -6z M594 519q0 82 -38 115.5t-107 33.5q-83 0 -140.5 -55.5t-79.5 -176.5l-23 -129q-4 -21 -5.5 -40t-1.5 -36q0 -86 38.5 -121t106.5 -35q82 0 139.5 55.5t79.5 176.5l23 129q5 23 6.5 44t1.5 39zM686 520q0 -20 -2 -40.5t-6 -43.5l-23 -129q-15 -83 -43.5 -142.5t-70 -97.5 t-95 -56t-116.5 -18q-48 0 -89 14t-71 42.5t-47 71.5t-17 102q0 20 2 40.5t6 43.5l23 129q16 89 46.5 149t73 97t95 52.5t111.5 15.5q50 0 91 -14.5t70.5 -43.5t45.5 -72t16 -100z"/>
<glyph glyph-name="ohungarumlaut" horiz-adv-x="545" unicode="ő" d="M462 773q0 -4 -5 -9l-135 -126q-8 -8 -12.5 -11.5t-12.5 -3.5h-54q-8 0 -8 6q0 5 6 11l119 124q8 8 13 11.5t14 3.5h65q10 0 10 -6zM637 773q0 -4 -5 -9l-135 -126q-8 -8 -12.5 -11.5t-12.5 -3.5h-54q-8 0 -8 6q0 5 6 11l119 124q8 8 13 11.5t14 3.5h65q10 0 10 -6z M467 370q0 54 -25.5 82t-84.5 28q-66 0 -108.5 -45t-55.5 -122l-13 -76q-6 -33 -6 -59q0 -54 25.5 -81t84.5 -27q33 0 60.5 12.5t48.5 34.5t35.5 52.5t20.5 67.5l13 76q3 16 4 30t1 27zM555 369q0 -14 -1.5 -28t-3.5 -28l-13 -76q-10 -57 -30.5 -102.5t-53 -77t-78 -48 t-104.5 -16.5q-45 0 -79.5 14t-57.5 39t-35 59.5t-12 76.5q0 14 1.5 27.5t3.5 27.5l13 76q42 244 265 244q46 0 80.5 -14t58 -39t35 -59.5t11.5 -75.5z"/>
<glyph glyph-name="OE" horiz-adv-x="983" unicode="Œ" d="M596 518q0 33 -7.5 60.5t-24.5 47.5t-45 31t-70 11q-41 0 -76.5 -12.5t-63.5 -40.5t-48.5 -72t-31.5 -107l-23 -129q-5 -23 -6.5 -44t-1.5 -39q0 -82 38.5 -115.5t107.5 -33.5q53 0 91 19t64 50.5t41.5 73.5t23.5 88l24 134q8 43 8 78zM1056 727l-8 -47q-2 -12 -13 -12 h-193q-40 0 -65 -5.5t-40.5 -18t-23.5 -32.5t-13 -48l-24 -139h307q16 0 16 -17v-3l-6 -38q-2 -8 -9 -14t-15 -6h-307l-30 -169q-2 -12 -3 -22t-1 -19q0 -34 23 -48.5t86 -14.5h193q9 0 9 -9v-3l-8 -47q-1 -5 -4.5 -9t-8.5 -5q-20 -3 -72.5 -6t-123.5 -3q-72 0 -112.5 19 t-60.5 64q-44 -42 -94.5 -62t-124.5 -20q-49 0 -90 14.5t-71 43.5t-46.5 72.5t-16.5 101.5q0 19 2 39t6 43l23 129q16 87 46.5 147t72.5 97t94.5 53.5t112.5 16.5q62 0 106 -20.5t73 -61.5q35 48 85.5 65t127.5 17q71 0 123 -3t71 -6q7 -1 7 -11v-3z"/>
<glyph glyph-name="oe" horiz-adv-x="901" unicode="œ" d="M470 364q0 54 -26.5 85t-84.5 31q-71 0 -111 -46t-53 -121l-13 -76q-3 -16 -4 -30t-1 -27q0 -54 25.5 -82t83.5 -28q71 0 111.5 45t54.5 122l13 76q2 14 3.5 26.5t1.5 24.5zM824 374q0 108 -108 108q-38 0 -66 -14t-47.5 -37t-32 -53.5t-19.5 -63.5h266l1 5q6 30 6 55z M910 369q0 -14 -3 -28.5t-5 -29.5l-7 -42q-3 -22 -22 -22h-335q-4 -20 -6.5 -37t-2.5 -33q0 -53 28.5 -81.5t97.5 -28.5q44 0 91 4.5t82 9.5h5q5 0 9.5 -2.5t4.5 -8.5v-3l-6 -34q-2 -11 -6.5 -16t-17.5 -7q-45 -8 -84.5 -12.5t-90.5 -4.5q-65 0 -108 18t-71 66 q-36 -42 -81.5 -63t-108.5 -21q-46 0 -80.5 14t-57.5 39t-34.5 59t-11.5 75q0 13 1.5 28t3.5 29l13 76q21 125 87.5 184.5t177.5 59.5q63 0 98.5 -22t61.5 -64q36 45 84.5 65.5t108.5 20.5q46 0 80.5 -14.5t58 -40t35 -59.5t11.5 -74z"/>
<glyph glyph-name="Racute" horiz-adv-x="625" unicode="Ŕ" d="M580 944q0 -4 -5 -9l-136 -126q-8 -8 -12.5 -11.5t-12.5 -3.5h-54q-8 0 -8 6q0 5 6 11l120 124q8 8 12.5 11.5t13.5 3.5h66q10 0 10 -6zM565 568q0 59 -41.5 79.5t-127.5 20.5h-27.5t-31 -0.5t-29.5 -1t-23 -1.5l-48 -274q19 -1 47.5 -1.5t62.5 -0.5q42 0 79 7t65 23.5 t46 43t24 65.5l1 7q3 18 3 33zM655 572q0 -18 -3 -37l-1 -7q-13 -88 -64.5 -138t-128.5 -64l130 -307q2 -4 2 -9q0 -10 -11 -10h-69q-9 0 -12.5 1.5t-7.5 11.5l-126 298h-31q-25 0 -58 1t-52 2l-51 -294q-2 -8 -6.5 -14t-15.5 -6h-54q-14 0 -14 14v6l123 700q2 11 8 15.5 t20 6.5q16 2 39 3.5t48 2.5t48.5 1.5t41.5 0.5q54 0 99 -10.5t77.5 -32t50.5 -55.5t18 -80z"/>
<glyph glyph-name="racute" horiz-adv-x="342" unicode="ŕ" d="M446 773q0 -4 -5 -9l-136 -126q-8 -8 -12.5 -11.5t-12.5 -3.5h-54q-8 0 -8 6q0 5 6 11l120 124q8 8 12.5 11.5t13.5 3.5h66q10 0 10 -6zM160 20q-2 -8 -9 -14t-15 -6h-49q-8 0 -12 5t-4 10q0 2 1 5l89 510q2 8 8.5 14t14.5 6h47q9 0 13 -6t2 -14l-4 -23q41 32 77 41t71 9 h2q13 0 16 -4t3 -9q0 -3 -1 -5l-7 -42q-3 -17 -24 -17h-3q-43 0 -74.5 -9t-68.5 -32z"/>
<glyph glyph-name="Rcommaaccent" horiz-adv-x="625" unicode="Ŗ" d="M357 -49q11 0 9 -11l-2 -8l-74 -109q-6 -10 -11 -14.5t-16 -4.5h-41q-3 0 -6 1.5t-2 6.5q1 2 1 3.5t2 4.5l48 112q7 19 23 19h69zM565 568q0 59 -41.5 79.5t-127.5 20.5h-27.5t-31 -0.5t-29.5 -1t-23 -1.5l-48 -274q19 -1 47.5 -1.5t62.5 -0.5q42 0 79 7t65 23.5t46 43 t24 65.5l1 7q3 18 3 33zM655 572q0 -18 -3 -37l-1 -7q-13 -88 -64.5 -138t-128.5 -64l130 -307q2 -4 2 -9q0 -10 -11 -10h-69q-9 0 -12.5 1.5t-7.5 11.5l-126 298h-31q-25 0 -58 1t-52 2l-51 -294q-2 -8 -6.5 -14t-15.5 -6h-54q-14 0 -14 14v6l123 700q2 11 8 15.5t20 6.5 q16 2 39 3.5t48 2.5t48.5 1.5t41.5 0.5q54 0 99 -10.5t77.5 -32t50.5 -55.5t18 -80z"/>
<glyph glyph-name="rcommaaccent" horiz-adv-x="342" unicode="ŗ" d="M215 -49q11 0 9 -11l-2 -8l-74 -109q-6 -10 -11 -14.5t-16 -4.5h-41q-3 0 -5.5 1.5t-2.5 4.5v4q1 3 3 6l48 112q7 19 23 19h69zM160 20q-2 -8 -9 -14t-15 -6h-49q-8 0 -12 5t-4 10q0 2 1 5l89 510q2 8 8.5 14t14.5 6h47q9 0 13 -6t2 -14l-4 -23q41 32 77 41t71 9h2 q13 0 16 -4t3 -9q0 -3 -1 -5l-7 -42q-3 -17 -24 -17h-3q-43 0 -74.5 -9t-68.5 -32z"/>
<glyph glyph-name="Rcaron" horiz-adv-x="625" unicode="Ř" d="M623 944q0 -5 -6 -11l-119 -124q-8 -8 -13 -11.5t-14 -3.5h-85q-9 0 -13 3.5t-9 11.5l-76 124q-2 3 -2 8q0 9 10 9h47q8 0 12 -4t9 -12l66 -96l99 96q8 8 12.5 12t12.5 4h61q8 0 8 -6zM565 568q0 59 -41.5 79.5t-127.5 20.5h-27.5t-31 -0.5t-29.5 -1t-23 -1.5l-48 -274 q19 -1 47.5 -1.5t62.5 -0.5q42 0 79 7t65 23.5t46 43t24 65.5l1 7q3 18 3 33zM655 572q0 -18 -3 -37l-1 -7q-13 -88 -64.5 -138t-128.5 -64l130 -307q2 -4 2 -9q0 -10 -11 -10h-69q-9 0 -12.5 1.5t-7.5 11.5l-126 298h-31q-25 0 -58 1t-52 2l-51 -294q-2 -8 -6.5 -14 t-15.5 -6h-54q-14 0 -14 14v6l123 700q2 11 8 15.5t20 6.5q16 2 39 3.5t48 2.5t48.5 1.5t41.5 0.5q54 0 99 -10.5t77.5 -32t50.5 -55.5t18 -80z"/>
<glyph glyph-name="rcaron" horiz-adv-x="342" unicode="ř" d="M502 773q0 -5 -6 -11l-119 -124q-8 -8 -13 -11.5t-14 -3.5h-85q-9 0 -13 3.5t-9 11.5l-76 124q-2 3 -2 8q0 9 10 9h47q8 0 12 -4t9 -12l66 -96l99 96q8 8 12.5 12t12.5 4h61q8 0 8 -6zM160 20q-2 -8 -9 -14t-15 -6h-49q-8 0 -12 5t-4 10q0 2 1 5l89 510q2 8 8.5 14 t14.5 6h47q9 0 13 -6t2 -14l-4 -23q41 32 77 41t71 9h2q13 0 16 -4t3 -9q0 -3 -1 -5l-7 -42q-3 -17 -24 -17h-3q-43 0 -74.5 -9t-68.5 -32z"/>
<glyph glyph-name="Sacute" horiz-adv-x="550" unicode="Ś" d="M572 944q0 -4 -5 -9l-136 -126q-8 -8 -12.5 -11.5t-12.5 -3.5h-54q-8 0 -8 6q0 5 6 11l120 124q8 8 12.5 11.5t13.5 3.5h66q10 0 10 -6zM406 750q22 0 49 -1t53 -2.5t48.5 -4t36.5 -4.5q10 -2 12.5 -4.5t2.5 -6.5q0 -3 -1 -6l-7 -43q-2 -9 -5.5 -13.5t-16.5 -2.5 q-33 2 -80.5 4t-91.5 2q-30 0 -60 -3.5t-53.5 -14.5t-38 -31t-14.5 -53q0 -18 4.5 -32t15 -27.5t27.5 -27t42 -29.5l82 -55q35 -23 59 -45t39 -44.5t21.5 -47t6.5 -51.5q0 -53 -21 -93t-58.5 -67t-88.5 -40.5t-111 -13.5q-21 0 -44 1t-45.5 3t-43.5 4.5t-37 5.5q-9 2 -13 5 t-4 8q0 2 1 5l7 40q2 11 6 14.5t17 1.5q17 -2 38 -3t43.5 -1.5t44 -1t38.5 -0.5q81 0 128 30.5t47 101.5q0 18 -5 32t-16.5 27.5t-30 28t-44.5 32.5l-87 59q-51 35 -80 78t-29 97q0 52 21 88t56.5 58.5t82 32.5t97.5 10z"/>
<glyph glyph-name="sacute" horiz-adv-x="466" unicode="ś" d="M481 773q0 -4 -5 -9l-136 -126q-8 -8 -12.5 -11.5t-12.5 -3.5h-54q-8 0 -8 6q0 5 6 11l120 124q8 8 12.5 11.5t13.5 3.5h66q10 0 10 -6zM329 557q29 0 49.5 -1t37 -2.5t30.5 -4t30 -5.5q11 -2 13.5 -5t2.5 -7q0 -3 -1 -8l-5 -33q-3 -17 -18 -17h-5q-26 3 -65.5 5.5 t-81.5 2.5q-17 0 -35.5 -3t-34 -11t-25.5 -21.5t-10 -35.5q0 -19 14 -34t40 -32l89 -59q26 -17 43 -33t27.5 -31.5t14.5 -32.5t4 -37q0 -44 -18 -74.5t-48 -49.5t-69 -27t-80 -8q-16 0 -36 1t-41 2.5t-42 4.5t-37 7q-8 2 -13 6.5t-5 9.5q0 2 1 4l6 35q2 10 7 13.5t18 1.5 q18 -2 39 -4t42.5 -3.5t40.5 -2.5t33 -1q22 0 42.5 4.5t36 14t25 26t9.5 40.5q0 17 -12 32.5t-46 38.5l-90 59q-42 27 -63 58t-21 72q0 42 18.5 69.5t47.5 44.5t66 24t75 7z"/>
<glyph glyph-name="Scircumflex" horiz-adv-x="550" unicode="Ŝ" d="M571 801q0 -9 -10 -9h-49q-8 0 -12 3.5t-9 11.5l-64 97l-101 -97q-8 -8 -12.5 -11.5t-12.5 -3.5h-55q-8 0 -8 6q0 5 6 11l118 124q8 8 12.5 11.5t13.5 3.5h85q9 0 13.5 -3.5t9.5 -11.5l73 -124q2 -3 2 -8zM406 750q22 0 49 -1t53 -2.5t48.5 -4t36.5 -4.5q10 -2 12.5 -4.5 t2.5 -6.5q0 -3 -1 -6l-7 -43q-2 -9 -5.5 -13.5t-16.5 -2.5q-33 2 -80.5 4t-91.5 2q-30 0 -60 -3.5t-53.5 -14.5t-38 -31t-14.5 -53q0 -18 4.5 -32t15 -27.5t27.5 -27t42 -29.5l82 -55q35 -23 59 -45t39 -44.5t21.5 -47t6.5 -51.5q0 -53 -21 -93t-58.5 -67t-88.5 -40.5 t-111 -13.5q-21 0 -44 1t-45.5 3t-43.5 4.5t-37 5.5q-9 2 -13 5t-4 8q0 2 1 5l7 40q2 11 6 14.5t17 1.5q17 -2 38 -3t43.5 -1.5t44 -1t38.5 -0.5q81 0 128 30.5t47 101.5q0 18 -5 32t-16.5 27.5t-30 28t-44.5 32.5l-87 59q-51 35 -80 78t-29 97q0 52 21 88t56.5 58.5 t82 32.5t97.5 10z"/>
<glyph glyph-name="scircumflex" horiz-adv-x="466" unicode="ŝ" d="M493 632q0 -9 -10 -9h-49q-8 0 -12 3.5t-9 11.5l-64 97l-101 -97q-8 -8 -12.5 -11.5t-12.5 -3.5h-55q-8 0 -8 6q0 5 6 11l118 124q8 8 12.5 11.5t13.5 3.5h85q9 0 13.5 -3.5t9.5 -11.5l73 -124q2 -3 2 -8zM329 557q29 0 49.5 -1t37 -2.5t30.5 -4t30 -5.5q11 -2 13.5 -5 t2.5 -7q0 -3 -1 -8l-5 -33q-3 -17 -18 -17h-5q-26 3 -65.5 5.5t-81.5 2.5q-17 0 -35.5 -3t-34 -11t-25.5 -21.5t-10 -35.5q0 -19 14 -34t40 -32l89 -59q26 -17 43 -33t27.5 -31.5t14.5 -32.5t4 -37q0 -44 -18 -74.5t-48 -49.5t-69 -27t-80 -8q-16 0 -36 1t-41 2.5t-42 4.5 t-37 7q-8 2 -13 6.5t-5 9.5q0 2 1 4l6 35q2 10 7 13.5t18 1.5q18 -2 39 -4t42.5 -3.5t40.5 -2.5t33 -1q22 0 42.5 4.5t36 14t25 26t9.5 40.5q0 17 -12 32.5t-46 38.5l-90 59q-42 27 -63 58t-21 72q0 42 18.5 69.5t47.5 44.5t66 24t75 7z"/>
<glyph glyph-name="uni015E" horiz-adv-x="550" unicode="Ş" d="M325 -38q0 -4 -5 -9l-136 -126q-8 -8 -12.5 -11.5t-12.5 -3.5h-54q-8 0 -8 6q0 5 6 11l119 124q8 8 13 11.5t14 3.5h66q10 0 10 -6zM406 750q22 0 49 -1t53 -2.5t48.5 -4t36.5 -4.5q10 -2 12.5 -4.5t2.5 -6.5q0 -3 -1 -6l-7 -43q-2 -9 -5.5 -13.5t-16.5 -2.5 q-33 2 -80.5 4t-91.5 2q-30 0 -60 -3.5t-53.5 -14.5t-38 -31t-14.5 -53q0 -18 4.5 -32t15 -27.5t27.5 -27t42 -29.5l82 -55q35 -23 59 -45t39 -44.5t21.5 -47t6.5 -51.5q0 -53 -21 -93t-58.5 -67t-88.5 -40.5t-111 -13.5q-21 0 -44 1t-45.5 3t-43.5 4.5t-37 5.5q-9 2 -13 5 t-4 8q0 2 1 5l7 40q2 11 6 14.5t17 1.5q17 -2 38 -3t43.5 -1.5t44 -1t38.5 -0.5q81 0 128 30.5t47 101.5q0 18 -5 32t-16.5 27.5t-30 28t-44.5 32.5l-87 59q-51 35 -80 78t-29 97q0 52 21 88t56.5 58.5t82 32.5t97.5 10z"/>
<glyph glyph-name="uni015F" horiz-adv-x="466" unicode="ş" d="M269 -38q0 -4 -5 -9l-136 -126q-8 -8 -12.5 -11.5t-12.5 -3.5h-54q-8 0 -8 6q0 5 6 11l119 124q8 8 13 11.5t14 3.5h66q10 0 10 -6zM329 557q29 0 49.5 -1t37 -2.5t30.5 -4t30 -5.5q11 -2 13.5 -5t2.5 -7q0 -3 -1 -8l-5 -33q-3 -17 -18 -17h-5q-26 3 -65.5 5.5t-81.5 2.5 q-17 0 -35.5 -3t-34 -11t-25.5 -21.5t-10 -35.5q0 -19 14 -34t40 -32l89 -59q26 -17 43 -33t27.5 -31.5t14.5 -32.5t4 -37q0 -44 -18 -74.5t-48 -49.5t-69 -27t-80 -8q-16 0 -36 1t-41 2.5t-42 4.5t-37 7q-8 2 -13 6.5t-5 9.5q0 2 1 4l6 35q2 10 7 13.5t18 1.5q18 -2 39 -4 t42.5 -3.5t40.5 -2.5t33 -1q22 0 42.5 4.5t36 14t25 26t9.5 40.5q0 17 -12 32.5t-46 38.5l-90 59q-42 27 -63 58t-21 72q0 42 18.5 69.5t47.5 44.5t66 24t75 7z"/>
<glyph glyph-name="Scaron" horiz-adv-x="550" unicode="Š" d="M622 944q0 -5 -6 -11l-119 -124q-8 -8 -13 -11.5t-14 -3.5h-85q-9 0 -13 3.5t-9 11.5l-76 124q-2 3 -2 8q0 9 10 9h47q8 0 12 -4t9 -12l66 -96l99 96q8 8 12.5 12t12.5 4h61q8 0 8 -6zM607 721l-7 -43q-3 -16 -20 -16h-2q-33 2 -80.5 4t-91.5 2q-30 0 -60 -4t-53.5 -16 t-38 -34.5t-14.5 -59.5q0 -27 19.5 -49t69.5 -55l82 -55q70 -47 98 -89t28 -92q0 -56 -21 -97t-58.5 -69t-88.5 -41.5t-111 -13.5q-21 0 -44 1t-45.5 3t-43.5 4.5t-37 5.5q-8 2 -12.5 4t-4.5 9q0 1 0.5 2t0.5 3l7 40q3 16 20 16h3q17 -2 38 -3t43.5 -1.5t44 -1t38.5 -0.5 q40 0 72.5 7.5t55.5 24t35 43t12 64.5q0 15 -5 28t-16.5 26t-30 27t-44.5 32l-87 59q-51 35 -80 76.5t-29 86.5q0 57 22 95.5t58 62t82.5 33.5t94.5 10q22 0 49 -1t53 -2.5t48.5 -4t36.5 -4.5t14 -14v-3z"/>
<glyph glyph-name="scaron" horiz-adv-x="466" unicode="š" d="M532 773q0 -5 -6 -11l-119 -124q-8 -8 -13 -11.5t-14 -3.5h-85q-9 0 -13 3.5t-9 11.5l-76 124q-2 3 -2 8q0 9 10 9h47q8 0 12 -4t9 -12l66 -96l99 96q8 8 12.5 12t12.5 4h61q8 0 8 -6zM491 524l-5 -33q-3 -17 -20 -17h-3q-26 3 -65.5 5.5t-81.5 2.5q-17 0 -35.5 -3 t-34 -11t-25.5 -21.5t-10 -35.5q0 -19 14 -34t40 -32l89 -59q26 -17 43 -32.5t27.5 -30.5t14.5 -30.5t4 -31.5q0 -48 -18 -80t-48 -51.5t-69 -28t-80 -8.5q-16 0 -36 1t-41 2.5t-42 4.5t-37 7q-7 2 -12 5.5t-5 11.5v3l6 35q3 15 19 15h6q18 -2 39 -4t42.5 -3.5t40.5 -2.5 t33 -1q22 0 42.5 4.5t36 14t25 26t9.5 40.5q0 17 -12 32.5t-46 38.5l-90 59q-84 55 -84 121q0 45 18.5 74.5t47.5 47.5t66 25t75 7q29 0 49.5 -1t37 -2.5t30.5 -4t30 -5.5q15 -3 15 -16v-4z"/>
<glyph glyph-name="Tcommaaccent" horiz-adv-x="590" unicode="Ţ" d="M325 -49q11 0 9 -11l-2 -8l-74 -109q-6 -10 -11 -14.5t-16 -4.5h-41q-3 0 -6 1.5t-2 6.5q1 2 1 3.5t2 4.5l48 112q7 19 23 19h69zM345 20q-2 -8 -8 -14t-14 -6h-55q-8 0 -12 6t-2 14l113 645h-195q-8 0 -13 2.5t-5 8.5q0 2 1 5l8 44q2 11 8.5 14.5t14.5 3.5h481 q8 0 12.5 -3t4.5 -9q0 -3 -1 -6l-8 -44q-2 -8 -6 -12t-16 -4h-195z"/>
<glyph glyph-name="tcommaaccent" horiz-adv-x="375" unicode="ţ" d="M232 -49q11 0 9 -11l-2 -8l-74 -109q-6 -10 -11 -14.5t-16 -4.5h-41q-3 0 -5.5 1.5t-2.5 4.5l1 4q0 3 2 6l48 112q7 19 23 19h69zM424 550q16 0 16 -15v-5l-6 -34q-2 -14 -8.5 -17t-14.5 -3h-108l-62 -351q-3 -18 -3 -29q0 -22 11 -27t35 -5h61q17 0 14 -14l-6 -35 q-2 -7 -6 -11t-15 -6q-15 -2 -32 -3.5t-31 -1.5q-51 0 -85.5 21.5t-34.5 73.5q0 10 1 18.5t3 20.5l62 349l-95 11q-8 1 -12.5 5t-4.5 9q0 2 1 4l5 27q2 11 8 14.5t14 3.5h97l16 98q3 17 22 20l53 8q3 1 5 1q7 0 9.5 -5t0.5 -13l-18 -109h108z"/>
<glyph glyph-name="Tcaron" horiz-adv-x="590" unicode="Ť" d="M628 944q0 -5 -6 -11l-119 -124q-8 -8 -13 -11.5t-14 -3.5h-85q-9 0 -13 3.5t-9 11.5l-76 124q-2 3 -2 8q0 9 10 9h47q8 0 12 -4t9 -12l66 -96l99 96q8 8 12.5 12t12.5 4h61q8 0 8 -6zM345 20q-2 -8 -8 -14t-14 -6h-55q-8 0 -12 6t-2 14l113 645h-195q-8 0 -13 2.5 t-5 8.5q0 2 1 5l8 44q2 11 8.5 14.5t14.5 3.5h481q8 0 12.5 -3t4.5 -9q0 -3 -1 -6l-8 -44q-2 -8 -6 -12t-16 -4h-195z"/>
<glyph glyph-name="tcaron" horiz-adv-x="507" unicode="ť" d="M636 741q0 -2 -2 -8l-75 -189q-4 -10 -7.5 -14.5t-11.5 -4.5h-41q-12 0 -12 12q0 5 1 7l57 189q6 19 20 19h58q13 0 13 -11zM440 530l-6 -34q-2 -8 -8.5 -14t-14.5 -6h-108l-62 -351q-3 -18 -3 -29q0 -22 11 -27t35 -5h61q6 0 10 -1.5t4 -8.5v-4l-6 -35q-2 -7 -6 -11 t-15 -6q-15 -2 -32 -3.5t-31 -1.5q-51 0 -85.5 21.5t-34.5 73.5q0 10 1 18.5t3 20.5l62 349l-95 11q-16 2 -16 15v3l5 27q2 8 8 13t14 5h97l16 98q3 17 22 20l53 8h3q12 0 12 -14v-3l-18 -109h108q16 0 16 -16v-4z"/>
<glyph glyph-name="Tbar" horiz-adv-x="590" unicode="Ŧ" d="M424 471l-79 -451q-2 -8 -8 -14t-14 -6h-55q-14 0 -14 16v4l79 451h-196q-17 0 -17 13v3l8 44q2 8 8.5 13t14.5 5h195l21 116h-195q-17 0 -17 13v3l8 44q2 8 8.5 13t14.5 5h481q16 0 16 -15v-3l-8 -44q-3 -16 -22 -16h-195l-21 -116h195q16 0 16 -15v-3l-8 -44 q-3 -16 -22 -16h-194z"/>
<glyph glyph-name="tbar" horiz-adv-x="375" unicode="ŧ" d="M440 530l-6 -34q-2 -8 -8.5 -14t-14.5 -6h-108l-19 -104h109q16 0 16 -16v-4l-6 -34q-2 -8 -8.5 -14t-14.5 -6h-109l-30 -173q-3 -18 -3 -29q0 -22 11 -27t35 -5h61q6 0 10 -1.5t4 -8.5v-4l-6 -35q-2 -7 -6 -11t-15 -6q-15 -2 -32 -3.5t-31 -1.5q-51 0 -85.5 21.5 t-34.5 73.5q0 10 1 18.5t3 20.5l30 171l-94 11q-16 2 -16 15v3l5 27q2 8 8 13t14 5h96l19 104l-95 11q-16 2 -16 15v3l5 27q2 8 8 13t14 5h97l16 98q3 17 22 20l53 8h3q12 0 12 -14v-3l-18 -109h108q16 0 16 -16v-4z"/>
<glyph glyph-name="Utilde" horiz-adv-x="662" unicode="Ũ" d="M672 908l-4 -23q-9 -52 -31.5 -78.5t-70.5 -26.5q-17 0 -38 4.5t-38 21.5l-47 44q-15 14 -21.5 18t-15.5 4q-34 0 -40 -46l-3 -21q-1 -7 -5.5 -12t-11.5 -5h-34q-13 0 -13 14v3l3 21q8 60 35.5 84.5t68.5 24.5q23 0 38.5 -7t35.5 -24l54 -49q7 -6 16 -10t16 -4q15 0 24 9 t14 35l4 23q2 7 6 12t11 5h34q13 0 13 -14v-3zM699 743q8 0 12.5 -3.5t4.5 -9.5q0 -3 -1 -6l-80 -454q-26 -148 -101.5 -212.5t-203.5 -64.5q-99 0 -156.5 51t-57.5 153q0 17 1.5 35t5.5 38l80 454q2 8 6.5 13.5t15.5 5.5h54q8 0 13 -4t3 -15l-80 -454q-4 -20 -6 -37.5 t-2 -34.5q0 -63 31.5 -95t105.5 -32q46 0 80 13t57.5 38t38 62.5t23.5 85.5l80 454q2 8 6 13.5t16 5.5h54z"/>
<glyph glyph-name="utilde" d="M583 742l-4 -23q-9 -52 -31.5 -78.5t-70.5 -26.5q-17 0 -38 4.5t-38 21.5l-47 44q-15 14 -21.5 18t-15.5 4q-34 0 -40 -46l-3 -21q-1 -7 -5.5 -12t-11.5 -5h-34q-13 0 -13 14v3l3 21q8 60 35.5 84.5t68.5 24.5q23 0 38.5 -7t35.5 -24l54 -49q7 -6 16 -10t16 -4q15 0 24 9 t14 35l4 23q2 7 6 12t11 5h34q13 0 13 -14v-3zM567 550q11 0 13.5 -5t2.5 -9q0 -3 -1 -6l-89 -510q-2 -8 -8.5 -14t-14.5 -6h-47q-9 0 -13 6t-2 14l3 18q-45 -23 -83 -34t-83 -11q-65 0 -105.5 39.5t-40.5 118.5q0 28 6 61l56 318q2 11 9 15.5t15 4.5h48q19 0 16 -20 l-58 -329q-6 -33 -6 -57q0 -42 21.5 -58t71.5 -16q32 0 68 10t74 27l74 423q2 8 6.5 14t17.5 6h49z" unicode="ũ"/>
<glyph glyph-name="Umacron" horiz-adv-x="662" unicode="Ū" d="M652 871l-6 -34q-2 -8 -8.5 -12.5t-14.5 -4.5h-288q-17 0 -17 14v3l6 34q2 8 8.5 12.5t14.5 4.5h288q17 0 17 -14v-3zM699 743q8 0 12.5 -3.5t4.5 -9.5q0 -3 -1 -6l-80 -454q-26 -148 -101.5 -212.5t-203.5 -64.5q-99 0 -156.5 51t-57.5 153q0 17 1.5 35t5.5 38l80 454 q2 8 6.5 13.5t15.5 5.5h54q8 0 13 -4t3 -15l-80 -454q-4 -20 -6 -37.5t-2 -34.5q0 -63 31.5 -95t105.5 -32q46 0 80 13t57.5 38t38 62.5t23.5 85.5l80 454q2 8 6 13.5t16 5.5h54z"/>
<glyph glyph-name="umacron" d="M566 700l-6 -34q-2 -8 -8.5 -12.5t-14.5 -4.5h-288q-17 0 -17 14v3l6 34q2 8 8.5 12.5t14.5 4.5h288q17 0 17 -14v-3zM567 550q11 0 13.5 -5t2.5 -9q0 -3 -1 -6l-89 -510q-2 -8 -8.5 -14t-14.5 -6h-47q-9 0 -13 6t-2 14l3 18q-45 -23 -83 -34t-83 -11q-65 0 -105.5 39.5 t-40.5 118.5q0 28 6 61l56 318q2 11 9 15.5t15 4.5h48q19 0 16 -20l-58 -329q-6 -33 -6 -57q0 -42 21.5 -58t71.5 -16q32 0 68 10t74 27l74 423q2 8 6.5 14t17.5 6h49z" unicode="ū"/>
<glyph glyph-name="Ubreve" horiz-adv-x="662" unicode="Ŭ" d="M656 939q0 -5 -1 -8q-8 -36 -25.5 -62.5t-41.5 -44t-52.5 -26t-57.5 -8.5t-56 8t-47.5 25.5t-33 44t-12.5 63.5q0 7 3 12t11 5h35q8 0 10.5 -4t2.5 -12q0 -80 87 -80q46 0 74 21t39 59q2 8 5.5 12t11.5 4h39q9 0 9 -9zM699 743q8 0 12.5 -3.5t4.5 -9.5q0 -3 -1 -6 l-80 -454q-26 -148 -101.5 -212.5t-203.5 -64.5q-99 0 -156.5 51t-57.5 153q0 17 1.5 35t5.5 38l80 454q2 8 6.5 13.5t15.5 5.5h54q8 0 13 -4t3 -15l-80 -454q-4 -20 -6 -37.5t-2 -34.5q0 -63 31.5 -95t105.5 -32q46 0 80 13t57.5 38t38 62.5t23.5 85.5l80 454q2 8 6 13.5 t16 5.5h54z"/>
<glyph glyph-name="ubreve" d="M573 770q0 -5 -1 -8q-8 -36 -25.5 -62.5t-41.5 -44t-52.5 -26t-57.5 -8.5t-56 8t-47.5 25.5t-33 44t-12.5 63.5q0 7 3 12t11 5h35q8 0 10.5 -4t2.5 -12q0 -80 87 -80q46 0 74 21t39 59q2 8 5.5 12t11.5 4h39q9 0 9 -9zM567 550q11 0 13.5 -5t2.5 -9q0 -3 -1 -6l-89 -510 q-2 -8 -8.5 -14t-14.5 -6h-47q-9 0 -13 6t-2 14l3 18q-45 -23 -83 -34t-83 -11q-65 0 -105.5 39.5t-40.5 118.5q0 28 6 61l56 318q2 11 9 15.5t15 4.5h48q19 0 16 -20l-58 -329q-6 -33 -6 -57q0 -42 21.5 -58t71.5 -16q32 0 68 10t74 27l74 423q2 8 6.5 14t17.5 6h49z" unicode="ŭ"/>
<glyph glyph-name="Uring" horiz-adv-x="662" unicode="Ů" d="M521 875q0 22 -15.5 37t-37.5 15t-37 -15t-15 -37t15 -37.5t37 -15.5t37.5 15.5t15.5 37.5zM569 874q0 -21 -8 -39.5t-21.5 -32t-32 -21.5t-39.5 -8t-39.5 8t-32.5 21.5t-22 32t-8 39.5t8 39.5t22 32.5t32.5 22t39.5 8t39.5 -8t32 -22t21.5 -32.5t8 -39.5zM699 743 q8 0 12.5 -3.5t4.5 -9.5q0 -3 -1 -6l-80 -454q-26 -148 -101.5 -212.5t-203.5 -64.5q-99 0 -156.5 51t-57.5 153q0 17 1.5 35t5.5 38l80 454q2 8 6.5 13.5t15.5 5.5h54q8 0 13 -4t3 -15l-80 -454q-4 -20 -6 -37.5t-2 -34.5q0 -63 31.5 -95t105.5 -32q46 0 80 13t57.5 38 t38 62.5t23.5 85.5l80 454q2 8 6 13.5t16 5.5h54z"/>
<glyph glyph-name="uring" d="M438 704q0 22 -15.5 37t-37.5 15t-37 -15t-15 -37t15 -37.5t37 -15.5t37.5 15.5t15.5 37.5zM486 703q0 -21 -8 -39.5t-21.5 -32t-32 -21.5t-39.5 -8t-39.5 8t-32.5 21.5t-22 32t-8 39.5t8 39.5t22 32.5t32.5 22t39.5 8t39.5 -8t32 -22t21.5 -32.5t8 -39.5zM567 550 q11 0 13.5 -5t2.5 -9q0 -3 -1 -6l-89 -510q-2 -8 -8.5 -14t-14.5 -6h-47q-9 0 -13 6t-2 14l3 18q-45 -23 -83 -34t-83 -11q-65 0 -105.5 39.5t-40.5 118.5q0 28 6 61l56 318q2 11 9 15.5t15 4.5h48q19 0 16 -20l-58 -329q-6 -33 -6 -57q0 -42 21.5 -58t71.5 -16q32 0 68 10 t74 27l74 423q2 8 6.5 14t17.5 6h49z" unicode="ů"/>
<glyph glyph-name="Uhungarumlaut" horiz-adv-x="662" unicode="Ű" d="M552 944q0 -4 -5 -9l-135 -126q-8 -8 -12.5 -11.5t-12.5 -3.5h-54q-8 0 -8 6q0 5 6 11l119 124q8 8 13 11.5t14 3.5h65q10 0 10 -6zM727 944q0 -4 -5 -9l-135 -126q-8 -8 -12.5 -11.5t-12.5 -3.5h-54q-8 0 -8 6q0 5 6 11l119 124q8 8 13 11.5t14 3.5h65q10 0 10 -6z M699 743q8 0 12.5 -3.5t4.5 -9.5q0 -3 -1 -6l-80 -454q-26 -148 -101.5 -212.5t-203.5 -64.5q-99 0 -156.5 51t-57.5 153q0 17 1.5 35t5.5 38l80 454q2 8 6.5 13.5t15.5 5.5h54q8 0 13 -4t3 -15l-80 -454q-4 -20 -6 -37.5t-2 -34.5q0 -63 31.5 -95t105.5 -32q46 0 80 13 t57.5 38t38 62.5t23.5 85.5l80 454q2 8 6 13.5t16 5.5h54z"/>
<glyph glyph-name="uhungarumlaut" d="M469 773q0 -4 -5 -9l-135 -126q-8 -8 -12.5 -11.5t-12.5 -3.5h-54q-8 0 -8 6q0 5 6 11l119 124q8 8 13 11.5t14 3.5h65q10 0 10 -6zM644 773q0 -4 -5 -9l-135 -126q-8 -8 -12.5 -11.5t-12.5 -3.5h-54q-8 0 -8 6q0 5 6 11l119 124q8 8 13 11.5t14 3.5h65q10 0 10 -6z M567 550q11 0 13.5 -5t2.5 -9q0 -3 -1 -6l-89 -510q-2 -8 -8.5 -14t-14.5 -6h-47q-9 0 -13 6t-2 14l3 18q-45 -23 -83 -34t-83 -11q-65 0 -105.5 39.5t-40.5 118.5q0 28 6 61l56 318q2 11 9 15.5t15 4.5h48q19 0 16 -20l-58 -329q-6 -33 -6 -57q0 -42 21.5 -58t71.5 -16 q32 0 68 10t74 27l74 423q2 8 6.5 14t17.5 6h49z" unicode="ű"/>
<glyph glyph-name="Uogonek" horiz-adv-x="662" unicode="Ų" d="M635 270q-10 -54 -23 -92.5t-31.5 -66.5t-42.5 -48.5t-55 -39.5l-108 -65q-29 -17 -47 -30.5t-18 -38.5q0 -15 14 -23t48 -8q24 0 46 5t27 5t4 -8l-7 -39q-1 -8 -13 -11q-2 -1 -24 -5.5t-54 -4.5q-65 0 -90.5 21.5t-25.5 54.5q0 22 7.5 39.5t19.5 31t26.5 23t28.5 17.5 l11 6q-99 1 -155.5 51t-56.5 153q0 17 1.5 35t5.5 38l80 454q2 8 8 13.5t14 5.5h54q16 0 16 -16v-3l-80 -454q-4 -20 -6 -37.5t-2 -34.5q0 -63 31.5 -95t105.5 -32q46 0 80 13t57.5 38t38 62.5t23.5 85.5l80 454q2 8 8 13.5t14 5.5h54q16 0 16 -16z"/>
<glyph glyph-name="uogonek" d="M411 38q-45 -23 -83 -34t-83 -11q-65 0 -105.5 39.5t-40.5 118.5q0 28 6 61l56 318q2 8 9 14t15 6h48q16 0 16 -16v-4l-58 -329q-6 -33 -6 -57q0 -42 21.5 -58t71.5 -16q32 0 68 10t74 27l74 423q2 8 9 14t15 6h49q8 0 11.5 -5t3.5 -11v-4l-86 -493q-4 -21 -10 -28 t-19 -15l-60 -36q-21 -12 -33.5 -21t-20 -16.5t-10 -15t-2.5 -16.5q0 -17 14.5 -24t48.5 -7q24 0 46 5t27 5t4 -8l-7 -39q-1 -8 -13 -11q-2 -1 -24 -5.5t-54 -4.5q-65 0 -90.5 21.5t-25.5 54.5q0 45 24.5 69t57.5 42l59 32z" unicode="ų"/>
<glyph glyph-name="Wcircumflex" horiz-adv-x="825" unicode="Ŵ" d="M704 802q0 -9 -10 -9h-49q-8 0 -12 3.5t-9 11.5l-64 97l-101 -97q-8 -8 -12.5 -11.5t-12.5 -3.5h-55q-8 0 -8 6q0 5 6 11l118 124q8 8 12.5 11.5t13.5 3.5h85q9 0 13.5 -3.5t9.5 -11.5l73 -124q2 -3 2 -8zM905 743q8 0 11.5 -3.5t3.5 -7.5t-2 -9l-230 -676 q-11 -31 -29 -41t-42 -10h-43q-21 0 -33.5 13.5t-14.5 36.5l-33 370q-2 9 -5 9q-2 0 -4 -1t-5 -8l-164 -370q-10 -23 -27.5 -36.5t-38.5 -13.5h-42q-24 0 -38.5 9.5t-14.5 40.5v1l8 676q0 20 21 20h57q14 0 14 -17l-15 -637q0 -15 3 -15q2 0 9 15l163 370q9 20 21.5 30 t32.5 10h64q37 0 40 -40l33 -370q1 -7 1 -11t3 -4t4.5 3.5t3.5 11.5l209 637q6 17 20 17h59z"/>
<glyph glyph-name="wcircumflex" horiz-adv-x="786" unicode="ŵ" d="M656 632q0 -9 -10 -9h-49q-8 0 -12 3.5t-9 11.5l-64 97l-101 -97q-8 -8 -12.5 -11.5t-12.5 -3.5h-55q-8 0 -8 6q0 5 6 11l118 124q8 8 12.5 11.5t13.5 3.5h85q9 0 13.5 -3.5t9.5 -11.5l73 -124q2 -3 2 -8zM826 550q9 0 13 -4t4 -9t-2 -11l-179 -464q-14 -38 -38.5 -53.5 t-57.5 -15.5q-29 0 -47 19t-21 56l-29 337q-1 7 -4 7t-6 -7l-147 -337q-17 -37 -37.5 -56t-56.5 -19q-33 0 -51.5 15.5t-20.5 53.5l-15 465q0 8 7 15.5t16 7.5h52q7 0 10.5 -5t3.5 -11l3 -453q0 -9 2 -10.5t4 -1.5q5 0 10 12l165 381q8 17 19 23.5t27 6.5h56q16 0 24 -6.5 t10 -23.5l31 -381q1 -12 6 -12q2 0 4.5 1.5t5.5 10.5l163 453q2 6 7 11t13 5h56z"/>
<glyph glyph-name="Ycircumflex" horiz-adv-x="583" unicode="Ŷ" d="M592 801q0 -9 -10 -9h-49q-8 0 -12 3.5t-9 11.5l-64 97l-101 -97q-8 -8 -12.5 -11.5t-12.5 -3.5h-55q-8 0 -8 6q0 5 6 11l118 124q8 8 12.5 11.5t13.5 3.5h85q9 0 13.5 -3.5t9.5 -11.5l73 -124q2 -3 2 -8zM677 731q0 -5 -5 -13l-217 -348q-19 -30 -34.5 -45t-30.5 -21 l-50 -284q-2 -8 -6 -14t-16 -6h-55q-17 0 -14 20l50 284q-13 5 -24 20.5t-19 45.5l-92 348q-2 5 -2 10q0 15 20 15h58q8 0 11 -4.5t5 -9.5l80 -324q5 -17 9.5 -21.5t9.5 -4.5t10.5 4.5t16.5 21.5l197 324q5 8 9.5 11t15.5 3h58q15 0 15 -12z"/>
<glyph glyph-name="ycircumflex" horiz-adv-x="534" unicode="ŷ" d="M531 632q0 -9 -10 -9h-49q-8 0 -12 3.5t-9 11.5l-64 97l-101 -97q-8 -8 -12.5 -11.5t-12.5 -3.5h-55q-8 0 -8 6q0 5 6 11l118 124q8 8 12.5 11.5t13.5 3.5h85q9 0 13.5 -3.5t9.5 -11.5l73 -124q2 -3 2 -8zM592 537q0 -5 -3 -11l-267 -576q-19 -41 -37.5 -69t-42.5 -45.5 t-55 -25.5t-74 -8q-21 0 -44 2.5t-38 6.5q-8 2 -14.5 5t-4.5 11l7 37q2 11 6.5 14.5t18.5 1.5q8 -1 19.5 -2t24 -2t24.5 -1.5t20 -0.5q21 0 37.5 3.5t30 13t24.5 26t22 42.5l17 41h-11q-12 0 -22.5 3t-19.5 11.5t-15 23.5t-9 40l-51 448q-2 16 4 20t17 4h52q9 0 11 -5t3 -11 l42 -434q2 -15 6 -18.5t9 -3.5h16l202 457q3 8 7 11.5t15 3.5h59q14 0 14 -13z"/>
<glyph glyph-name="Ydieresis" horiz-adv-x="583" unicode="Ÿ" d="M409 902l-15 -81q-2 -8 -8.5 -13.5t-14.5 -5.5h-39q-7 0 -12 4t-5 12v3l15 81q2 8 8.5 14t14.5 6h39q7 0 12 -5t5 -12v-3zM584 902l-15 -81q-2 -8 -8.5 -13.5t-14.5 -5.5h-39q-7 0 -12 4t-5 12v3l15 81q2 8 8.5 14t14.5 6h39q7 0 12 -5t5 -12v-3zM677 731q0 -5 -5 -13 l-217 -348q-19 -30 -34.5 -45t-30.5 -21l-50 -284q-2 -8 -8 -14t-14 -6h-55q-14 0 -14 16v4l50 284q-13 5 -24 20.5t-19 45.5l-92 348q-1 3 -1 7q0 18 19 18h58q5 0 9.5 -4.5t6.5 -9.5l80 -324q5 -17 9.5 -21.5t9.5 -4.5t10.5 4.5t16.5 21.5l197 324q3 5 8 9.5t11 4.5h64 q15 0 15 -12z"/>
<glyph glyph-name="Zacute" horiz-adv-x="597" unicode="Ź" d="M594 944q0 -4 -5 -9l-136 -126q-8 -8 -12.5 -11.5t-12.5 -3.5h-54q-8 0 -8 6q0 5 6 11l120 124q8 8 12.5 11.5t13.5 3.5h66q10 0 10 -6zM645 674q0 -20 -8 -39.5t-31 -45.5l-429 -493q-4 -4 -4 -8q0 -6 8 -6h357q13 0 16 -4.5t1 -12.5l-8 -47q-2 -8 -5.5 -13t-17.5 -5 h-343q-52 0 -76 20.5t-24 55.5q0 18 7 37.5t22 36.5l425 492q5 6 6.5 9t1.5 5q0 6 -9 6h-327q-8 0 -13.5 3t-3.5 14l8 47q2 8 5.5 12.5t17.5 4.5h330q54 0 74 -18.5t20 -50.5z"/>
<glyph glyph-name="zacute" horiz-adv-x="466" unicode="ź" d="M497 773q0 -4 -5 -9l-136 -126q-8 -8 -12.5 -11.5t-12.5 -3.5h-54q-8 0 -8 6q0 5 6 11l120 124q8 8 12.5 11.5t13.5 3.5h66q10 0 10 -6zM493 481q0 -16 -6.5 -32t-20.5 -31l-313 -325q-7 -7 -7 -12q0 -7 10 -7h255q13 0 15.5 -6t0.5 -14l-6 -34q-2 -11 -6 -15.5t-17 -4.5 h-253q-45 0 -66 20.5t-21 49.5q0 15 5 30.5t18 28.5l319 331q6 6 6 11t-10 5h-246q-19 0 -16 20l6 34q2 12 8.5 16t14.5 4h250q43 0 61.5 -20.5t18.5 -48.5z"/>
<glyph glyph-name="Zdotaccent" horiz-adv-x="597" unicode="Ż" d="M495 913l-15 -84q-2 -8 -8.5 -14t-14.5 -6h-48q-16 0 -16 17v3l15 84q2 8 8.5 13.5t14.5 5.5h48q16 0 16 -16v-3zM645 674q0 -20 -8 -39.5t-31 -45.5l-429 -493q-4 -4 -4 -8q0 -6 8 -6h357q13 0 16 -4.5t1 -12.5l-8 -47q-2 -8 -5.5 -13t-17.5 -5h-343q-52 0 -76 20.5 t-24 55.5q0 18 7 37.5t22 36.5l425 492q5 6 6.5 9t1.5 5q0 6 -9 6h-327q-8 0 -13.5 3t-3.5 14l8 47q2 8 5.5 12.5t17.5 4.5h330q54 0 74 -18.5t20 -50.5z"/>
<glyph glyph-name="zdotaccent" horiz-adv-x="466" unicode="ż" d="M390 742l-15 -84q-2 -8 -8.5 -14t-14.5 -6h-48q-16 0 -16 17v3l15 84q2 8 8.5 13.5t14.5 5.5h48q16 0 16 -16v-3zM493 481q0 -16 -6.5 -32t-20.5 -31l-313 -325q-7 -7 -7 -12q0 -7 10 -7h255q13 0 15.5 -6t0.5 -14l-6 -34q-2 -11 -6 -15.5t-17 -4.5h-253q-45 0 -66 20.5 t-21 49.5q0 15 5 30.5t18 28.5l319 331q6 6 6 11t-10 5h-246q-19 0 -16 20l6 34q2 12 8.5 16t14.5 4h250q43 0 61.5 -20.5t18.5 -48.5z"/>
<glyph glyph-name="Zcaron" horiz-adv-x="597" unicode="Ž" d="M636 944q0 -5 -6 -11l-119 -124q-8 -8 -13 -11.5t-14 -3.5h-85q-9 0 -13 3.5t-9 11.5l-76 124q-2 3 -2 8q0 9 10 9h47q8 0 12 -4t9 -12l66 -96l99 96q8 8 12.5 12t12.5 4h61q8 0 8 -6zM645 669q0 -16 -6.5 -33t-20.5 -33l-441 -507q-4 -4 -4 -8q0 -6 8 -6h357 q7 0 12 -3.5t5 -10.5v-3l-8 -47q-2 -8 -8.5 -13t-14.5 -5h-358q-41 0 -63 22.5t-22 53.5q0 18 7 37.5t22 36.5l429 497q4 4 4 9q0 6 -9 6h-327q-7 0 -12 3.5t-5 10.5v3l8 47q2 8 8.5 12.5t14.5 4.5h337q42 0 64.5 -21.5t22.5 -52.5z"/>
<glyph glyph-name="zcaron" horiz-adv-x="466" unicode="ž" d="M549 773q0 -5 -6 -11l-119 -124q-8 -8 -13 -11.5t-14 -3.5h-85q-9 0 -13 3.5t-9 11.5l-76 124q-2 3 -2 8q0 9 10 9h47q8 0 12 -4t9 -12l66 -96l99 96q8 8 12.5 12t12.5 4h61q8 0 8 -6zM493 481q0 -16 -6.5 -32t-20.5 -31l-313 -325q-7 -7 -7 -12q0 -7 10 -7h255 q16 0 16 -16v-4l-6 -34q-2 -8 -8.5 -14t-14.5 -6h-253q-45 0 -66 20.5t-21 49.5q0 15 5 30.5t18 28.5l319 331q6 6 6 10q0 6 -10 6h-246q-8 0 -12 5t-4 12v3l6 34q2 8 8.5 14t14.5 6h250q43 0 61.5 -20.5t18.5 -48.5z"/>
<glyph glyph-name="florin" horiz-adv-x="605" unicode="ƒ" d="M614 743q0 -1 -0.5 -1.5t-0.5 -2.5l-7 -32q-3 -15 -25 -15h-55q-36 0 -53.5 -14.5t-26.5 -53.5l-45 -196h143q16 0 16 -14v-4l-8 -37q-2 -8 -9 -13t-15 -5h-143l-81 -357q-9 -39 -25.5 -65.5t-38.5 -42t-49.5 -22.5t-58.5 -7q-26 0 -42 1.5t-27 3.5q-16 3 -16 12 q0 2 0.5 2.5t0.5 2.5l7 32q3 15 25 15h55q36 0 53.5 14.5t26.5 53.5l81 357h-128q-16 0 -16 14v4l8 37q2 8 9 13t15 5h128l45 196q9 39 25.5 65.5t38.5 42t49.5 22.5t58.5 7q26 0 41.5 -1.5t26.5 -3.5q17 -3 17 -13z"/>
<glyph glyph-name="AEacute" horiz-adv-x="859" unicode="Ǽ" d="M800 943q0 -4 -5 -9l-136 -126q-8 -8 -12.5 -11.5t-12.5 -3.5h-54q-8 0 -8 6q0 5 6 11l120 124q8 8 12.5 11.5t13.5 3.5h66q10 0 10 -6zM423 664q-15 0 -23 -17l-147 -323h220l61 340h-111zM933 729l-9 -53q-2 -12 -13 -12h-286l-43 -239h277q16 0 16 -16v-4l-6 -38 q-2 -8 -9 -14t-15 -6h-277l-29 -168q-2 -14 -3.5 -25t-1.5 -20q0 -17 5 -28.5t18 -18.5t33.5 -9.5t52.5 -2.5h163q9 0 9 -9v-3l-9 -49q-1 -5 -4 -9t-8 -5q-11 -1 -30 -2.5t-42 -2.5t-47.5 -1.5t-46.5 -0.5q-185 0 -185 140q0 11 1.5 22.5t3.5 23.5l11 66h-239l-104 -230 q-2 -6 -8.5 -10.5t-12.5 -4.5h-59q-14 0 -14 13q0 7 2 10l299 645q22 47 50 61t66 14h487q4 0 5.5 -3.5t1.5 -7.5v-3z"/>
<glyph glyph-name="aeacute" horiz-adv-x="853" unicode="ǽ" d="M710 773q0 -4 -5 -9l-136 -126q-8 -8 -12.5 -11.5t-12.5 -3.5h-54q-8 0 -8 6q0 5 6 11l120 124q8 8 12.5 11.5t13.5 3.5h66q10 0 10 -6zM336 265q-45 0 -76.5 -5.5t-51 -17t-29.5 -30t-13 -45.5l-1 -9q-1 -4 -1 -7.5v-6.5v-10q0 -40 24.5 -55.5t69.5 -15.5q35 0 69 9 t54 22l30 171h-75zM778 376q0 56 -27 81.5t-81 25.5q-66 0 -107 -43.5t-56 -120.5l-1 -5h266q2 11 4 28.5t2 33.5zM862 368q0 -9 -1 -21.5t-2.5 -26.5t-4 -27.5t-5.5 -23.5t-7.5 -16t-13.5 -6h-333l-6 -32q-2 -14 -3.5 -26t-1.5 -23q0 -60 31.5 -79.5t93.5 -19.5 q44 0 91 4.5t82 9.5h2h3q5 0 9.5 -2.5t4.5 -8.5v-2v-1l-6 -34q-2 -11 -6.5 -16t-17.5 -7q-45 -8 -87 -12.5t-93 -4.5t-90 13t-66 47q-18 -12 -40.5 -23t-48.5 -19.5t-54 -13t-55 -4.5q-30 0 -59 8t-52 24.5t-37 43t-14 63.5v11q0 10 1 15l1 9q5 43 22 73.5t48.5 50t79.5 29 t115 9.5h80l7 40q2 12 3 23t1 20q0 41 -21 55.5t-71 14.5q-49 0 -86 -2.5t-68 -5.5h-4q-7 0 -12 2.5t-5 9.5v4l7 35q3 16 24 19q32 5 69 9t88 4q62 0 96.5 -18t51.5 -53q38 41 80.5 56t100.5 15q46 0 80 -14.5t56 -40t32.5 -60t10.5 -74.5z"/>
<glyph glyph-name="Oslashacute" horiz-adv-x="661" unicode="Ǿ" d="M654 943q0 -4 -5 -9l-136 -126q-8 -8 -12.5 -11.5t-12.5 -3.5h-54q-8 0 -8 6q0 5 6 11l120 124q8 8 12.5 11.5t13.5 3.5h66q10 0 10 -6zM594 519v12t-1 12l-370 -415q18 -29 48.5 -41t72.5 -12q82 0 139.5 55.5t79.5 176.5l23 129q5 23 6.5 44t1.5 39zM571 615 q-18 29 -49 41t-73 12q-83 0 -140.5 -55.5t-79.5 -176.5l-23 -129q-4 -21 -5.5 -40t-1.5 -36q0 -8 0.5 -15.5t1.5 -15.5zM766 742q0 -6 -5 -11l-94 -105q9 -23 14 -49t5 -57q0 -20 -2 -40.5t-6 -43.5l-23 -129q-15 -83 -43.5 -142.5t-70 -97.5t-95 -56t-116.5 -18 q-52 0 -95.5 16t-73.5 49l-50 -55q-5 -6 -8.5 -8t-11.5 -2h-53q-9 0 -9 9q0 6 4 10l92 103q-19 47 -19 108q0 20 2 40.5t6 43.5l23 129q16 89 46.5 149t73 97t95 52.5t111.5 15.5q54 0 97 -17t72 -50l51 57q9 10 22 10h52q9 0 9 -8z"/>
<glyph glyph-name="oslashacute" horiz-adv-x="545" unicode="ǿ" d="M569 773q0 -4 -5 -9l-136 -126q-8 -8 -12.5 -11.5t-12.5 -3.5h-54q-8 0 -8 6q0 5 6 11l120 124q8 8 12.5 11.5t13.5 3.5h66q10 0 10 -6zM467 364q0 7 -0.5 13.5t-1.5 13.5l-265 -290q28 -31 84 -31q71 0 111 44.5t54 122.5l13 76q2 14 3.5 26.5t1.5 24.5zM441 449 q-28 31 -84 31q-71 0 -110.5 -44.5t-53.5 -122.5l-13 -76q-2 -15 -3.5 -28.5t-1.5 -26.5v-13t1 -11zM630 577q0 -6 -7 -13l-86 -94q19 -38 19 -93q0 -30 -6 -64l-13 -76q-9 -55 -31.5 -100t-56 -77t-78.5 -49.5t-100 -17.5q-84 0 -132 42l-54 -60q-6 -7 -9.5 -8.5t-8.5 -1.5 h-49q-7 0 -7 6q0 7 6 13l88 96q-19 38 -19 93q0 29 6 64l13 76q9 55 31 100t55.5 77t78.5 49.5t100 17.5q85 0 133 -42l52 58q6 7 9.5 8.5t8.5 1.5h50q7 0 7 -6z"/>
<glyph glyph-name="uni0218" horiz-adv-x="550" unicode="Ș" d="M320 -49q11 0 9 -11l-2 -8l-74 -109q-6 -10 -11 -14.5t-16 -4.5h-41q-3 0 -6 1.5t-2 6.5q1 2 1 3.5t2 4.5l48 112q7 19 23 19h69zM406 750q22 0 49 -1t53 -2.5t48.5 -4t36.5 -4.5q10 -2 12.5 -4.5t2.5 -6.5q0 -3 -1 -6l-7 -43q-2 -9 -5.5 -13.5t-16.5 -2.5q-33 2 -80.5 4 t-91.5 2q-30 0 -60 -3.5t-53.5 -14.5t-38 -31t-14.5 -53q0 -18 4.5 -32t15 -27.5t27.5 -27t42 -29.5l82 -55q35 -23 59 -45t39 -44.5t21.5 -47t6.5 -51.5q0 -53 -21 -93t-58.5 -67t-88.5 -40.5t-111 -13.5q-21 0 -44 1t-45.5 3t-43.5 4.5t-37 5.5q-9 2 -13 5t-4 8q0 2 1 5 l7 40q2 11 6 14.5t17 1.5q17 -2 38 -3t43.5 -1.5t44 -1t38.5 -0.5q81 0 128 30.5t47 101.5q0 18 -5 32t-16.5 27.5t-30 28t-44.5 32.5l-87 59q-51 35 -80 78t-29 97q0 52 21 88t56.5 58.5t82 32.5t97.5 10z"/>
<glyph glyph-name="uni0219" horiz-adv-x="466" unicode="ș" d="M278 -49q11 0 9 -11l-2 -8l-74 -109q-6 -10 -11 -14.5t-16 -4.5h-41q-3 0 -6 1.5t-2 6.5q1 2 1 3.5t2 4.5l48 112q7 19 23 19h69zM329 557q29 0 49.5 -1t37 -2.5t30.5 -4t30 -5.5q11 -2 13.5 -5t2.5 -7q0 -3 -1 -8l-5 -33q-3 -17 -18 -17h-5q-26 3 -65.5 5.5t-81.5 2.5 q-17 0 -35.5 -3t-34 -11t-25.5 -21.5t-10 -35.5q0 -19 14 -34t40 -32l89 -59q26 -17 43 -33t27.5 -31.5t14.5 -32.5t4 -37q0 -44 -18 -74.5t-48 -49.5t-69 -27t-80 -8q-16 0 -36 1t-41 2.5t-42 4.5t-37 7q-8 2 -13 6.5t-5 9.5q0 2 1 4l6 35q2 10 7 13.5t18 1.5q18 -2 39 -4 t42.5 -3.5t40.5 -2.5t33 -1q22 0 42.5 4.5t36 14t25 26t9.5 40.5q0 17 -12 32.5t-46 38.5l-90 59q-42 27 -63 58t-21 72q0 42 18.5 69.5t47.5 44.5t66 24t75 7z"/>
<glyph glyph-name="uni021A" horiz-adv-x="590" unicode="Ț" d="M325 -49q11 0 9 -11l-2 -8l-74 -109q-6 -10 -11 -14.5t-16 -4.5h-41q-3 0 -6 1.5t-2 6.5q1 2 1 3.5t2 4.5l48 112q7 19 23 19h69zM345 20q-2 -8 -8 -14t-14 -6h-55q-8 0 -12 6t-2 14l113 645h-195q-8 0 -13 2.5t-5 8.5q0 2 1 5l8 44q2 11 8.5 14.5t14.5 3.5h481 q8 0 12.5 -3t4.5 -9q0 -3 -1 -6l-8 -44q-2 -8 -6 -12t-16 -4h-195z"/>
<glyph glyph-name="uni021B" horiz-adv-x="375" unicode="ț" d="M232 -49q11 0 9 -11l-2 -8l-74 -109q-6 -10 -11 -14.5t-16 -4.5h-41q-3 0 -5.5 1.5t-2.5 4.5l1 4q0 3 2 6l48 112q7 19 23 19h69zM424 550q16 0 16 -15v-5l-6 -34q-2 -14 -8.5 -17t-14.5 -3h-108l-62 -351q-3 -18 -3 -29q0 -22 11 -27t35 -5h61q17 0 14 -14l-6 -35 q-2 -7 -6 -11t-15 -6q-15 -2 -32 -3.5t-31 -1.5q-51 0 -85.5 21.5t-34.5 73.5q0 10 1 18.5t3 20.5l62 349l-95 11q-8 1 -12.5 5t-4.5 9q0 2 1 4l5 27q2 11 8 14.5t14 3.5h97l16 98q3 17 22 20l53 8q3 1 5 1q7 0 9.5 -5t0.5 -13l-18 -109h108z"/>
<glyph glyph-name="circumflex" horiz-adv-x="373" unicode="ˆ" d="M464 632q0 -9 -10 -9h-49q-8 0 -12 3.5t-9 11.5l-64 97l-101 -97q-8 -8 -12.5 -11.5t-12.5 -3.5h-55q-8 0 -8 6q0 5 6 11l118 124q8 8 12.5 11.5t13.5 3.5h85q9 0 13.5 -3.5t9.5 -11.5l73 -124q2 -3 2 -8z"/>
<glyph glyph-name="caron" horiz-adv-x="373" unicode="ˇ" d="M491 773q0 -5 -6 -11l-119 -124q-8 -8 -13 -11.5t-14 -3.5h-85q-9 0 -13 3.5t-9 11.5l-76 124q-2 3 -2 8q0 9 10 9h47q8 0 12 -4t9 -12l66 -96l99 96q8 8 12.5 12t12.5 4h61q8 0 8 -6z"/>
<glyph glyph-name="uni02C9" horiz-adv-x="373" unicode="ˉ" d="M351 692q0 -8 -6 -12.5t-14 -4.5h-288q-8 0 -14 4.5t-6 12.5v34q0 8 6 12.5t14 4.5h288q8 0 14 -4.5t6 -12.5v-34z"/>
<glyph glyph-name="breve" horiz-adv-x="373" unicode="˘" d="M485 770q0 -5 -1 -8q-8 -36 -25.5 -62.5t-41.5 -44t-52.5 -26t-57.5 -8.5t-56 8t-47.5 25.5t-33 44t-12.5 63.5q0 7 3 12t11 5h35q8 0 10.5 -4t2.5 -12q0 -80 87 -80q46 0 74 21t39 59q2 8 5.5 12t11.5 4h39q9 0 9 -9z"/>
<glyph glyph-name="dotaccent" horiz-adv-x="373" unicode="˙" d="M361 742l-15 -84q-2 -8 -8.5 -14t-14.5 -6h-48q-16 0 -16 17v3l15 84q2 8 8.5 13.5t14.5 5.5h48q16 0 16 -16v-3z"/>
<glyph glyph-name="ring" horiz-adv-x="373" unicode="˚" d="M356 704q0 22 -15.5 37t-37.5 15t-37 -15t-15 -37t15 -37.5t37 -15.5t37.5 15.5t15.5 37.5zM404 703q0 -21 -8 -39.5t-21.5 -32t-32 -21.5t-39.5 -8t-39.5 8t-32.5 21.5t-22 32t-8 39.5t8 39.5t22 32.5t32.5 22t39.5 8t39.5 -8t32 -22t21.5 -32.5t8 -39.5z"/>
<glyph glyph-name="ogonek" horiz-adv-x="366" unicode="˛" d="M265 -179q-1 -8 -13 -11q-2 -2 -24 -6t-54 -4q-64 0 -90 22t-26 54q0 45 24 69t58 42l73 40q6 4 13 7t14 3h52q11 0 11 -8q0 -6 -7 -11l-98 -60q-22 -12 -34 -21t-20 -17t-10 -14q-2 -8 -2 -17q0 -17 14 -24t49 -7q24 0 46 5t27 5t4 -8z"/>
<glyph glyph-name="tilde" horiz-adv-x="493" unicode="˜" d="M552 754l-4 -23q-9 -52 -31.5 -78.5t-70.5 -26.5q-17 0 -38 4.5t-38 21.5l-47 44q-15 14 -21.5 18t-15.5 4q-34 0 -40 -46l-3 -21q-1 -7 -5.5 -12t-11.5 -5h-34q-13 0 -13 14v3l3 21q8 60 35.5 84.5t68.5 24.5q23 0 38.5 -7t35.5 -24l54 -49q7 -6 16 -10t16 -4q15 0 24 9 t14 35l4 23q2 7 6 12t11 5h34q13 0 13 -14v-3z"/>
<glyph glyph-name="hungarumlaut" horiz-adv-x="373" unicode="˝" d="M373 773q0 -4 -5 -9l-135 -126q-8 -8 -12.5 -11.5t-12.5 -3.5h-54q-8 0 -8 6q0 5 6 11l119 124q8 8 13 11.5t14 3.5h65q10 0 10 -6zM548 773q0 -4 -5 -9l-135 -126q-8 -8 -12.5 -11.5t-12.5 -3.5h-54q-8 0 -8 6q0 5 6 11l119 124q8 8 13 11.5t14 3.5h65q10 0 10 -6z"/>
<glyph glyph-name="afii10023" horiz-adv-x="551" unicode="Ё" d="M410 910l-15 -81q-2 -8 -8.5 -13.5t-14.5 -5.5h-39q-7 0 -12 4t-5 12v3l15 81q2 8 8.5 14t14.5 6h39q7 0 12 -5t5 -12v-3zM585 910l-15 -81q-2 -8 -8.5 -13.5t-14.5 -5.5h-39q-7 0 -12 4t-5 12v3l15 81q2 8 8.5 14t14.5 6h39q7 0 12 -5t5 -12v-3zM625 727l-9 -47 q-2 -12 -13 -12h-193q-40 0 -65 -5.5t-40.5 -18t-23.5 -32.5t-13 -48l-24 -139h307q16 0 16 -17v-3l-6 -38q-2 -8 -9 -14t-15 -6h-307l-29 -168q-2 -12 -3.5 -22t-1.5 -19q0 -34 23 -48.5t86 -14.5h193q9 0 9 -9v-3l-9 -49q-1 -5 -4 -9t-8 -5q-11 -1 -34.5 -2.5t-52 -2.5 t-58 -1.5t-51.5 -0.5q-86 0 -135 35.5t-49 108.5q0 22 4 42l67 385q10 55 30 91t50.5 57t71.5 29.5t94 8.5q85 0 129.5 -2.5t64.5 -6.5q5 -1 6.5 -4.5t1.5 -7.5v-2z"/>
<glyph glyph-name="afii10051" horiz-adv-x="813" unicode="Ђ" d="M788 142q-8 -47 -24.5 -79t-43 -51t-63 -27t-84.5 -8q-17 0 -30.5 2t-20.5 6q-6 3 -4 11l6 37q2 8 8.5 12.5t14.5 4.5h39q40 0 70.5 20.5t41.5 79.5l16 91q4 20 4 39q0 28 -9.5 45t-28 27t-45.5 13.5t-62 3.5q-12 0 -33.5 -1.5t-46.5 -4.5t-49.5 -7t-41.5 -9l-58 -327 q-2 -8 -6 -14t-15 -6h-55q-8 0 -12.5 5.5t-2.5 14.5l114 645h-195q-20 0 -17 16l7 44q2 8 6.5 13t17.5 5h481q18 0 15 -18l-7 -44q-2 -8 -6.5 -12t-15.5 -4h-195l-43 -243q43 14 92.5 20.5t96.5 6.5q46 0 84 -8.5t65 -28t41.5 -50t14.5 -74.5q0 -13 -1 -26.5t-4 -28.5z"/>
<glyph glyph-name="afii10052" horiz-adv-x="536" unicode="Ѓ" d="M173 20q-2 -8 -6.5 -14t-16.5 -6h-51q-11 0 -14.5 5t-3.5 10q0 2 1 5l95 544q10 56 30 92t50.5 57t71.5 29t94 8q80 0 121.5 -2t67.5 -6q10 -2 12 -4.5t2 -5.5q0 -2 -1 -5l-9 -47q-2 -12 -13 -12h-193q-40 0 -65 -5.5t-40.5 -18t-23.5 -32.5t-13 -48zM451 809 q-8 -8 -12.5 -11.5t-12.5 -3.5h-54q-9 0 -9 6q0 5 7 11l119 124q8 8 13 11.5t14 3.5h66q10 0 10 -6q0 -4 -6 -9z"/>
<glyph glyph-name="afii10053" horiz-adv-x="573" unicode="Є" d="M530 425q11 0 15 -6t2 -14l-7 -38q-2 -8 -6.5 -14t-16.5 -6h-330l-3 -13q-4 -23 -6 -44t-2 -40q0 -54 15 -88t40 -53.5t58.5 -26.5t69.5 -7q29 0 51.5 0.5t40.5 1.5t32.5 2.5t28.5 2.5q20 2 17 -16l-7 -40q-2 -9 -8.5 -13.5t-14.5 -6.5q-17 -3 -31 -5.5t-31.5 -4 t-39.5 -2.5t-54 -1q-47 0 -93.5 13.5t-83 44.5t-59 80.5t-22.5 121.5q0 22 2.5 46.5t7.5 50.5l14 75q19 102 58.5 166t90 99t108 47.5t111.5 12.5q32 0 53.5 -1t38 -2.5t30 -4t28.5 -5.5q8 -2 13 -6t5 -10q0 -2 -1 -4l-7 -40q-3 -16 -19 -16h-4q-26 2 -59.5 4.5t-91.5 2.5 q-42 0 -82.5 -11.5t-76 -39t-62.5 -74.5t-42 -118h330z"/>
<glyph glyph-name="afii10054" horiz-adv-x="550" unicode="Ѕ" d="M406 750q22 0 49 -1t53 -2.5t48.5 -4t36.5 -4.5q10 -2 12.5 -4.5t2.5 -6.5q0 -3 -1 -6l-7 -43q-2 -9 -5.5 -13.5t-16.5 -2.5q-33 2 -80.5 4t-91.5 2q-30 0 -60 -3.5t-53.5 -14.5t-38 -31t-14.5 -53q0 -18 4.5 -32t15 -27.5t27.5 -27t42 -29.5l82 -55q35 -23 59 -45 t39 -44.5t21.5 -47t6.5 -51.5q0 -53 -21 -93t-58.5 -67t-88.5 -40.5t-111 -13.5q-21 0 -44 1t-45.5 3t-43.5 4.5t-37 5.5q-9 2 -13 5t-4 8q0 2 1 5l7 40q2 11 6 14.5t17 1.5q17 -2 38 -3t43.5 -1.5t44 -1t38.5 -0.5q81 0 128 30.5t47 101.5q0 18 -5 32t-16.5 27.5t-30 28 t-44.5 32.5l-87 59q-51 35 -80 78t-29 97q0 52 21 88t56.5 58.5t82 32.5t97.5 10z"/>
<glyph glyph-name="afii10055" horiz-adv-x="267" unicode="І" d="M292 743q15 0 15 -14v-5l-124 -704q-3 -20 -22 -20h-55q-10 0 -12.5 5t-2.5 9q0 3 1 6l124 704q2 8 6 13.5t15 5.5h55z"/>
<glyph glyph-name="afii10056" horiz-adv-x="267" unicode="Ї" d="M242 909l-15 -81q-2 -8 -8.5 -13.5t-14.5 -5.5h-39q-7 0 -12 4t-5 12v3l15 81q2 8 8.5 14t14.5 6h39q7 0 12 -5t5 -12v-3zM417 909l-15 -81q-2 -8 -8.5 -13.5t-14.5 -5.5h-39q-7 0 -12 4t-5 12v3l15 81q2 8 8.5 14t14.5 6h39q7 0 12 -5t5 -12v-3zM307 724l-124 -704 q-2 -8 -8 -14t-14 -6h-55q-14 0 -14 16v4l124 704q2 8 7.5 13.5t13.5 5.5h55q7 0 11 -4.5t4 -10.5v-4z"/>
<glyph glyph-name="afii10057" horiz-adv-x="257" unicode="Ј" d="M291 743q8 0 12.5 -3.5t4.5 -9.5q0 -3 -1 -6l-135 -761q-13 -72 -55 -107.5t-125 -35.5q-17 0 -30 2.5t-18 4.5q-8 3 -7 12l6 37q2 8 6 12.5t17 4.5h39q40 0 54.5 16.5t21.5 53.5l135 761q2 8 6.5 13.5t15.5 5.5h53z"/>
<glyph glyph-name="afii10058" horiz-adv-x="917" unicode="Љ" d="M604 743q8 0 13 -6t3 -14l-52 -292q23 2 50 3t56 1q53 0 100 -8.5t82 -29t55.5 -54t20.5 -82.5q0 -14 -2.5 -33t-4.5 -30q-11 -63 -42 -103t-75.5 -62.5t-99 -31t-112.5 -8.5q-50 0 -91.5 2t-69.5 7q-17 2 -23.5 10t-3.5 27l110 622h-96q-15 0 -23 -18l-282 -628 q-2 -6 -6 -10.5t-14 -4.5h-59q-9 0 -12 4t-3 8q0 5 3 11l295 644q10 23 24.5 37.5t30 23t31.5 12t30 3.5h167zM835 205q2 15 4 28t2 22q0 31 -12.5 51t-36 31.5t-56.5 16t-75 4.5q-26 0 -53 -1t-53 -3l-49 -280q24 -1 51 -2.5t53 -1.5q46 0 84.5 6t67.5 21t47.5 41t25.5 67z "/>
<glyph glyph-name="afii10059" horiz-adv-x="1034" unicode="Њ" d="M947 223q3 18 3 32q0 31 -12.5 51t-36 31.5t-56.5 16t-75 4.5q-26 0 -53 -1t-53 -3l-49 -280q32 -3 55 -3.5t49 -0.5q46 0 84.5 6t67.5 21t47.5 41t25.5 67zM1033 197q-11 -63 -42 -103t-75 -62.5t-98.5 -30.5t-112.5 -8q-36 0 -83 1.5t-91 5.5q-8 1 -13.5 5t-3.5 15 l59 332h-342l-59 -332q-2 -8 -7 -14t-16 -6h-51q-11 0 -14.5 5t-3.5 10q0 2 1 5l124 703q2 8 6.5 14t17.5 6h51q11 0 14.5 -6t1.5 -14l-51 -290h342l51 290q2 8 6.5 14t17.5 6h51q10 0 14 -6t2 -14l-52 -292q23 2 50 3t56 1q53 0 99.5 -9t81.5 -29t55.5 -54t20.5 -83 q0 -11 -1 -22.5t-3 -23.5z"/>
<glyph glyph-name="afii10060" horiz-adv-x="804" unicode="Ћ" d="M739 20q-2 -8 -7 -14t-16 -6h-51q-11 0 -15 6t-2 14l39 221q4 23 4 45q0 27 -8.5 43.5t-24.5 25.5t-39 11.5t-53 2.5q-22 0 -68 -3.5t-96 -17.5l-58 -328q-2 -8 -6 -14t-15 -6h-55q-10 0 -13.5 6t-1.5 14l114 645h-195q-20 0 -17 16l7 44q2 8 7 13t17 5h481q18 0 15 -18 l-7 -44q-2 -8 -6.5 -12t-15.5 -4h-195l-43 -241q50 14 98.5 19.5t80.5 5.5q42 0 77 -7t59.5 -24.5t38.5 -47t14 -75.5q0 -15 -2 -32t-5 -36z"/>
<glyph glyph-name="afii10061" horiz-adv-x="607" unicode="Ќ" d="M691 733q0 -6 -5 -11l-370 -340l239 -366q2 -4 2 -6q0 -10 -11 -10h-72q-14 0 -20 10l-222 346l-59 -336q-2 -8 -5.5 -14t-16.5 -6h-55q-8 0 -11.5 5t-3.5 10q0 2 1 5l124 704q2 8 6 13.5t16 5.5h53q8 0 13 -4t3 -15l-55 -314l336 324q5 5 9.5 7t12.5 2h78q13 0 13 -10z M464 809q-8 -8 -12.5 -11.5t-12.5 -3.5h-54q-9 0 -9 6q0 5 7 11l119 124q8 8 13 11.5t14 3.5h66q10 0 10 -6q0 -4 -6 -9z"/>
<glyph glyph-name="afii10062" horiz-adv-x="588" unicode="Ў" d="M616 933q-17 -70 -64.5 -105.5t-114.5 -35.5q-29 0 -56 8t-47 25.5t-32 44t-12 63.5q0 6 3.5 11.5t14.5 5.5h33q8 0 10 -4t2 -12v-6q0 -36 22.5 -55t63.5 -19q40 0 71.5 19.5t42.5 60.5q4 16 18 16h37q8 0 9 -5.5t-1 -11.5zM359 145q-22 -39 -42 -67.5t-44.5 -47.5 t-55.5 -28t-75 -9q-21 0 -40 2t-26 4q-8 2 -13 4.5t-5 7.5v4l8 46q3 16 21 16h4q12 -1 20 -1.5t14.5 -1t13 -0.5h14.5q21 0 36 3t27 12.5t23.5 26t26.5 43.5l52 94h-5q-28 0 -38.5 13t-18.5 48l-80 404q-1 4 -1 7q0 18 20 18h53q11 0 14 -4.5t5 -9.5l75 -375q2 -13 5.5 -16 t11.5 -3h6l222 394q3 5 7.5 9.5t12.5 4.5h64q11 0 13.5 -4.5t2.5 -7.5q0 -6 -5 -13z"/>
<glyph glyph-name="afii10145" horiz-adv-x="680" unicode="Џ" d="M368 -100q-3 -20 -22 -20h-55q-8 0 -12 6t-2 14l18 100h-81q-16 0 -36 2.5t-38 12.5t-30 30t-12 54q0 20 4 40l103 584q2 8 9 14t15 6h51q8 0 13 -6t3 -14l-105 -598q-1 -6 -1.5 -10.5t-0.5 -9.5q0 -12 8 -17.5t31 -5.5h252q32 0 40.5 10t12.5 33l105 598q2 8 9 14t15 6 h51q8 0 12.5 -5t4.5 -11q0 -2 -1 -4l-107 -611q-8 -43 -26 -66t-41 -33t-47 -11.5t-42 -1.5h-80z"/>
<glyph glyph-name="afii10017" horiz-adv-x="633" unicode="А" d="M453 653q-2 18 -16 18q-15 0 -23 -18l-149 -329h221zM607 19q0 -19 -17 -19h-60q-7 0 -10 4.5t-4 10.5l-25 230h-259l-104 -230q-2 -6 -7 -10.5t-14 -4.5h-61q-14 0 -14 13q0 6 2 10l300 651q21 46 51.5 61t63.5 15q15 0 30 -3t27 -11.5t20 -23t11 -37.5l70 -652v-4z"/>
<glyph glyph-name="afii10018" horiz-adv-x="616" unicode="Б" d="M514 223q3 18 3 32q0 31 -12.5 51t-36 31.5t-56.5 16t-75 4.5q-26 0 -53 -1t-53 -3l-49 -280q24 -1 51 -2.5t53 -1.5q46 0 84.5 6t67.5 21t47.5 41t25.5 67zM600 196q-11 -63 -42 -102.5t-75 -62t-98.5 -30.5t-112.5 -8q-50 0 -91.5 2t-69.5 7q-17 2 -22.5 8.5t-5.5 17.5 q0 5 1 11l121 685q2 8 6.5 13.5t15.5 5.5h382q11 0 14 -5t3 -9q0 -3 -1 -6l-7 -41q-2 -8 -6 -14t-18 -6h-309l-41 -231q23 2 50 3t56 1q53 0 99.5 -9t81.5 -29.5t55.5 -54.5t20.5 -83q0 -11 -1 -22.5t-3 -23.5z"/>
<glyph glyph-name="afii10019" horiz-adv-x="616" unicode="В" d="M516 251q0 20 -6.5 38t-21.5 31.5t-40 21t-62 7.5h-154l-49 -275q25 -1 51 -2.5t52 -1.5q46 0 84.5 6t67.5 21t47.5 41t25.5 67q4 20 4.5 29t0.5 17zM570 583q0 28 -13 45.5t-37 27.5t-57.5 13.5t-74.5 3.5q-26 0 -52.5 -1t-47.5 -2l-44 -248h154q43 0 73 9.5t49.5 26 t30 38t15.5 45.5q3 16 3.5 21.5t0.5 9.5v11zM661 574q0 -5 -0.5 -10.5t-3.5 -22.5q-12 -63 -46 -100t-88 -57q41 -17 62.5 -52t21.5 -80q0 -8 -0.5 -17.5t-4.5 -29.5q-11 -64 -40 -105t-72 -65t-98 -33t-119 -9q-50 0 -92 2t-70 7q-27 4 -27 26q0 7 1 11l117 666q6 32 39 37 q26 3 68.5 5.5t91.5 2.5q55 0 102.5 -8.5t82.5 -27.5t55 -49t20 -73v-18z"/>
<glyph glyph-name="afii10020" horiz-adv-x="536" unicode="Г" d="M173 20q-2 -8 -6.5 -14t-16.5 -6h-51q-11 0 -14.5 5t-3.5 10q0 2 1 5l95 544q10 56 30 92t50.5 57t71.5 29t94 8q80 0 121.5 -2t67.5 -6q10 -2 12 -4.5t2 -5.5q0 -2 -1 -5l-9 -47q-2 -12 -13 -12h-193q-40 0 -65 -5.5t-40.5 -18t-23.5 -32.5t-13 -48z"/>
<glyph glyph-name="afii10021" horiz-adv-x="685" unicode="Д" d="M186 81h352l-56 572q-2 18 -16 18q-15 0 -23 -18zM88 81l273 593q10 23 24.5 37.5t30 23t31.5 12t30 3.5t28.5 -3t27 -11.5t21 -23t11.5 -37.5l63 -594h28q11 0 13 -4.5t2 -7.5t-1 -7l-28 -162q-2 -8 -6.5 -14t-15.5 -6h-55q-10 0 -13 6t-1 14l18 100h-453l-18 -100 q-2 -8 -6.5 -14t-15.5 -6h-55q-9 0 -12 5t-3 9q0 3 1 6l28 162q2 8 6.5 13.5t15.5 5.5h31z"/>
<glyph glyph-name="afii10022" horiz-adv-x="551" unicode="Е" d="M410 668q-40 0 -65 -5.5t-40.5 -18t-23.5 -32.5t-13 -48l-24 -139h307q19 0 16 -20l-6 -38q-2 -8 -6.5 -14t-17.5 -6h-307l-29 -168q-2 -12 -3.5 -22t-1.5 -19q0 -34 23 -48.5t86 -14.5h190q8 0 11 -2t1 -10l-9 -49q-1 -5 -2.5 -8.5t-9.5 -5.5q-11 -1 -34.5 -2.5 t-52 -2.5t-58 -1.5t-51.5 -0.5q-86 0 -135 35.5t-49 108.5q0 22 4 42l67 385q10 55 30 91t50.5 57t71.5 29.5t94 8.5q85 0 129.5 -2.5t64.5 -6.5q5 -1 7 -3t2 -5q0 -2 -1 -6l-9 -47q-1 -8 -4.5 -10t-8.5 -2h-193z"/>
<glyph glyph-name="afii10024" horiz-adv-x="967" unicode="Ж" d="M508 402l57 322q2 8 6 13.5t16 5.5h53q8 0 13 -4t3 -15l-55 -314l336 324q5 5 9.5 7t12.5 2h78q13 0 13 -10q0 -6 -5 -11l-370 -340l239 -366q2 -4 2 -6q0 -10 -11 -10h-72q-14 0 -20 10l-222 346l-59 -336q-2 -8 -5.5 -14t-16.5 -6h-55q-8 0 -12 6t-2 14l58 331 l-342 -341q-10 -10 -23 -10h-78q-13 0 -13 14q0 7 5 11l369 364l-236 333q-8 11 -2 16t13 5h69q8 0 11 -2t7 -7z"/>
<glyph glyph-name="afii10025" horiz-adv-x="605" unicode="З" d="M623 599q0 -33 -8.5 -65.5t-25 -60.5t-40.5 -51t-55 -37q39 -21 53.5 -56t14.5 -70q0 -69 -20.5 -119t-58.5 -83t-91.5 -48.5t-120.5 -15.5q-48 0 -89.5 6t-76.5 14q-8 2 -12 4.5t-4 8.5q0 3 1 6l6 34q2 9 6.5 14t16.5 3q45 -6 87.5 -10t77.5 -4q92 0 139 46.5t47 140.5 q0 18 -4.5 34.5t-16 30t-30 21.5t-46.5 8h-182q-8 0 -13 3.5t-3 14.5l6 35q2 8 6 13.5t16 5.5h182q36 0 63 13t45 35.5t27 52.5t9 63q0 25 -7 42t-22.5 27t-41.5 14.5t-64 4.5q-44 0 -84 -4.5t-90 -10.5h-3q-17 0 -14 17l6 35q2 11 8.5 14t14.5 5q38 8 81 14t91 6 q101 0 160 -36.5t59 -114.5z"/>
<glyph glyph-name="afii10026" horiz-adv-x="680" unicode="И" d="M205 724q2 8 6.5 13.5t15.5 5.5h53q9 0 12.5 -5.5t1.5 -13.5l-103 -585q0 -3 3 0l410 584q8 11 16 15.5t29 4.5h55q12 0 18 -6t6 -16v-6l-124 -703q-2 -8 -7 -10t-13 -2h-52q-9 0 -13 5.5t-2 13.5l103 584q1 7 -4 0l-410 -583q-8 -11 -16.5 -15.5t-20.5 -4.5h-62 q-12 0 -18 7.5t-6 16.5v5z"/>
<glyph glyph-name="afii10027" horiz-adv-x="680" unicode="Й" d="M83 29l122 695q2 8 6.5 13.5t15.5 5.5h53q9 0 12.5 -5.5t1.5 -13.5l-103 -585q0 -3 3 0l410 584q8 11 16 15.5t29 4.5h55q12 0 18 -6t6 -16v-6l-124 -703q-2 -8 -7 -10t-13 -2h-52q-9 0 -13 5.5t-2 13.5l103 584q1 7 -4 0l-410 -583q-8 -11 -16.5 -15.5t-20.5 -4.5h-62 q-12 0 -18 7.5t-6 16.5v5zM664 933q-17 -70 -64.5 -105.5t-114.5 -35.5q-29 0 -56 8t-47 25.5t-32 44t-12 63.5q0 6 3.5 11.5t14.5 5.5h33q8 0 10 -4t2 -12v-6q0 -36 22.5 -55t63.5 -19q40 0 71.5 19.5t42.5 60.5q4 16 18 16h37q9 0 9 -9q0 -4 -1 -8z"/>
<glyph glyph-name="afii10028" horiz-adv-x="607" unicode="К" d="M691 733q0 -6 -5 -11l-370 -340l239 -366q2 -4 2 -6q0 -10 -11 -10h-72q-14 0 -20 10l-222 346l-59 -336q-2 -8 -5.5 -14t-16.5 -6h-55q-8 0 -11.5 5t-3.5 10q0 2 1 5l124 704q2 8 6 13.5t16 5.5h53q8 0 13 -4t3 -15l-55 -314l336 324q5 5 9.5 7t12.5 2h78q13 0 13 -10z "/>
<glyph glyph-name="afii10029" horiz-adv-x="633" unicode="Л" d="M453 653q-2 18 -16 18q-15 0 -23 -18l-286 -638q-2 -6 -7 -10.5t-14 -4.5h-61q-14 0 -14 13q0 6 2 10l300 651q21 46 51.5 61t63.5 15q15 0 30 -3t27 -11.5t20 -23t11 -37.5l70 -652v-4q0 -19 -17 -19h-60q-7 0 -10 4.5t-4 10.5z"/>
<glyph glyph-name="afii10030" horiz-adv-x="761" unicode="М" d="M786 743q25 0 25 -21q0 -4 -1 -8l-122 -694q-2 -8 -6 -14t-18 -6h-49q-19 0 -16 20l103 588q1 6 -1 6l-3 -3l-193 -293q-10 -15 -20.5 -22t-29.5 -7h-46q-19 0 -27 7t-13 22l-88 292q-2 5 -2.5 5.5t-1.5 0.5q-2 0 -3 -8l-103 -588q-2 -8 -6.5 -14t-17.5 -6h-49 q-9 0 -13 5t-4 10q0 2 1 5l122 694q2 12 8.5 20.5t25.5 8.5h62q15 0 20.5 -3.5t8.5 -13.5l105 -343q4 -11 10 -11q4 0 6.5 2t7.5 9l225 343q6 10 13.5 13.5t21.5 3.5h68z"/>
<glyph glyph-name="afii10031" horiz-adv-x="680" unicode="Н" d="M713 743q16 0 16 -15v-5l-123 -703q-2 -8 -9 -14t-15 -6h-51q-19 0 -16 20l58 332h-342l-58 -332q-2 -8 -6 -14t-18 -6h-51q-9 0 -13 5t-4 10q0 2 1 5l123 703q2 8 6 14t18 6h51q19 0 16 -20l-51 -290h342l51 290q2 8 6 14t18 6h51z"/>
<glyph glyph-name="afii10032" horiz-adv-x="661" unicode="О" d="M594 519q0 82 -38 115.5t-107 33.5q-83 0 -140.5 -55.5t-79.5 -176.5l-23 -129q-4 -21 -5.5 -40t-1.5 -36q0 -86 38.5 -121t106.5 -35q82 0 139.5 55.5t79.5 176.5l23 129q5 23 6.5 44t1.5 39zM686 520q0 -20 -2 -40.5t-6 -43.5l-23 -129q-15 -83 -43.5 -142.5t-70 -97.5 t-95 -56t-116.5 -18q-48 0 -89 14t-71 42.5t-47 71.5t-17 102q0 20 2 40.5t6 43.5l23 129q16 89 46.5 149t73 97t95 52.5t111.5 15.5q50 0 91 -14.5t70.5 -43.5t45.5 -72t16 -100z"/>
<glyph glyph-name="afii10033" horiz-adv-x="680" unicode="П" d="M619 618q1 6 1.5 10.5t0.5 9.5q0 12 -8 17.5t-31 5.5h-252q-32 0 -40.5 -10t-12.5 -33l-105 -598q-2 -8 -8.5 -14t-14.5 -6h-51q-8 0 -13 5t-5 11q0 2 1 4l105 598q7 43 22.5 68t36 37.5t45 16t49.5 3.5h252q22 0 43.5 -4t38.5 -15t28 -30.5t11 -50.5q0 -19 -4 -38 l-103 -585q-2 -8 -8.5 -14t-14.5 -6h-51q-8 0 -13.5 6t-3.5 14z"/>
<glyph glyph-name="afii10034" horiz-adv-x="569" unicode="Р" d="M555 568q0 59 -40.5 82t-126.5 23q-24 0 -53.5 -1t-47.5 -3l-52 -293q9 0 22 -1t27 -1.5t27.5 -1t23.5 -0.5q103 0 153.5 38t61.5 110l2 13q3 19 3 35zM646 574q0 -19 -3 -41l-2 -13q-11 -68 -39.5 -111t-70.5 -68.5t-96 -35t-114 -9.5q-24 0 -52 1.5t-47 3.5l-49 -281 q-2 -8 -6 -14t-16 -6h-54q-14 0 -14 14v6l122 697q5 22 29 25q33 4 78 6t89 2q112 0 178.5 -42.5t66.5 -133.5z"/>
<glyph glyph-name="afii10035" horiz-adv-x="545" unicode="С" d="M456 750q48 0 90.5 -5.5t74.5 -10.5q6 -1 10.5 -2.5t4.5 -6.5q0 -2 -1 -4l-9 -51q-1 -12 -17 -11l-32.5 2.5t-42 3t-46 2.5t-45.5 1q-37 0 -70.5 -11.5t-62 -38.5t-49.5 -70.5t-32 -106.5l-25 -139q-4 -21 -5.5 -39t-1.5 -35q0 -42 10.5 -71t29 -47.5t44.5 -26.5t57 -8 q21 0 45 1t46.5 2.5t42 2.5t33.5 2q12 1 15.5 -2.5t1.5 -13.5l-7 -41q-2 -9 -6 -13.5t-18 -6.5q-16 -3 -32.5 -5.5t-36 -4t-43.5 -2.5t-56 -1q-38 0 -76.5 12t-70 39t-51 70.5t-19.5 107.5q0 18 1.5 38t5.5 42l25 139q17 95 51 155.5t77.5 94.5t92.5 46.5t97 12.5z"/>
<glyph glyph-name="afii10036" horiz-adv-x="590" unicode="Т" d="M345 20q-2 -8 -8 -14t-14 -6h-55q-8 0 -12 6t-2 14l113 645h-195q-8 0 -13 2.5t-5 8.5q0 2 1 5l8 44q2 11 8.5 14.5t14.5 3.5h481q8 0 12.5 -3t4.5 -9q0 -3 -1 -6l-8 -44q-2 -8 -6 -12t-16 -4h-195z"/>
<glyph glyph-name="afii10037" horiz-adv-x="588" unicode="У" d="M359 145q-22 -39 -42 -67.5t-44.5 -47.5t-55.5 -28t-75 -9q-21 0 -40 2t-26 4q-8 2 -13 4.5t-5 7.5v4l8 46q3 16 21 16h4q12 -1 20 -1.5t14.5 -1t13 -0.5h14.5q21 0 36 3t27 12.5t23.5 26t26.5 43.5l52 94h-5q-28 0 -38.5 13t-18.5 48l-80 404q-1 4 -1 7q0 18 20 18h53 q11 0 14 -4.5t5 -9.5l75 -375q2 -13 5.5 -16t11.5 -3h6l222 394q3 5 7.5 9.5t12.5 4.5h64q11 0 13.5 -4.5t2.5 -7.5q0 -6 -5 -13z"/>
<glyph glyph-name="afii10038" horiz-adv-x="789" unicode="Ф" d="M349 218h17t21 1l60 340h-38q-97 0 -149.5 -37t-65.5 -113l-6 -33q-2 -11 -3 -22t-1 -21q0 -57 38.5 -86t126.5 -29zM537 559l-60 -340q11 -1 20.5 -1h17.5q103 0 153 40t64 118l6 33q3 19 3 35q0 58 -40.5 86.5t-125.5 28.5h-38zM551 636h38q54 0 98.5 -11.5t77 -34.5 t50 -58t17.5 -83q0 -12 -1.5 -24t-3.5 -26l-6 -33q-11 -63 -39.5 -105.5t-70.5 -69t-95 -38t-114 -11.5h-18.5t-19.5 1l-22 -123q-2 -8 -6 -14t-15 -6h-54q-9 0 -13 6t-2 14l22 123q-11 -1 -20.5 -1h-17.5q-54 0 -98 12t-76 36t-49.5 60t-17.5 85q0 13 1.5 27t3.5 28l6 33 q10 60 38.5 101t70 66t94.5 35.5t114 10.5h38l16 94q2 8 6.5 14t15.5 6h54q10 0 13 -6t1 -14z"/>
<glyph glyph-name="afii10039" horiz-adv-x="646" unicode="Х" d="M719 731q0 -5 -5 -12l-279 -345l164 -349q2 -6 2 -8q0 -7 -5 -12t-14 -5h-50q-8 0 -11 3.5t-7 11.5l-135 288l-233 -288q-12 -15 -24 -15h-60q-14 0 -14 12q0 6 5 13l290 355l-159 339q-2 4 -2 7q0 7 5 12t13 5h51q8 0 11 -2.5t5 -7.5l133 -284l232 284q5 7 10 8.5 t11 1.5h52q14 0 14 -12z"/>
<glyph glyph-name="afii10040" horiz-adv-x="687" unicode="Ц" d="M222 0q-21 0 -45.5 5t-44 19t-27.5 34.5t-8 40.5q0 16 4 35l104 589q2 8 9 14t15 6h51q8 0 13 -6t3 -14l-106 -599q-2 -11 -2 -19.5t3.5 -13.5t12 -7.5t24.5 -2.5h252q16 0 25.5 2.5t14.5 7.5t7.5 13.5t4.5 19.5l106 599q2 8 9 14t15 6h51q8 0 12.5 -5t4.5 -11 q0 -2 -1 -4l-105 -598q-2 -13 -5.5 -23.5t-7.5 -20.5h52q17 0 14 -19l-28 -162q-2 -8 -8 -14t-14 -6h-55q-8 0 -12 6t-2 14l18 100h-354z"/>
<glyph glyph-name="afii10041" horiz-adv-x="637" unicode="Ч" d="M562 20q-2 -8 -7 -14t-16 -6h-51q-10 0 -14.5 6t-2.5 14l51 289q-38 -8 -89 -13.5t-92 -5.5q-40 0 -74.5 9t-60 29.5t-40 52t-14.5 76.5q0 26 6 58l37 208q2 8 7.5 14t16.5 6h51q8 0 13 -6t3 -14l-39 -221q-2 -12 -3 -23t-1 -21q0 -50 31.5 -67.5t101.5 -17.5 q12 0 34 1.5t46.5 4t46.5 5t33 5.5l59 334q2 8 6.5 14t15.5 6h55q9 0 12 -5t3 -9q0 -3 -1 -6z"/>
<glyph glyph-name="afii10042" horiz-adv-x="933" unicode="Ш" d="M891 723q2 8 9 14t15 6h51q8 0 12.5 -5t4.5 -11q0 -2 -1 -4l-106 -599q-8 -43 -23.5 -68t-36.5 -37.5t-46 -15.5t-51 -3h-497q-21 0 -46 3.5t-44 17.5t-26 35.5t-7 41.5q0 19 4 44l102 581q2 8 9 14t15 6h51q8 0 13 -6t3 -14l-106 -599q-2 -11 -2 -19.5t3.5 -13.5 t12 -7.5t24.5 -2.5h207l113 642q2 8 9 14t15 6h51q8 0 13 -6t3 -14l-113 -642h207q16 0 25.5 2.5t14.5 7.5t7.5 13.5t4.5 19.5z"/>
<glyph glyph-name="afii10043" horiz-adv-x="945" unicode="Щ" d="M733 81q16 0 25.5 2.5t14.5 7.5t7.5 13.5t4.5 19.5l106 599q2 8 7 14t17 6h51q8 0 12.5 -5t4.5 -11q0 -2 -1 -4l-106 -599q-2 -16 -5 -25t-7 -18h52q17 0 14 -19l-28 -162q-2 -8 -8 -14t-14 -6h-55q-8 0 -12 6t-2 14l18 100h-605q-18 0 -43 3.5t-45 17.5t-29 36t-9 44 q0 17 4 39l103 583q2 8 7.5 14t16.5 6h51q8 0 13 -6t3 -14l-106 -599q-2 -11 -2 -19.5t3.5 -13.5t12 -7.5t24.5 -2.5h207l113 642q2 8 7 14t17 6h51q8 0 13 -6t3 -14l-113 -642h207z"/>
<glyph glyph-name="afii10044" horiz-adv-x="677" unicode="Ъ" d="M590 223q3 18 3 32q0 31 -12.5 51t-36 31.5t-56.5 16t-75 4.5q-26 0 -53 -1t-53 -3l-49 -280q24 -1 51 -2.5t53 -1.5q46 0 84.5 6t67.5 21t47.5 41t25.5 67zM677 195q-11 -63 -42 -102.5t-75.5 -61.5t-99 -30t-112.5 -8q-50 0 -91.5 2t-69.5 7q-17 2 -23.5 10t-3.5 27 l110 623h-109q-8 0 -12.5 5t-4.5 11q0 2 1 4l7 41q2 8 7 14t17 6h182q17 0 14 -19l-52 -293q23 2 52 3t67 1q49 0 93.5 -9t78 -30t53.5 -55t20 -83q0 -11 -1 -22.5t-3 -23.5z"/>
<glyph glyph-name="afii10045" horiz-adv-x="863" unicode="Ы" d="M514 223q3 18 3 32q0 31 -12.5 51t-36 31.5t-56.5 16t-75 4.5q-26 0 -53 -1t-53 -3l-49 -280q24 -1 51 -2.5t53 -1.5q46 0 84.5 6t67.5 21t47.5 41t25.5 67zM599 194q-11 -63 -41.5 -102.5t-74.5 -61t-98.5 -29.5t-112.5 -8q-50 0 -91.5 2t-69.5 7q-17 2 -22.5 8.5 t-5.5 17.5q0 5 1 11l121 685q2 8 8 13.5t14 5.5h55q17 0 14 -19l-52 -293q23 2 50 3t56 1q55 0 102 -9.5t81 -30.5t53.5 -55t19.5 -83q0 -11 -1 -22.5t-3 -23.5zM788 20q-2 -8 -6 -14t-15 -6h-55q-9 0 -12.5 5t-3.5 10q0 2 1 5l124 704q2 8 6.5 13.5t15.5 5.5h55 q14 0 14 -14v-5z"/>
<glyph glyph-name="afii10046" horiz-adv-x="601" unicode="Ь" d="M514 223q3 18 3 32q0 31 -12.5 51t-36 31.5t-56.5 16t-75 4.5q-26 0 -53 -1t-53 -3l-49 -280q24 -1 51 -2.5t53 -1.5q46 0 84.5 6t67.5 21t47.5 41t25.5 67zM599 194q-11 -63 -41.5 -102.5t-74.5 -61t-98.5 -29.5t-112.5 -8q-50 0 -91.5 2t-69.5 7q-17 2 -22.5 8.5 t-5.5 17.5q0 5 1 11l121 685q2 8 8 13.5t14 5.5h55q17 0 14 -19l-52 -293q23 2 50 3t56 1q55 0 102 -9.5t81 -30.5t53.5 -55t19.5 -83q0 -11 -1 -22.5t-3 -23.5z"/>
<glyph glyph-name="afii10047" horiz-adv-x="573" unicode="Э" d="M521 425q6 37 6 68q0 50 -14 83.5t-38.5 54t-58 29t-72.5 8.5q-29 0 -51.5 -0.5t-40.5 -1.5t-32.5 -2.5t-28.5 -2.5q-20 -2 -17 16l7 40q2 11 8.5 14.5t14.5 5.5q16 3 30.5 5.5t31 4t37 2.5t49.5 1q50 0 97.5 -13t85 -43t60.5 -79t23 -122q0 -23 -2.5 -47.5t-7.5 -51.5 l-14 -75q-19 -102 -58.5 -166t-90 -99.5t-108 -48t-111.5 -12.5q-32 0 -53.5 1t-38 2.5t-30 4t-28.5 5.5q-8 2 -13 6t-5 10q0 2 1 4l7 40q3 16 19 16h4q13 -1 27.5 -2.5t32 -2.5t40 -1.5t51.5 -0.5q43 0 84.5 12t77.5 41.5t63 79.5t40 126l3 13h-330q-10 0 -14.5 6t-2.5 14 l7 38q2 8 7 14t16 6h330z"/>
<glyph glyph-name="afii10048" horiz-adv-x="928" unicode="Ю" d="M860 519q0 82 -38 115.5t-107 33.5q-83 0 -140.5 -55.5t-79.5 -176.5l-23 -129q-4 -21 -5.5 -40t-1.5 -36q0 -86 38.5 -121t106.5 -35q82 0 139.5 55.5t79.5 176.5l23 129q5 23 6.5 44t1.5 39zM292 743q18 0 15 -19l-55 -311h147l4 23q16 89 46.5 149t73 97t95 52.5 t111.5 15.5q50 0 91 -14.5t70.5 -43.5t45.5 -72t16 -100q0 -20 -2 -40.5t-6 -43.5l-23 -129q-15 -83 -43.5 -142.5t-70 -97.5t-95 -56t-116.5 -18q-48 0 -89 14t-71 42.5t-47 71.5t-17 102q0 20 2 40.5t6 43.5l4 25h-146l-55 -312q-3 -20 -22 -20h-55q-10 0 -12.5 5t-2.5 9 q0 3 1 6l124 704q2 8 6 13.5t15 5.5h55z"/>
<glyph glyph-name="afii10049" horiz-adv-x="634" unicode="Я" d="M583 665q-9 1 -23 1.5t-29 1t-30.5 0.5h-27.5q-94 0 -147 -29t-66 -104l-1 -7q-3 -20 -3 -36q0 -59 43.5 -81t124.5 -22h17h20t29.5 0.5t43.5 1.5zM559 20q-2 -8 -6 -14t-15 -6h-54q-10 0 -13.5 6t-1.5 14l52 294q-30 -2 -54.5 -2.5t-56.5 -0.5h-26l-231 -298 q-8 -10 -13.5 -11.5t-14.5 -1.5h-64q-11 0 -11 11q0 6 4 11l236 304q-54 17 -88.5 61.5t-34.5 110.5q0 11 1 22t3 22l1 7q10 61 38.5 100t70.5 61.5t95 31t112 8.5q44 0 93 -2t81 -6q14 -2 17.5 -6t3.5 -9q0 -3 -1 -7z"/>
<glyph glyph-name="afii10065" horiz-adv-x="519" unicode="а" d="M409 266h-74q-45 0 -75.5 -5.5t-50 -17t-29.5 -30t-15 -45.5l-2 -12q-3 -17 -3 -29q0 -36 21 -49t58 -13q35 0 68.5 10t73.5 30zM454 20q-2 -8 -8.5 -14t-14.5 -6h-46q-8 0 -13.5 6t-3.5 14l4 22q-40 -21 -80.5 -35t-82.5 -14q-28 0 -52.5 7.5t-43 23.5t-29.5 41t-11 60 q0 11 1 21.5t3 22.5l2 12q7 40 24.5 68.5t48.5 46t77 25.5t110 8h82l7 40q2 11 3 21t1 19q0 41 -22 57t-70 16q-49 0 -86 -2.5t-68 -5.5q-8 -1 -15 2t-5 14l6 35q3 16 24 19q32 5 68.5 9t84.5 4q91 0 131 -37t40 -105q0 -13 -1.5 -26.5t-3.5 -27.5z"/>
<glyph glyph-name="afii10066" horiz-adv-x="545" unicode="б" d="M456 289q6 34 6 62q0 55 -25.5 84.5t-83.5 29.5q-72 0 -111 -45.5t-54 -130.5l-8 -46q-6 -33 -6 -61q0 -55 25.5 -84t83.5 -29q72 0 111.5 44.5t53.5 129.5zM535 230q-20 -116 -84.5 -176.5t-181.5 -60.5q-92 0 -136.5 54t-44.5 141q0 17 2 35t5 37l8 46q14 81 29 143 t43 106.5t75.5 73.5t127.5 44l75 14q39 8 54.5 21.5t21.5 30.5q3 13 17 13h56q5 0 8 -2t3 -6q0 -2 -1 -5q-7 -29 -22 -49.5t-36 -35t-45 -23t-49 -13.5l-77 -16q-56 -11 -93 -31.5t-51 -69.5q20 15 53 27t75 12q91 0 137 -50.5t46 -139.5q0 -17 -1.5 -35.5t-5.5 -38.5z"/>
<glyph glyph-name="afii10067" horiz-adv-x="553" unicode="в" d="M438 168q1 5 1.5 9.5t0.5 9.5q0 22 -10.5 35t-27 19.5t-37 8t-40.5 1.5h-125l-33 -185q23 -1 43 -1.5t43 -0.5q92 0 134 23t50 74zM474 408q1 5 1 8.5v7.5q0 36 -36 48.5t-105 12.5h-49t-44 -1l-29 -165h125q22 0 44.5 2t41 10.5t32 25t18.5 45.5zM525 153 q-8 -47 -33 -78t-62 -49t-85 -25.5t-102 -7.5q-14 0 -34 0.5t-41 1t-40.5 1.5t-31.5 3q-24 3 -24 22v6l88 496q5 26 33 29q22 2 62.5 3.5t97.5 1.5q41 0 79 -5t67.5 -19t47.5 -38.5t18 -63.5q0 -15 -3 -31l-1 -6q-7 -35 -29 -64t-62 -44q32 -14 45 -41.5t13 -58.5 q0 -7 -0.5 -13t-1.5 -13z"/>
<glyph glyph-name="afii10068" horiz-adv-x="414" unicode="г" d="M277 474q-23 0 -32 -7.5t-13 -30.5l-73 -416q-2 -8 -7 -14t-16 -6h-48q-10 0 -14 5t-4 10q0 2 1 5l73 416q7 43 21.5 66t34 33.5t42.5 12.5t48 2h175q12 0 15 -5t3 -9q0 -3 -1 -6l-6 -36q-2 -8 -6.5 -14t-17.5 -6h-175z"/>
<glyph glyph-name="afii10069" horiz-adv-x="602" unicode="д" d="M185 76h249l-37 384q-2 18 -16 18q-15 0 -23 -18zM570 76q11 0 14.5 -5.5t2.5 -13.5l-26 -146q-2 -8 -6 -14t-18 -6h-47q-11 0 -14.5 6t-1.5 14l16 89h-378l-16 -89q-2 -8 -6.5 -14t-17.5 -6h-47q-12 0 -14.5 5t-2.5 9q0 3 1 6l26 146q2 19 23 19h33l187 405q21 46 50 61 t66 15q16 0 31 -3t26.5 -11.5t19.5 -23t10 -37.5l43 -406h46z"/>
<glyph glyph-name="afii10070" horiz-adv-x="544" unicode="е" d="M467 374q0 106 -108 106q-33 0 -60 -12t-47.5 -34t-34.5 -51.5t-21 -63.5l-1 -5h265l1 5q6 30 6 55zM555 371q0 -29 -6 -60l-8 -42q-2 -10 -6.5 -16t-15.5 -6h-337l-2 -12q-6 -35 -6 -61q0 -57 33 -82t91 -25q44 0 91 4.5t82 9.5q22 3 19 -14l-6 -34q-2 -11 -6.5 -16 t-17.5 -7q-45 -8 -84.5 -12.5t-90.5 -4.5q-37 0 -72.5 10t-63 32t-44.5 57t-17 86q0 29 6 62l13 70q23 120 90.5 183.5t174.5 63.5q46 0 80.5 -14.5t57.5 -39.5t34 -59t11 -73z"/>
<glyph glyph-name="afii10072" horiz-adv-x="780" unicode="ж" d="M731 13q-2 -13 -13 -13h-68q-8 0 -12 2.5t-9 10.5l-156 246l-42 -239q-2 -8 -8.5 -14t-14.5 -6h-48q-8 0 -13.5 6t-3.5 14l42 239l-242 -246q-8 -8 -12 -10.5t-13 -2.5h-78q-10 0 -10 11q0 6 5 11l276 275l-174 231q-7 8 -2.5 15t15.5 7h66q13 0 19 -9l160 -225l38 214 q2 8 8.5 14t14.5 6h48q8 0 13.5 -6t3.5 -14l-38 -214l240 225q5 5 9 7t12 2h81q14 0 14 -9q0 -6 -7 -13l-273 -247l170 -259q2 -2 2 -9z"/>
<glyph glyph-name="afii10073" horiz-adv-x="506" unicode="з" d="M474 151q-8 -43 -30.5 -73t-55.5 -49t-75 -27.5t-89 -8.5q-41 0 -77.5 3.5t-65.5 9.5q-6 2 -12.5 5t-4.5 13l6 35q2 12 7.5 15t16.5 2q38 -5 75.5 -7t67.5 -2q69 0 102.5 21t43.5 71l2 10q2 6 2 11.5v10.5q0 27 -19 43.5t-66 16.5h-156q-19 0 -16 17l6 34q2 8 6.5 12.5 t15.5 4.5h156q30 0 49.5 6.5t32 18t19.5 26t10 30.5q3 13 4 19t1 11q0 30 -28.5 41.5t-91.5 11.5q-38 0 -70.5 -2.5t-75.5 -6.5q-8 -1 -14 2t-4 15l6 35q2 10 9 13t14 5q32 6 70 9.5t79 3.5q92 0 144.5 -27.5t52.5 -91.5q0 -9 -1 -19.5t-6 -27.5q-8 -32 -30 -59.5t-63 -46.5 q33 -17 44.5 -40t11.5 -54q0 -8 -0.5 -15.5t-1.5 -15.5z"/>
<glyph glyph-name="afii10074" horiz-adv-x="570" unicode="и" d="M160 531q3 19 21 19h52q8 0 12.5 -4.5t2.5 -14.5l-69 -392q-1 -2 0 -2.5t3 1.5l302 392q11 14 19.5 17t24.5 3h52q14 0 17.5 -4.5t3.5 -13.5q0 -4 -1 -10l-89 -502q-2 -9 -7.5 -14.5t-13.5 -5.5h-52q-8 0 -12.5 5.5t-2.5 13.5l69 390q0 7 -4 1l-302 -394 q-8 -11 -15 -13.5t-19 -2.5h-56q-12 0 -18 7.5t-6 16.5v5z"/>
<glyph glyph-name="afii10075" horiz-adv-x="570" unicode="й" d="M72 29l88 502q3 19 21 19h52q8 0 12.5 -4.5t2.5 -14.5l-69 -392q-1 -2 0 -2.5t3 1.5l302 392q11 14 19.5 17t24.5 3h52q14 0 17.5 -4.5t3.5 -13.5q0 -4 -1 -10l-89 -502q-2 -9 -7.5 -14.5t-13.5 -5.5h-52q-8 0 -12.5 5.5t-2.5 13.5l69 390q0 7 -4 1l-302 -394 q-8 -11 -15 -13.5t-19 -2.5h-56q-12 0 -18 7.5t-6 16.5v5zM577 762q-17 -70 -64.5 -105.5t-114.5 -35.5q-29 0 -56 8t-47 25.5t-32 44t-12 63.5q0 6 3.5 11.5t14.5 5.5h33q8 0 10 -4t2 -12v-6q0 -36 22.5 -55t63.5 -19q40 0 71.5 19.5t42.5 60.5q4 16 18 16h37q9 0 9 -9 q0 -4 -1 -8z"/>
<glyph glyph-name="afii10076" horiz-adv-x="496" unicode="к" d="M378 0q-8 0 -12 2.5t-9 10.5l-156 246l-42 -239q-2 -8 -7 -14t-16 -6h-48q-11 0 -14.5 5t-3.5 10q0 2 1 5l90 510q2 8 7 14t16 6h48q10 0 14.5 -6t2.5 -14l-38 -214l240 225q5 5 9 7t12 2h74q15 0 15 -11q0 -7 -4 -11l-270 -245l170 -261q5 -7 2.5 -14.5t-13.5 -7.5h-68z "/>
<glyph glyph-name="afii10077" horiz-adv-x="538" unicode="л" d="M374 460q-2 18 -16 18q-15 0 -23 -18l-200 -445q-3 -7 -7 -11t-13 -4h-63q-8 0 -12 7q-2 3 -2 7t2 9l212 458q10 23 24 37t30 24q15 8 30 12t28 3q14 0 30 -3q16 -4 28 -12t22 -22q8 -14 11 -38l51 -459v-5q0 -18 -20 -18h-55q-8 0 -11 4t-4 11z"/>
<glyph glyph-name="afii10078" horiz-adv-x="663" unicode="м" d="M598 20q-3 -20 -23 -20h-46q-9 0 -14 6t-3 14l74 421l-152 -210q-9 -12 -19.5 -18t-27.5 -6h-39q-17 0 -25.5 6t-13.5 18l-78 210l-74 -421q-2 -8 -6.5 -14t-16.5 -6h-46q-10 0 -14 5t-4 10q0 2 1 5l90 510q2 8 7 14t16 6h62q12 0 19.5 -3t10.5 -12l96 -256q2 -5 5 -5 t6 5l186 256q6 9 14 12t20 3h68q10 0 14 -5t4 -10q0 -2 -1 -5z"/>
<glyph glyph-name="afii10079" horiz-adv-x="577" unicode="н" d="M512 20q-2 -8 -7 -14t-16 -6h-48q-11 0 -15 6t-2 14l39 223h-265l-39 -223q-2 -8 -7 -14t-16 -6h-48q-11 0 -14.5 5t-3.5 10q0 2 1 5l90 510q2 8 7 14t16 6h48q11 0 15 -6t2 -14l-37 -212h265l37 212q2 8 6 14t17 6h48q11 0 14.5 -5t3.5 -10q0 -2 -1 -5z"/>
<glyph glyph-name="afii10080" horiz-adv-x="545" unicode="о" d="M467 370q0 54 -25.5 82t-84.5 28q-66 0 -108.5 -45t-55.5 -122l-13 -76q-6 -33 -6 -59q0 -54 25.5 -81t84.5 -27q33 0 60.5 12.5t48.5 34.5t35.5 52.5t20.5 67.5l13 76q3 16 4 30t1 27zM555 369q0 -14 -1.5 -28t-3.5 -28l-13 -76q-10 -57 -30.5 -102.5t-53 -77t-78 -48 t-104.5 -16.5q-45 0 -79.5 14t-57.5 39t-35 59.5t-12 76.5q0 14 1.5 27.5t3.5 27.5l13 76q42 244 265 244q46 0 80.5 -14t58 -39t35 -59.5t11.5 -75.5z"/>
<glyph glyph-name="afii10081" horiz-adv-x="577" unicode="п" d="M512 20q-2 -8 -8.5 -14t-14.5 -6h-48q-8 0 -13.5 6t-3.5 14l73 416q1 5 1.5 9t0.5 7q0 13 -7.5 17.5t-25.5 4.5h-189q-23 0 -32 -7.5t-13 -30.5l-73 -416q-2 -8 -8.5 -14t-14.5 -6h-48q-8 0 -13 5t-5 11q0 2 1 4l74 424q7 39 23 60.5t36.5 31.5t43 12t42.5 2h189 q15 0 34 -2t35.5 -11t27.5 -26.5t11 -48.5q0 -16 -3 -34z"/>
<glyph glyph-name="afii10082" horiz-adv-x="541" unicode="р" d="M465 379q0 51 -24 77.5t-83 26.5q-32 0 -65 -3t-54 -7l-69 -396q24 -5 57.5 -7.5t57.5 -2.5q69 0 107.5 46.5t52.5 124.5l13 72q4 20 5.5 37t1.5 32zM552 374q0 -31 -6 -64l-13 -72q-23 -128 -84.5 -186.5t-176.5 -58.5q-23 0 -55 3t-60 8l-32 -181q-2 -8 -8.5 -13.5 t-14.5 -5.5h-51q-14 0 -14 15v3v1l121 688q2 11 6.5 15.5t18.5 7.5q42 10 92 16.5t96 6.5q92 0 136.5 -50.5t44.5 -132.5z"/>
<glyph glyph-name="afii10083" horiz-adv-x="452" unicode="с" d="M348 480q-60 0 -101 -44t-54 -122l-13 -78q-6 -35 -6 -60q0 -57 26 -81.5t75 -24.5q37 0 65 1.5t61 5.5q12 2 16 -2.5t2 -12.5l-6 -36q-2 -11 -7 -15.5t-17 -6.5q-25 -5 -58.5 -8t-68.5 -3q-44 0 -77 14.5t-54.5 39.5t-32.5 59.5t-11 74.5q0 14 1.5 27.5t3.5 27.5l13 78 q20 122 86.5 182.5t169.5 60.5q35 0 67 -3t56 -8q14 -2 15.5 -6t1.5 -7q0 -4 -1 -9l-6 -36q-2 -8 -6 -12.5t-18 -2.5q-32 4 -58.5 5.5t-63.5 1.5z"/>
<glyph glyph-name="afii10084" horiz-adv-x="528" unicode="т" d="M580 497q-2 -8 -6.5 -14t-16.5 -6h-165l-81 -457q-2 -8 -6.5 -14t-16.5 -6h-48q-10 0 -14.5 6t-2.5 14l81 457h-165q-10 0 -14 5t-4 10q0 2 1 5l6 33q2 8 7 14t16 6h418q11 0 14.5 -5t3.5 -10q0 -2 -1 -5z"/>
<glyph glyph-name="afii10085" horiz-adv-x="534" unicode="у" d="M592 537q0 -5 -3 -11l-267 -576q-19 -41 -37.5 -69t-42.5 -45.5t-55 -25.5t-74 -8q-21 0 -44 2.5t-38 6.5q-8 2 -14.5 5t-4.5 11l7 37q2 11 6.5 14.5t18.5 1.5q8 -1 19.5 -2t24 -2t24.5 -1.5t20 -0.5q21 0 37.5 3.5t30 13t24.5 26t22 42.5l17 41h-11q-12 0 -22.5 3 t-19.5 11.5t-15 23.5t-9 40l-51 448q-2 16 4 20t17 4h52q9 0 11 -5t3 -11l42 -434q2 -15 6 -18.5t9 -3.5h16l202 457q3 8 7 11.5t15 3.5h59q14 0 14 -13z"/>
<glyph glyph-name="afii10086" horiz-adv-x="830" unicode="ф" d="M279 67q17 0 47.5 2t57.5 5l71 404q-20 2 -44 3.5t-50 1.5q-40 0 -69 -12t-48.5 -34.5t-32 -54.5t-19.5 -72l-13 -72q-6 -35 -6 -62q0 -52 24 -80.5t82 -28.5zM639 483q-26 0 -51 -1.5t-45 -3.5l-71 -404q25 -3 54 -5t47 -2q74 0 110 45t50 126l13 72q6 34 6 64 q0 51 -25 80t-88 29zM556 552q26 3 51.5 4t42.5 1q51 0 87.5 -13.5t59 -37.5t33 -57.5t10.5 -73.5q0 -18 -2 -37.5t-6 -40.5l-13 -72q-20 -118 -83 -175t-176 -57q-19 0 -47 2.5t-54 5.5l-32 -178q-1 -8 -6 -13.5t-16 -5.5h-51q-18 0 -15 19l32 178q-28 -3 -57 -5.5 t-48 -2.5q-91 0 -135 50.5t-44 138.5q0 17 2 35t5 38l13 72q10 56 29.5 99t52 72t78.5 44t109 15q16 0 41.5 -1t50.5 -4l32 180q2 8 6 14t17 6h48q11 0 15 -6t2 -14z"/>
<glyph glyph-name="afii10087" horiz-adv-x="547" unicode="х" d="M594 540q0 -7 -7 -15l-214 -243l134 -259q3 -5 3 -10q0 -13 -16 -13h-56q-8 0 -12 3t-8 11l-104 201l-181 -205q-6 -7 -9 -8.5t-10 -1.5h-58q-14 0 -14 8t6 15l230 262l-124 240q-3 6 -3 10q0 7 5 11t12 4h55q10 0 18 -14l96 -185l162 185q8 9 12 11.5t11 2.5h61 q11 0 11 -10z"/>
<glyph glyph-name="afii10088" horiz-adv-x="584" unicode="ц" d="M514 530q2 8 7 14t16 6h48q11 0 14.5 -5t3.5 -10q0 -2 -1 -5l-74 -417q-2 -11 -4 -19t-6 -18h39q20 0 17 -19l-26 -146q-2 -9 -7 -14.5t-17 -5.5h-47q-10 0 -14 6t-2 14l16 89h-283q-15 0 -34 3t-35 12.5t-27 28t-11 49.5q0 14 3 34l71 403q2 8 7 14t16 6h48q11 0 15 -6 t2 -14l-73 -416q-2 -9 -2 -16q0 -10 5 -16t28 -6h189q23 0 32 7.5t13 30.5z"/>
<glyph glyph-name="afii10089" horiz-adv-x="545" unicode="ч" d="M480 20q-3 -20 -23 -20h-48q-11 0 -15 6t-2 14l36 205q-32 -5 -73.5 -9t-74.5 -4q-35 0 -65.5 6.5t-53 21.5t-35.5 40t-13 62q0 22 4 42l26 146q2 8 6.5 14t16.5 6h48q11 0 15 -6t2 -14l-28 -158q-3 -15 -3 -28q0 -35 25 -48t85 -13q9 0 26.5 1t37 2.5t37.5 3.5t29 4 l42 236q2 8 6.5 14t16.5 6h48q11 0 14.5 -5t3.5 -10q0 -2 -1 -5z"/>
<glyph glyph-name="afii10090" horiz-adv-x="810" unicode="ш" d="M762 114q-8 -43 -23.5 -66t-35.5 -33.5t-43 -12.5t-44 -2h-419q-15 0 -34.5 2.5t-36 12t-28 27.5t-11.5 49q0 15 3 33l71 406q2 8 7 14t16 6h48q10 0 14.5 -6t2.5 -14l-73 -416q-1 -5 -1.5 -8.5t-0.5 -7.5q0 -13 7.5 -17.5t25.5 -4.5h167l80 454q2 8 7 14t16 6h48 q9 0 14 -6t3 -14l-80 -454h167q23 0 32 7.5t13 30.5l73 416q2 8 7 14t16 6h46q11 0 15.5 -5t4.5 -11q0 -2 -1 -4z"/>
<glyph glyph-name="afii10091" horiz-adv-x="822" unicode="щ" d="M761 113q-2 -14 -4.5 -22t-5.5 -15h36q23 0 20 -19l-26 -146q-2 -10 -6.5 -15t-17.5 -5h-47q-8 0 -13 4.5t-3 15.5l16 89h-512q-17 0 -36.5 2.5t-36 12t-27.5 28t-11 49.5q0 14 3 34l71 404q2 8 7 14t16 6h48q9 0 14 -6t3 -14l-73 -416q-1 -5 -1.5 -9t-0.5 -7 q0 -13 7.5 -17.5t25.5 -4.5h167l80 454q2 8 6 14t17 6h48q11 0 15 -6t2 -14l-80 -454h167q23 0 32 7.5t13 30.5l73 416q2 8 7 14t16 6h48q11 0 14.5 -5t3.5 -10q0 -2 -1 -5z"/>
<glyph glyph-name="afii10092" horiz-adv-x="595" unicode="ъ" d="M220 72q22 -1 45 -2t46 -1q39 0 73 6t59 19.5t39.5 36t14.5 55.5q0 41 -39 58t-113 17q-23 0 -46.5 -1t-45.5 -2zM267 335q22 1 46 1.5t48 0.5q49 0 90.5 -7t71.5 -24t47 -45t17 -70q0 -90 -73.5 -144t-209.5 -54q-47 0 -89 1.5t-67 4.5q-14 2 -20 7.5t-4 20.5l79 447 h-83q-12 0 -15.5 5t-3.5 10q0 2 1 5l6 36q2 8 7 14t16 6h150q14 0 18 -6t2 -14z"/>
<glyph glyph-name="afii10093" horiz-adv-x="747" unicode="ы" d="M443 172q1 5 1 9v8q0 41 -38.5 56.5t-112.5 15.5q-23 0 -46.5 -1t-45.5 -2l-33 -186q42 -3 97 -3q77 0 124 22t53 73zM531 155q-8 -47 -33 -78t-62.5 -50t-85.5 -26.5t-102 -7.5q-44 0 -85 1t-67 5q-14 2 -19 7.5t-5 13.5v7l89 503q2 8 7 14t16 6h48q10 0 14.5 -6 t2.5 -14l-34 -195q22 1 46 1.5t48 0.5q49 0 90.5 -8t71.5 -25t47 -43.5t17 -64.5q0 -15 -3 -33zM672 20q-2 -8 -6 -14t-17 -6h-48q-11 0 -14.5 5t-3.5 10q0 2 1 5l90 510q2 8 6.5 14t16.5 6h48q12 0 15 -5t3 -9q0 -3 -1 -6z"/>
</font>
</defs>
</svg>
